G04 #@! TF.GenerationSoftware,KiCad,Pcbnew,5.1.4+dfsg1-1*
G04 #@! TF.CreationDate,2019-12-03T12:49:09+09:00*
G04 #@! TF.ProjectId,Drone,44726f6e-652e-46b6-9963-61645f706362,rev?*
G04 #@! TF.SameCoordinates,Original*
G04 #@! TF.FileFunction,Copper,L2,Bot*
G04 #@! TF.FilePolarity,Positive*
%FSLAX46Y46*%
G04 Gerber Fmt 4.6, Leading zero omitted, Abs format (unit mm)*
G04 Created by KiCad (PCBNEW 5.1.4+dfsg1-1) date 2019-12-03 12:49:09*
%MOMM*%
%LPD*%
G04 APERTURE LIST*
%ADD10C,2.000000*%
%ADD11R,1.700000X1.700000*%
%ADD12O,1.700000X1.700000*%
%ADD13C,0.100000*%
%ADD14C,1.050000*%
%ADD15R,9.400000X10.800000*%
%ADD16R,4.600000X1.100000*%
%ADD17O,1.275000X1.800000*%
%ADD18R,1.275000X1.800000*%
%ADD19C,6.500000*%
%ADD20C,1.000000*%
%ADD21R,1.400000X1.400000*%
%ADD22C,0.600000*%
%ADD23C,1.200000*%
%ADD24R,0.700000X0.900000*%
%ADD25C,1.150000*%
%ADD26C,2.780000*%
%ADD27C,0.800000*%
%ADD28C,1.270000*%
%ADD29C,0.508000*%
%ADD30C,0.250000*%
%ADD31C,6.350000*%
%ADD32C,0.254000*%
G04 APERTURE END LIST*
D10*
X112395000Y-89590000D03*
X112395000Y-85090000D03*
X118895000Y-89590000D03*
X118895000Y-85090000D03*
D11*
X132080000Y-83820000D03*
D12*
X132080000Y-86360000D03*
X132080000Y-88900000D03*
X132080000Y-91440000D03*
D11*
X121920000Y-83820000D03*
D12*
X121920000Y-86360000D03*
X121920000Y-88900000D03*
X121920000Y-91440000D03*
D13*
G36*
X103793229Y-104201264D02*
G01*
X103818711Y-104205044D01*
X103843700Y-104211303D01*
X103867954Y-104219982D01*
X103891242Y-104230996D01*
X103913337Y-104244239D01*
X103934028Y-104259585D01*
X103953116Y-104276884D01*
X103970415Y-104295972D01*
X103985761Y-104316663D01*
X103999004Y-104338758D01*
X104010018Y-104362046D01*
X104018697Y-104386300D01*
X104024956Y-104411289D01*
X104028736Y-104436771D01*
X104030000Y-104462500D01*
X104030000Y-105087500D01*
X104028736Y-105113229D01*
X104024956Y-105138711D01*
X104018697Y-105163700D01*
X104010018Y-105187954D01*
X103999004Y-105211242D01*
X103985761Y-105233337D01*
X103970415Y-105254028D01*
X103953116Y-105273116D01*
X103934028Y-105290415D01*
X103913337Y-105305761D01*
X103891242Y-105319004D01*
X103867954Y-105330018D01*
X103843700Y-105338697D01*
X103818711Y-105344956D01*
X103793229Y-105348736D01*
X103767500Y-105350000D01*
X103242500Y-105350000D01*
X103216771Y-105348736D01*
X103191289Y-105344956D01*
X103166300Y-105338697D01*
X103142046Y-105330018D01*
X103118758Y-105319004D01*
X103096663Y-105305761D01*
X103075972Y-105290415D01*
X103056884Y-105273116D01*
X103039585Y-105254028D01*
X103024239Y-105233337D01*
X103010996Y-105211242D01*
X102999982Y-105187954D01*
X102991303Y-105163700D01*
X102985044Y-105138711D01*
X102981264Y-105113229D01*
X102980000Y-105087500D01*
X102980000Y-104462500D01*
X102981264Y-104436771D01*
X102985044Y-104411289D01*
X102991303Y-104386300D01*
X102999982Y-104362046D01*
X103010996Y-104338758D01*
X103024239Y-104316663D01*
X103039585Y-104295972D01*
X103056884Y-104276884D01*
X103075972Y-104259585D01*
X103096663Y-104244239D01*
X103118758Y-104230996D01*
X103142046Y-104219982D01*
X103166300Y-104211303D01*
X103191289Y-104205044D01*
X103216771Y-104201264D01*
X103242500Y-104200000D01*
X103767500Y-104200000D01*
X103793229Y-104201264D01*
X103793229Y-104201264D01*
G37*
D14*
X103505000Y-104775000D03*
D13*
G36*
X103793229Y-102451264D02*
G01*
X103818711Y-102455044D01*
X103843700Y-102461303D01*
X103867954Y-102469982D01*
X103891242Y-102480996D01*
X103913337Y-102494239D01*
X103934028Y-102509585D01*
X103953116Y-102526884D01*
X103970415Y-102545972D01*
X103985761Y-102566663D01*
X103999004Y-102588758D01*
X104010018Y-102612046D01*
X104018697Y-102636300D01*
X104024956Y-102661289D01*
X104028736Y-102686771D01*
X104030000Y-102712500D01*
X104030000Y-103337500D01*
X104028736Y-103363229D01*
X104024956Y-103388711D01*
X104018697Y-103413700D01*
X104010018Y-103437954D01*
X103999004Y-103461242D01*
X103985761Y-103483337D01*
X103970415Y-103504028D01*
X103953116Y-103523116D01*
X103934028Y-103540415D01*
X103913337Y-103555761D01*
X103891242Y-103569004D01*
X103867954Y-103580018D01*
X103843700Y-103588697D01*
X103818711Y-103594956D01*
X103793229Y-103598736D01*
X103767500Y-103600000D01*
X103242500Y-103600000D01*
X103216771Y-103598736D01*
X103191289Y-103594956D01*
X103166300Y-103588697D01*
X103142046Y-103580018D01*
X103118758Y-103569004D01*
X103096663Y-103555761D01*
X103075972Y-103540415D01*
X103056884Y-103523116D01*
X103039585Y-103504028D01*
X103024239Y-103483337D01*
X103010996Y-103461242D01*
X102999982Y-103437954D01*
X102991303Y-103413700D01*
X102985044Y-103388711D01*
X102981264Y-103363229D01*
X102980000Y-103337500D01*
X102980000Y-102712500D01*
X102981264Y-102686771D01*
X102985044Y-102661289D01*
X102991303Y-102636300D01*
X102999982Y-102612046D01*
X103010996Y-102588758D01*
X103024239Y-102566663D01*
X103039585Y-102545972D01*
X103056884Y-102526884D01*
X103075972Y-102509585D01*
X103096663Y-102494239D01*
X103118758Y-102480996D01*
X103142046Y-102469982D01*
X103166300Y-102461303D01*
X103191289Y-102455044D01*
X103216771Y-102451264D01*
X103242500Y-102450000D01*
X103767500Y-102450000D01*
X103793229Y-102451264D01*
X103793229Y-102451264D01*
G37*
D14*
X103505000Y-103025000D03*
D13*
G36*
X106333229Y-103566264D02*
G01*
X106358711Y-103570044D01*
X106383700Y-103576303D01*
X106407954Y-103584982D01*
X106431242Y-103595996D01*
X106453337Y-103609239D01*
X106474028Y-103624585D01*
X106493116Y-103641884D01*
X106510415Y-103660972D01*
X106525761Y-103681663D01*
X106539004Y-103703758D01*
X106550018Y-103727046D01*
X106558697Y-103751300D01*
X106564956Y-103776289D01*
X106568736Y-103801771D01*
X106570000Y-103827500D01*
X106570000Y-104452500D01*
X106568736Y-104478229D01*
X106564956Y-104503711D01*
X106558697Y-104528700D01*
X106550018Y-104552954D01*
X106539004Y-104576242D01*
X106525761Y-104598337D01*
X106510415Y-104619028D01*
X106493116Y-104638116D01*
X106474028Y-104655415D01*
X106453337Y-104670761D01*
X106431242Y-104684004D01*
X106407954Y-104695018D01*
X106383700Y-104703697D01*
X106358711Y-104709956D01*
X106333229Y-104713736D01*
X106307500Y-104715000D01*
X105782500Y-104715000D01*
X105756771Y-104713736D01*
X105731289Y-104709956D01*
X105706300Y-104703697D01*
X105682046Y-104695018D01*
X105658758Y-104684004D01*
X105636663Y-104670761D01*
X105615972Y-104655415D01*
X105596884Y-104638116D01*
X105579585Y-104619028D01*
X105564239Y-104598337D01*
X105550996Y-104576242D01*
X105539982Y-104552954D01*
X105531303Y-104528700D01*
X105525044Y-104503711D01*
X105521264Y-104478229D01*
X105520000Y-104452500D01*
X105520000Y-103827500D01*
X105521264Y-103801771D01*
X105525044Y-103776289D01*
X105531303Y-103751300D01*
X105539982Y-103727046D01*
X105550996Y-103703758D01*
X105564239Y-103681663D01*
X105579585Y-103660972D01*
X105596884Y-103641884D01*
X105615972Y-103624585D01*
X105636663Y-103609239D01*
X105658758Y-103595996D01*
X105682046Y-103584982D01*
X105706300Y-103576303D01*
X105731289Y-103570044D01*
X105756771Y-103566264D01*
X105782500Y-103565000D01*
X106307500Y-103565000D01*
X106333229Y-103566264D01*
X106333229Y-103566264D01*
G37*
D14*
X106045000Y-104140000D03*
D13*
G36*
X106333229Y-105316264D02*
G01*
X106358711Y-105320044D01*
X106383700Y-105326303D01*
X106407954Y-105334982D01*
X106431242Y-105345996D01*
X106453337Y-105359239D01*
X106474028Y-105374585D01*
X106493116Y-105391884D01*
X106510415Y-105410972D01*
X106525761Y-105431663D01*
X106539004Y-105453758D01*
X106550018Y-105477046D01*
X106558697Y-105501300D01*
X106564956Y-105526289D01*
X106568736Y-105551771D01*
X106570000Y-105577500D01*
X106570000Y-106202500D01*
X106568736Y-106228229D01*
X106564956Y-106253711D01*
X106558697Y-106278700D01*
X106550018Y-106302954D01*
X106539004Y-106326242D01*
X106525761Y-106348337D01*
X106510415Y-106369028D01*
X106493116Y-106388116D01*
X106474028Y-106405415D01*
X106453337Y-106420761D01*
X106431242Y-106434004D01*
X106407954Y-106445018D01*
X106383700Y-106453697D01*
X106358711Y-106459956D01*
X106333229Y-106463736D01*
X106307500Y-106465000D01*
X105782500Y-106465000D01*
X105756771Y-106463736D01*
X105731289Y-106459956D01*
X105706300Y-106453697D01*
X105682046Y-106445018D01*
X105658758Y-106434004D01*
X105636663Y-106420761D01*
X105615972Y-106405415D01*
X105596884Y-106388116D01*
X105579585Y-106369028D01*
X105564239Y-106348337D01*
X105550996Y-106326242D01*
X105539982Y-106302954D01*
X105531303Y-106278700D01*
X105525044Y-106253711D01*
X105521264Y-106228229D01*
X105520000Y-106202500D01*
X105520000Y-105577500D01*
X105521264Y-105551771D01*
X105525044Y-105526289D01*
X105531303Y-105501300D01*
X105539982Y-105477046D01*
X105550996Y-105453758D01*
X105564239Y-105431663D01*
X105579585Y-105410972D01*
X105596884Y-105391884D01*
X105615972Y-105374585D01*
X105636663Y-105359239D01*
X105658758Y-105345996D01*
X105682046Y-105334982D01*
X105706300Y-105326303D01*
X105731289Y-105320044D01*
X105756771Y-105316264D01*
X105782500Y-105315000D01*
X106307500Y-105315000D01*
X106333229Y-105316264D01*
X106333229Y-105316264D01*
G37*
D14*
X106045000Y-105890000D03*
D12*
X115570000Y-124460000D03*
X118110000Y-124460000D03*
X120650000Y-124460000D03*
X123190000Y-124460000D03*
X125730000Y-124460000D03*
D11*
X128270000Y-124460000D03*
D15*
X154825000Y-95015000D03*
D16*
X163975000Y-97555000D03*
X163975000Y-95015000D03*
X163975000Y-92475000D03*
D17*
X151950000Y-104140000D03*
X153650000Y-104140000D03*
X155350000Y-104140000D03*
X157050000Y-104140000D03*
D18*
X158750000Y-104140000D03*
D12*
X144780000Y-116205000D03*
D11*
X142240000Y-116205000D03*
D19*
X172720000Y-105075000D03*
X172720000Y-98125000D03*
X172720000Y-115570000D03*
X172720000Y-122520000D03*
D13*
G36*
X161919504Y-106181204D02*
G01*
X161943773Y-106184804D01*
X161967571Y-106190765D01*
X161990671Y-106199030D01*
X162012849Y-106209520D01*
X162033893Y-106222133D01*
X162053598Y-106236747D01*
X162071777Y-106253223D01*
X162088253Y-106271402D01*
X162102867Y-106291107D01*
X162115480Y-106312151D01*
X162125970Y-106334329D01*
X162134235Y-106357429D01*
X162140196Y-106381227D01*
X162143796Y-106405496D01*
X162145000Y-106430000D01*
X162145000Y-106930000D01*
X162143796Y-106954504D01*
X162140196Y-106978773D01*
X162134235Y-107002571D01*
X162125970Y-107025671D01*
X162115480Y-107047849D01*
X162102867Y-107068893D01*
X162088253Y-107088598D01*
X162071777Y-107106777D01*
X162053598Y-107123253D01*
X162033893Y-107137867D01*
X162012849Y-107150480D01*
X161990671Y-107160970D01*
X161967571Y-107169235D01*
X161943773Y-107175196D01*
X161919504Y-107178796D01*
X161895000Y-107180000D01*
X161295000Y-107180000D01*
X161270496Y-107178796D01*
X161246227Y-107175196D01*
X161222429Y-107169235D01*
X161199329Y-107160970D01*
X161177151Y-107150480D01*
X161156107Y-107137867D01*
X161136402Y-107123253D01*
X161118223Y-107106777D01*
X161101747Y-107088598D01*
X161087133Y-107068893D01*
X161074520Y-107047849D01*
X161064030Y-107025671D01*
X161055765Y-107002571D01*
X161049804Y-106978773D01*
X161046204Y-106954504D01*
X161045000Y-106930000D01*
X161045000Y-106430000D01*
X161046204Y-106405496D01*
X161049804Y-106381227D01*
X161055765Y-106357429D01*
X161064030Y-106334329D01*
X161074520Y-106312151D01*
X161087133Y-106291107D01*
X161101747Y-106271402D01*
X161118223Y-106253223D01*
X161136402Y-106236747D01*
X161156107Y-106222133D01*
X161177151Y-106209520D01*
X161199329Y-106199030D01*
X161222429Y-106190765D01*
X161246227Y-106184804D01*
X161270496Y-106181204D01*
X161295000Y-106180000D01*
X161895000Y-106180000D01*
X161919504Y-106181204D01*
X161919504Y-106181204D01*
G37*
D20*
X161595000Y-106680000D03*
D13*
G36*
X161919504Y-104606204D02*
G01*
X161943773Y-104609804D01*
X161967571Y-104615765D01*
X161990671Y-104624030D01*
X162012849Y-104634520D01*
X162033893Y-104647133D01*
X162053598Y-104661747D01*
X162071777Y-104678223D01*
X162088253Y-104696402D01*
X162102867Y-104716107D01*
X162115480Y-104737151D01*
X162125970Y-104759329D01*
X162134235Y-104782429D01*
X162140196Y-104806227D01*
X162143796Y-104830496D01*
X162145000Y-104855000D01*
X162145000Y-105355000D01*
X162143796Y-105379504D01*
X162140196Y-105403773D01*
X162134235Y-105427571D01*
X162125970Y-105450671D01*
X162115480Y-105472849D01*
X162102867Y-105493893D01*
X162088253Y-105513598D01*
X162071777Y-105531777D01*
X162053598Y-105548253D01*
X162033893Y-105562867D01*
X162012849Y-105575480D01*
X161990671Y-105585970D01*
X161967571Y-105594235D01*
X161943773Y-105600196D01*
X161919504Y-105603796D01*
X161895000Y-105605000D01*
X161295000Y-105605000D01*
X161270496Y-105603796D01*
X161246227Y-105600196D01*
X161222429Y-105594235D01*
X161199329Y-105585970D01*
X161177151Y-105575480D01*
X161156107Y-105562867D01*
X161136402Y-105548253D01*
X161118223Y-105531777D01*
X161101747Y-105513598D01*
X161087133Y-105493893D01*
X161074520Y-105472849D01*
X161064030Y-105450671D01*
X161055765Y-105427571D01*
X161049804Y-105403773D01*
X161046204Y-105379504D01*
X161045000Y-105355000D01*
X161045000Y-104855000D01*
X161046204Y-104830496D01*
X161049804Y-104806227D01*
X161055765Y-104782429D01*
X161064030Y-104759329D01*
X161074520Y-104737151D01*
X161087133Y-104716107D01*
X161101747Y-104696402D01*
X161118223Y-104678223D01*
X161136402Y-104661747D01*
X161156107Y-104647133D01*
X161177151Y-104634520D01*
X161199329Y-104624030D01*
X161222429Y-104615765D01*
X161246227Y-104609804D01*
X161270496Y-104606204D01*
X161295000Y-104605000D01*
X161895000Y-104605000D01*
X161919504Y-104606204D01*
X161919504Y-104606204D01*
G37*
D20*
X161595000Y-105105000D03*
D21*
X160020000Y-107950000D03*
X160020000Y-110750000D03*
X157350000Y-110750000D03*
X157350000Y-107950000D03*
D13*
G36*
X96579703Y-100705722D02*
G01*
X96594264Y-100707882D01*
X96608543Y-100711459D01*
X96622403Y-100716418D01*
X96635710Y-100722712D01*
X96648336Y-100730280D01*
X96660159Y-100739048D01*
X96671066Y-100748934D01*
X96680952Y-100759841D01*
X96689720Y-100771664D01*
X96697288Y-100784290D01*
X96703582Y-100797597D01*
X96708541Y-100811457D01*
X96712118Y-100825736D01*
X96714278Y-100840297D01*
X96715000Y-100855000D01*
X96715000Y-101155000D01*
X96714278Y-101169703D01*
X96712118Y-101184264D01*
X96708541Y-101198543D01*
X96703582Y-101212403D01*
X96697288Y-101225710D01*
X96689720Y-101238336D01*
X96680952Y-101250159D01*
X96671066Y-101261066D01*
X96660159Y-101270952D01*
X96648336Y-101279720D01*
X96635710Y-101287288D01*
X96622403Y-101293582D01*
X96608543Y-101298541D01*
X96594264Y-101302118D01*
X96579703Y-101304278D01*
X96565000Y-101305000D01*
X95315000Y-101305000D01*
X95300297Y-101304278D01*
X95285736Y-101302118D01*
X95271457Y-101298541D01*
X95257597Y-101293582D01*
X95244290Y-101287288D01*
X95231664Y-101279720D01*
X95219841Y-101270952D01*
X95208934Y-101261066D01*
X95199048Y-101250159D01*
X95190280Y-101238336D01*
X95182712Y-101225710D01*
X95176418Y-101212403D01*
X95171459Y-101198543D01*
X95167882Y-101184264D01*
X95165722Y-101169703D01*
X95165000Y-101155000D01*
X95165000Y-100855000D01*
X95165722Y-100840297D01*
X95167882Y-100825736D01*
X95171459Y-100811457D01*
X95176418Y-100797597D01*
X95182712Y-100784290D01*
X95190280Y-100771664D01*
X95199048Y-100759841D01*
X95208934Y-100748934D01*
X95219841Y-100739048D01*
X95231664Y-100730280D01*
X95244290Y-100722712D01*
X95257597Y-100716418D01*
X95271457Y-100711459D01*
X95285736Y-100707882D01*
X95300297Y-100705722D01*
X95315000Y-100705000D01*
X96565000Y-100705000D01*
X96579703Y-100705722D01*
X96579703Y-100705722D01*
G37*
D22*
X95940000Y-101005000D03*
D13*
G36*
X96579703Y-101705722D02*
G01*
X96594264Y-101707882D01*
X96608543Y-101711459D01*
X96622403Y-101716418D01*
X96635710Y-101722712D01*
X96648336Y-101730280D01*
X96660159Y-101739048D01*
X96671066Y-101748934D01*
X96680952Y-101759841D01*
X96689720Y-101771664D01*
X96697288Y-101784290D01*
X96703582Y-101797597D01*
X96708541Y-101811457D01*
X96712118Y-101825736D01*
X96714278Y-101840297D01*
X96715000Y-101855000D01*
X96715000Y-102155000D01*
X96714278Y-102169703D01*
X96712118Y-102184264D01*
X96708541Y-102198543D01*
X96703582Y-102212403D01*
X96697288Y-102225710D01*
X96689720Y-102238336D01*
X96680952Y-102250159D01*
X96671066Y-102261066D01*
X96660159Y-102270952D01*
X96648336Y-102279720D01*
X96635710Y-102287288D01*
X96622403Y-102293582D01*
X96608543Y-102298541D01*
X96594264Y-102302118D01*
X96579703Y-102304278D01*
X96565000Y-102305000D01*
X95315000Y-102305000D01*
X95300297Y-102304278D01*
X95285736Y-102302118D01*
X95271457Y-102298541D01*
X95257597Y-102293582D01*
X95244290Y-102287288D01*
X95231664Y-102279720D01*
X95219841Y-102270952D01*
X95208934Y-102261066D01*
X95199048Y-102250159D01*
X95190280Y-102238336D01*
X95182712Y-102225710D01*
X95176418Y-102212403D01*
X95171459Y-102198543D01*
X95167882Y-102184264D01*
X95165722Y-102169703D01*
X95165000Y-102155000D01*
X95165000Y-101855000D01*
X95165722Y-101840297D01*
X95167882Y-101825736D01*
X95171459Y-101811457D01*
X95176418Y-101797597D01*
X95182712Y-101784290D01*
X95190280Y-101771664D01*
X95199048Y-101759841D01*
X95208934Y-101748934D01*
X95219841Y-101739048D01*
X95231664Y-101730280D01*
X95244290Y-101722712D01*
X95257597Y-101716418D01*
X95271457Y-101711459D01*
X95285736Y-101707882D01*
X95300297Y-101705722D01*
X95315000Y-101705000D01*
X96565000Y-101705000D01*
X96579703Y-101705722D01*
X96579703Y-101705722D01*
G37*
D22*
X95940000Y-102005000D03*
D13*
G36*
X96579703Y-102705722D02*
G01*
X96594264Y-102707882D01*
X96608543Y-102711459D01*
X96622403Y-102716418D01*
X96635710Y-102722712D01*
X96648336Y-102730280D01*
X96660159Y-102739048D01*
X96671066Y-102748934D01*
X96680952Y-102759841D01*
X96689720Y-102771664D01*
X96697288Y-102784290D01*
X96703582Y-102797597D01*
X96708541Y-102811457D01*
X96712118Y-102825736D01*
X96714278Y-102840297D01*
X96715000Y-102855000D01*
X96715000Y-103155000D01*
X96714278Y-103169703D01*
X96712118Y-103184264D01*
X96708541Y-103198543D01*
X96703582Y-103212403D01*
X96697288Y-103225710D01*
X96689720Y-103238336D01*
X96680952Y-103250159D01*
X96671066Y-103261066D01*
X96660159Y-103270952D01*
X96648336Y-103279720D01*
X96635710Y-103287288D01*
X96622403Y-103293582D01*
X96608543Y-103298541D01*
X96594264Y-103302118D01*
X96579703Y-103304278D01*
X96565000Y-103305000D01*
X95315000Y-103305000D01*
X95300297Y-103304278D01*
X95285736Y-103302118D01*
X95271457Y-103298541D01*
X95257597Y-103293582D01*
X95244290Y-103287288D01*
X95231664Y-103279720D01*
X95219841Y-103270952D01*
X95208934Y-103261066D01*
X95199048Y-103250159D01*
X95190280Y-103238336D01*
X95182712Y-103225710D01*
X95176418Y-103212403D01*
X95171459Y-103198543D01*
X95167882Y-103184264D01*
X95165722Y-103169703D01*
X95165000Y-103155000D01*
X95165000Y-102855000D01*
X95165722Y-102840297D01*
X95167882Y-102825736D01*
X95171459Y-102811457D01*
X95176418Y-102797597D01*
X95182712Y-102784290D01*
X95190280Y-102771664D01*
X95199048Y-102759841D01*
X95208934Y-102748934D01*
X95219841Y-102739048D01*
X95231664Y-102730280D01*
X95244290Y-102722712D01*
X95257597Y-102716418D01*
X95271457Y-102711459D01*
X95285736Y-102707882D01*
X95300297Y-102705722D01*
X95315000Y-102705000D01*
X96565000Y-102705000D01*
X96579703Y-102705722D01*
X96579703Y-102705722D01*
G37*
D22*
X95940000Y-103005000D03*
D13*
G36*
X96579703Y-103705722D02*
G01*
X96594264Y-103707882D01*
X96608543Y-103711459D01*
X96622403Y-103716418D01*
X96635710Y-103722712D01*
X96648336Y-103730280D01*
X96660159Y-103739048D01*
X96671066Y-103748934D01*
X96680952Y-103759841D01*
X96689720Y-103771664D01*
X96697288Y-103784290D01*
X96703582Y-103797597D01*
X96708541Y-103811457D01*
X96712118Y-103825736D01*
X96714278Y-103840297D01*
X96715000Y-103855000D01*
X96715000Y-104155000D01*
X96714278Y-104169703D01*
X96712118Y-104184264D01*
X96708541Y-104198543D01*
X96703582Y-104212403D01*
X96697288Y-104225710D01*
X96689720Y-104238336D01*
X96680952Y-104250159D01*
X96671066Y-104261066D01*
X96660159Y-104270952D01*
X96648336Y-104279720D01*
X96635710Y-104287288D01*
X96622403Y-104293582D01*
X96608543Y-104298541D01*
X96594264Y-104302118D01*
X96579703Y-104304278D01*
X96565000Y-104305000D01*
X95315000Y-104305000D01*
X95300297Y-104304278D01*
X95285736Y-104302118D01*
X95271457Y-104298541D01*
X95257597Y-104293582D01*
X95244290Y-104287288D01*
X95231664Y-104279720D01*
X95219841Y-104270952D01*
X95208934Y-104261066D01*
X95199048Y-104250159D01*
X95190280Y-104238336D01*
X95182712Y-104225710D01*
X95176418Y-104212403D01*
X95171459Y-104198543D01*
X95167882Y-104184264D01*
X95165722Y-104169703D01*
X95165000Y-104155000D01*
X95165000Y-103855000D01*
X95165722Y-103840297D01*
X95167882Y-103825736D01*
X95171459Y-103811457D01*
X95176418Y-103797597D01*
X95182712Y-103784290D01*
X95190280Y-103771664D01*
X95199048Y-103759841D01*
X95208934Y-103748934D01*
X95219841Y-103739048D01*
X95231664Y-103730280D01*
X95244290Y-103722712D01*
X95257597Y-103716418D01*
X95271457Y-103711459D01*
X95285736Y-103707882D01*
X95300297Y-103705722D01*
X95315000Y-103705000D01*
X96565000Y-103705000D01*
X96579703Y-103705722D01*
X96579703Y-103705722D01*
G37*
D22*
X95940000Y-104005000D03*
D13*
G36*
X96579703Y-104705722D02*
G01*
X96594264Y-104707882D01*
X96608543Y-104711459D01*
X96622403Y-104716418D01*
X96635710Y-104722712D01*
X96648336Y-104730280D01*
X96660159Y-104739048D01*
X96671066Y-104748934D01*
X96680952Y-104759841D01*
X96689720Y-104771664D01*
X96697288Y-104784290D01*
X96703582Y-104797597D01*
X96708541Y-104811457D01*
X96712118Y-104825736D01*
X96714278Y-104840297D01*
X96715000Y-104855000D01*
X96715000Y-105155000D01*
X96714278Y-105169703D01*
X96712118Y-105184264D01*
X96708541Y-105198543D01*
X96703582Y-105212403D01*
X96697288Y-105225710D01*
X96689720Y-105238336D01*
X96680952Y-105250159D01*
X96671066Y-105261066D01*
X96660159Y-105270952D01*
X96648336Y-105279720D01*
X96635710Y-105287288D01*
X96622403Y-105293582D01*
X96608543Y-105298541D01*
X96594264Y-105302118D01*
X96579703Y-105304278D01*
X96565000Y-105305000D01*
X95315000Y-105305000D01*
X95300297Y-105304278D01*
X95285736Y-105302118D01*
X95271457Y-105298541D01*
X95257597Y-105293582D01*
X95244290Y-105287288D01*
X95231664Y-105279720D01*
X95219841Y-105270952D01*
X95208934Y-105261066D01*
X95199048Y-105250159D01*
X95190280Y-105238336D01*
X95182712Y-105225710D01*
X95176418Y-105212403D01*
X95171459Y-105198543D01*
X95167882Y-105184264D01*
X95165722Y-105169703D01*
X95165000Y-105155000D01*
X95165000Y-104855000D01*
X95165722Y-104840297D01*
X95167882Y-104825736D01*
X95171459Y-104811457D01*
X95176418Y-104797597D01*
X95182712Y-104784290D01*
X95190280Y-104771664D01*
X95199048Y-104759841D01*
X95208934Y-104748934D01*
X95219841Y-104739048D01*
X95231664Y-104730280D01*
X95244290Y-104722712D01*
X95257597Y-104716418D01*
X95271457Y-104711459D01*
X95285736Y-104707882D01*
X95300297Y-104705722D01*
X95315000Y-104705000D01*
X96565000Y-104705000D01*
X96579703Y-104705722D01*
X96579703Y-104705722D01*
G37*
D22*
X95940000Y-105005000D03*
D13*
G36*
X96579703Y-105705722D02*
G01*
X96594264Y-105707882D01*
X96608543Y-105711459D01*
X96622403Y-105716418D01*
X96635710Y-105722712D01*
X96648336Y-105730280D01*
X96660159Y-105739048D01*
X96671066Y-105748934D01*
X96680952Y-105759841D01*
X96689720Y-105771664D01*
X96697288Y-105784290D01*
X96703582Y-105797597D01*
X96708541Y-105811457D01*
X96712118Y-105825736D01*
X96714278Y-105840297D01*
X96715000Y-105855000D01*
X96715000Y-106155000D01*
X96714278Y-106169703D01*
X96712118Y-106184264D01*
X96708541Y-106198543D01*
X96703582Y-106212403D01*
X96697288Y-106225710D01*
X96689720Y-106238336D01*
X96680952Y-106250159D01*
X96671066Y-106261066D01*
X96660159Y-106270952D01*
X96648336Y-106279720D01*
X96635710Y-106287288D01*
X96622403Y-106293582D01*
X96608543Y-106298541D01*
X96594264Y-106302118D01*
X96579703Y-106304278D01*
X96565000Y-106305000D01*
X95315000Y-106305000D01*
X95300297Y-106304278D01*
X95285736Y-106302118D01*
X95271457Y-106298541D01*
X95257597Y-106293582D01*
X95244290Y-106287288D01*
X95231664Y-106279720D01*
X95219841Y-106270952D01*
X95208934Y-106261066D01*
X95199048Y-106250159D01*
X95190280Y-106238336D01*
X95182712Y-106225710D01*
X95176418Y-106212403D01*
X95171459Y-106198543D01*
X95167882Y-106184264D01*
X95165722Y-106169703D01*
X95165000Y-106155000D01*
X95165000Y-105855000D01*
X95165722Y-105840297D01*
X95167882Y-105825736D01*
X95171459Y-105811457D01*
X95176418Y-105797597D01*
X95182712Y-105784290D01*
X95190280Y-105771664D01*
X95199048Y-105759841D01*
X95208934Y-105748934D01*
X95219841Y-105739048D01*
X95231664Y-105730280D01*
X95244290Y-105722712D01*
X95257597Y-105716418D01*
X95271457Y-105711459D01*
X95285736Y-105707882D01*
X95300297Y-105705722D01*
X95315000Y-105705000D01*
X96565000Y-105705000D01*
X96579703Y-105705722D01*
X96579703Y-105705722D01*
G37*
D22*
X95940000Y-106005000D03*
D13*
G36*
X94089505Y-99106204D02*
G01*
X94113773Y-99109804D01*
X94137572Y-99115765D01*
X94160671Y-99124030D01*
X94182850Y-99134520D01*
X94203893Y-99147132D01*
X94223599Y-99161747D01*
X94241777Y-99178223D01*
X94258253Y-99196401D01*
X94272868Y-99216107D01*
X94285480Y-99237150D01*
X94295970Y-99259329D01*
X94304235Y-99282428D01*
X94310196Y-99306227D01*
X94313796Y-99330495D01*
X94315000Y-99354999D01*
X94315000Y-100055001D01*
X94313796Y-100079505D01*
X94310196Y-100103773D01*
X94304235Y-100127572D01*
X94295970Y-100150671D01*
X94285480Y-100172850D01*
X94272868Y-100193893D01*
X94258253Y-100213599D01*
X94241777Y-100231777D01*
X94223599Y-100248253D01*
X94203893Y-100262868D01*
X94182850Y-100275480D01*
X94160671Y-100285970D01*
X94137572Y-100294235D01*
X94113773Y-100300196D01*
X94089505Y-100303796D01*
X94065001Y-100305000D01*
X92764999Y-100305000D01*
X92740495Y-100303796D01*
X92716227Y-100300196D01*
X92692428Y-100294235D01*
X92669329Y-100285970D01*
X92647150Y-100275480D01*
X92626107Y-100262868D01*
X92606401Y-100248253D01*
X92588223Y-100231777D01*
X92571747Y-100213599D01*
X92557132Y-100193893D01*
X92544520Y-100172850D01*
X92534030Y-100150671D01*
X92525765Y-100127572D01*
X92519804Y-100103773D01*
X92516204Y-100079505D01*
X92515000Y-100055001D01*
X92515000Y-99354999D01*
X92516204Y-99330495D01*
X92519804Y-99306227D01*
X92525765Y-99282428D01*
X92534030Y-99259329D01*
X92544520Y-99237150D01*
X92557132Y-99216107D01*
X92571747Y-99196401D01*
X92588223Y-99178223D01*
X92606401Y-99161747D01*
X92626107Y-99147132D01*
X92647150Y-99134520D01*
X92669329Y-99124030D01*
X92692428Y-99115765D01*
X92716227Y-99109804D01*
X92740495Y-99106204D01*
X92764999Y-99105000D01*
X94065001Y-99105000D01*
X94089505Y-99106204D01*
X94089505Y-99106204D01*
G37*
D23*
X93415000Y-99705000D03*
D13*
G36*
X94089505Y-106706204D02*
G01*
X94113773Y-106709804D01*
X94137572Y-106715765D01*
X94160671Y-106724030D01*
X94182850Y-106734520D01*
X94203893Y-106747132D01*
X94223599Y-106761747D01*
X94241777Y-106778223D01*
X94258253Y-106796401D01*
X94272868Y-106816107D01*
X94285480Y-106837150D01*
X94295970Y-106859329D01*
X94304235Y-106882428D01*
X94310196Y-106906227D01*
X94313796Y-106930495D01*
X94315000Y-106954999D01*
X94315000Y-107655001D01*
X94313796Y-107679505D01*
X94310196Y-107703773D01*
X94304235Y-107727572D01*
X94295970Y-107750671D01*
X94285480Y-107772850D01*
X94272868Y-107793893D01*
X94258253Y-107813599D01*
X94241777Y-107831777D01*
X94223599Y-107848253D01*
X94203893Y-107862868D01*
X94182850Y-107875480D01*
X94160671Y-107885970D01*
X94137572Y-107894235D01*
X94113773Y-107900196D01*
X94089505Y-107903796D01*
X94065001Y-107905000D01*
X92764999Y-107905000D01*
X92740495Y-107903796D01*
X92716227Y-107900196D01*
X92692428Y-107894235D01*
X92669329Y-107885970D01*
X92647150Y-107875480D01*
X92626107Y-107862868D01*
X92606401Y-107848253D01*
X92588223Y-107831777D01*
X92571747Y-107813599D01*
X92557132Y-107793893D01*
X92544520Y-107772850D01*
X92534030Y-107750671D01*
X92525765Y-107727572D01*
X92519804Y-107703773D01*
X92516204Y-107679505D01*
X92515000Y-107655001D01*
X92515000Y-106954999D01*
X92516204Y-106930495D01*
X92519804Y-106906227D01*
X92525765Y-106882428D01*
X92534030Y-106859329D01*
X92544520Y-106837150D01*
X92557132Y-106816107D01*
X92571747Y-106796401D01*
X92588223Y-106778223D01*
X92606401Y-106761747D01*
X92626107Y-106747132D01*
X92647150Y-106734520D01*
X92669329Y-106724030D01*
X92692428Y-106715765D01*
X92716227Y-106709804D01*
X92740495Y-106706204D01*
X92764999Y-106705000D01*
X94065001Y-106705000D01*
X94089505Y-106706204D01*
X94089505Y-106706204D01*
G37*
D23*
X93415000Y-107305000D03*
D11*
X101600000Y-76200000D03*
D12*
X101600000Y-78740000D03*
X104140000Y-76200000D03*
X104140000Y-78740000D03*
X106680000Y-76200000D03*
X106680000Y-78740000D03*
X109220000Y-76200000D03*
X109220000Y-78740000D03*
X111760000Y-76200000D03*
X111760000Y-78740000D03*
X114300000Y-76200000D03*
X114300000Y-78740000D03*
X116840000Y-76200000D03*
X116840000Y-78740000D03*
X119380000Y-76200000D03*
X119380000Y-78740000D03*
X121920000Y-76200000D03*
X121920000Y-78740000D03*
X124460000Y-76200000D03*
X124460000Y-78740000D03*
X127000000Y-76200000D03*
X127000000Y-78740000D03*
X129540000Y-76200000D03*
X129540000Y-78740000D03*
X132080000Y-76200000D03*
X132080000Y-78740000D03*
X134620000Y-76200000D03*
X134620000Y-78740000D03*
X137160000Y-76200000D03*
X137160000Y-78740000D03*
X139700000Y-76200000D03*
X139700000Y-78740000D03*
X142240000Y-76200000D03*
X142240000Y-78740000D03*
X144780000Y-76200000D03*
X144780000Y-78740000D03*
X147320000Y-76200000D03*
X147320000Y-78740000D03*
X149860000Y-76200000D03*
X149860000Y-78740000D03*
X134620000Y-116205000D03*
X132080000Y-116205000D03*
X129540000Y-116205000D03*
D11*
X127000000Y-116205000D03*
X144780000Y-96520000D03*
D12*
X142240000Y-96520000D03*
X139700000Y-96520000D03*
X137160000Y-96520000D03*
X134620000Y-96520000D03*
X132080000Y-96520000D03*
X129540000Y-96520000D03*
X127000000Y-96520000D03*
X124460000Y-96520000D03*
X121920000Y-96520000D03*
D21*
X153670000Y-83185000D03*
X153670000Y-85985000D03*
X156845000Y-83185000D03*
X156845000Y-85985000D03*
X153670000Y-106550000D03*
X153670000Y-109350000D03*
D24*
X151130000Y-109000000D03*
X151130000Y-106900000D03*
D13*
G36*
X168590680Y-92086384D02*
G01*
X168618588Y-92090524D01*
X168645957Y-92097380D01*
X168672521Y-92106885D01*
X168698027Y-92118948D01*
X168722226Y-92133452D01*
X168744888Y-92150259D01*
X168765793Y-92169207D01*
X168784741Y-92190112D01*
X168801548Y-92212774D01*
X168816052Y-92236973D01*
X168828115Y-92262479D01*
X168837620Y-92289043D01*
X168844476Y-92316412D01*
X168848616Y-92344320D01*
X168850000Y-92372500D01*
X168850000Y-93047500D01*
X168848616Y-93075680D01*
X168844476Y-93103588D01*
X168837620Y-93130957D01*
X168828115Y-93157521D01*
X168816052Y-93183027D01*
X168801548Y-93207226D01*
X168784741Y-93229888D01*
X168765793Y-93250793D01*
X168744888Y-93269741D01*
X168722226Y-93286548D01*
X168698027Y-93301052D01*
X168672521Y-93313115D01*
X168645957Y-93322620D01*
X168618588Y-93329476D01*
X168590680Y-93333616D01*
X168562500Y-93335000D01*
X167987500Y-93335000D01*
X167959320Y-93333616D01*
X167931412Y-93329476D01*
X167904043Y-93322620D01*
X167877479Y-93313115D01*
X167851973Y-93301052D01*
X167827774Y-93286548D01*
X167805112Y-93269741D01*
X167784207Y-93250793D01*
X167765259Y-93229888D01*
X167748452Y-93207226D01*
X167733948Y-93183027D01*
X167721885Y-93157521D01*
X167712380Y-93130957D01*
X167705524Y-93103588D01*
X167701384Y-93075680D01*
X167700000Y-93047500D01*
X167700000Y-92372500D01*
X167701384Y-92344320D01*
X167705524Y-92316412D01*
X167712380Y-92289043D01*
X167721885Y-92262479D01*
X167733948Y-92236973D01*
X167748452Y-92212774D01*
X167765259Y-92190112D01*
X167784207Y-92169207D01*
X167805112Y-92150259D01*
X167827774Y-92133452D01*
X167851973Y-92118948D01*
X167877479Y-92106885D01*
X167904043Y-92097380D01*
X167931412Y-92090524D01*
X167959320Y-92086384D01*
X167987500Y-92085000D01*
X168562500Y-92085000D01*
X168590680Y-92086384D01*
X168590680Y-92086384D01*
G37*
D25*
X168275000Y-92710000D03*
D13*
G36*
X168590680Y-93836384D02*
G01*
X168618588Y-93840524D01*
X168645957Y-93847380D01*
X168672521Y-93856885D01*
X168698027Y-93868948D01*
X168722226Y-93883452D01*
X168744888Y-93900259D01*
X168765793Y-93919207D01*
X168784741Y-93940112D01*
X168801548Y-93962774D01*
X168816052Y-93986973D01*
X168828115Y-94012479D01*
X168837620Y-94039043D01*
X168844476Y-94066412D01*
X168848616Y-94094320D01*
X168850000Y-94122500D01*
X168850000Y-94797500D01*
X168848616Y-94825680D01*
X168844476Y-94853588D01*
X168837620Y-94880957D01*
X168828115Y-94907521D01*
X168816052Y-94933027D01*
X168801548Y-94957226D01*
X168784741Y-94979888D01*
X168765793Y-95000793D01*
X168744888Y-95019741D01*
X168722226Y-95036548D01*
X168698027Y-95051052D01*
X168672521Y-95063115D01*
X168645957Y-95072620D01*
X168618588Y-95079476D01*
X168590680Y-95083616D01*
X168562500Y-95085000D01*
X167987500Y-95085000D01*
X167959320Y-95083616D01*
X167931412Y-95079476D01*
X167904043Y-95072620D01*
X167877479Y-95063115D01*
X167851973Y-95051052D01*
X167827774Y-95036548D01*
X167805112Y-95019741D01*
X167784207Y-95000793D01*
X167765259Y-94979888D01*
X167748452Y-94957226D01*
X167733948Y-94933027D01*
X167721885Y-94907521D01*
X167712380Y-94880957D01*
X167705524Y-94853588D01*
X167701384Y-94825680D01*
X167700000Y-94797500D01*
X167700000Y-94122500D01*
X167701384Y-94094320D01*
X167705524Y-94066412D01*
X167712380Y-94039043D01*
X167721885Y-94012479D01*
X167733948Y-93986973D01*
X167748452Y-93962774D01*
X167765259Y-93940112D01*
X167784207Y-93919207D01*
X167805112Y-93900259D01*
X167827774Y-93883452D01*
X167851973Y-93868948D01*
X167877479Y-93856885D01*
X167904043Y-93847380D01*
X167931412Y-93840524D01*
X167959320Y-93836384D01*
X167987500Y-93835000D01*
X168562500Y-93835000D01*
X168590680Y-93836384D01*
X168590680Y-93836384D01*
G37*
D25*
X168275000Y-94460000D03*
D13*
G36*
X98713229Y-100391264D02*
G01*
X98738711Y-100395044D01*
X98763700Y-100401303D01*
X98787954Y-100409982D01*
X98811242Y-100420996D01*
X98833337Y-100434239D01*
X98854028Y-100449585D01*
X98873116Y-100466884D01*
X98890415Y-100485972D01*
X98905761Y-100506663D01*
X98919004Y-100528758D01*
X98930018Y-100552046D01*
X98938697Y-100576300D01*
X98944956Y-100601289D01*
X98948736Y-100626771D01*
X98950000Y-100652500D01*
X98950000Y-101277500D01*
X98948736Y-101303229D01*
X98944956Y-101328711D01*
X98938697Y-101353700D01*
X98930018Y-101377954D01*
X98919004Y-101401242D01*
X98905761Y-101423337D01*
X98890415Y-101444028D01*
X98873116Y-101463116D01*
X98854028Y-101480415D01*
X98833337Y-101495761D01*
X98811242Y-101509004D01*
X98787954Y-101520018D01*
X98763700Y-101528697D01*
X98738711Y-101534956D01*
X98713229Y-101538736D01*
X98687500Y-101540000D01*
X98162500Y-101540000D01*
X98136771Y-101538736D01*
X98111289Y-101534956D01*
X98086300Y-101528697D01*
X98062046Y-101520018D01*
X98038758Y-101509004D01*
X98016663Y-101495761D01*
X97995972Y-101480415D01*
X97976884Y-101463116D01*
X97959585Y-101444028D01*
X97944239Y-101423337D01*
X97930996Y-101401242D01*
X97919982Y-101377954D01*
X97911303Y-101353700D01*
X97905044Y-101328711D01*
X97901264Y-101303229D01*
X97900000Y-101277500D01*
X97900000Y-100652500D01*
X97901264Y-100626771D01*
X97905044Y-100601289D01*
X97911303Y-100576300D01*
X97919982Y-100552046D01*
X97930996Y-100528758D01*
X97944239Y-100506663D01*
X97959585Y-100485972D01*
X97976884Y-100466884D01*
X97995972Y-100449585D01*
X98016663Y-100434239D01*
X98038758Y-100420996D01*
X98062046Y-100409982D01*
X98086300Y-100401303D01*
X98111289Y-100395044D01*
X98136771Y-100391264D01*
X98162500Y-100390000D01*
X98687500Y-100390000D01*
X98713229Y-100391264D01*
X98713229Y-100391264D01*
G37*
D14*
X98425000Y-100965000D03*
D13*
G36*
X98713229Y-102141264D02*
G01*
X98738711Y-102145044D01*
X98763700Y-102151303D01*
X98787954Y-102159982D01*
X98811242Y-102170996D01*
X98833337Y-102184239D01*
X98854028Y-102199585D01*
X98873116Y-102216884D01*
X98890415Y-102235972D01*
X98905761Y-102256663D01*
X98919004Y-102278758D01*
X98930018Y-102302046D01*
X98938697Y-102326300D01*
X98944956Y-102351289D01*
X98948736Y-102376771D01*
X98950000Y-102402500D01*
X98950000Y-103027500D01*
X98948736Y-103053229D01*
X98944956Y-103078711D01*
X98938697Y-103103700D01*
X98930018Y-103127954D01*
X98919004Y-103151242D01*
X98905761Y-103173337D01*
X98890415Y-103194028D01*
X98873116Y-103213116D01*
X98854028Y-103230415D01*
X98833337Y-103245761D01*
X98811242Y-103259004D01*
X98787954Y-103270018D01*
X98763700Y-103278697D01*
X98738711Y-103284956D01*
X98713229Y-103288736D01*
X98687500Y-103290000D01*
X98162500Y-103290000D01*
X98136771Y-103288736D01*
X98111289Y-103284956D01*
X98086300Y-103278697D01*
X98062046Y-103270018D01*
X98038758Y-103259004D01*
X98016663Y-103245761D01*
X97995972Y-103230415D01*
X97976884Y-103213116D01*
X97959585Y-103194028D01*
X97944239Y-103173337D01*
X97930996Y-103151242D01*
X97919982Y-103127954D01*
X97911303Y-103103700D01*
X97905044Y-103078711D01*
X97901264Y-103053229D01*
X97900000Y-103027500D01*
X97900000Y-102402500D01*
X97901264Y-102376771D01*
X97905044Y-102351289D01*
X97911303Y-102326300D01*
X97919982Y-102302046D01*
X97930996Y-102278758D01*
X97944239Y-102256663D01*
X97959585Y-102235972D01*
X97976884Y-102216884D01*
X97995972Y-102199585D01*
X98016663Y-102184239D01*
X98038758Y-102170996D01*
X98062046Y-102159982D01*
X98086300Y-102151303D01*
X98111289Y-102145044D01*
X98136771Y-102141264D01*
X98162500Y-102140000D01*
X98687500Y-102140000D01*
X98713229Y-102141264D01*
X98713229Y-102141264D01*
G37*
D14*
X98425000Y-102715000D03*
D13*
G36*
X101253229Y-102931264D02*
G01*
X101278711Y-102935044D01*
X101303700Y-102941303D01*
X101327954Y-102949982D01*
X101351242Y-102960996D01*
X101373337Y-102974239D01*
X101394028Y-102989585D01*
X101413116Y-103006884D01*
X101430415Y-103025972D01*
X101445761Y-103046663D01*
X101459004Y-103068758D01*
X101470018Y-103092046D01*
X101478697Y-103116300D01*
X101484956Y-103141289D01*
X101488736Y-103166771D01*
X101490000Y-103192500D01*
X101490000Y-103817500D01*
X101488736Y-103843229D01*
X101484956Y-103868711D01*
X101478697Y-103893700D01*
X101470018Y-103917954D01*
X101459004Y-103941242D01*
X101445761Y-103963337D01*
X101430415Y-103984028D01*
X101413116Y-104003116D01*
X101394028Y-104020415D01*
X101373337Y-104035761D01*
X101351242Y-104049004D01*
X101327954Y-104060018D01*
X101303700Y-104068697D01*
X101278711Y-104074956D01*
X101253229Y-104078736D01*
X101227500Y-104080000D01*
X100702500Y-104080000D01*
X100676771Y-104078736D01*
X100651289Y-104074956D01*
X100626300Y-104068697D01*
X100602046Y-104060018D01*
X100578758Y-104049004D01*
X100556663Y-104035761D01*
X100535972Y-104020415D01*
X100516884Y-104003116D01*
X100499585Y-103984028D01*
X100484239Y-103963337D01*
X100470996Y-103941242D01*
X100459982Y-103917954D01*
X100451303Y-103893700D01*
X100445044Y-103868711D01*
X100441264Y-103843229D01*
X100440000Y-103817500D01*
X100440000Y-103192500D01*
X100441264Y-103166771D01*
X100445044Y-103141289D01*
X100451303Y-103116300D01*
X100459982Y-103092046D01*
X100470996Y-103068758D01*
X100484239Y-103046663D01*
X100499585Y-103025972D01*
X100516884Y-103006884D01*
X100535972Y-102989585D01*
X100556663Y-102974239D01*
X100578758Y-102960996D01*
X100602046Y-102949982D01*
X100626300Y-102941303D01*
X100651289Y-102935044D01*
X100676771Y-102931264D01*
X100702500Y-102930000D01*
X101227500Y-102930000D01*
X101253229Y-102931264D01*
X101253229Y-102931264D01*
G37*
D14*
X100965000Y-103505000D03*
D13*
G36*
X101253229Y-101181264D02*
G01*
X101278711Y-101185044D01*
X101303700Y-101191303D01*
X101327954Y-101199982D01*
X101351242Y-101210996D01*
X101373337Y-101224239D01*
X101394028Y-101239585D01*
X101413116Y-101256884D01*
X101430415Y-101275972D01*
X101445761Y-101296663D01*
X101459004Y-101318758D01*
X101470018Y-101342046D01*
X101478697Y-101366300D01*
X101484956Y-101391289D01*
X101488736Y-101416771D01*
X101490000Y-101442500D01*
X101490000Y-102067500D01*
X101488736Y-102093229D01*
X101484956Y-102118711D01*
X101478697Y-102143700D01*
X101470018Y-102167954D01*
X101459004Y-102191242D01*
X101445761Y-102213337D01*
X101430415Y-102234028D01*
X101413116Y-102253116D01*
X101394028Y-102270415D01*
X101373337Y-102285761D01*
X101351242Y-102299004D01*
X101327954Y-102310018D01*
X101303700Y-102318697D01*
X101278711Y-102324956D01*
X101253229Y-102328736D01*
X101227500Y-102330000D01*
X100702500Y-102330000D01*
X100676771Y-102328736D01*
X100651289Y-102324956D01*
X100626300Y-102318697D01*
X100602046Y-102310018D01*
X100578758Y-102299004D01*
X100556663Y-102285761D01*
X100535972Y-102270415D01*
X100516884Y-102253116D01*
X100499585Y-102234028D01*
X100484239Y-102213337D01*
X100470996Y-102191242D01*
X100459982Y-102167954D01*
X100451303Y-102143700D01*
X100445044Y-102118711D01*
X100441264Y-102093229D01*
X100440000Y-102067500D01*
X100440000Y-101442500D01*
X100441264Y-101416771D01*
X100445044Y-101391289D01*
X100451303Y-101366300D01*
X100459982Y-101342046D01*
X100470996Y-101318758D01*
X100484239Y-101296663D01*
X100499585Y-101275972D01*
X100516884Y-101256884D01*
X100535972Y-101239585D01*
X100556663Y-101224239D01*
X100578758Y-101210996D01*
X100602046Y-101199982D01*
X100626300Y-101191303D01*
X100651289Y-101185044D01*
X100676771Y-101181264D01*
X100702500Y-101180000D01*
X101227500Y-101180000D01*
X101253229Y-101181264D01*
X101253229Y-101181264D01*
G37*
D14*
X100965000Y-101755000D03*
D26*
X96774000Y-77470000D03*
X96710500Y-126492000D03*
X154813000Y-126492000D03*
X154813000Y-77470000D03*
D27*
X157480000Y-91440000D03*
X154940000Y-93980000D03*
X154940000Y-91440000D03*
X156210000Y-92710000D03*
X153670000Y-92710000D03*
X156210000Y-90170000D03*
X153670000Y-90170000D03*
X161595000Y-109925000D03*
X102235000Y-100330000D03*
X106045000Y-100330000D03*
X108585000Y-101600000D03*
X110490000Y-80645000D03*
X107950000Y-80645000D03*
X105410000Y-80645000D03*
X120650000Y-115570000D03*
X120650000Y-113030000D03*
X100076000Y-99060000D03*
X100076000Y-97028000D03*
X96520000Y-97028000D03*
X153670000Y-111760000D03*
X114935000Y-96520000D03*
X117856000Y-94996000D03*
X106553000Y-122555000D03*
X114935000Y-98425000D03*
X108585000Y-92075000D03*
X111125000Y-92075000D03*
X114935000Y-113665000D03*
X113665000Y-96520000D03*
X112395000Y-96520000D03*
X118745000Y-93345000D03*
X100965000Y-92075000D03*
X109855000Y-92075000D03*
X106045000Y-88265000D03*
X107950000Y-116205000D03*
X102235000Y-107315000D03*
X103505000Y-108585000D03*
D28*
X163975000Y-95015000D02*
X154825000Y-95015000D01*
X151950000Y-104140000D02*
X151765000Y-104140000D01*
X151130000Y-104775000D02*
X151130000Y-106551092D01*
X151765000Y-104140000D02*
X151130000Y-104775000D01*
X160020000Y-110750000D02*
X157350000Y-110750000D01*
X160020000Y-110750000D02*
X160770000Y-110750000D01*
X161595000Y-106680000D02*
X161595000Y-109925000D01*
X160770000Y-110750000D02*
X161290000Y-110230000D01*
X161290000Y-110230000D02*
X161595000Y-109925000D01*
D29*
X100965000Y-101755000D02*
X100965000Y-101600000D01*
X100965000Y-101600000D02*
X102235000Y-100330000D01*
X103505000Y-103025000D02*
X103505000Y-102870000D01*
X103505000Y-102870000D02*
X106045000Y-100330000D01*
X106045000Y-104140000D02*
X108585000Y-101600000D01*
D30*
X110490000Y-80645000D02*
X107950000Y-80645000D01*
X107950000Y-80645000D02*
X105410000Y-80645000D01*
D28*
X157105000Y-85725000D02*
X156845000Y-85985000D01*
X158905000Y-85725000D02*
X157105000Y-85725000D01*
X156845000Y-92995000D02*
X154825000Y-95015000D01*
X156845000Y-85985000D02*
X156845000Y-92995000D01*
X167720000Y-95015000D02*
X168275000Y-94460000D01*
X163975000Y-95015000D02*
X167720000Y-95015000D01*
X120650000Y-115570000D02*
X120650000Y-113030000D01*
D29*
X98425000Y-100965000D02*
X98425000Y-100711000D01*
X98425000Y-100711000D02*
X100076000Y-99060000D01*
D28*
X100076000Y-97028000D02*
X96520000Y-97028000D01*
X160020000Y-105410000D02*
X158750000Y-104140000D01*
X171785000Y-104140000D02*
X172720000Y-105075000D01*
D31*
X172720000Y-109220000D02*
X172720000Y-105075000D01*
D28*
X158750000Y-104140000D02*
X160657500Y-104140000D01*
X160657500Y-104140000D02*
X161592500Y-105075000D01*
X161592500Y-105075000D02*
X160355000Y-105075000D01*
X167640000Y-104140000D02*
X171785000Y-104140000D01*
X167640000Y-104140000D02*
X172720000Y-109220000D01*
X165100000Y-104140000D02*
X166370000Y-104140000D01*
X165100000Y-104140000D02*
X167640000Y-104140000D01*
X158750000Y-104140000D02*
X165100000Y-104140000D01*
X171450000Y-109220000D02*
X172720000Y-109220000D01*
X166370000Y-104140000D02*
X171450000Y-109220000D01*
X170180000Y-109220000D02*
X166035000Y-105075000D01*
X172720000Y-109220000D02*
X170180000Y-109220000D01*
X164165000Y-105075000D02*
X166035000Y-105075000D01*
X164165000Y-105075000D02*
X164765000Y-105075000D01*
X161592500Y-105075000D02*
X164165000Y-105075000D01*
X164765000Y-105075000D02*
X168910000Y-109220000D01*
X168910000Y-112430000D02*
X172720000Y-116240000D01*
X168910000Y-109220000D02*
X168910000Y-112430000D01*
X160020000Y-105410000D02*
X160355000Y-105075000D01*
X160020000Y-107950000D02*
X160020000Y-105410000D01*
D31*
X172720000Y-115570000D02*
X172720000Y-105075000D01*
D28*
X150625000Y-109350000D02*
X153670000Y-109350000D01*
X149005001Y-107730001D02*
X150625000Y-109350000D01*
X153670000Y-111760000D02*
X153670000Y-109350000D01*
X149005001Y-88679999D02*
X149005001Y-90389999D01*
X151700000Y-85985000D02*
X149005001Y-88679999D01*
X153670000Y-85985000D02*
X151700000Y-85985000D01*
X149005001Y-90389999D02*
X149005001Y-107730001D01*
X157050000Y-107650000D02*
X157050000Y-104140000D01*
X157350000Y-107950000D02*
X157050000Y-107650000D01*
D29*
X103275000Y-105005000D02*
X103505000Y-104775000D01*
X95940000Y-105005000D02*
X103275000Y-105005000D01*
X110709001Y-100745999D02*
X114935000Y-96520000D01*
X103505000Y-104775000D02*
X107534001Y-100745999D01*
X107534001Y-100745999D02*
X110709001Y-100745999D01*
X105930000Y-106005000D02*
X106045000Y-105890000D01*
X95940000Y-106005000D02*
X105930000Y-106005000D01*
X106045000Y-105890000D02*
X107470000Y-105890000D01*
X107470000Y-105890000D02*
X114935000Y-98425000D01*
X129540000Y-93980000D02*
X129540000Y-96520000D01*
X121920000Y-86360000D02*
X129540000Y-93980000D01*
X108585000Y-92075000D02*
X108585000Y-88900000D01*
X110143009Y-87341991D02*
X108585000Y-88900000D01*
X119735928Y-87341991D02*
X110143009Y-87341991D01*
X120717919Y-86360000D02*
X119735928Y-87341991D01*
X121920000Y-86360000D02*
X120717919Y-86360000D01*
X118964001Y-91024001D02*
X123610001Y-95670001D01*
X123610001Y-95670001D02*
X124460000Y-96520000D01*
X112175999Y-91024001D02*
X118964001Y-91024001D01*
X111125000Y-92075000D02*
X112175999Y-91024001D01*
D32*
X131230001Y-89749999D02*
X132080000Y-88900000D01*
X130902999Y-90077001D02*
X131230001Y-89749999D01*
X130902999Y-96898963D02*
X130902999Y-90077001D01*
X114935000Y-113665000D02*
X115570000Y-114300000D01*
X115570000Y-114300000D02*
X117475000Y-114300000D01*
X117475000Y-114300000D02*
X118663481Y-113111519D01*
X118663481Y-113111519D02*
X118663481Y-109138481D01*
X118663481Y-109138481D02*
X130902999Y-96898963D01*
D29*
X100465000Y-104005000D02*
X100965000Y-103505000D01*
X95940000Y-104005000D02*
X100465000Y-104005000D01*
X101600000Y-102870000D02*
X101944010Y-102525990D01*
X100965000Y-103505000D02*
X101600000Y-102870000D01*
X101944010Y-102525990D02*
X104994001Y-99475999D01*
X110709001Y-99475999D02*
X113665000Y-96520000D01*
X104994001Y-99475999D02*
X110709001Y-99475999D01*
X98135000Y-103005000D02*
X98425000Y-102715000D01*
X95940000Y-103005000D02*
X98135000Y-103005000D01*
X99404010Y-101727690D02*
X103341700Y-97790000D01*
X98425000Y-102715000D02*
X99404010Y-101735990D01*
X99404010Y-101735990D02*
X99404010Y-101727690D01*
X103341700Y-97790000D02*
X111125000Y-97790000D01*
X111125000Y-97790000D02*
X112395000Y-96520000D01*
X118745000Y-93345000D02*
X103505000Y-93345000D01*
X103505000Y-93345000D02*
X102235000Y-92075000D01*
X102235000Y-92075000D02*
X100965000Y-92075000D01*
X111783077Y-88050001D02*
X121070001Y-88050001D01*
X121070001Y-88050001D02*
X121920000Y-88900000D01*
X109855000Y-92075000D02*
X109855000Y-89978078D01*
X109855000Y-89978078D02*
X111783077Y-88050001D01*
D28*
X170515000Y-100330000D02*
X172720000Y-98125000D01*
X163975000Y-97555000D02*
X163975000Y-99375000D01*
X172720000Y-98125000D02*
X166705000Y-98125000D01*
X166705000Y-98125000D02*
X165770000Y-99060000D01*
X165770000Y-99060000D02*
X168910000Y-99060000D01*
X164265000Y-97555000D02*
X165770000Y-99060000D01*
X163975000Y-97555000D02*
X164265000Y-97555000D01*
X165770000Y-99060000D02*
X165100000Y-99060000D01*
X165100000Y-99060000D02*
X164380000Y-99780000D01*
X163975000Y-99375000D02*
X164380000Y-99780000D01*
X164380000Y-99780000D02*
X164930000Y-100330000D01*
X168910000Y-100330000D02*
X170180000Y-99060000D01*
X168910000Y-100330000D02*
X170515000Y-100330000D01*
X164930000Y-100330000D02*
X168910000Y-100330000D01*
X172150000Y-97555000D02*
X172720000Y-98125000D01*
X163975000Y-97555000D02*
X172150000Y-97555000D01*
X153670000Y-104160000D02*
X153650000Y-104140000D01*
X153670000Y-106550000D02*
X153670000Y-104160000D01*
X163975000Y-92475000D02*
X163975000Y-87775000D01*
X161925000Y-85725000D02*
X160655000Y-85725000D01*
X163975000Y-87775000D02*
X161925000Y-85725000D01*
X156845000Y-83185000D02*
X158815000Y-83185000D01*
X159385000Y-83185000D02*
X163975000Y-87775000D01*
X158815000Y-83185000D02*
X159385000Y-83185000D01*
X156845000Y-83185000D02*
X153670000Y-83185000D01*
X164210000Y-92710000D02*
X163975000Y-92475000D01*
X168275000Y-92710000D02*
X164210000Y-92710000D01*
D29*
X152462000Y-83185000D02*
X153670000Y-83185000D01*
X111794001Y-82515999D02*
X151792999Y-82515999D01*
X151792999Y-82515999D02*
X152462000Y-83185000D01*
X106045000Y-88265000D02*
X111794001Y-82515999D01*
X115570000Y-124460000D02*
X107950000Y-116840000D01*
X107950000Y-116840000D02*
X107950000Y-116205000D01*
X105092500Y-108902500D02*
X120650000Y-124460000D01*
X103505000Y-107315000D02*
X105092500Y-108902500D01*
X102235000Y-107315000D02*
X103505000Y-107315000D01*
X103505000Y-109855000D02*
X118110000Y-124460000D01*
X103505000Y-108585000D02*
X103505000Y-109855000D01*
D32*
G36*
X182220000Y-76473381D02*
G01*
X182220001Y-125456618D01*
X178796620Y-128880000D01*
X95523381Y-128880000D01*
X92935936Y-126292555D01*
X94685500Y-126292555D01*
X94685500Y-126691445D01*
X94763320Y-127082671D01*
X94915968Y-127451197D01*
X95137580Y-127782862D01*
X95419638Y-128064920D01*
X95751303Y-128286532D01*
X96119829Y-128439180D01*
X96511055Y-128517000D01*
X96909945Y-128517000D01*
X97301171Y-128439180D01*
X97669697Y-128286532D01*
X98001362Y-128064920D01*
X98283420Y-127782862D01*
X98505032Y-127451197D01*
X98657680Y-127082671D01*
X98735500Y-126691445D01*
X98735500Y-126292555D01*
X152788000Y-126292555D01*
X152788000Y-126691445D01*
X152865820Y-127082671D01*
X153018468Y-127451197D01*
X153240080Y-127782862D01*
X153522138Y-128064920D01*
X153853803Y-128286532D01*
X154222329Y-128439180D01*
X154613555Y-128517000D01*
X155012445Y-128517000D01*
X155403671Y-128439180D01*
X155772197Y-128286532D01*
X156103862Y-128064920D01*
X156385920Y-127782862D01*
X156607532Y-127451197D01*
X156760180Y-127082671D01*
X156838000Y-126691445D01*
X156838000Y-126292555D01*
X156760180Y-125901329D01*
X156607532Y-125532803D01*
X156385920Y-125201138D01*
X156103862Y-124919080D01*
X155772197Y-124697468D01*
X155403671Y-124544820D01*
X155012445Y-124467000D01*
X154613555Y-124467000D01*
X154222329Y-124544820D01*
X153853803Y-124697468D01*
X153522138Y-124919080D01*
X153240080Y-125201138D01*
X153018468Y-125532803D01*
X152865820Y-125901329D01*
X152788000Y-126292555D01*
X98735500Y-126292555D01*
X98657680Y-125901329D01*
X98505032Y-125532803D01*
X98283420Y-125201138D01*
X98001362Y-124919080D01*
X97669697Y-124697468D01*
X97301171Y-124544820D01*
X96909945Y-124467000D01*
X96511055Y-124467000D01*
X96119829Y-124544820D01*
X95751303Y-124697468D01*
X95419638Y-124919080D01*
X95137580Y-125201138D01*
X94915968Y-125532803D01*
X94763320Y-125901329D01*
X94685500Y-126292555D01*
X92935936Y-126292555D01*
X92100000Y-125456620D01*
X92100000Y-108237831D01*
X92137038Y-108282962D01*
X92271613Y-108393405D01*
X92425149Y-108475472D01*
X92591745Y-108526008D01*
X92764999Y-108543072D01*
X94065001Y-108543072D01*
X94238255Y-108526008D01*
X94404851Y-108475472D01*
X94558387Y-108393405D01*
X94692962Y-108282962D01*
X94803405Y-108148387D01*
X94885472Y-107994851D01*
X94936008Y-107828255D01*
X94953072Y-107655001D01*
X94953072Y-106954999D01*
X94942242Y-106845039D01*
X95013418Y-106883084D01*
X95161255Y-106927929D01*
X95315000Y-106943072D01*
X96565000Y-106943072D01*
X96718745Y-106927929D01*
X96830596Y-106894000D01*
X101289108Y-106894000D01*
X101239774Y-107013102D01*
X101200000Y-107213061D01*
X101200000Y-107416939D01*
X101239774Y-107616898D01*
X101317795Y-107805256D01*
X101431063Y-107974774D01*
X101575226Y-108118937D01*
X101744744Y-108232205D01*
X101933102Y-108310226D01*
X102133061Y-108350000D01*
X102336939Y-108350000D01*
X102503039Y-108316961D01*
X102470000Y-108483061D01*
X102470000Y-108686939D01*
X102509774Y-108886898D01*
X102587795Y-109075256D01*
X102616000Y-109117469D01*
X102616001Y-109811331D01*
X102611700Y-109855000D01*
X102628864Y-110029274D01*
X102679698Y-110196852D01*
X102762248Y-110351291D01*
X102811312Y-110411075D01*
X102873342Y-110486659D01*
X102907259Y-110514494D01*
X107615884Y-115223119D01*
X107459744Y-115287795D01*
X107290226Y-115401063D01*
X107146063Y-115545226D01*
X107032795Y-115714744D01*
X106954774Y-115903102D01*
X106915000Y-116103061D01*
X106915000Y-116306939D01*
X106954774Y-116506898D01*
X107032795Y-116695256D01*
X107061000Y-116737468D01*
X107061000Y-116796340D01*
X107056700Y-116840000D01*
X107061000Y-116883660D01*
X107061000Y-116883666D01*
X107067434Y-116948987D01*
X107073864Y-117014274D01*
X107080175Y-117035078D01*
X107124697Y-117181850D01*
X107207247Y-117336290D01*
X107318341Y-117471659D01*
X107352264Y-117499499D01*
X114098881Y-124246116D01*
X114077815Y-124460000D01*
X114106487Y-124751111D01*
X114191401Y-125031034D01*
X114329294Y-125289014D01*
X114514866Y-125515134D01*
X114740986Y-125700706D01*
X114998966Y-125838599D01*
X115278889Y-125923513D01*
X115497050Y-125945000D01*
X115642950Y-125945000D01*
X115861111Y-125923513D01*
X116141034Y-125838599D01*
X116399014Y-125700706D01*
X116625134Y-125515134D01*
X116810706Y-125289014D01*
X116840000Y-125234209D01*
X116869294Y-125289014D01*
X117054866Y-125515134D01*
X117280986Y-125700706D01*
X117538966Y-125838599D01*
X117818889Y-125923513D01*
X118037050Y-125945000D01*
X118182950Y-125945000D01*
X118401111Y-125923513D01*
X118681034Y-125838599D01*
X118939014Y-125700706D01*
X119165134Y-125515134D01*
X119350706Y-125289014D01*
X119380000Y-125234209D01*
X119409294Y-125289014D01*
X119594866Y-125515134D01*
X119820986Y-125700706D01*
X120078966Y-125838599D01*
X120358889Y-125923513D01*
X120577050Y-125945000D01*
X120722950Y-125945000D01*
X120941111Y-125923513D01*
X121221034Y-125838599D01*
X121479014Y-125700706D01*
X121705134Y-125515134D01*
X121890706Y-125289014D01*
X121920000Y-125234209D01*
X121949294Y-125289014D01*
X122134866Y-125515134D01*
X122360986Y-125700706D01*
X122618966Y-125838599D01*
X122898889Y-125923513D01*
X123117050Y-125945000D01*
X123262950Y-125945000D01*
X123481111Y-125923513D01*
X123761034Y-125838599D01*
X124019014Y-125700706D01*
X124245134Y-125515134D01*
X124430706Y-125289014D01*
X124460000Y-125234209D01*
X124489294Y-125289014D01*
X124674866Y-125515134D01*
X124900986Y-125700706D01*
X125158966Y-125838599D01*
X125438889Y-125923513D01*
X125657050Y-125945000D01*
X125802950Y-125945000D01*
X126021111Y-125923513D01*
X126301034Y-125838599D01*
X126559014Y-125700706D01*
X126785134Y-125515134D01*
X126809607Y-125485313D01*
X126830498Y-125554180D01*
X126889463Y-125664494D01*
X126968815Y-125761185D01*
X127065506Y-125840537D01*
X127175820Y-125899502D01*
X127295518Y-125935812D01*
X127420000Y-125948072D01*
X129120000Y-125948072D01*
X129244482Y-125935812D01*
X129364180Y-125899502D01*
X129474494Y-125840537D01*
X129571185Y-125761185D01*
X129650537Y-125664494D01*
X129709502Y-125554180D01*
X129745812Y-125434482D01*
X129758072Y-125310000D01*
X129758072Y-123610000D01*
X129745812Y-123485518D01*
X129709502Y-123365820D01*
X129650537Y-123255506D01*
X129571185Y-123158815D01*
X129474494Y-123079463D01*
X129364180Y-123020498D01*
X129244482Y-122984188D01*
X129120000Y-122971928D01*
X127420000Y-122971928D01*
X127295518Y-122984188D01*
X127175820Y-123020498D01*
X127065506Y-123079463D01*
X126968815Y-123158815D01*
X126889463Y-123255506D01*
X126830498Y-123365820D01*
X126809607Y-123434687D01*
X126785134Y-123404866D01*
X126559014Y-123219294D01*
X126301034Y-123081401D01*
X126021111Y-122996487D01*
X125802950Y-122975000D01*
X125657050Y-122975000D01*
X125438889Y-122996487D01*
X125158966Y-123081401D01*
X124900986Y-123219294D01*
X124674866Y-123404866D01*
X124489294Y-123630986D01*
X124460000Y-123685791D01*
X124430706Y-123630986D01*
X124245134Y-123404866D01*
X124019014Y-123219294D01*
X123761034Y-123081401D01*
X123481111Y-122996487D01*
X123262950Y-122975000D01*
X123117050Y-122975000D01*
X122898889Y-122996487D01*
X122618966Y-123081401D01*
X122360986Y-123219294D01*
X122134866Y-123404866D01*
X121949294Y-123630986D01*
X121920000Y-123685791D01*
X121890706Y-123630986D01*
X121705134Y-123404866D01*
X121479014Y-123219294D01*
X121221034Y-123081401D01*
X120941111Y-122996487D01*
X120722950Y-122975000D01*
X120577050Y-122975000D01*
X120436117Y-122988881D01*
X118247236Y-120800000D01*
X152953461Y-120800000D01*
X152999510Y-121267542D01*
X153135887Y-121717116D01*
X153357351Y-122131446D01*
X153655391Y-122494609D01*
X154018554Y-122792649D01*
X154432884Y-123014113D01*
X154882458Y-123150490D01*
X155232843Y-123185000D01*
X155467157Y-123185000D01*
X155817542Y-123150490D01*
X156267116Y-123014113D01*
X156681446Y-122792649D01*
X157044609Y-122494609D01*
X157342649Y-122131446D01*
X157564113Y-121717116D01*
X157700490Y-121267542D01*
X157746539Y-120800000D01*
X157700490Y-120332458D01*
X157564113Y-119882884D01*
X157342649Y-119468554D01*
X157044609Y-119105391D01*
X156681446Y-118807351D01*
X156267116Y-118585887D01*
X155817542Y-118449510D01*
X155467157Y-118415000D01*
X155232843Y-118415000D01*
X154882458Y-118449510D01*
X154432884Y-118585887D01*
X154018554Y-118807351D01*
X153655391Y-119105391D01*
X153357351Y-119468554D01*
X153135887Y-119882884D01*
X152999510Y-120332458D01*
X152953461Y-120800000D01*
X118247236Y-120800000D01*
X105752000Y-108304765D01*
X105751995Y-108304759D01*
X104341235Y-106894000D01*
X105212351Y-106894000D01*
X105282169Y-106951298D01*
X105437866Y-107034520D01*
X105606807Y-107085768D01*
X105782500Y-107103072D01*
X106307500Y-107103072D01*
X106483193Y-107085768D01*
X106652134Y-107034520D01*
X106807831Y-106951298D01*
X106944301Y-106839301D01*
X106993788Y-106779000D01*
X107426340Y-106779000D01*
X107470000Y-106783300D01*
X107513660Y-106779000D01*
X107513667Y-106779000D01*
X107644274Y-106766136D01*
X107811851Y-106715303D01*
X107966291Y-106632753D01*
X108101659Y-106521659D01*
X108129499Y-106487736D01*
X115187105Y-99430130D01*
X115236898Y-99420226D01*
X115425256Y-99342205D01*
X115594774Y-99228937D01*
X115738937Y-99084774D01*
X115852205Y-98915256D01*
X115930226Y-98726898D01*
X115970000Y-98526939D01*
X115970000Y-98323061D01*
X115930226Y-98123102D01*
X115852205Y-97934744D01*
X115738937Y-97765226D01*
X115594774Y-97621063D01*
X115425256Y-97507795D01*
X115340047Y-97472500D01*
X115425256Y-97437205D01*
X115594774Y-97323937D01*
X115738937Y-97179774D01*
X115852205Y-97010256D01*
X115930226Y-96821898D01*
X115970000Y-96621939D01*
X115970000Y-96418061D01*
X115930226Y-96218102D01*
X115852205Y-96029744D01*
X115738937Y-95860226D01*
X115594774Y-95716063D01*
X115425256Y-95602795D01*
X115236898Y-95524774D01*
X115036939Y-95485000D01*
X114833061Y-95485000D01*
X114633102Y-95524774D01*
X114444744Y-95602795D01*
X114300000Y-95699510D01*
X114155256Y-95602795D01*
X113966898Y-95524774D01*
X113766939Y-95485000D01*
X113563061Y-95485000D01*
X113363102Y-95524774D01*
X113174744Y-95602795D01*
X113030000Y-95699510D01*
X112885256Y-95602795D01*
X112696898Y-95524774D01*
X112496939Y-95485000D01*
X112293061Y-95485000D01*
X112093102Y-95524774D01*
X111904744Y-95602795D01*
X111735226Y-95716063D01*
X111591063Y-95860226D01*
X111477795Y-96029744D01*
X111399774Y-96218102D01*
X111389870Y-96267895D01*
X110756765Y-96901000D01*
X103385368Y-96901000D01*
X103341700Y-96896699D01*
X103167425Y-96913864D01*
X103127217Y-96926061D01*
X102999849Y-96964697D01*
X102845409Y-97047247D01*
X102710041Y-97158341D01*
X102682206Y-97192258D01*
X101078715Y-98795750D01*
X101071226Y-98758102D01*
X100993205Y-98569744D01*
X100879937Y-98400226D01*
X100735774Y-98256063D01*
X100618800Y-98177904D01*
X100784988Y-98089075D01*
X100978370Y-97930370D01*
X101137075Y-97736988D01*
X101255003Y-97516359D01*
X101327623Y-97276963D01*
X101352144Y-97028000D01*
X101327623Y-96779037D01*
X101255003Y-96539641D01*
X101137075Y-96319012D01*
X100978370Y-96125630D01*
X100784988Y-95966925D01*
X100564359Y-95848997D01*
X100324963Y-95776377D01*
X100138380Y-95758000D01*
X96457620Y-95758000D01*
X96271037Y-95776377D01*
X96031641Y-95848997D01*
X95811012Y-95966925D01*
X95617630Y-96125630D01*
X95458925Y-96319012D01*
X95340997Y-96539641D01*
X95268377Y-96779037D01*
X95243856Y-97028000D01*
X95268377Y-97276963D01*
X95340997Y-97516359D01*
X95458925Y-97736988D01*
X95617630Y-97930370D01*
X95811012Y-98089075D01*
X96031641Y-98207003D01*
X96271037Y-98279623D01*
X96457620Y-98298000D01*
X99374289Y-98298000D01*
X99272063Y-98400226D01*
X99158795Y-98569744D01*
X99080774Y-98758102D01*
X99070870Y-98807895D01*
X98122941Y-99755824D01*
X97986807Y-99769232D01*
X97817866Y-99820480D01*
X97662169Y-99903702D01*
X97525699Y-100015699D01*
X97413702Y-100152169D01*
X97330480Y-100307866D01*
X97279232Y-100476807D01*
X97275016Y-100519615D01*
X97220258Y-100417171D01*
X97122251Y-100297749D01*
X97002829Y-100199742D01*
X96866582Y-100126916D01*
X96718745Y-100082071D01*
X96565000Y-100066928D01*
X95315000Y-100066928D01*
X95161255Y-100082071D01*
X95013418Y-100126916D01*
X94942242Y-100164961D01*
X94953072Y-100055001D01*
X94953072Y-99354999D01*
X94936008Y-99181745D01*
X94885472Y-99015149D01*
X94803405Y-98861613D01*
X94692962Y-98727038D01*
X94558387Y-98616595D01*
X94404851Y-98534528D01*
X94238255Y-98483992D01*
X94065001Y-98466928D01*
X92764999Y-98466928D01*
X92591745Y-98483992D01*
X92425149Y-98534528D01*
X92271613Y-98616595D01*
X92137038Y-98727038D01*
X92100000Y-98772169D01*
X92100000Y-91973061D01*
X99930000Y-91973061D01*
X99930000Y-92176939D01*
X99969774Y-92376898D01*
X100047795Y-92565256D01*
X100161063Y-92734774D01*
X100305226Y-92878937D01*
X100474744Y-92992205D01*
X100663102Y-93070226D01*
X100863061Y-93110000D01*
X101066939Y-93110000D01*
X101266898Y-93070226D01*
X101455256Y-92992205D01*
X101497468Y-92964000D01*
X101866765Y-92964000D01*
X102845506Y-93942741D01*
X102873341Y-93976659D01*
X103008709Y-94087753D01*
X103163149Y-94170303D01*
X103229058Y-94190296D01*
X103330724Y-94221136D01*
X103363924Y-94224406D01*
X103461333Y-94234000D01*
X103461339Y-94234000D01*
X103504999Y-94238300D01*
X103548659Y-94234000D01*
X118212532Y-94234000D01*
X118254744Y-94262205D01*
X118443102Y-94340226D01*
X118643061Y-94380000D01*
X118846939Y-94380000D01*
X119046898Y-94340226D01*
X119235256Y-94262205D01*
X119404774Y-94148937D01*
X119548937Y-94004774D01*
X119662205Y-93835256D01*
X119740226Y-93646898D01*
X119780000Y-93446939D01*
X119780000Y-93243061D01*
X119743791Y-93061027D01*
X121729356Y-95046592D01*
X121628889Y-95056487D01*
X121348966Y-95141401D01*
X121090986Y-95279294D01*
X120864866Y-95464866D01*
X120679294Y-95690986D01*
X120541401Y-95948966D01*
X120456487Y-96228889D01*
X120427815Y-96520000D01*
X120456487Y-96811111D01*
X120541401Y-97091034D01*
X120679294Y-97349014D01*
X120864866Y-97575134D01*
X121090986Y-97760706D01*
X121348966Y-97898599D01*
X121628889Y-97983513D01*
X121847050Y-98005000D01*
X121992950Y-98005000D01*
X122211111Y-97983513D01*
X122491034Y-97898599D01*
X122749014Y-97760706D01*
X122975134Y-97575134D01*
X123160706Y-97349014D01*
X123190000Y-97294209D01*
X123219294Y-97349014D01*
X123404866Y-97575134D01*
X123630986Y-97760706D01*
X123888966Y-97898599D01*
X124168889Y-97983513D01*
X124387050Y-98005000D01*
X124532950Y-98005000D01*
X124751111Y-97983513D01*
X125031034Y-97898599D01*
X125289014Y-97760706D01*
X125515134Y-97575134D01*
X125700706Y-97349014D01*
X125730000Y-97294209D01*
X125759294Y-97349014D01*
X125944866Y-97575134D01*
X126170986Y-97760706D01*
X126428966Y-97898599D01*
X126708889Y-97983513D01*
X126927050Y-98005000D01*
X127072950Y-98005000D01*
X127291111Y-97983513D01*
X127571034Y-97898599D01*
X127829014Y-97760706D01*
X128055134Y-97575134D01*
X128240706Y-97349014D01*
X128270000Y-97294209D01*
X128299294Y-97349014D01*
X128484866Y-97575134D01*
X128710986Y-97760706D01*
X128875624Y-97848707D01*
X118151130Y-108573202D01*
X118122060Y-108597059D01*
X118098203Y-108626129D01*
X118098202Y-108626130D01*
X118026836Y-108713089D01*
X117956080Y-108845466D01*
X117912508Y-108989103D01*
X117897795Y-109138481D01*
X117901482Y-109175914D01*
X117901481Y-112795888D01*
X117159370Y-113538000D01*
X115965015Y-113538000D01*
X115930226Y-113363102D01*
X115852205Y-113174744D01*
X115738937Y-113005226D01*
X115594774Y-112861063D01*
X115425256Y-112747795D01*
X115236898Y-112669774D01*
X115036939Y-112630000D01*
X114833061Y-112630000D01*
X114633102Y-112669774D01*
X114444744Y-112747795D01*
X114275226Y-112861063D01*
X114131063Y-113005226D01*
X114017795Y-113174744D01*
X113939774Y-113363102D01*
X113900000Y-113563061D01*
X113900000Y-113766939D01*
X113939774Y-113966898D01*
X114017795Y-114155256D01*
X114131063Y-114324774D01*
X114275226Y-114468937D01*
X114444744Y-114582205D01*
X114633102Y-114660226D01*
X114833061Y-114700000D01*
X114892370Y-114700000D01*
X115004716Y-114812346D01*
X115028578Y-114841422D01*
X115102219Y-114901857D01*
X115144607Y-114936645D01*
X115215364Y-114974465D01*
X115276985Y-115007402D01*
X115420622Y-115050974D01*
X115532574Y-115062000D01*
X115532577Y-115062000D01*
X115570000Y-115065686D01*
X115607423Y-115062000D01*
X117437577Y-115062000D01*
X117475000Y-115065686D01*
X117512423Y-115062000D01*
X117512426Y-115062000D01*
X117624378Y-115050974D01*
X117768015Y-115007402D01*
X117900392Y-114936645D01*
X118016422Y-114841422D01*
X118040284Y-114812346D01*
X119175834Y-113676797D01*
X119204903Y-113652941D01*
X119254425Y-113592598D01*
X119300126Y-113536912D01*
X119370882Y-113404535D01*
X119370883Y-113404534D01*
X119380001Y-113374477D01*
X119380000Y-115632379D01*
X119398377Y-115818962D01*
X119470997Y-116058358D01*
X119588925Y-116278987D01*
X119747630Y-116472370D01*
X119941012Y-116631075D01*
X120161641Y-116749003D01*
X120401037Y-116821623D01*
X120650000Y-116846144D01*
X120898962Y-116821623D01*
X121138358Y-116749003D01*
X121358987Y-116631075D01*
X121552370Y-116472370D01*
X121711075Y-116278988D01*
X121829003Y-116058359D01*
X121901623Y-115818963D01*
X121920000Y-115632380D01*
X121920000Y-115355000D01*
X125511928Y-115355000D01*
X125511928Y-117055000D01*
X125524188Y-117179482D01*
X125560498Y-117299180D01*
X125619463Y-117409494D01*
X125698815Y-117506185D01*
X125795506Y-117585537D01*
X125905820Y-117644502D01*
X126025518Y-117680812D01*
X126150000Y-117693072D01*
X127850000Y-117693072D01*
X127974482Y-117680812D01*
X128094180Y-117644502D01*
X128204494Y-117585537D01*
X128301185Y-117506185D01*
X128380537Y-117409494D01*
X128439502Y-117299180D01*
X128460393Y-117230313D01*
X128484866Y-117260134D01*
X128710986Y-117445706D01*
X128968966Y-117583599D01*
X129248889Y-117668513D01*
X129467050Y-117690000D01*
X129612950Y-117690000D01*
X129831111Y-117668513D01*
X130111034Y-117583599D01*
X130369014Y-117445706D01*
X130595134Y-117260134D01*
X130780706Y-117034014D01*
X130810000Y-116979209D01*
X130839294Y-117034014D01*
X131024866Y-117260134D01*
X131250986Y-117445706D01*
X131508966Y-117583599D01*
X131788889Y-117668513D01*
X132007050Y-117690000D01*
X132152950Y-117690000D01*
X132371111Y-117668513D01*
X132651034Y-117583599D01*
X132909014Y-117445706D01*
X133135134Y-117260134D01*
X133320706Y-117034014D01*
X133350000Y-116979209D01*
X133379294Y-117034014D01*
X133564866Y-117260134D01*
X133790986Y-117445706D01*
X134048966Y-117583599D01*
X134328889Y-117668513D01*
X134547050Y-117690000D01*
X134692950Y-117690000D01*
X134911111Y-117668513D01*
X135191034Y-117583599D01*
X135449014Y-117445706D01*
X135675134Y-117260134D01*
X135860706Y-117034014D01*
X135998599Y-116776034D01*
X136083513Y-116496111D01*
X136112185Y-116205000D01*
X136083513Y-115913889D01*
X135998599Y-115633966D01*
X135860706Y-115375986D01*
X135843484Y-115355000D01*
X140751928Y-115355000D01*
X140751928Y-117055000D01*
X140764188Y-117179482D01*
X140800498Y-117299180D01*
X140859463Y-117409494D01*
X140938815Y-117506185D01*
X141035506Y-117585537D01*
X141145820Y-117644502D01*
X141265518Y-117680812D01*
X141390000Y-117693072D01*
X143090000Y-117693072D01*
X143214482Y-117680812D01*
X143334180Y-117644502D01*
X143444494Y-117585537D01*
X143541185Y-117506185D01*
X143620537Y-117409494D01*
X143679502Y-117299180D01*
X143700393Y-117230313D01*
X143724866Y-117260134D01*
X143950986Y-117445706D01*
X144208966Y-117583599D01*
X144488889Y-117668513D01*
X144707050Y-117690000D01*
X144852950Y-117690000D01*
X145071111Y-117668513D01*
X145351034Y-117583599D01*
X145609014Y-117445706D01*
X145835134Y-117260134D01*
X146020706Y-117034014D01*
X146158599Y-116776034D01*
X146243513Y-116496111D01*
X146272185Y-116205000D01*
X146243513Y-115913889D01*
X146158599Y-115633966D01*
X146020706Y-115375986D01*
X145835134Y-115149866D01*
X145609014Y-114964294D01*
X145351034Y-114826401D01*
X145071111Y-114741487D01*
X144852950Y-114720000D01*
X144707050Y-114720000D01*
X144488889Y-114741487D01*
X144208966Y-114826401D01*
X143950986Y-114964294D01*
X143724866Y-115149866D01*
X143700393Y-115179687D01*
X143679502Y-115110820D01*
X143620537Y-115000506D01*
X143541185Y-114903815D01*
X143444494Y-114824463D01*
X143334180Y-114765498D01*
X143214482Y-114729188D01*
X143090000Y-114716928D01*
X141390000Y-114716928D01*
X141265518Y-114729188D01*
X141145820Y-114765498D01*
X141035506Y-114824463D01*
X140938815Y-114903815D01*
X140859463Y-115000506D01*
X140800498Y-115110820D01*
X140764188Y-115230518D01*
X140751928Y-115355000D01*
X135843484Y-115355000D01*
X135675134Y-115149866D01*
X135449014Y-114964294D01*
X135191034Y-114826401D01*
X134911111Y-114741487D01*
X134692950Y-114720000D01*
X134547050Y-114720000D01*
X134328889Y-114741487D01*
X134048966Y-114826401D01*
X133790986Y-114964294D01*
X133564866Y-115149866D01*
X133379294Y-115375986D01*
X133350000Y-115430791D01*
X133320706Y-115375986D01*
X133135134Y-115149866D01*
X132909014Y-114964294D01*
X132651034Y-114826401D01*
X132371111Y-114741487D01*
X132152950Y-114720000D01*
X132007050Y-114720000D01*
X131788889Y-114741487D01*
X131508966Y-114826401D01*
X131250986Y-114964294D01*
X131024866Y-115149866D01*
X130839294Y-115375986D01*
X130810000Y-115430791D01*
X130780706Y-115375986D01*
X130595134Y-115149866D01*
X130369014Y-114964294D01*
X130111034Y-114826401D01*
X129831111Y-114741487D01*
X129612950Y-114720000D01*
X129467050Y-114720000D01*
X129248889Y-114741487D01*
X128968966Y-114826401D01*
X128710986Y-114964294D01*
X128484866Y-115149866D01*
X128460393Y-115179687D01*
X128439502Y-115110820D01*
X128380537Y-115000506D01*
X128301185Y-114903815D01*
X128204494Y-114824463D01*
X128094180Y-114765498D01*
X127974482Y-114729188D01*
X127850000Y-114716928D01*
X126150000Y-114716928D01*
X126025518Y-114729188D01*
X125905820Y-114765498D01*
X125795506Y-114824463D01*
X125698815Y-114903815D01*
X125619463Y-115000506D01*
X125560498Y-115110820D01*
X125524188Y-115230518D01*
X125511928Y-115355000D01*
X121920000Y-115355000D01*
X121920000Y-112967620D01*
X121901623Y-112781037D01*
X121829003Y-112541641D01*
X121711075Y-112321012D01*
X121552370Y-112127630D01*
X121358988Y-111968925D01*
X121138359Y-111850997D01*
X120898963Y-111778377D01*
X120650000Y-111753856D01*
X120401038Y-111778377D01*
X120161642Y-111850997D01*
X119941013Y-111968925D01*
X119747631Y-112127630D01*
X119588926Y-112321012D01*
X119470998Y-112541641D01*
X119425481Y-112691690D01*
X119425481Y-109454111D01*
X121284694Y-107594898D01*
X121264047Y-107644744D01*
X121182000Y-108057221D01*
X121182000Y-108477779D01*
X121264047Y-108890256D01*
X121424988Y-109278802D01*
X121658637Y-109628483D01*
X121956017Y-109925863D01*
X122305698Y-110159512D01*
X122694244Y-110320453D01*
X123106721Y-110402500D01*
X123527279Y-110402500D01*
X123939756Y-110320453D01*
X124328302Y-110159512D01*
X124677983Y-109925863D01*
X124975363Y-109628483D01*
X125209012Y-109278802D01*
X125369953Y-108890256D01*
X125452000Y-108477779D01*
X125452000Y-108057221D01*
X125439370Y-107993721D01*
X141311500Y-107993721D01*
X141311500Y-108414279D01*
X141393547Y-108826756D01*
X141554488Y-109215302D01*
X141788137Y-109564983D01*
X142085517Y-109862363D01*
X142435198Y-110096012D01*
X142823744Y-110256953D01*
X143236221Y-110339000D01*
X143656779Y-110339000D01*
X144069256Y-110256953D01*
X144457802Y-110096012D01*
X144807483Y-109862363D01*
X145104863Y-109564983D01*
X145338512Y-109215302D01*
X145499453Y-108826756D01*
X145581500Y-108414279D01*
X145581500Y-107993721D01*
X145499453Y-107581244D01*
X145338512Y-107192698D01*
X145104863Y-106843017D01*
X144807483Y-106545637D01*
X144457802Y-106311988D01*
X144069256Y-106151047D01*
X143656779Y-106069000D01*
X143236221Y-106069000D01*
X142823744Y-106151047D01*
X142435198Y-106311988D01*
X142085517Y-106545637D01*
X141788137Y-106843017D01*
X141554488Y-107192698D01*
X141393547Y-107581244D01*
X141311500Y-107993721D01*
X125439370Y-107993721D01*
X125369953Y-107644744D01*
X125209012Y-107256198D01*
X124975363Y-106906517D01*
X124677983Y-106609137D01*
X124328302Y-106375488D01*
X123939756Y-106214547D01*
X123527279Y-106132500D01*
X123106721Y-106132500D01*
X122694244Y-106214547D01*
X122644399Y-106235194D01*
X131178431Y-97701162D01*
X131250986Y-97760706D01*
X131508966Y-97898599D01*
X131788889Y-97983513D01*
X132007050Y-98005000D01*
X132152950Y-98005000D01*
X132371111Y-97983513D01*
X132651034Y-97898599D01*
X132909014Y-97760706D01*
X133135134Y-97575134D01*
X133320706Y-97349014D01*
X133350000Y-97294209D01*
X133379294Y-97349014D01*
X133564866Y-97575134D01*
X133790986Y-97760706D01*
X134048966Y-97898599D01*
X134328889Y-97983513D01*
X134547050Y-98005000D01*
X134692950Y-98005000D01*
X134911111Y-97983513D01*
X135191034Y-97898599D01*
X135449014Y-97760706D01*
X135675134Y-97575134D01*
X135860706Y-97349014D01*
X135890000Y-97294209D01*
X135919294Y-97349014D01*
X136104866Y-97575134D01*
X136330986Y-97760706D01*
X136588966Y-97898599D01*
X136868889Y-97983513D01*
X137087050Y-98005000D01*
X137232950Y-98005000D01*
X137451111Y-97983513D01*
X137731034Y-97898599D01*
X137989014Y-97760706D01*
X138215134Y-97575134D01*
X138400706Y-97349014D01*
X138430000Y-97294209D01*
X138459294Y-97349014D01*
X138644866Y-97575134D01*
X138870986Y-97760706D01*
X139128966Y-97898599D01*
X139408889Y-97983513D01*
X139627050Y-98005000D01*
X139772950Y-98005000D01*
X139991111Y-97983513D01*
X140271034Y-97898599D01*
X140529014Y-97760706D01*
X140755134Y-97575134D01*
X140940706Y-97349014D01*
X140970000Y-97294209D01*
X140999294Y-97349014D01*
X141184866Y-97575134D01*
X141410986Y-97760706D01*
X141668966Y-97898599D01*
X141948889Y-97983513D01*
X142167050Y-98005000D01*
X142312950Y-98005000D01*
X142531111Y-97983513D01*
X142811034Y-97898599D01*
X143069014Y-97760706D01*
X143295134Y-97575134D01*
X143319607Y-97545313D01*
X143340498Y-97614180D01*
X143399463Y-97724494D01*
X143478815Y-97821185D01*
X143575506Y-97900537D01*
X143685820Y-97959502D01*
X143805518Y-97995812D01*
X143930000Y-98008072D01*
X144494250Y-98005000D01*
X144653000Y-97846250D01*
X144653000Y-96647000D01*
X144907000Y-96647000D01*
X144907000Y-97846250D01*
X145065750Y-98005000D01*
X145630000Y-98008072D01*
X145754482Y-97995812D01*
X145874180Y-97959502D01*
X145984494Y-97900537D01*
X146081185Y-97821185D01*
X146160537Y-97724494D01*
X146219502Y-97614180D01*
X146255812Y-97494482D01*
X146268072Y-97370000D01*
X146265000Y-96805750D01*
X146106250Y-96647000D01*
X144907000Y-96647000D01*
X144653000Y-96647000D01*
X144633000Y-96647000D01*
X144633000Y-96393000D01*
X144653000Y-96393000D01*
X144653000Y-95193750D01*
X144907000Y-95193750D01*
X144907000Y-96393000D01*
X146106250Y-96393000D01*
X146265000Y-96234250D01*
X146268072Y-95670000D01*
X146255812Y-95545518D01*
X146219502Y-95425820D01*
X146160537Y-95315506D01*
X146081185Y-95218815D01*
X145984494Y-95139463D01*
X145874180Y-95080498D01*
X145754482Y-95044188D01*
X145630000Y-95031928D01*
X145065750Y-95035000D01*
X144907000Y-95193750D01*
X144653000Y-95193750D01*
X144494250Y-95035000D01*
X143930000Y-95031928D01*
X143805518Y-95044188D01*
X143685820Y-95080498D01*
X143575506Y-95139463D01*
X143478815Y-95218815D01*
X143399463Y-95315506D01*
X143340498Y-95425820D01*
X143319607Y-95494687D01*
X143295134Y-95464866D01*
X143069014Y-95279294D01*
X142811034Y-95141401D01*
X142531111Y-95056487D01*
X142312950Y-95035000D01*
X142167050Y-95035000D01*
X141948889Y-95056487D01*
X141668966Y-95141401D01*
X141410986Y-95279294D01*
X141184866Y-95464866D01*
X140999294Y-95690986D01*
X140970000Y-95745791D01*
X140940706Y-95690986D01*
X140755134Y-95464866D01*
X140529014Y-95279294D01*
X140271034Y-95141401D01*
X139991111Y-95056487D01*
X139772950Y-95035000D01*
X139627050Y-95035000D01*
X139408889Y-95056487D01*
X139128966Y-95141401D01*
X138870986Y-95279294D01*
X138644866Y-95464866D01*
X138459294Y-95690986D01*
X138430000Y-95745791D01*
X138400706Y-95690986D01*
X138215134Y-95464866D01*
X137989014Y-95279294D01*
X137731034Y-95141401D01*
X137451111Y-95056487D01*
X137232950Y-95035000D01*
X137087050Y-95035000D01*
X136868889Y-95056487D01*
X136588966Y-95141401D01*
X136330986Y-95279294D01*
X136104866Y-95464866D01*
X135919294Y-95690986D01*
X135890000Y-95745791D01*
X135860706Y-95690986D01*
X135675134Y-95464866D01*
X135449014Y-95279294D01*
X135191034Y-95141401D01*
X134911111Y-95056487D01*
X134692950Y-95035000D01*
X134547050Y-95035000D01*
X134328889Y-95056487D01*
X134048966Y-95141401D01*
X133790986Y-95279294D01*
X133564866Y-95464866D01*
X133379294Y-95690986D01*
X133350000Y-95745791D01*
X133320706Y-95690986D01*
X133135134Y-95464866D01*
X132909014Y-95279294D01*
X132651034Y-95141401D01*
X132371111Y-95056487D01*
X132152950Y-95035000D01*
X132007050Y-95035000D01*
X131788889Y-95056487D01*
X131664999Y-95094069D01*
X131664999Y-92865931D01*
X131788889Y-92903513D01*
X132007050Y-92925000D01*
X132152950Y-92925000D01*
X132371111Y-92903513D01*
X132651034Y-92818599D01*
X132909014Y-92680706D01*
X133135134Y-92495134D01*
X133320706Y-92269014D01*
X133458599Y-92011034D01*
X133543513Y-91731111D01*
X133572185Y-91440000D01*
X133543513Y-91148889D01*
X133458599Y-90868966D01*
X133320706Y-90610986D01*
X133135134Y-90384866D01*
X132909014Y-90199294D01*
X132854209Y-90170000D01*
X132909014Y-90140706D01*
X133135134Y-89955134D01*
X133320706Y-89729014D01*
X133458599Y-89471034D01*
X133543513Y-89191111D01*
X133572185Y-88900000D01*
X133543513Y-88608889D01*
X133458599Y-88328966D01*
X133320706Y-88070986D01*
X133135134Y-87844866D01*
X132909014Y-87659294D01*
X132844477Y-87624799D01*
X132961355Y-87555178D01*
X133177588Y-87360269D01*
X133351641Y-87126920D01*
X133476825Y-86864099D01*
X133521476Y-86716890D01*
X133400155Y-86487000D01*
X132207000Y-86487000D01*
X132207000Y-86507000D01*
X131953000Y-86507000D01*
X131953000Y-86487000D01*
X130759845Y-86487000D01*
X130638524Y-86716890D01*
X130683175Y-86864099D01*
X130808359Y-87126920D01*
X130982412Y-87360269D01*
X131198645Y-87555178D01*
X131315523Y-87624799D01*
X131250986Y-87659294D01*
X131024866Y-87844866D01*
X130839294Y-88070986D01*
X130701401Y-88328966D01*
X130616487Y-88608889D01*
X130587815Y-88900000D01*
X130616487Y-89191111D01*
X130638545Y-89263826D01*
X130390649Y-89511721D01*
X130361578Y-89535579D01*
X130337721Y-89564649D01*
X130337720Y-89564650D01*
X130266354Y-89651609D01*
X130195598Y-89783986D01*
X130152026Y-89927623D01*
X130137313Y-90077001D01*
X130141000Y-90114434D01*
X130141000Y-93323180D01*
X130137737Y-93320502D01*
X123391119Y-86573884D01*
X123412185Y-86360000D01*
X123383513Y-86068889D01*
X123298599Y-85788966D01*
X123160706Y-85530986D01*
X122975134Y-85304866D01*
X122945313Y-85280393D01*
X123014180Y-85259502D01*
X123124494Y-85200537D01*
X123221185Y-85121185D01*
X123300537Y-85024494D01*
X123359502Y-84914180D01*
X123395812Y-84794482D01*
X123408072Y-84670000D01*
X130591928Y-84670000D01*
X130604188Y-84794482D01*
X130640498Y-84914180D01*
X130699463Y-85024494D01*
X130778815Y-85121185D01*
X130875506Y-85200537D01*
X130985820Y-85259502D01*
X131066466Y-85283966D01*
X130982412Y-85359731D01*
X130808359Y-85593080D01*
X130683175Y-85855901D01*
X130638524Y-86003110D01*
X130759845Y-86233000D01*
X131953000Y-86233000D01*
X131953000Y-83947000D01*
X132207000Y-83947000D01*
X132207000Y-86233000D01*
X133400155Y-86233000D01*
X133521476Y-86003110D01*
X133476825Y-85855901D01*
X133351641Y-85593080D01*
X133177588Y-85359731D01*
X133093534Y-85283966D01*
X133174180Y-85259502D01*
X133284494Y-85200537D01*
X133381185Y-85121185D01*
X133460537Y-85024494D01*
X133519502Y-84914180D01*
X133555812Y-84794482D01*
X133568072Y-84670000D01*
X133565000Y-84105750D01*
X133406250Y-83947000D01*
X132207000Y-83947000D01*
X131953000Y-83947000D01*
X130753750Y-83947000D01*
X130595000Y-84105750D01*
X130591928Y-84670000D01*
X123408072Y-84670000D01*
X123408072Y-83404999D01*
X130594296Y-83404999D01*
X130595000Y-83534250D01*
X130753750Y-83693000D01*
X131953000Y-83693000D01*
X131953000Y-83673000D01*
X132207000Y-83673000D01*
X132207000Y-83693000D01*
X133406250Y-83693000D01*
X133565000Y-83534250D01*
X133565704Y-83404999D01*
X151424764Y-83404999D01*
X151802501Y-83782736D01*
X151830341Y-83816659D01*
X151965709Y-83927753D01*
X152120149Y-84010303D01*
X152186058Y-84030296D01*
X152287724Y-84061136D01*
X152320924Y-84064406D01*
X152362079Y-84068459D01*
X152380498Y-84129180D01*
X152439463Y-84239494D01*
X152518815Y-84336185D01*
X152615506Y-84415537D01*
X152725820Y-84474502D01*
X152845518Y-84510812D01*
X152970000Y-84523072D01*
X154370000Y-84523072D01*
X154494482Y-84510812D01*
X154614180Y-84474502D01*
X154650665Y-84455000D01*
X155864335Y-84455000D01*
X155900820Y-84474502D01*
X156020518Y-84510812D01*
X156145000Y-84523072D01*
X156692215Y-84523072D01*
X156616641Y-84545997D01*
X156427811Y-84646928D01*
X156145000Y-84646928D01*
X156020518Y-84659188D01*
X155900820Y-84695498D01*
X155790506Y-84754463D01*
X155693815Y-84833815D01*
X155614463Y-84930506D01*
X155555498Y-85040820D01*
X155519188Y-85160518D01*
X155506928Y-85285000D01*
X155506928Y-86685000D01*
X155519188Y-86809482D01*
X155555498Y-86929180D01*
X155575000Y-86965665D01*
X155575000Y-88976928D01*
X150504122Y-88976928D01*
X152226051Y-87255000D01*
X152689335Y-87255000D01*
X152725820Y-87274502D01*
X152845518Y-87310812D01*
X152970000Y-87323072D01*
X154370000Y-87323072D01*
X154494482Y-87310812D01*
X154614180Y-87274502D01*
X154724494Y-87215537D01*
X154821185Y-87136185D01*
X154900537Y-87039494D01*
X154959502Y-86929180D01*
X154995812Y-86809482D01*
X155008072Y-86685000D01*
X155008072Y-85285000D01*
X154995812Y-85160518D01*
X154959502Y-85040820D01*
X154900537Y-84930506D01*
X154821185Y-84833815D01*
X154724494Y-84754463D01*
X154614180Y-84695498D01*
X154494482Y-84659188D01*
X154370000Y-84646928D01*
X152970000Y-84646928D01*
X152845518Y-84659188D01*
X152725820Y-84695498D01*
X152689335Y-84715000D01*
X151762372Y-84715000D01*
X151699999Y-84708857D01*
X151637626Y-84715000D01*
X151637620Y-84715000D01*
X151476755Y-84730844D01*
X151451036Y-84733377D01*
X151381526Y-84754463D01*
X151211641Y-84805997D01*
X150991012Y-84923925D01*
X150797630Y-85082630D01*
X150757865Y-85131084D01*
X148151092Y-87737858D01*
X148102631Y-87777629D01*
X147943926Y-87971012D01*
X147825998Y-88191641D01*
X147753378Y-88431037D01*
X147735001Y-88617620D01*
X147735001Y-88617626D01*
X147728858Y-88679999D01*
X147735001Y-88742372D01*
X147735001Y-90327620D01*
X147735002Y-107667618D01*
X147728858Y-107730001D01*
X147753378Y-107978964D01*
X147817741Y-108191136D01*
X147825999Y-108218360D01*
X147943927Y-108438989D01*
X148102632Y-108632371D01*
X148151087Y-108672137D01*
X149682863Y-110203914D01*
X149722630Y-110252370D01*
X149916012Y-110411075D01*
X150075164Y-110496143D01*
X150136641Y-110529003D01*
X150376037Y-110601623D01*
X150625000Y-110626144D01*
X150687380Y-110620000D01*
X152400000Y-110620000D01*
X152400000Y-111822379D01*
X152418377Y-112008962D01*
X152490997Y-112248358D01*
X152608925Y-112468987D01*
X152767630Y-112662370D01*
X152961012Y-112821075D01*
X153181641Y-112939003D01*
X153421037Y-113011623D01*
X153670000Y-113036144D01*
X153918962Y-113011623D01*
X154158358Y-112939003D01*
X154378987Y-112821075D01*
X154572370Y-112662370D01*
X154731075Y-112468988D01*
X154849003Y-112248359D01*
X154921623Y-112008963D01*
X154940000Y-111822380D01*
X154940000Y-110330665D01*
X154959502Y-110294180D01*
X154995812Y-110174482D01*
X155008072Y-110050000D01*
X155008072Y-108650000D01*
X154995812Y-108525518D01*
X154959502Y-108405820D01*
X154900537Y-108295506D01*
X154821185Y-108198815D01*
X154724494Y-108119463D01*
X154614180Y-108060498D01*
X154494482Y-108024188D01*
X154370000Y-108011928D01*
X152970000Y-108011928D01*
X152845518Y-108024188D01*
X152725820Y-108060498D01*
X152689335Y-108080000D01*
X151908259Y-108080000D01*
X151834494Y-108019463D01*
X151724180Y-107960498D01*
X151689573Y-107950000D01*
X151724180Y-107939502D01*
X151834494Y-107880537D01*
X151931185Y-107801185D01*
X152010537Y-107704494D01*
X152069502Y-107594180D01*
X152105812Y-107474482D01*
X152118072Y-107350000D01*
X152118072Y-107349034D01*
X152191075Y-107260080D01*
X152309003Y-107039451D01*
X152331928Y-106963877D01*
X152331928Y-107250000D01*
X152344188Y-107374482D01*
X152380498Y-107494180D01*
X152439463Y-107604494D01*
X152518815Y-107701185D01*
X152615506Y-107780537D01*
X152725820Y-107839502D01*
X152845518Y-107875812D01*
X152970000Y-107888072D01*
X154370000Y-107888072D01*
X154494482Y-107875812D01*
X154614180Y-107839502D01*
X154724494Y-107780537D01*
X154821185Y-107701185D01*
X154900537Y-107604494D01*
X154959502Y-107494180D01*
X154995812Y-107374482D01*
X155008072Y-107250000D01*
X155008072Y-105850000D01*
X154995812Y-105725518D01*
X154962169Y-105614612D01*
X155100546Y-105656588D01*
X155350000Y-105681157D01*
X155599453Y-105656588D01*
X155780001Y-105601819D01*
X155780000Y-107587627D01*
X155773857Y-107650000D01*
X155780000Y-107712373D01*
X155780000Y-107712379D01*
X155789148Y-107805256D01*
X155798377Y-107898963D01*
X155806029Y-107924188D01*
X155870997Y-108138358D01*
X155988925Y-108358987D01*
X156011928Y-108387016D01*
X156011928Y-108650000D01*
X156024188Y-108774482D01*
X156060498Y-108894180D01*
X156119463Y-109004494D01*
X156198815Y-109101185D01*
X156295506Y-109180537D01*
X156405820Y-109239502D01*
X156525518Y-109275812D01*
X156650000Y-109288072D01*
X158050000Y-109288072D01*
X158174482Y-109275812D01*
X158294180Y-109239502D01*
X158404494Y-109180537D01*
X158501185Y-109101185D01*
X158580537Y-109004494D01*
X158639502Y-108894180D01*
X158675812Y-108774482D01*
X158685000Y-108681192D01*
X158694188Y-108774482D01*
X158730498Y-108894180D01*
X158789463Y-109004494D01*
X158868815Y-109101185D01*
X158965506Y-109180537D01*
X159075820Y-109239502D01*
X159195518Y-109275812D01*
X159320000Y-109288072D01*
X160325001Y-109288072D01*
X160325001Y-109398949D01*
X160312022Y-109411928D01*
X159320000Y-109411928D01*
X159195518Y-109424188D01*
X159075820Y-109460498D01*
X159039335Y-109480000D01*
X158330665Y-109480000D01*
X158294180Y-109460498D01*
X158174482Y-109424188D01*
X158050000Y-109411928D01*
X156650000Y-109411928D01*
X156525518Y-109424188D01*
X156405820Y-109460498D01*
X156295506Y-109519463D01*
X156198815Y-109598815D01*
X156119463Y-109695506D01*
X156060498Y-109805820D01*
X156024188Y-109925518D01*
X156011928Y-110050000D01*
X156011928Y-111450000D01*
X156024188Y-111574482D01*
X156060498Y-111694180D01*
X156119463Y-111804494D01*
X156198815Y-111901185D01*
X156295506Y-111980537D01*
X156405820Y-112039502D01*
X156525518Y-112075812D01*
X156650000Y-112088072D01*
X158050000Y-112088072D01*
X158174482Y-112075812D01*
X158294180Y-112039502D01*
X158330665Y-112020000D01*
X159039335Y-112020000D01*
X159075820Y-112039502D01*
X159195518Y-112075812D01*
X159320000Y-112088072D01*
X160720000Y-112088072D01*
X160844482Y-112075812D01*
X160964180Y-112039502D01*
X161056149Y-111990343D01*
X161258359Y-111929003D01*
X161478988Y-111811075D01*
X161672370Y-111652370D01*
X161712141Y-111603909D01*
X162448909Y-110867141D01*
X162497370Y-110827370D01*
X162656075Y-110633988D01*
X162774003Y-110413359D01*
X162846623Y-110173963D01*
X162865000Y-109987380D01*
X162865000Y-109987374D01*
X162871143Y-109925001D01*
X162865000Y-109862628D01*
X162865000Y-106617620D01*
X162846623Y-106431037D01*
X162820524Y-106345000D01*
X164238950Y-106345000D01*
X167640000Y-109746051D01*
X167640001Y-112367617D01*
X167633857Y-112430000D01*
X167658377Y-112678963D01*
X167693577Y-112795000D01*
X167730998Y-112918359D01*
X167848926Y-113138988D01*
X168007631Y-113332370D01*
X168056086Y-113372136D01*
X168910000Y-114226051D01*
X168910000Y-114810309D01*
X168835000Y-115187361D01*
X168835000Y-115952639D01*
X168984298Y-116703213D01*
X169277158Y-117410238D01*
X169702323Y-118046543D01*
X170243457Y-118587677D01*
X170879762Y-119012842D01*
X170957398Y-119045000D01*
X170879762Y-119077158D01*
X170243457Y-119502323D01*
X169702323Y-120043457D01*
X169277158Y-120679762D01*
X168984298Y-121386787D01*
X168835000Y-122137361D01*
X168835000Y-122902639D01*
X168984298Y-123653213D01*
X169277158Y-124360238D01*
X169702323Y-124996543D01*
X170243457Y-125537677D01*
X170879762Y-125962842D01*
X171586787Y-126255702D01*
X172337361Y-126405000D01*
X173102639Y-126405000D01*
X173853213Y-126255702D01*
X174560238Y-125962842D01*
X175196543Y-125537677D01*
X175737677Y-124996543D01*
X176162842Y-124360238D01*
X176455702Y-123653213D01*
X176605000Y-122902639D01*
X176605000Y-122137361D01*
X176455702Y-121386787D01*
X176162842Y-120679762D01*
X175737677Y-120043457D01*
X175196543Y-119502323D01*
X174560238Y-119077158D01*
X174482602Y-119045000D01*
X174560238Y-119012842D01*
X175196543Y-118587677D01*
X175737677Y-118046543D01*
X176162842Y-117410238D01*
X176455702Y-116703213D01*
X176605000Y-115952639D01*
X176605000Y-115187361D01*
X176530000Y-114810309D01*
X176530000Y-105834691D01*
X176605000Y-105457639D01*
X176605000Y-104692361D01*
X176455702Y-103941787D01*
X176162842Y-103234762D01*
X175737677Y-102598457D01*
X175196543Y-102057323D01*
X174560238Y-101632158D01*
X174482602Y-101600000D01*
X174560238Y-101567842D01*
X175196543Y-101142677D01*
X175737677Y-100601543D01*
X176162842Y-99965238D01*
X176455702Y-99258213D01*
X176605000Y-98507639D01*
X176605000Y-97742361D01*
X176455702Y-96991787D01*
X176162842Y-96284762D01*
X175737677Y-95648457D01*
X175196543Y-95107323D01*
X174560238Y-94682158D01*
X173853213Y-94389298D01*
X173102639Y-94240000D01*
X172337361Y-94240000D01*
X171586787Y-94389298D01*
X170879762Y-94682158D01*
X170243457Y-95107323D01*
X169702323Y-95648457D01*
X169277158Y-96284762D01*
X169277059Y-96285000D01*
X167782380Y-96285000D01*
X167968963Y-96266623D01*
X168208359Y-96194003D01*
X168428988Y-96076075D01*
X168622370Y-95917370D01*
X168662141Y-95868909D01*
X168861770Y-95669280D01*
X168916701Y-95652617D01*
X169076720Y-95567085D01*
X169216978Y-95451978D01*
X169332085Y-95311720D01*
X169417617Y-95151701D01*
X169470287Y-94978070D01*
X169482450Y-94854583D01*
X169526623Y-94708963D01*
X169551144Y-94460000D01*
X169526623Y-94211037D01*
X169482450Y-94065417D01*
X169470287Y-93941930D01*
X169417617Y-93768299D01*
X169332085Y-93608280D01*
X169312980Y-93585000D01*
X169332085Y-93561720D01*
X169417617Y-93401701D01*
X169470287Y-93228070D01*
X169482450Y-93104583D01*
X169526623Y-92958963D01*
X169551144Y-92710000D01*
X169526623Y-92461037D01*
X169482450Y-92315417D01*
X169470287Y-92191930D01*
X169417617Y-92018299D01*
X169332085Y-91858280D01*
X169216978Y-91718022D01*
X169076720Y-91602915D01*
X168916701Y-91517383D01*
X168743070Y-91464713D01*
X168562500Y-91446928D01*
X168407720Y-91446928D01*
X168337380Y-91440000D01*
X166684981Y-91440000D01*
X166629494Y-91394463D01*
X166519180Y-91335498D01*
X166399482Y-91299188D01*
X166275000Y-91286928D01*
X165245000Y-91286928D01*
X165245000Y-87837380D01*
X165251144Y-87775000D01*
X165226623Y-87526037D01*
X165223660Y-87516267D01*
X165185510Y-87390506D01*
X165154003Y-87286641D01*
X165140374Y-87261143D01*
X165036075Y-87066012D01*
X164923780Y-86929180D01*
X164917135Y-86921083D01*
X164917132Y-86921080D01*
X164877370Y-86872630D01*
X164828919Y-86832868D01*
X162867139Y-84871088D01*
X162827370Y-84822630D01*
X162778912Y-84782861D01*
X160327141Y-82331091D01*
X160287370Y-82282630D01*
X160093988Y-82123925D01*
X159873359Y-82005997D01*
X159633963Y-81933377D01*
X159447380Y-81915000D01*
X159447373Y-81915000D01*
X159385000Y-81908857D01*
X159322627Y-81915000D01*
X157825665Y-81915000D01*
X157789180Y-81895498D01*
X157669482Y-81859188D01*
X157545000Y-81846928D01*
X156145000Y-81846928D01*
X156020518Y-81859188D01*
X155900820Y-81895498D01*
X155864335Y-81915000D01*
X154650665Y-81915000D01*
X154614180Y-81895498D01*
X154494482Y-81859188D01*
X154370000Y-81846928D01*
X152970000Y-81846928D01*
X152845518Y-81859188D01*
X152725820Y-81895498D01*
X152615506Y-81954463D01*
X152545857Y-82011622D01*
X152452498Y-81918263D01*
X152424658Y-81884340D01*
X152289290Y-81773246D01*
X152134850Y-81690696D01*
X151967273Y-81639863D01*
X151836666Y-81626999D01*
X151836659Y-81626999D01*
X151792999Y-81622699D01*
X151749339Y-81626999D01*
X111837660Y-81626999D01*
X111794000Y-81622699D01*
X111750340Y-81626999D01*
X111750334Y-81626999D01*
X111652925Y-81636593D01*
X111619725Y-81639863D01*
X111518059Y-81670703D01*
X111452150Y-81690696D01*
X111297710Y-81773246D01*
X111162342Y-81884340D01*
X111134507Y-81918257D01*
X105792895Y-87259870D01*
X105743102Y-87269774D01*
X105554744Y-87347795D01*
X105385226Y-87461063D01*
X105241063Y-87605226D01*
X105127795Y-87774744D01*
X105049774Y-87963102D01*
X105010000Y-88163061D01*
X105010000Y-88366939D01*
X105049774Y-88566898D01*
X105127795Y-88755256D01*
X105241063Y-88924774D01*
X105385226Y-89068937D01*
X105554744Y-89182205D01*
X105743102Y-89260226D01*
X105943061Y-89300000D01*
X106146939Y-89300000D01*
X106346898Y-89260226D01*
X106535256Y-89182205D01*
X106704774Y-89068937D01*
X106848937Y-88924774D01*
X106962205Y-88755256D01*
X107040226Y-88566898D01*
X107050130Y-88517105D01*
X110790226Y-84777010D01*
X110760000Y-84928967D01*
X110760000Y-85251033D01*
X110822832Y-85566912D01*
X110946082Y-85864463D01*
X111125013Y-86132252D01*
X111352748Y-86359987D01*
X111491938Y-86452991D01*
X110186668Y-86452991D01*
X110143008Y-86448691D01*
X110099348Y-86452991D01*
X110099342Y-86452991D01*
X110001933Y-86462585D01*
X109968733Y-86465855D01*
X109867067Y-86496695D01*
X109801158Y-86516688D01*
X109646718Y-86599238D01*
X109511350Y-86710332D01*
X109483515Y-86744249D01*
X107987259Y-88240506D01*
X107953342Y-88268341D01*
X107925507Y-88302258D01*
X107925505Y-88302260D01*
X107842248Y-88403709D01*
X107759698Y-88558148D01*
X107708864Y-88725726D01*
X107691700Y-88900000D01*
X107696001Y-88943670D01*
X107696000Y-91542532D01*
X107667795Y-91584744D01*
X107589774Y-91773102D01*
X107550000Y-91973061D01*
X107550000Y-92176939D01*
X107589774Y-92376898D01*
X107622539Y-92456000D01*
X103873236Y-92456000D01*
X102894499Y-91477264D01*
X102866659Y-91443341D01*
X102731291Y-91332247D01*
X102576851Y-91249697D01*
X102409274Y-91198864D01*
X102278667Y-91186000D01*
X102278660Y-91186000D01*
X102235000Y-91181700D01*
X102191340Y-91186000D01*
X101497468Y-91186000D01*
X101455256Y-91157795D01*
X101266898Y-91079774D01*
X101066939Y-91040000D01*
X100863061Y-91040000D01*
X100663102Y-91079774D01*
X100474744Y-91157795D01*
X100305226Y-91271063D01*
X100161063Y-91415226D01*
X100047795Y-91584744D01*
X99969774Y-91773102D01*
X99930000Y-91973061D01*
X92100000Y-91973061D01*
X92100000Y-77270555D01*
X94749000Y-77270555D01*
X94749000Y-77669445D01*
X94826820Y-78060671D01*
X94979468Y-78429197D01*
X95201080Y-78760862D01*
X95483138Y-79042920D01*
X95814803Y-79264532D01*
X96183329Y-79417180D01*
X96574555Y-79495000D01*
X96973445Y-79495000D01*
X97364671Y-79417180D01*
X97733197Y-79264532D01*
X97984088Y-79096891D01*
X100158519Y-79096891D01*
X100255843Y-79371252D01*
X100404822Y-79621355D01*
X100599731Y-79837588D01*
X100833080Y-80011641D01*
X101095901Y-80136825D01*
X101243110Y-80181476D01*
X101473000Y-80060155D01*
X101473000Y-78867000D01*
X100279186Y-78867000D01*
X100158519Y-79096891D01*
X97984088Y-79096891D01*
X98064862Y-79042920D01*
X98346920Y-78760862D01*
X98568532Y-78429197D01*
X98721180Y-78060671D01*
X98799000Y-77669445D01*
X98799000Y-77270555D01*
X98721180Y-76879329D01*
X98568532Y-76510803D01*
X98346920Y-76179138D01*
X98064862Y-75897080D01*
X97733197Y-75675468D01*
X97364671Y-75522820D01*
X96973445Y-75445000D01*
X96574555Y-75445000D01*
X96183329Y-75522820D01*
X95814803Y-75675468D01*
X95483138Y-75897080D01*
X95201080Y-76179138D01*
X94979468Y-76510803D01*
X94826820Y-76879329D01*
X94749000Y-77270555D01*
X92100000Y-77270555D01*
X92100000Y-76473380D01*
X93223380Y-75350000D01*
X100111928Y-75350000D01*
X100111928Y-77050000D01*
X100124188Y-77174482D01*
X100160498Y-77294180D01*
X100219463Y-77404494D01*
X100298815Y-77501185D01*
X100395506Y-77580537D01*
X100505820Y-77639502D01*
X100581626Y-77662498D01*
X100404822Y-77858645D01*
X100255843Y-78108748D01*
X100158519Y-78383109D01*
X100279186Y-78613000D01*
X101473000Y-78613000D01*
X101473000Y-78593000D01*
X101727000Y-78593000D01*
X101727000Y-78613000D01*
X101747000Y-78613000D01*
X101747000Y-78867000D01*
X101727000Y-78867000D01*
X101727000Y-80060155D01*
X101956890Y-80181476D01*
X102104099Y-80136825D01*
X102366920Y-80011641D01*
X102600269Y-79837588D01*
X102795178Y-79621355D01*
X102864799Y-79504477D01*
X102899294Y-79569014D01*
X103084866Y-79795134D01*
X103310986Y-79980706D01*
X103568966Y-80118599D01*
X103848889Y-80203513D01*
X104067050Y-80225000D01*
X104212950Y-80225000D01*
X104431111Y-80203513D01*
X104478556Y-80189121D01*
X104414774Y-80343102D01*
X104375000Y-80543061D01*
X104375000Y-80746939D01*
X104414774Y-80946898D01*
X104492795Y-81135256D01*
X104606063Y-81304774D01*
X104750226Y-81448937D01*
X104919744Y-81562205D01*
X105108102Y-81640226D01*
X105308061Y-81680000D01*
X105511939Y-81680000D01*
X105711898Y-81640226D01*
X105900256Y-81562205D01*
X106069774Y-81448937D01*
X106113711Y-81405000D01*
X107246289Y-81405000D01*
X107290226Y-81448937D01*
X107459744Y-81562205D01*
X107648102Y-81640226D01*
X107848061Y-81680000D01*
X108051939Y-81680000D01*
X108251898Y-81640226D01*
X108440256Y-81562205D01*
X108609774Y-81448937D01*
X108653711Y-81405000D01*
X109786289Y-81405000D01*
X109830226Y-81448937D01*
X109999744Y-81562205D01*
X110188102Y-81640226D01*
X110388061Y-81680000D01*
X110591939Y-81680000D01*
X110791898Y-81640226D01*
X110980256Y-81562205D01*
X111149774Y-81448937D01*
X111293937Y-81304774D01*
X111407205Y-81135256D01*
X111485226Y-80946898D01*
X111525000Y-80746939D01*
X111525000Y-80543061D01*
X111485226Y-80343102D01*
X111421444Y-80189121D01*
X111468889Y-80203513D01*
X111687050Y-80225000D01*
X111832950Y-80225000D01*
X112051111Y-80203513D01*
X112331034Y-80118599D01*
X112589014Y-79980706D01*
X112815134Y-79795134D01*
X113000706Y-79569014D01*
X113030000Y-79514209D01*
X113059294Y-79569014D01*
X113244866Y-79795134D01*
X113470986Y-79980706D01*
X113728966Y-80118599D01*
X114008889Y-80203513D01*
X114227050Y-80225000D01*
X114372950Y-80225000D01*
X114591111Y-80203513D01*
X114871034Y-80118599D01*
X115129014Y-79980706D01*
X115355134Y-79795134D01*
X115540706Y-79569014D01*
X115570000Y-79514209D01*
X115599294Y-79569014D01*
X115784866Y-79795134D01*
X116010986Y-79980706D01*
X116268966Y-80118599D01*
X116548889Y-80203513D01*
X116767050Y-80225000D01*
X116912950Y-80225000D01*
X117131111Y-80203513D01*
X117411034Y-80118599D01*
X117669014Y-79980706D01*
X117895134Y-79795134D01*
X118080706Y-79569014D01*
X118110000Y-79514209D01*
X118139294Y-79569014D01*
X118324866Y-79795134D01*
X118550986Y-79980706D01*
X118808966Y-80118599D01*
X119088889Y-80203513D01*
X119307050Y-80225000D01*
X119452950Y-80225000D01*
X119671111Y-80203513D01*
X119951034Y-80118599D01*
X120209014Y-79980706D01*
X120435134Y-79795134D01*
X120620706Y-79569014D01*
X120655201Y-79504477D01*
X120724822Y-79621355D01*
X120919731Y-79837588D01*
X121153080Y-80011641D01*
X121415901Y-80136825D01*
X121563110Y-80181476D01*
X121793000Y-80060155D01*
X121793000Y-78867000D01*
X121773000Y-78867000D01*
X121773000Y-78613000D01*
X121793000Y-78613000D01*
X121793000Y-78593000D01*
X122047000Y-78593000D01*
X122047000Y-78613000D01*
X122067000Y-78613000D01*
X122067000Y-78867000D01*
X122047000Y-78867000D01*
X122047000Y-80060155D01*
X122276890Y-80181476D01*
X122424099Y-80136825D01*
X122686920Y-80011641D01*
X122920269Y-79837588D01*
X123115178Y-79621355D01*
X123184799Y-79504477D01*
X123219294Y-79569014D01*
X123404866Y-79795134D01*
X123630986Y-79980706D01*
X123888966Y-80118599D01*
X124168889Y-80203513D01*
X124387050Y-80225000D01*
X124532950Y-80225000D01*
X124751111Y-80203513D01*
X125031034Y-80118599D01*
X125289014Y-79980706D01*
X125515134Y-79795134D01*
X125700706Y-79569014D01*
X125730000Y-79514209D01*
X125759294Y-79569014D01*
X125944866Y-79795134D01*
X126170986Y-79980706D01*
X126428966Y-80118599D01*
X126708889Y-80203513D01*
X126927050Y-80225000D01*
X127072950Y-80225000D01*
X127291111Y-80203513D01*
X127571034Y-80118599D01*
X127829014Y-79980706D01*
X128055134Y-79795134D01*
X128240706Y-79569014D01*
X128270000Y-79514209D01*
X128299294Y-79569014D01*
X128484866Y-79795134D01*
X128710986Y-79980706D01*
X128968966Y-80118599D01*
X129248889Y-80203513D01*
X129467050Y-80225000D01*
X129612950Y-80225000D01*
X129831111Y-80203513D01*
X130111034Y-80118599D01*
X130369014Y-79980706D01*
X130595134Y-79795134D01*
X130780706Y-79569014D01*
X130810000Y-79514209D01*
X130839294Y-79569014D01*
X131024866Y-79795134D01*
X131250986Y-79980706D01*
X131508966Y-80118599D01*
X131788889Y-80203513D01*
X132007050Y-80225000D01*
X132152950Y-80225000D01*
X132371111Y-80203513D01*
X132651034Y-80118599D01*
X132909014Y-79980706D01*
X133135134Y-79795134D01*
X133320706Y-79569014D01*
X133350000Y-79514209D01*
X133379294Y-79569014D01*
X133564866Y-79795134D01*
X133790986Y-79980706D01*
X134048966Y-80118599D01*
X134328889Y-80203513D01*
X134547050Y-80225000D01*
X134692950Y-80225000D01*
X134911111Y-80203513D01*
X135191034Y-80118599D01*
X135449014Y-79980706D01*
X135675134Y-79795134D01*
X135860706Y-79569014D01*
X135890000Y-79514209D01*
X135919294Y-79569014D01*
X136104866Y-79795134D01*
X136330986Y-79980706D01*
X136588966Y-80118599D01*
X136868889Y-80203513D01*
X137087050Y-80225000D01*
X137232950Y-80225000D01*
X137451111Y-80203513D01*
X137731034Y-80118599D01*
X137989014Y-79980706D01*
X138215134Y-79795134D01*
X138400706Y-79569014D01*
X138430000Y-79514209D01*
X138459294Y-79569014D01*
X138644866Y-79795134D01*
X138870986Y-79980706D01*
X139128966Y-80118599D01*
X139408889Y-80203513D01*
X139627050Y-80225000D01*
X139772950Y-80225000D01*
X139991111Y-80203513D01*
X140271034Y-80118599D01*
X140529014Y-79980706D01*
X140755134Y-79795134D01*
X140940706Y-79569014D01*
X140970000Y-79514209D01*
X140999294Y-79569014D01*
X141184866Y-79795134D01*
X141410986Y-79980706D01*
X141668966Y-80118599D01*
X141948889Y-80203513D01*
X142167050Y-80225000D01*
X142312950Y-80225000D01*
X142531111Y-80203513D01*
X142811034Y-80118599D01*
X143069014Y-79980706D01*
X143295134Y-79795134D01*
X143480706Y-79569014D01*
X143510000Y-79514209D01*
X143539294Y-79569014D01*
X143724866Y-79795134D01*
X143950986Y-79980706D01*
X144208966Y-80118599D01*
X144488889Y-80203513D01*
X144707050Y-80225000D01*
X144852950Y-80225000D01*
X145071111Y-80203513D01*
X145351034Y-80118599D01*
X145609014Y-79980706D01*
X145835134Y-79795134D01*
X146020706Y-79569014D01*
X146050000Y-79514209D01*
X146079294Y-79569014D01*
X146264866Y-79795134D01*
X146490986Y-79980706D01*
X146748966Y-80118599D01*
X147028889Y-80203513D01*
X147247050Y-80225000D01*
X147392950Y-80225000D01*
X147611111Y-80203513D01*
X147891034Y-80118599D01*
X148149014Y-79980706D01*
X148375134Y-79795134D01*
X148560706Y-79569014D01*
X148590000Y-79514209D01*
X148619294Y-79569014D01*
X148804866Y-79795134D01*
X149030986Y-79980706D01*
X149288966Y-80118599D01*
X149568889Y-80203513D01*
X149787050Y-80225000D01*
X149932950Y-80225000D01*
X150151111Y-80203513D01*
X150431034Y-80118599D01*
X150689014Y-79980706D01*
X150915134Y-79795134D01*
X151100706Y-79569014D01*
X151238599Y-79311034D01*
X151323513Y-79031111D01*
X151352185Y-78740000D01*
X151323513Y-78448889D01*
X151238599Y-78168966D01*
X151100706Y-77910986D01*
X150915134Y-77684866D01*
X150689014Y-77499294D01*
X150634209Y-77470000D01*
X150689014Y-77440706D01*
X150896343Y-77270555D01*
X152788000Y-77270555D01*
X152788000Y-77669445D01*
X152865820Y-78060671D01*
X153018468Y-78429197D01*
X153240080Y-78760862D01*
X153522138Y-79042920D01*
X153853803Y-79264532D01*
X154222329Y-79417180D01*
X154613555Y-79495000D01*
X155012445Y-79495000D01*
X155403671Y-79417180D01*
X155772197Y-79264532D01*
X156103862Y-79042920D01*
X156385920Y-78760862D01*
X156607532Y-78429197D01*
X156760180Y-78060671D01*
X156838000Y-77669445D01*
X156838000Y-77270555D01*
X156760180Y-76879329D01*
X156607532Y-76510803D01*
X156385920Y-76179138D01*
X156103862Y-75897080D01*
X155772197Y-75675468D01*
X155403671Y-75522820D01*
X155012445Y-75445000D01*
X154613555Y-75445000D01*
X154222329Y-75522820D01*
X153853803Y-75675468D01*
X153522138Y-75897080D01*
X153240080Y-76179138D01*
X153018468Y-76510803D01*
X152865820Y-76879329D01*
X152788000Y-77270555D01*
X150896343Y-77270555D01*
X150915134Y-77255134D01*
X151100706Y-77029014D01*
X151238599Y-76771034D01*
X151323513Y-76491111D01*
X151352185Y-76200000D01*
X151323513Y-75908889D01*
X151238599Y-75628966D01*
X151100706Y-75370986D01*
X150915134Y-75144866D01*
X150689014Y-74959294D01*
X150431034Y-74821401D01*
X150151111Y-74736487D01*
X149932950Y-74715000D01*
X149787050Y-74715000D01*
X149568889Y-74736487D01*
X149288966Y-74821401D01*
X149030986Y-74959294D01*
X148804866Y-75144866D01*
X148619294Y-75370986D01*
X148590000Y-75425791D01*
X148560706Y-75370986D01*
X148375134Y-75144866D01*
X148149014Y-74959294D01*
X147891034Y-74821401D01*
X147611111Y-74736487D01*
X147392950Y-74715000D01*
X147247050Y-74715000D01*
X147028889Y-74736487D01*
X146748966Y-74821401D01*
X146490986Y-74959294D01*
X146264866Y-75144866D01*
X146079294Y-75370986D01*
X146050000Y-75425791D01*
X146020706Y-75370986D01*
X145835134Y-75144866D01*
X145609014Y-74959294D01*
X145351034Y-74821401D01*
X145071111Y-74736487D01*
X144852950Y-74715000D01*
X144707050Y-74715000D01*
X144488889Y-74736487D01*
X144208966Y-74821401D01*
X143950986Y-74959294D01*
X143724866Y-75144866D01*
X143539294Y-75370986D01*
X143510000Y-75425791D01*
X143480706Y-75370986D01*
X143295134Y-75144866D01*
X143069014Y-74959294D01*
X142811034Y-74821401D01*
X142531111Y-74736487D01*
X142312950Y-74715000D01*
X142167050Y-74715000D01*
X141948889Y-74736487D01*
X141668966Y-74821401D01*
X141410986Y-74959294D01*
X141184866Y-75144866D01*
X140999294Y-75370986D01*
X140970000Y-75425791D01*
X140940706Y-75370986D01*
X140755134Y-75144866D01*
X140529014Y-74959294D01*
X140271034Y-74821401D01*
X139991111Y-74736487D01*
X139772950Y-74715000D01*
X139627050Y-74715000D01*
X139408889Y-74736487D01*
X139128966Y-74821401D01*
X138870986Y-74959294D01*
X138644866Y-75144866D01*
X138459294Y-75370986D01*
X138430000Y-75425791D01*
X138400706Y-75370986D01*
X138215134Y-75144866D01*
X137989014Y-74959294D01*
X137731034Y-74821401D01*
X137451111Y-74736487D01*
X137232950Y-74715000D01*
X137087050Y-74715000D01*
X136868889Y-74736487D01*
X136588966Y-74821401D01*
X136330986Y-74959294D01*
X136104866Y-75144866D01*
X135919294Y-75370986D01*
X135890000Y-75425791D01*
X135860706Y-75370986D01*
X135675134Y-75144866D01*
X135449014Y-74959294D01*
X135191034Y-74821401D01*
X134911111Y-74736487D01*
X134692950Y-74715000D01*
X134547050Y-74715000D01*
X134328889Y-74736487D01*
X134048966Y-74821401D01*
X133790986Y-74959294D01*
X133564866Y-75144866D01*
X133379294Y-75370986D01*
X133350000Y-75425791D01*
X133320706Y-75370986D01*
X133135134Y-75144866D01*
X132909014Y-74959294D01*
X132651034Y-74821401D01*
X132371111Y-74736487D01*
X132152950Y-74715000D01*
X132007050Y-74715000D01*
X131788889Y-74736487D01*
X131508966Y-74821401D01*
X131250986Y-74959294D01*
X131024866Y-75144866D01*
X130839294Y-75370986D01*
X130810000Y-75425791D01*
X130780706Y-75370986D01*
X130595134Y-75144866D01*
X130369014Y-74959294D01*
X130111034Y-74821401D01*
X129831111Y-74736487D01*
X129612950Y-74715000D01*
X129467050Y-74715000D01*
X129248889Y-74736487D01*
X128968966Y-74821401D01*
X128710986Y-74959294D01*
X128484866Y-75144866D01*
X128299294Y-75370986D01*
X128270000Y-75425791D01*
X128240706Y-75370986D01*
X128055134Y-75144866D01*
X127829014Y-74959294D01*
X127571034Y-74821401D01*
X127291111Y-74736487D01*
X127072950Y-74715000D01*
X126927050Y-74715000D01*
X126708889Y-74736487D01*
X126428966Y-74821401D01*
X126170986Y-74959294D01*
X125944866Y-75144866D01*
X125759294Y-75370986D01*
X125730000Y-75425791D01*
X125700706Y-75370986D01*
X125515134Y-75144866D01*
X125289014Y-74959294D01*
X125031034Y-74821401D01*
X124751111Y-74736487D01*
X124532950Y-74715000D01*
X124387050Y-74715000D01*
X124168889Y-74736487D01*
X123888966Y-74821401D01*
X123630986Y-74959294D01*
X123404866Y-75144866D01*
X123219294Y-75370986D01*
X123190000Y-75425791D01*
X123160706Y-75370986D01*
X122975134Y-75144866D01*
X122749014Y-74959294D01*
X122491034Y-74821401D01*
X122211111Y-74736487D01*
X121992950Y-74715000D01*
X121847050Y-74715000D01*
X121628889Y-74736487D01*
X121348966Y-74821401D01*
X121090986Y-74959294D01*
X120864866Y-75144866D01*
X120679294Y-75370986D01*
X120650000Y-75425791D01*
X120620706Y-75370986D01*
X120435134Y-75144866D01*
X120209014Y-74959294D01*
X119951034Y-74821401D01*
X119671111Y-74736487D01*
X119452950Y-74715000D01*
X119307050Y-74715000D01*
X119088889Y-74736487D01*
X118808966Y-74821401D01*
X118550986Y-74959294D01*
X118324866Y-75144866D01*
X118139294Y-75370986D01*
X118110000Y-75425791D01*
X118080706Y-75370986D01*
X117895134Y-75144866D01*
X117669014Y-74959294D01*
X117411034Y-74821401D01*
X117131111Y-74736487D01*
X116912950Y-74715000D01*
X116767050Y-74715000D01*
X116548889Y-74736487D01*
X116268966Y-74821401D01*
X116010986Y-74959294D01*
X115784866Y-75144866D01*
X115599294Y-75370986D01*
X115570000Y-75425791D01*
X115540706Y-75370986D01*
X115355134Y-75144866D01*
X115129014Y-74959294D01*
X114871034Y-74821401D01*
X114591111Y-74736487D01*
X114372950Y-74715000D01*
X114227050Y-74715000D01*
X114008889Y-74736487D01*
X113728966Y-74821401D01*
X113470986Y-74959294D01*
X113244866Y-75144866D01*
X113059294Y-75370986D01*
X113030000Y-75425791D01*
X113000706Y-75370986D01*
X112815134Y-75144866D01*
X112589014Y-74959294D01*
X112331034Y-74821401D01*
X112051111Y-74736487D01*
X111832950Y-74715000D01*
X111687050Y-74715000D01*
X111468889Y-74736487D01*
X111188966Y-74821401D01*
X110930986Y-74959294D01*
X110704866Y-75144866D01*
X110519294Y-75370986D01*
X110490000Y-75425791D01*
X110460706Y-75370986D01*
X110275134Y-75144866D01*
X110049014Y-74959294D01*
X109791034Y-74821401D01*
X109511111Y-74736487D01*
X109292950Y-74715000D01*
X109147050Y-74715000D01*
X108928889Y-74736487D01*
X108648966Y-74821401D01*
X108390986Y-74959294D01*
X108164866Y-75144866D01*
X107979294Y-75370986D01*
X107950000Y-75425791D01*
X107920706Y-75370986D01*
X107735134Y-75144866D01*
X107509014Y-74959294D01*
X107251034Y-74821401D01*
X106971111Y-74736487D01*
X106752950Y-74715000D01*
X106607050Y-74715000D01*
X106388889Y-74736487D01*
X106108966Y-74821401D01*
X105850986Y-74959294D01*
X105624866Y-75144866D01*
X105439294Y-75370986D01*
X105410000Y-75425791D01*
X105380706Y-75370986D01*
X105195134Y-75144866D01*
X104969014Y-74959294D01*
X104711034Y-74821401D01*
X104431111Y-74736487D01*
X104212950Y-74715000D01*
X104067050Y-74715000D01*
X103848889Y-74736487D01*
X103568966Y-74821401D01*
X103310986Y-74959294D01*
X103084866Y-75144866D01*
X103060393Y-75174687D01*
X103039502Y-75105820D01*
X102980537Y-74995506D01*
X102901185Y-74898815D01*
X102804494Y-74819463D01*
X102694180Y-74760498D01*
X102574482Y-74724188D01*
X102450000Y-74711928D01*
X100750000Y-74711928D01*
X100625518Y-74724188D01*
X100505820Y-74760498D01*
X100395506Y-74819463D01*
X100298815Y-74898815D01*
X100219463Y-74995506D01*
X100160498Y-75105820D01*
X100124188Y-75225518D01*
X100111928Y-75350000D01*
X93223380Y-75350000D01*
X95523381Y-73050000D01*
X178796620Y-73050000D01*
X182220000Y-76473381D01*
X182220000Y-76473381D01*
G37*
X182220000Y-76473381D02*
X182220001Y-125456618D01*
X178796620Y-128880000D01*
X95523381Y-128880000D01*
X92935936Y-126292555D01*
X94685500Y-126292555D01*
X94685500Y-126691445D01*
X94763320Y-127082671D01*
X94915968Y-127451197D01*
X95137580Y-127782862D01*
X95419638Y-128064920D01*
X95751303Y-128286532D01*
X96119829Y-128439180D01*
X96511055Y-128517000D01*
X96909945Y-128517000D01*
X97301171Y-128439180D01*
X97669697Y-128286532D01*
X98001362Y-128064920D01*
X98283420Y-127782862D01*
X98505032Y-127451197D01*
X98657680Y-127082671D01*
X98735500Y-126691445D01*
X98735500Y-126292555D01*
X152788000Y-126292555D01*
X152788000Y-126691445D01*
X152865820Y-127082671D01*
X153018468Y-127451197D01*
X153240080Y-127782862D01*
X153522138Y-128064920D01*
X153853803Y-128286532D01*
X154222329Y-128439180D01*
X154613555Y-128517000D01*
X155012445Y-128517000D01*
X155403671Y-128439180D01*
X155772197Y-128286532D01*
X156103862Y-128064920D01*
X156385920Y-127782862D01*
X156607532Y-127451197D01*
X156760180Y-127082671D01*
X156838000Y-126691445D01*
X156838000Y-126292555D01*
X156760180Y-125901329D01*
X156607532Y-125532803D01*
X156385920Y-125201138D01*
X156103862Y-124919080D01*
X155772197Y-124697468D01*
X155403671Y-124544820D01*
X155012445Y-124467000D01*
X154613555Y-124467000D01*
X154222329Y-124544820D01*
X153853803Y-124697468D01*
X153522138Y-124919080D01*
X153240080Y-125201138D01*
X153018468Y-125532803D01*
X152865820Y-125901329D01*
X152788000Y-126292555D01*
X98735500Y-126292555D01*
X98657680Y-125901329D01*
X98505032Y-125532803D01*
X98283420Y-125201138D01*
X98001362Y-124919080D01*
X97669697Y-124697468D01*
X97301171Y-124544820D01*
X96909945Y-124467000D01*
X96511055Y-124467000D01*
X96119829Y-124544820D01*
X95751303Y-124697468D01*
X95419638Y-124919080D01*
X95137580Y-125201138D01*
X94915968Y-125532803D01*
X94763320Y-125901329D01*
X94685500Y-126292555D01*
X92935936Y-126292555D01*
X92100000Y-125456620D01*
X92100000Y-108237831D01*
X92137038Y-108282962D01*
X92271613Y-108393405D01*
X92425149Y-108475472D01*
X92591745Y-108526008D01*
X92764999Y-108543072D01*
X94065001Y-108543072D01*
X94238255Y-108526008D01*
X94404851Y-108475472D01*
X94558387Y-108393405D01*
X94692962Y-108282962D01*
X94803405Y-108148387D01*
X94885472Y-107994851D01*
X94936008Y-107828255D01*
X94953072Y-107655001D01*
X94953072Y-106954999D01*
X94942242Y-106845039D01*
X95013418Y-106883084D01*
X95161255Y-106927929D01*
X95315000Y-106943072D01*
X96565000Y-106943072D01*
X96718745Y-106927929D01*
X96830596Y-106894000D01*
X101289108Y-106894000D01*
X101239774Y-107013102D01*
X101200000Y-107213061D01*
X101200000Y-107416939D01*
X101239774Y-107616898D01*
X101317795Y-107805256D01*
X101431063Y-107974774D01*
X101575226Y-108118937D01*
X101744744Y-108232205D01*
X101933102Y-108310226D01*
X102133061Y-108350000D01*
X102336939Y-108350000D01*
X102503039Y-108316961D01*
X102470000Y-108483061D01*
X102470000Y-108686939D01*
X102509774Y-108886898D01*
X102587795Y-109075256D01*
X102616000Y-109117469D01*
X102616001Y-109811331D01*
X102611700Y-109855000D01*
X102628864Y-110029274D01*
X102679698Y-110196852D01*
X102762248Y-110351291D01*
X102811312Y-110411075D01*
X102873342Y-110486659D01*
X102907259Y-110514494D01*
X107615884Y-115223119D01*
X107459744Y-115287795D01*
X107290226Y-115401063D01*
X107146063Y-115545226D01*
X107032795Y-115714744D01*
X106954774Y-115903102D01*
X106915000Y-116103061D01*
X106915000Y-116306939D01*
X106954774Y-116506898D01*
X107032795Y-116695256D01*
X107061000Y-116737468D01*
X107061000Y-116796340D01*
X107056700Y-116840000D01*
X107061000Y-116883660D01*
X107061000Y-116883666D01*
X107067434Y-116948987D01*
X107073864Y-117014274D01*
X107080175Y-117035078D01*
X107124697Y-117181850D01*
X107207247Y-117336290D01*
X107318341Y-117471659D01*
X107352264Y-117499499D01*
X114098881Y-124246116D01*
X114077815Y-124460000D01*
X114106487Y-124751111D01*
X114191401Y-125031034D01*
X114329294Y-125289014D01*
X114514866Y-125515134D01*
X114740986Y-125700706D01*
X114998966Y-125838599D01*
X115278889Y-125923513D01*
X115497050Y-125945000D01*
X115642950Y-125945000D01*
X115861111Y-125923513D01*
X116141034Y-125838599D01*
X116399014Y-125700706D01*
X116625134Y-125515134D01*
X116810706Y-125289014D01*
X116840000Y-125234209D01*
X116869294Y-125289014D01*
X117054866Y-125515134D01*
X117280986Y-125700706D01*
X117538966Y-125838599D01*
X117818889Y-125923513D01*
X118037050Y-125945000D01*
X118182950Y-125945000D01*
X118401111Y-125923513D01*
X118681034Y-125838599D01*
X118939014Y-125700706D01*
X119165134Y-125515134D01*
X119350706Y-125289014D01*
X119380000Y-125234209D01*
X119409294Y-125289014D01*
X119594866Y-125515134D01*
X119820986Y-125700706D01*
X120078966Y-125838599D01*
X120358889Y-125923513D01*
X120577050Y-125945000D01*
X120722950Y-125945000D01*
X120941111Y-125923513D01*
X121221034Y-125838599D01*
X121479014Y-125700706D01*
X121705134Y-125515134D01*
X121890706Y-125289014D01*
X121920000Y-125234209D01*
X121949294Y-125289014D01*
X122134866Y-125515134D01*
X122360986Y-125700706D01*
X122618966Y-125838599D01*
X122898889Y-125923513D01*
X123117050Y-125945000D01*
X123262950Y-125945000D01*
X123481111Y-125923513D01*
X123761034Y-125838599D01*
X124019014Y-125700706D01*
X124245134Y-125515134D01*
X124430706Y-125289014D01*
X124460000Y-125234209D01*
X124489294Y-125289014D01*
X124674866Y-125515134D01*
X124900986Y-125700706D01*
X125158966Y-125838599D01*
X125438889Y-125923513D01*
X125657050Y-125945000D01*
X125802950Y-125945000D01*
X126021111Y-125923513D01*
X126301034Y-125838599D01*
X126559014Y-125700706D01*
X126785134Y-125515134D01*
X126809607Y-125485313D01*
X126830498Y-125554180D01*
X126889463Y-125664494D01*
X126968815Y-125761185D01*
X127065506Y-125840537D01*
X127175820Y-125899502D01*
X127295518Y-125935812D01*
X127420000Y-125948072D01*
X129120000Y-125948072D01*
X129244482Y-125935812D01*
X129364180Y-125899502D01*
X129474494Y-125840537D01*
X129571185Y-125761185D01*
X129650537Y-125664494D01*
X129709502Y-125554180D01*
X129745812Y-125434482D01*
X129758072Y-125310000D01*
X129758072Y-123610000D01*
X129745812Y-123485518D01*
X129709502Y-123365820D01*
X129650537Y-123255506D01*
X129571185Y-123158815D01*
X129474494Y-123079463D01*
X129364180Y-123020498D01*
X129244482Y-122984188D01*
X129120000Y-122971928D01*
X127420000Y-122971928D01*
X127295518Y-122984188D01*
X127175820Y-123020498D01*
X127065506Y-123079463D01*
X126968815Y-123158815D01*
X126889463Y-123255506D01*
X126830498Y-123365820D01*
X126809607Y-123434687D01*
X126785134Y-123404866D01*
X126559014Y-123219294D01*
X126301034Y-123081401D01*
X126021111Y-122996487D01*
X125802950Y-122975000D01*
X125657050Y-122975000D01*
X125438889Y-122996487D01*
X125158966Y-123081401D01*
X124900986Y-123219294D01*
X124674866Y-123404866D01*
X124489294Y-123630986D01*
X124460000Y-123685791D01*
X124430706Y-123630986D01*
X124245134Y-123404866D01*
X124019014Y-123219294D01*
X123761034Y-123081401D01*
X123481111Y-122996487D01*
X123262950Y-122975000D01*
X123117050Y-122975000D01*
X122898889Y-122996487D01*
X122618966Y-123081401D01*
X122360986Y-123219294D01*
X122134866Y-123404866D01*
X121949294Y-123630986D01*
X121920000Y-123685791D01*
X121890706Y-123630986D01*
X121705134Y-123404866D01*
X121479014Y-123219294D01*
X121221034Y-123081401D01*
X120941111Y-122996487D01*
X120722950Y-122975000D01*
X120577050Y-122975000D01*
X120436117Y-122988881D01*
X118247236Y-120800000D01*
X152953461Y-120800000D01*
X152999510Y-121267542D01*
X153135887Y-121717116D01*
X153357351Y-122131446D01*
X153655391Y-122494609D01*
X154018554Y-122792649D01*
X154432884Y-123014113D01*
X154882458Y-123150490D01*
X155232843Y-123185000D01*
X155467157Y-123185000D01*
X155817542Y-123150490D01*
X156267116Y-123014113D01*
X156681446Y-122792649D01*
X157044609Y-122494609D01*
X157342649Y-122131446D01*
X157564113Y-121717116D01*
X157700490Y-121267542D01*
X157746539Y-120800000D01*
X157700490Y-120332458D01*
X157564113Y-119882884D01*
X157342649Y-119468554D01*
X157044609Y-119105391D01*
X156681446Y-118807351D01*
X156267116Y-118585887D01*
X155817542Y-118449510D01*
X155467157Y-118415000D01*
X155232843Y-118415000D01*
X154882458Y-118449510D01*
X154432884Y-118585887D01*
X154018554Y-118807351D01*
X153655391Y-119105391D01*
X153357351Y-119468554D01*
X153135887Y-119882884D01*
X152999510Y-120332458D01*
X152953461Y-120800000D01*
X118247236Y-120800000D01*
X105752000Y-108304765D01*
X105751995Y-108304759D01*
X104341235Y-106894000D01*
X105212351Y-106894000D01*
X105282169Y-106951298D01*
X105437866Y-107034520D01*
X105606807Y-107085768D01*
X105782500Y-107103072D01*
X106307500Y-107103072D01*
X106483193Y-107085768D01*
X106652134Y-107034520D01*
X106807831Y-106951298D01*
X106944301Y-106839301D01*
X106993788Y-106779000D01*
X107426340Y-106779000D01*
X107470000Y-106783300D01*
X107513660Y-106779000D01*
X107513667Y-106779000D01*
X107644274Y-106766136D01*
X107811851Y-106715303D01*
X107966291Y-106632753D01*
X108101659Y-106521659D01*
X108129499Y-106487736D01*
X115187105Y-99430130D01*
X115236898Y-99420226D01*
X115425256Y-99342205D01*
X115594774Y-99228937D01*
X115738937Y-99084774D01*
X115852205Y-98915256D01*
X115930226Y-98726898D01*
X115970000Y-98526939D01*
X115970000Y-98323061D01*
X115930226Y-98123102D01*
X115852205Y-97934744D01*
X115738937Y-97765226D01*
X115594774Y-97621063D01*
X115425256Y-97507795D01*
X115340047Y-97472500D01*
X115425256Y-97437205D01*
X115594774Y-97323937D01*
X115738937Y-97179774D01*
X115852205Y-97010256D01*
X115930226Y-96821898D01*
X115970000Y-96621939D01*
X115970000Y-96418061D01*
X115930226Y-96218102D01*
X115852205Y-96029744D01*
X115738937Y-95860226D01*
X115594774Y-95716063D01*
X115425256Y-95602795D01*
X115236898Y-95524774D01*
X115036939Y-95485000D01*
X114833061Y-95485000D01*
X114633102Y-95524774D01*
X114444744Y-95602795D01*
X114300000Y-95699510D01*
X114155256Y-95602795D01*
X113966898Y-95524774D01*
X113766939Y-95485000D01*
X113563061Y-95485000D01*
X113363102Y-95524774D01*
X113174744Y-95602795D01*
X113030000Y-95699510D01*
X112885256Y-95602795D01*
X112696898Y-95524774D01*
X112496939Y-95485000D01*
X112293061Y-95485000D01*
X112093102Y-95524774D01*
X111904744Y-95602795D01*
X111735226Y-95716063D01*
X111591063Y-95860226D01*
X111477795Y-96029744D01*
X111399774Y-96218102D01*
X111389870Y-96267895D01*
X110756765Y-96901000D01*
X103385368Y-96901000D01*
X103341700Y-96896699D01*
X103167425Y-96913864D01*
X103127217Y-96926061D01*
X102999849Y-96964697D01*
X102845409Y-97047247D01*
X102710041Y-97158341D01*
X102682206Y-97192258D01*
X101078715Y-98795750D01*
X101071226Y-98758102D01*
X100993205Y-98569744D01*
X100879937Y-98400226D01*
X100735774Y-98256063D01*
X100618800Y-98177904D01*
X100784988Y-98089075D01*
X100978370Y-97930370D01*
X101137075Y-97736988D01*
X101255003Y-97516359D01*
X101327623Y-97276963D01*
X101352144Y-97028000D01*
X101327623Y-96779037D01*
X101255003Y-96539641D01*
X101137075Y-96319012D01*
X100978370Y-96125630D01*
X100784988Y-95966925D01*
X100564359Y-95848997D01*
X100324963Y-95776377D01*
X100138380Y-95758000D01*
X96457620Y-95758000D01*
X96271037Y-95776377D01*
X96031641Y-95848997D01*
X95811012Y-95966925D01*
X95617630Y-96125630D01*
X95458925Y-96319012D01*
X95340997Y-96539641D01*
X95268377Y-96779037D01*
X95243856Y-97028000D01*
X95268377Y-97276963D01*
X95340997Y-97516359D01*
X95458925Y-97736988D01*
X95617630Y-97930370D01*
X95811012Y-98089075D01*
X96031641Y-98207003D01*
X96271037Y-98279623D01*
X96457620Y-98298000D01*
X99374289Y-98298000D01*
X99272063Y-98400226D01*
X99158795Y-98569744D01*
X99080774Y-98758102D01*
X99070870Y-98807895D01*
X98122941Y-99755824D01*
X97986807Y-99769232D01*
X97817866Y-99820480D01*
X97662169Y-99903702D01*
X97525699Y-100015699D01*
X97413702Y-100152169D01*
X97330480Y-100307866D01*
X97279232Y-100476807D01*
X97275016Y-100519615D01*
X97220258Y-100417171D01*
X97122251Y-100297749D01*
X97002829Y-100199742D01*
X96866582Y-100126916D01*
X96718745Y-100082071D01*
X96565000Y-100066928D01*
X95315000Y-100066928D01*
X95161255Y-100082071D01*
X95013418Y-100126916D01*
X94942242Y-100164961D01*
X94953072Y-100055001D01*
X94953072Y-99354999D01*
X94936008Y-99181745D01*
X94885472Y-99015149D01*
X94803405Y-98861613D01*
X94692962Y-98727038D01*
X94558387Y-98616595D01*
X94404851Y-98534528D01*
X94238255Y-98483992D01*
X94065001Y-98466928D01*
X92764999Y-98466928D01*
X92591745Y-98483992D01*
X92425149Y-98534528D01*
X92271613Y-98616595D01*
X92137038Y-98727038D01*
X92100000Y-98772169D01*
X92100000Y-91973061D01*
X99930000Y-91973061D01*
X99930000Y-92176939D01*
X99969774Y-92376898D01*
X100047795Y-92565256D01*
X100161063Y-92734774D01*
X100305226Y-92878937D01*
X100474744Y-92992205D01*
X100663102Y-93070226D01*
X100863061Y-93110000D01*
X101066939Y-93110000D01*
X101266898Y-93070226D01*
X101455256Y-92992205D01*
X101497468Y-92964000D01*
X101866765Y-92964000D01*
X102845506Y-93942741D01*
X102873341Y-93976659D01*
X103008709Y-94087753D01*
X103163149Y-94170303D01*
X103229058Y-94190296D01*
X103330724Y-94221136D01*
X103363924Y-94224406D01*
X103461333Y-94234000D01*
X103461339Y-94234000D01*
X103504999Y-94238300D01*
X103548659Y-94234000D01*
X118212532Y-94234000D01*
X118254744Y-94262205D01*
X118443102Y-94340226D01*
X118643061Y-94380000D01*
X118846939Y-94380000D01*
X119046898Y-94340226D01*
X119235256Y-94262205D01*
X119404774Y-94148937D01*
X119548937Y-94004774D01*
X119662205Y-93835256D01*
X119740226Y-93646898D01*
X119780000Y-93446939D01*
X119780000Y-93243061D01*
X119743791Y-93061027D01*
X121729356Y-95046592D01*
X121628889Y-95056487D01*
X121348966Y-95141401D01*
X121090986Y-95279294D01*
X120864866Y-95464866D01*
X120679294Y-95690986D01*
X120541401Y-95948966D01*
X120456487Y-96228889D01*
X120427815Y-96520000D01*
X120456487Y-96811111D01*
X120541401Y-97091034D01*
X120679294Y-97349014D01*
X120864866Y-97575134D01*
X121090986Y-97760706D01*
X121348966Y-97898599D01*
X121628889Y-97983513D01*
X121847050Y-98005000D01*
X121992950Y-98005000D01*
X122211111Y-97983513D01*
X122491034Y-97898599D01*
X122749014Y-97760706D01*
X122975134Y-97575134D01*
X123160706Y-97349014D01*
X123190000Y-97294209D01*
X123219294Y-97349014D01*
X123404866Y-97575134D01*
X123630986Y-97760706D01*
X123888966Y-97898599D01*
X124168889Y-97983513D01*
X124387050Y-98005000D01*
X124532950Y-98005000D01*
X124751111Y-97983513D01*
X125031034Y-97898599D01*
X125289014Y-97760706D01*
X125515134Y-97575134D01*
X125700706Y-97349014D01*
X125730000Y-97294209D01*
X125759294Y-97349014D01*
X125944866Y-97575134D01*
X126170986Y-97760706D01*
X126428966Y-97898599D01*
X126708889Y-97983513D01*
X126927050Y-98005000D01*
X127072950Y-98005000D01*
X127291111Y-97983513D01*
X127571034Y-97898599D01*
X127829014Y-97760706D01*
X128055134Y-97575134D01*
X128240706Y-97349014D01*
X128270000Y-97294209D01*
X128299294Y-97349014D01*
X128484866Y-97575134D01*
X128710986Y-97760706D01*
X128875624Y-97848707D01*
X118151130Y-108573202D01*
X118122060Y-108597059D01*
X118098203Y-108626129D01*
X118098202Y-108626130D01*
X118026836Y-108713089D01*
X117956080Y-108845466D01*
X117912508Y-108989103D01*
X117897795Y-109138481D01*
X117901482Y-109175914D01*
X117901481Y-112795888D01*
X117159370Y-113538000D01*
X115965015Y-113538000D01*
X115930226Y-113363102D01*
X115852205Y-113174744D01*
X115738937Y-113005226D01*
X115594774Y-112861063D01*
X115425256Y-112747795D01*
X115236898Y-112669774D01*
X115036939Y-112630000D01*
X114833061Y-112630000D01*
X114633102Y-112669774D01*
X114444744Y-112747795D01*
X114275226Y-112861063D01*
X114131063Y-113005226D01*
X114017795Y-113174744D01*
X113939774Y-113363102D01*
X113900000Y-113563061D01*
X113900000Y-113766939D01*
X113939774Y-113966898D01*
X114017795Y-114155256D01*
X114131063Y-114324774D01*
X114275226Y-114468937D01*
X114444744Y-114582205D01*
X114633102Y-114660226D01*
X114833061Y-114700000D01*
X114892370Y-114700000D01*
X115004716Y-114812346D01*
X115028578Y-114841422D01*
X115102219Y-114901857D01*
X115144607Y-114936645D01*
X115215364Y-114974465D01*
X115276985Y-115007402D01*
X115420622Y-115050974D01*
X115532574Y-115062000D01*
X115532577Y-115062000D01*
X115570000Y-115065686D01*
X115607423Y-115062000D01*
X117437577Y-115062000D01*
X117475000Y-115065686D01*
X117512423Y-115062000D01*
X117512426Y-115062000D01*
X117624378Y-115050974D01*
X117768015Y-115007402D01*
X117900392Y-114936645D01*
X118016422Y-114841422D01*
X118040284Y-114812346D01*
X119175834Y-113676797D01*
X119204903Y-113652941D01*
X119254425Y-113592598D01*
X119300126Y-113536912D01*
X119370882Y-113404535D01*
X119370883Y-113404534D01*
X119380001Y-113374477D01*
X119380000Y-115632379D01*
X119398377Y-115818962D01*
X119470997Y-116058358D01*
X119588925Y-116278987D01*
X119747630Y-116472370D01*
X119941012Y-116631075D01*
X120161641Y-116749003D01*
X120401037Y-116821623D01*
X120650000Y-116846144D01*
X120898962Y-116821623D01*
X121138358Y-116749003D01*
X121358987Y-116631075D01*
X121552370Y-116472370D01*
X121711075Y-116278988D01*
X121829003Y-116058359D01*
X121901623Y-115818963D01*
X121920000Y-115632380D01*
X121920000Y-115355000D01*
X125511928Y-115355000D01*
X125511928Y-117055000D01*
X125524188Y-117179482D01*
X125560498Y-117299180D01*
X125619463Y-117409494D01*
X125698815Y-117506185D01*
X125795506Y-117585537D01*
X125905820Y-117644502D01*
X126025518Y-117680812D01*
X126150000Y-117693072D01*
X127850000Y-117693072D01*
X127974482Y-117680812D01*
X128094180Y-117644502D01*
X128204494Y-117585537D01*
X128301185Y-117506185D01*
X128380537Y-117409494D01*
X128439502Y-117299180D01*
X128460393Y-117230313D01*
X128484866Y-117260134D01*
X128710986Y-117445706D01*
X128968966Y-117583599D01*
X129248889Y-117668513D01*
X129467050Y-117690000D01*
X129612950Y-117690000D01*
X129831111Y-117668513D01*
X130111034Y-117583599D01*
X130369014Y-117445706D01*
X130595134Y-117260134D01*
X130780706Y-117034014D01*
X130810000Y-116979209D01*
X130839294Y-117034014D01*
X131024866Y-117260134D01*
X131250986Y-117445706D01*
X131508966Y-117583599D01*
X131788889Y-117668513D01*
X132007050Y-117690000D01*
X132152950Y-117690000D01*
X132371111Y-117668513D01*
X132651034Y-117583599D01*
X132909014Y-117445706D01*
X133135134Y-117260134D01*
X133320706Y-117034014D01*
X133350000Y-116979209D01*
X133379294Y-117034014D01*
X133564866Y-117260134D01*
X133790986Y-117445706D01*
X134048966Y-117583599D01*
X134328889Y-117668513D01*
X134547050Y-117690000D01*
X134692950Y-117690000D01*
X134911111Y-117668513D01*
X135191034Y-117583599D01*
X135449014Y-117445706D01*
X135675134Y-117260134D01*
X135860706Y-117034014D01*
X135998599Y-116776034D01*
X136083513Y-116496111D01*
X136112185Y-116205000D01*
X136083513Y-115913889D01*
X135998599Y-115633966D01*
X135860706Y-115375986D01*
X135843484Y-115355000D01*
X140751928Y-115355000D01*
X140751928Y-117055000D01*
X140764188Y-117179482D01*
X140800498Y-117299180D01*
X140859463Y-117409494D01*
X140938815Y-117506185D01*
X141035506Y-117585537D01*
X141145820Y-117644502D01*
X141265518Y-117680812D01*
X141390000Y-117693072D01*
X143090000Y-117693072D01*
X143214482Y-117680812D01*
X143334180Y-117644502D01*
X143444494Y-117585537D01*
X143541185Y-117506185D01*
X143620537Y-117409494D01*
X143679502Y-117299180D01*
X143700393Y-117230313D01*
X143724866Y-117260134D01*
X143950986Y-117445706D01*
X144208966Y-117583599D01*
X144488889Y-117668513D01*
X144707050Y-117690000D01*
X144852950Y-117690000D01*
X145071111Y-117668513D01*
X145351034Y-117583599D01*
X145609014Y-117445706D01*
X145835134Y-117260134D01*
X146020706Y-117034014D01*
X146158599Y-116776034D01*
X146243513Y-116496111D01*
X146272185Y-116205000D01*
X146243513Y-115913889D01*
X146158599Y-115633966D01*
X146020706Y-115375986D01*
X145835134Y-115149866D01*
X145609014Y-114964294D01*
X145351034Y-114826401D01*
X145071111Y-114741487D01*
X144852950Y-114720000D01*
X144707050Y-114720000D01*
X144488889Y-114741487D01*
X144208966Y-114826401D01*
X143950986Y-114964294D01*
X143724866Y-115149866D01*
X143700393Y-115179687D01*
X143679502Y-115110820D01*
X143620537Y-115000506D01*
X143541185Y-114903815D01*
X143444494Y-114824463D01*
X143334180Y-114765498D01*
X143214482Y-114729188D01*
X143090000Y-114716928D01*
X141390000Y-114716928D01*
X141265518Y-114729188D01*
X141145820Y-114765498D01*
X141035506Y-114824463D01*
X140938815Y-114903815D01*
X140859463Y-115000506D01*
X140800498Y-115110820D01*
X140764188Y-115230518D01*
X140751928Y-115355000D01*
X135843484Y-115355000D01*
X135675134Y-115149866D01*
X135449014Y-114964294D01*
X135191034Y-114826401D01*
X134911111Y-114741487D01*
X134692950Y-114720000D01*
X134547050Y-114720000D01*
X134328889Y-114741487D01*
X134048966Y-114826401D01*
X133790986Y-114964294D01*
X133564866Y-115149866D01*
X133379294Y-115375986D01*
X133350000Y-115430791D01*
X133320706Y-115375986D01*
X133135134Y-115149866D01*
X132909014Y-114964294D01*
X132651034Y-114826401D01*
X132371111Y-114741487D01*
X132152950Y-114720000D01*
X132007050Y-114720000D01*
X131788889Y-114741487D01*
X131508966Y-114826401D01*
X131250986Y-114964294D01*
X131024866Y-115149866D01*
X130839294Y-115375986D01*
X130810000Y-115430791D01*
X130780706Y-115375986D01*
X130595134Y-115149866D01*
X130369014Y-114964294D01*
X130111034Y-114826401D01*
X129831111Y-114741487D01*
X129612950Y-114720000D01*
X129467050Y-114720000D01*
X129248889Y-114741487D01*
X128968966Y-114826401D01*
X128710986Y-114964294D01*
X128484866Y-115149866D01*
X128460393Y-115179687D01*
X128439502Y-115110820D01*
X128380537Y-115000506D01*
X128301185Y-114903815D01*
X128204494Y-114824463D01*
X128094180Y-114765498D01*
X127974482Y-114729188D01*
X127850000Y-114716928D01*
X126150000Y-114716928D01*
X126025518Y-114729188D01*
X125905820Y-114765498D01*
X125795506Y-114824463D01*
X125698815Y-114903815D01*
X125619463Y-115000506D01*
X125560498Y-115110820D01*
X125524188Y-115230518D01*
X125511928Y-115355000D01*
X121920000Y-115355000D01*
X121920000Y-112967620D01*
X121901623Y-112781037D01*
X121829003Y-112541641D01*
X121711075Y-112321012D01*
X121552370Y-112127630D01*
X121358988Y-111968925D01*
X121138359Y-111850997D01*
X120898963Y-111778377D01*
X120650000Y-111753856D01*
X120401038Y-111778377D01*
X120161642Y-111850997D01*
X119941013Y-111968925D01*
X119747631Y-112127630D01*
X119588926Y-112321012D01*
X119470998Y-112541641D01*
X119425481Y-112691690D01*
X119425481Y-109454111D01*
X121284694Y-107594898D01*
X121264047Y-107644744D01*
X121182000Y-108057221D01*
X121182000Y-108477779D01*
X121264047Y-108890256D01*
X121424988Y-109278802D01*
X121658637Y-109628483D01*
X121956017Y-109925863D01*
X122305698Y-110159512D01*
X122694244Y-110320453D01*
X123106721Y-110402500D01*
X123527279Y-110402500D01*
X123939756Y-110320453D01*
X124328302Y-110159512D01*
X124677983Y-109925863D01*
X124975363Y-109628483D01*
X125209012Y-109278802D01*
X125369953Y-108890256D01*
X125452000Y-108477779D01*
X125452000Y-108057221D01*
X125439370Y-107993721D01*
X141311500Y-107993721D01*
X141311500Y-108414279D01*
X141393547Y-108826756D01*
X141554488Y-109215302D01*
X141788137Y-109564983D01*
X142085517Y-109862363D01*
X142435198Y-110096012D01*
X142823744Y-110256953D01*
X143236221Y-110339000D01*
X143656779Y-110339000D01*
X144069256Y-110256953D01*
X144457802Y-110096012D01*
X144807483Y-109862363D01*
X145104863Y-109564983D01*
X145338512Y-109215302D01*
X145499453Y-108826756D01*
X145581500Y-108414279D01*
X145581500Y-107993721D01*
X145499453Y-107581244D01*
X145338512Y-107192698D01*
X145104863Y-106843017D01*
X144807483Y-106545637D01*
X144457802Y-106311988D01*
X144069256Y-106151047D01*
X143656779Y-106069000D01*
X143236221Y-106069000D01*
X142823744Y-106151047D01*
X142435198Y-106311988D01*
X142085517Y-106545637D01*
X141788137Y-106843017D01*
X141554488Y-107192698D01*
X141393547Y-107581244D01*
X141311500Y-107993721D01*
X125439370Y-107993721D01*
X125369953Y-107644744D01*
X125209012Y-107256198D01*
X124975363Y-106906517D01*
X124677983Y-106609137D01*
X124328302Y-106375488D01*
X123939756Y-106214547D01*
X123527279Y-106132500D01*
X123106721Y-106132500D01*
X122694244Y-106214547D01*
X122644399Y-106235194D01*
X131178431Y-97701162D01*
X131250986Y-97760706D01*
X131508966Y-97898599D01*
X131788889Y-97983513D01*
X132007050Y-98005000D01*
X132152950Y-98005000D01*
X132371111Y-97983513D01*
X132651034Y-97898599D01*
X132909014Y-97760706D01*
X133135134Y-97575134D01*
X133320706Y-97349014D01*
X133350000Y-97294209D01*
X133379294Y-97349014D01*
X133564866Y-97575134D01*
X133790986Y-97760706D01*
X134048966Y-97898599D01*
X134328889Y-97983513D01*
X134547050Y-98005000D01*
X134692950Y-98005000D01*
X134911111Y-97983513D01*
X135191034Y-97898599D01*
X135449014Y-97760706D01*
X135675134Y-97575134D01*
X135860706Y-97349014D01*
X135890000Y-97294209D01*
X135919294Y-97349014D01*
X136104866Y-97575134D01*
X136330986Y-97760706D01*
X136588966Y-97898599D01*
X136868889Y-97983513D01*
X137087050Y-98005000D01*
X137232950Y-98005000D01*
X137451111Y-97983513D01*
X137731034Y-97898599D01*
X137989014Y-97760706D01*
X138215134Y-97575134D01*
X138400706Y-97349014D01*
X138430000Y-97294209D01*
X138459294Y-97349014D01*
X138644866Y-97575134D01*
X138870986Y-97760706D01*
X139128966Y-97898599D01*
X139408889Y-97983513D01*
X139627050Y-98005000D01*
X139772950Y-98005000D01*
X139991111Y-97983513D01*
X140271034Y-97898599D01*
X140529014Y-97760706D01*
X140755134Y-97575134D01*
X140940706Y-97349014D01*
X140970000Y-97294209D01*
X140999294Y-97349014D01*
X141184866Y-97575134D01*
X141410986Y-97760706D01*
X141668966Y-97898599D01*
X141948889Y-97983513D01*
X142167050Y-98005000D01*
X142312950Y-98005000D01*
X142531111Y-97983513D01*
X142811034Y-97898599D01*
X143069014Y-97760706D01*
X143295134Y-97575134D01*
X143319607Y-97545313D01*
X143340498Y-97614180D01*
X143399463Y-97724494D01*
X143478815Y-97821185D01*
X143575506Y-97900537D01*
X143685820Y-97959502D01*
X143805518Y-97995812D01*
X143930000Y-98008072D01*
X144494250Y-98005000D01*
X144653000Y-97846250D01*
X144653000Y-96647000D01*
X144907000Y-96647000D01*
X144907000Y-97846250D01*
X145065750Y-98005000D01*
X145630000Y-98008072D01*
X145754482Y-97995812D01*
X145874180Y-97959502D01*
X145984494Y-97900537D01*
X146081185Y-97821185D01*
X146160537Y-97724494D01*
X146219502Y-97614180D01*
X146255812Y-97494482D01*
X146268072Y-97370000D01*
X146265000Y-96805750D01*
X146106250Y-96647000D01*
X144907000Y-96647000D01*
X144653000Y-96647000D01*
X144633000Y-96647000D01*
X144633000Y-96393000D01*
X144653000Y-96393000D01*
X144653000Y-95193750D01*
X144907000Y-95193750D01*
X144907000Y-96393000D01*
X146106250Y-96393000D01*
X146265000Y-96234250D01*
X146268072Y-95670000D01*
X146255812Y-95545518D01*
X146219502Y-95425820D01*
X146160537Y-95315506D01*
X146081185Y-95218815D01*
X145984494Y-95139463D01*
X145874180Y-95080498D01*
X145754482Y-95044188D01*
X145630000Y-95031928D01*
X145065750Y-95035000D01*
X144907000Y-95193750D01*
X144653000Y-95193750D01*
X144494250Y-95035000D01*
X143930000Y-95031928D01*
X143805518Y-95044188D01*
X143685820Y-95080498D01*
X143575506Y-95139463D01*
X143478815Y-95218815D01*
X143399463Y-95315506D01*
X143340498Y-95425820D01*
X143319607Y-95494687D01*
X143295134Y-95464866D01*
X143069014Y-95279294D01*
X142811034Y-95141401D01*
X142531111Y-95056487D01*
X142312950Y-95035000D01*
X142167050Y-95035000D01*
X141948889Y-95056487D01*
X141668966Y-95141401D01*
X141410986Y-95279294D01*
X141184866Y-95464866D01*
X140999294Y-95690986D01*
X140970000Y-95745791D01*
X140940706Y-95690986D01*
X140755134Y-95464866D01*
X140529014Y-95279294D01*
X140271034Y-95141401D01*
X139991111Y-95056487D01*
X139772950Y-95035000D01*
X139627050Y-95035000D01*
X139408889Y-95056487D01*
X139128966Y-95141401D01*
X138870986Y-95279294D01*
X138644866Y-95464866D01*
X138459294Y-95690986D01*
X138430000Y-95745791D01*
X138400706Y-95690986D01*
X138215134Y-95464866D01*
X137989014Y-95279294D01*
X137731034Y-95141401D01*
X137451111Y-95056487D01*
X137232950Y-95035000D01*
X137087050Y-95035000D01*
X136868889Y-95056487D01*
X136588966Y-95141401D01*
X136330986Y-95279294D01*
X136104866Y-95464866D01*
X135919294Y-95690986D01*
X135890000Y-95745791D01*
X135860706Y-95690986D01*
X135675134Y-95464866D01*
X135449014Y-95279294D01*
X135191034Y-95141401D01*
X134911111Y-95056487D01*
X134692950Y-95035000D01*
X134547050Y-95035000D01*
X134328889Y-95056487D01*
X134048966Y-95141401D01*
X133790986Y-95279294D01*
X133564866Y-95464866D01*
X133379294Y-95690986D01*
X133350000Y-95745791D01*
X133320706Y-95690986D01*
X133135134Y-95464866D01*
X132909014Y-95279294D01*
X132651034Y-95141401D01*
X132371111Y-95056487D01*
X132152950Y-95035000D01*
X132007050Y-95035000D01*
X131788889Y-95056487D01*
X131664999Y-95094069D01*
X131664999Y-92865931D01*
X131788889Y-92903513D01*
X132007050Y-92925000D01*
X132152950Y-92925000D01*
X132371111Y-92903513D01*
X132651034Y-92818599D01*
X132909014Y-92680706D01*
X133135134Y-92495134D01*
X133320706Y-92269014D01*
X133458599Y-92011034D01*
X133543513Y-91731111D01*
X133572185Y-91440000D01*
X133543513Y-91148889D01*
X133458599Y-90868966D01*
X133320706Y-90610986D01*
X133135134Y-90384866D01*
X132909014Y-90199294D01*
X132854209Y-90170000D01*
X132909014Y-90140706D01*
X133135134Y-89955134D01*
X133320706Y-89729014D01*
X133458599Y-89471034D01*
X133543513Y-89191111D01*
X133572185Y-88900000D01*
X133543513Y-88608889D01*
X133458599Y-88328966D01*
X133320706Y-88070986D01*
X133135134Y-87844866D01*
X132909014Y-87659294D01*
X132844477Y-87624799D01*
X132961355Y-87555178D01*
X133177588Y-87360269D01*
X133351641Y-87126920D01*
X133476825Y-86864099D01*
X133521476Y-86716890D01*
X133400155Y-86487000D01*
X132207000Y-86487000D01*
X132207000Y-86507000D01*
X131953000Y-86507000D01*
X131953000Y-86487000D01*
X130759845Y-86487000D01*
X130638524Y-86716890D01*
X130683175Y-86864099D01*
X130808359Y-87126920D01*
X130982412Y-87360269D01*
X131198645Y-87555178D01*
X131315523Y-87624799D01*
X131250986Y-87659294D01*
X131024866Y-87844866D01*
X130839294Y-88070986D01*
X130701401Y-88328966D01*
X130616487Y-88608889D01*
X130587815Y-88900000D01*
X130616487Y-89191111D01*
X130638545Y-89263826D01*
X130390649Y-89511721D01*
X130361578Y-89535579D01*
X130337721Y-89564649D01*
X130337720Y-89564650D01*
X130266354Y-89651609D01*
X130195598Y-89783986D01*
X130152026Y-89927623D01*
X130137313Y-90077001D01*
X130141000Y-90114434D01*
X130141000Y-93323180D01*
X130137737Y-93320502D01*
X123391119Y-86573884D01*
X123412185Y-86360000D01*
X123383513Y-86068889D01*
X123298599Y-85788966D01*
X123160706Y-85530986D01*
X122975134Y-85304866D01*
X122945313Y-85280393D01*
X123014180Y-85259502D01*
X123124494Y-85200537D01*
X123221185Y-85121185D01*
X123300537Y-85024494D01*
X123359502Y-84914180D01*
X123395812Y-84794482D01*
X123408072Y-84670000D01*
X130591928Y-84670000D01*
X130604188Y-84794482D01*
X130640498Y-84914180D01*
X130699463Y-85024494D01*
X130778815Y-85121185D01*
X130875506Y-85200537D01*
X130985820Y-85259502D01*
X131066466Y-85283966D01*
X130982412Y-85359731D01*
X130808359Y-85593080D01*
X130683175Y-85855901D01*
X130638524Y-86003110D01*
X130759845Y-86233000D01*
X131953000Y-86233000D01*
X131953000Y-83947000D01*
X132207000Y-83947000D01*
X132207000Y-86233000D01*
X133400155Y-86233000D01*
X133521476Y-86003110D01*
X133476825Y-85855901D01*
X133351641Y-85593080D01*
X133177588Y-85359731D01*
X133093534Y-85283966D01*
X133174180Y-85259502D01*
X133284494Y-85200537D01*
X133381185Y-85121185D01*
X133460537Y-85024494D01*
X133519502Y-84914180D01*
X133555812Y-84794482D01*
X133568072Y-84670000D01*
X133565000Y-84105750D01*
X133406250Y-83947000D01*
X132207000Y-83947000D01*
X131953000Y-83947000D01*
X130753750Y-83947000D01*
X130595000Y-84105750D01*
X130591928Y-84670000D01*
X123408072Y-84670000D01*
X123408072Y-83404999D01*
X130594296Y-83404999D01*
X130595000Y-83534250D01*
X130753750Y-83693000D01*
X131953000Y-83693000D01*
X131953000Y-83673000D01*
X132207000Y-83673000D01*
X132207000Y-83693000D01*
X133406250Y-83693000D01*
X133565000Y-83534250D01*
X133565704Y-83404999D01*
X151424764Y-83404999D01*
X151802501Y-83782736D01*
X151830341Y-83816659D01*
X151965709Y-83927753D01*
X152120149Y-84010303D01*
X152186058Y-84030296D01*
X152287724Y-84061136D01*
X152320924Y-84064406D01*
X152362079Y-84068459D01*
X152380498Y-84129180D01*
X152439463Y-84239494D01*
X152518815Y-84336185D01*
X152615506Y-84415537D01*
X152725820Y-84474502D01*
X152845518Y-84510812D01*
X152970000Y-84523072D01*
X154370000Y-84523072D01*
X154494482Y-84510812D01*
X154614180Y-84474502D01*
X154650665Y-84455000D01*
X155864335Y-84455000D01*
X155900820Y-84474502D01*
X156020518Y-84510812D01*
X156145000Y-84523072D01*
X156692215Y-84523072D01*
X156616641Y-84545997D01*
X156427811Y-84646928D01*
X156145000Y-84646928D01*
X156020518Y-84659188D01*
X155900820Y-84695498D01*
X155790506Y-84754463D01*
X155693815Y-84833815D01*
X155614463Y-84930506D01*
X155555498Y-85040820D01*
X155519188Y-85160518D01*
X155506928Y-85285000D01*
X155506928Y-86685000D01*
X155519188Y-86809482D01*
X155555498Y-86929180D01*
X155575000Y-86965665D01*
X155575000Y-88976928D01*
X150504122Y-88976928D01*
X152226051Y-87255000D01*
X152689335Y-87255000D01*
X152725820Y-87274502D01*
X152845518Y-87310812D01*
X152970000Y-87323072D01*
X154370000Y-87323072D01*
X154494482Y-87310812D01*
X154614180Y-87274502D01*
X154724494Y-87215537D01*
X154821185Y-87136185D01*
X154900537Y-87039494D01*
X154959502Y-86929180D01*
X154995812Y-86809482D01*
X155008072Y-86685000D01*
X155008072Y-85285000D01*
X154995812Y-85160518D01*
X154959502Y-85040820D01*
X154900537Y-84930506D01*
X154821185Y-84833815D01*
X154724494Y-84754463D01*
X154614180Y-84695498D01*
X154494482Y-84659188D01*
X154370000Y-84646928D01*
X152970000Y-84646928D01*
X152845518Y-84659188D01*
X152725820Y-84695498D01*
X152689335Y-84715000D01*
X151762372Y-84715000D01*
X151699999Y-84708857D01*
X151637626Y-84715000D01*
X151637620Y-84715000D01*
X151476755Y-84730844D01*
X151451036Y-84733377D01*
X151381526Y-84754463D01*
X151211641Y-84805997D01*
X150991012Y-84923925D01*
X150797630Y-85082630D01*
X150757865Y-85131084D01*
X148151092Y-87737858D01*
X148102631Y-87777629D01*
X147943926Y-87971012D01*
X147825998Y-88191641D01*
X147753378Y-88431037D01*
X147735001Y-88617620D01*
X147735001Y-88617626D01*
X147728858Y-88679999D01*
X147735001Y-88742372D01*
X147735001Y-90327620D01*
X147735002Y-107667618D01*
X147728858Y-107730001D01*
X147753378Y-107978964D01*
X147817741Y-108191136D01*
X147825999Y-108218360D01*
X147943927Y-108438989D01*
X148102632Y-108632371D01*
X148151087Y-108672137D01*
X149682863Y-110203914D01*
X149722630Y-110252370D01*
X149916012Y-110411075D01*
X150075164Y-110496143D01*
X150136641Y-110529003D01*
X150376037Y-110601623D01*
X150625000Y-110626144D01*
X150687380Y-110620000D01*
X152400000Y-110620000D01*
X152400000Y-111822379D01*
X152418377Y-112008962D01*
X152490997Y-112248358D01*
X152608925Y-112468987D01*
X152767630Y-112662370D01*
X152961012Y-112821075D01*
X153181641Y-112939003D01*
X153421037Y-113011623D01*
X153670000Y-113036144D01*
X153918962Y-113011623D01*
X154158358Y-112939003D01*
X154378987Y-112821075D01*
X154572370Y-112662370D01*
X154731075Y-112468988D01*
X154849003Y-112248359D01*
X154921623Y-112008963D01*
X154940000Y-111822380D01*
X154940000Y-110330665D01*
X154959502Y-110294180D01*
X154995812Y-110174482D01*
X155008072Y-110050000D01*
X155008072Y-108650000D01*
X154995812Y-108525518D01*
X154959502Y-108405820D01*
X154900537Y-108295506D01*
X154821185Y-108198815D01*
X154724494Y-108119463D01*
X154614180Y-108060498D01*
X154494482Y-108024188D01*
X154370000Y-108011928D01*
X152970000Y-108011928D01*
X152845518Y-108024188D01*
X152725820Y-108060498D01*
X152689335Y-108080000D01*
X151908259Y-108080000D01*
X151834494Y-108019463D01*
X151724180Y-107960498D01*
X151689573Y-107950000D01*
X151724180Y-107939502D01*
X151834494Y-107880537D01*
X151931185Y-107801185D01*
X152010537Y-107704494D01*
X152069502Y-107594180D01*
X152105812Y-107474482D01*
X152118072Y-107350000D01*
X152118072Y-107349034D01*
X152191075Y-107260080D01*
X152309003Y-107039451D01*
X152331928Y-106963877D01*
X152331928Y-107250000D01*
X152344188Y-107374482D01*
X152380498Y-107494180D01*
X152439463Y-107604494D01*
X152518815Y-107701185D01*
X152615506Y-107780537D01*
X152725820Y-107839502D01*
X152845518Y-107875812D01*
X152970000Y-107888072D01*
X154370000Y-107888072D01*
X154494482Y-107875812D01*
X154614180Y-107839502D01*
X154724494Y-107780537D01*
X154821185Y-107701185D01*
X154900537Y-107604494D01*
X154959502Y-107494180D01*
X154995812Y-107374482D01*
X155008072Y-107250000D01*
X155008072Y-105850000D01*
X154995812Y-105725518D01*
X154962169Y-105614612D01*
X155100546Y-105656588D01*
X155350000Y-105681157D01*
X155599453Y-105656588D01*
X155780001Y-105601819D01*
X155780000Y-107587627D01*
X155773857Y-107650000D01*
X155780000Y-107712373D01*
X155780000Y-107712379D01*
X155789148Y-107805256D01*
X155798377Y-107898963D01*
X155806029Y-107924188D01*
X155870997Y-108138358D01*
X155988925Y-108358987D01*
X156011928Y-108387016D01*
X156011928Y-108650000D01*
X156024188Y-108774482D01*
X156060498Y-108894180D01*
X156119463Y-109004494D01*
X156198815Y-109101185D01*
X156295506Y-109180537D01*
X156405820Y-109239502D01*
X156525518Y-109275812D01*
X156650000Y-109288072D01*
X158050000Y-109288072D01*
X158174482Y-109275812D01*
X158294180Y-109239502D01*
X158404494Y-109180537D01*
X158501185Y-109101185D01*
X158580537Y-109004494D01*
X158639502Y-108894180D01*
X158675812Y-108774482D01*
X158685000Y-108681192D01*
X158694188Y-108774482D01*
X158730498Y-108894180D01*
X158789463Y-109004494D01*
X158868815Y-109101185D01*
X158965506Y-109180537D01*
X159075820Y-109239502D01*
X159195518Y-109275812D01*
X159320000Y-109288072D01*
X160325001Y-109288072D01*
X160325001Y-109398949D01*
X160312022Y-109411928D01*
X159320000Y-109411928D01*
X159195518Y-109424188D01*
X159075820Y-109460498D01*
X159039335Y-109480000D01*
X158330665Y-109480000D01*
X158294180Y-109460498D01*
X158174482Y-109424188D01*
X158050000Y-109411928D01*
X156650000Y-109411928D01*
X156525518Y-109424188D01*
X156405820Y-109460498D01*
X156295506Y-109519463D01*
X156198815Y-109598815D01*
X156119463Y-109695506D01*
X156060498Y-109805820D01*
X156024188Y-109925518D01*
X156011928Y-110050000D01*
X156011928Y-111450000D01*
X156024188Y-111574482D01*
X156060498Y-111694180D01*
X156119463Y-111804494D01*
X156198815Y-111901185D01*
X156295506Y-111980537D01*
X156405820Y-112039502D01*
X156525518Y-112075812D01*
X156650000Y-112088072D01*
X158050000Y-112088072D01*
X158174482Y-112075812D01*
X158294180Y-112039502D01*
X158330665Y-112020000D01*
X159039335Y-112020000D01*
X159075820Y-112039502D01*
X159195518Y-112075812D01*
X159320000Y-112088072D01*
X160720000Y-112088072D01*
X160844482Y-112075812D01*
X160964180Y-112039502D01*
X161056149Y-111990343D01*
X161258359Y-111929003D01*
X161478988Y-111811075D01*
X161672370Y-111652370D01*
X161712141Y-111603909D01*
X162448909Y-110867141D01*
X162497370Y-110827370D01*
X162656075Y-110633988D01*
X162774003Y-110413359D01*
X162846623Y-110173963D01*
X162865000Y-109987380D01*
X162865000Y-109987374D01*
X162871143Y-109925001D01*
X162865000Y-109862628D01*
X162865000Y-106617620D01*
X162846623Y-106431037D01*
X162820524Y-106345000D01*
X164238950Y-106345000D01*
X167640000Y-109746051D01*
X167640001Y-112367617D01*
X167633857Y-112430000D01*
X167658377Y-112678963D01*
X167693577Y-112795000D01*
X167730998Y-112918359D01*
X167848926Y-113138988D01*
X168007631Y-113332370D01*
X168056086Y-113372136D01*
X168910000Y-114226051D01*
X168910000Y-114810309D01*
X168835000Y-115187361D01*
X168835000Y-115952639D01*
X168984298Y-116703213D01*
X169277158Y-117410238D01*
X169702323Y-118046543D01*
X170243457Y-118587677D01*
X170879762Y-119012842D01*
X170957398Y-119045000D01*
X170879762Y-119077158D01*
X170243457Y-119502323D01*
X169702323Y-120043457D01*
X169277158Y-120679762D01*
X168984298Y-121386787D01*
X168835000Y-122137361D01*
X168835000Y-122902639D01*
X168984298Y-123653213D01*
X169277158Y-124360238D01*
X169702323Y-124996543D01*
X170243457Y-125537677D01*
X170879762Y-125962842D01*
X171586787Y-126255702D01*
X172337361Y-126405000D01*
X173102639Y-126405000D01*
X173853213Y-126255702D01*
X174560238Y-125962842D01*
X175196543Y-125537677D01*
X175737677Y-124996543D01*
X176162842Y-124360238D01*
X176455702Y-123653213D01*
X176605000Y-122902639D01*
X176605000Y-122137361D01*
X176455702Y-121386787D01*
X176162842Y-120679762D01*
X175737677Y-120043457D01*
X175196543Y-119502323D01*
X174560238Y-119077158D01*
X174482602Y-119045000D01*
X174560238Y-119012842D01*
X175196543Y-118587677D01*
X175737677Y-118046543D01*
X176162842Y-117410238D01*
X176455702Y-116703213D01*
X176605000Y-115952639D01*
X176605000Y-115187361D01*
X176530000Y-114810309D01*
X176530000Y-105834691D01*
X176605000Y-105457639D01*
X176605000Y-104692361D01*
X176455702Y-103941787D01*
X176162842Y-103234762D01*
X175737677Y-102598457D01*
X175196543Y-102057323D01*
X174560238Y-101632158D01*
X174482602Y-101600000D01*
X174560238Y-101567842D01*
X175196543Y-101142677D01*
X175737677Y-100601543D01*
X176162842Y-99965238D01*
X176455702Y-99258213D01*
X176605000Y-98507639D01*
X176605000Y-97742361D01*
X176455702Y-96991787D01*
X176162842Y-96284762D01*
X175737677Y-95648457D01*
X175196543Y-95107323D01*
X174560238Y-94682158D01*
X173853213Y-94389298D01*
X173102639Y-94240000D01*
X172337361Y-94240000D01*
X171586787Y-94389298D01*
X170879762Y-94682158D01*
X170243457Y-95107323D01*
X169702323Y-95648457D01*
X169277158Y-96284762D01*
X169277059Y-96285000D01*
X167782380Y-96285000D01*
X167968963Y-96266623D01*
X168208359Y-96194003D01*
X168428988Y-96076075D01*
X168622370Y-95917370D01*
X168662141Y-95868909D01*
X168861770Y-95669280D01*
X168916701Y-95652617D01*
X169076720Y-95567085D01*
X169216978Y-95451978D01*
X169332085Y-95311720D01*
X169417617Y-95151701D01*
X169470287Y-94978070D01*
X169482450Y-94854583D01*
X169526623Y-94708963D01*
X169551144Y-94460000D01*
X169526623Y-94211037D01*
X169482450Y-94065417D01*
X169470287Y-93941930D01*
X169417617Y-93768299D01*
X169332085Y-93608280D01*
X169312980Y-93585000D01*
X169332085Y-93561720D01*
X169417617Y-93401701D01*
X169470287Y-93228070D01*
X169482450Y-93104583D01*
X169526623Y-92958963D01*
X169551144Y-92710000D01*
X169526623Y-92461037D01*
X169482450Y-92315417D01*
X169470287Y-92191930D01*
X169417617Y-92018299D01*
X169332085Y-91858280D01*
X169216978Y-91718022D01*
X169076720Y-91602915D01*
X168916701Y-91517383D01*
X168743070Y-91464713D01*
X168562500Y-91446928D01*
X168407720Y-91446928D01*
X168337380Y-91440000D01*
X166684981Y-91440000D01*
X166629494Y-91394463D01*
X166519180Y-91335498D01*
X166399482Y-91299188D01*
X166275000Y-91286928D01*
X165245000Y-91286928D01*
X165245000Y-87837380D01*
X165251144Y-87775000D01*
X165226623Y-87526037D01*
X165223660Y-87516267D01*
X165185510Y-87390506D01*
X165154003Y-87286641D01*
X165140374Y-87261143D01*
X165036075Y-87066012D01*
X164923780Y-86929180D01*
X164917135Y-86921083D01*
X164917132Y-86921080D01*
X164877370Y-86872630D01*
X164828919Y-86832868D01*
X162867139Y-84871088D01*
X162827370Y-84822630D01*
X162778912Y-84782861D01*
X160327141Y-82331091D01*
X160287370Y-82282630D01*
X160093988Y-82123925D01*
X159873359Y-82005997D01*
X159633963Y-81933377D01*
X159447380Y-81915000D01*
X159447373Y-81915000D01*
X159385000Y-81908857D01*
X159322627Y-81915000D01*
X157825665Y-81915000D01*
X157789180Y-81895498D01*
X157669482Y-81859188D01*
X157545000Y-81846928D01*
X156145000Y-81846928D01*
X156020518Y-81859188D01*
X155900820Y-81895498D01*
X155864335Y-81915000D01*
X154650665Y-81915000D01*
X154614180Y-81895498D01*
X154494482Y-81859188D01*
X154370000Y-81846928D01*
X152970000Y-81846928D01*
X152845518Y-81859188D01*
X152725820Y-81895498D01*
X152615506Y-81954463D01*
X152545857Y-82011622D01*
X152452498Y-81918263D01*
X152424658Y-81884340D01*
X152289290Y-81773246D01*
X152134850Y-81690696D01*
X151967273Y-81639863D01*
X151836666Y-81626999D01*
X151836659Y-81626999D01*
X151792999Y-81622699D01*
X151749339Y-81626999D01*
X111837660Y-81626999D01*
X111794000Y-81622699D01*
X111750340Y-81626999D01*
X111750334Y-81626999D01*
X111652925Y-81636593D01*
X111619725Y-81639863D01*
X111518059Y-81670703D01*
X111452150Y-81690696D01*
X111297710Y-81773246D01*
X111162342Y-81884340D01*
X111134507Y-81918257D01*
X105792895Y-87259870D01*
X105743102Y-87269774D01*
X105554744Y-87347795D01*
X105385226Y-87461063D01*
X105241063Y-87605226D01*
X105127795Y-87774744D01*
X105049774Y-87963102D01*
X105010000Y-88163061D01*
X105010000Y-88366939D01*
X105049774Y-88566898D01*
X105127795Y-88755256D01*
X105241063Y-88924774D01*
X105385226Y-89068937D01*
X105554744Y-89182205D01*
X105743102Y-89260226D01*
X105943061Y-89300000D01*
X106146939Y-89300000D01*
X106346898Y-89260226D01*
X106535256Y-89182205D01*
X106704774Y-89068937D01*
X106848937Y-88924774D01*
X106962205Y-88755256D01*
X107040226Y-88566898D01*
X107050130Y-88517105D01*
X110790226Y-84777010D01*
X110760000Y-84928967D01*
X110760000Y-85251033D01*
X110822832Y-85566912D01*
X110946082Y-85864463D01*
X111125013Y-86132252D01*
X111352748Y-86359987D01*
X111491938Y-86452991D01*
X110186668Y-86452991D01*
X110143008Y-86448691D01*
X110099348Y-86452991D01*
X110099342Y-86452991D01*
X110001933Y-86462585D01*
X109968733Y-86465855D01*
X109867067Y-86496695D01*
X109801158Y-86516688D01*
X109646718Y-86599238D01*
X109511350Y-86710332D01*
X109483515Y-86744249D01*
X107987259Y-88240506D01*
X107953342Y-88268341D01*
X107925507Y-88302258D01*
X107925505Y-88302260D01*
X107842248Y-88403709D01*
X107759698Y-88558148D01*
X107708864Y-88725726D01*
X107691700Y-88900000D01*
X107696001Y-88943670D01*
X107696000Y-91542532D01*
X107667795Y-91584744D01*
X107589774Y-91773102D01*
X107550000Y-91973061D01*
X107550000Y-92176939D01*
X107589774Y-92376898D01*
X107622539Y-92456000D01*
X103873236Y-92456000D01*
X102894499Y-91477264D01*
X102866659Y-91443341D01*
X102731291Y-91332247D01*
X102576851Y-91249697D01*
X102409274Y-91198864D01*
X102278667Y-91186000D01*
X102278660Y-91186000D01*
X102235000Y-91181700D01*
X102191340Y-91186000D01*
X101497468Y-91186000D01*
X101455256Y-91157795D01*
X101266898Y-91079774D01*
X101066939Y-91040000D01*
X100863061Y-91040000D01*
X100663102Y-91079774D01*
X100474744Y-91157795D01*
X100305226Y-91271063D01*
X100161063Y-91415226D01*
X100047795Y-91584744D01*
X99969774Y-91773102D01*
X99930000Y-91973061D01*
X92100000Y-91973061D01*
X92100000Y-77270555D01*
X94749000Y-77270555D01*
X94749000Y-77669445D01*
X94826820Y-78060671D01*
X94979468Y-78429197D01*
X95201080Y-78760862D01*
X95483138Y-79042920D01*
X95814803Y-79264532D01*
X96183329Y-79417180D01*
X96574555Y-79495000D01*
X96973445Y-79495000D01*
X97364671Y-79417180D01*
X97733197Y-79264532D01*
X97984088Y-79096891D01*
X100158519Y-79096891D01*
X100255843Y-79371252D01*
X100404822Y-79621355D01*
X100599731Y-79837588D01*
X100833080Y-80011641D01*
X101095901Y-80136825D01*
X101243110Y-80181476D01*
X101473000Y-80060155D01*
X101473000Y-78867000D01*
X100279186Y-78867000D01*
X100158519Y-79096891D01*
X97984088Y-79096891D01*
X98064862Y-79042920D01*
X98346920Y-78760862D01*
X98568532Y-78429197D01*
X98721180Y-78060671D01*
X98799000Y-77669445D01*
X98799000Y-77270555D01*
X98721180Y-76879329D01*
X98568532Y-76510803D01*
X98346920Y-76179138D01*
X98064862Y-75897080D01*
X97733197Y-75675468D01*
X97364671Y-75522820D01*
X96973445Y-75445000D01*
X96574555Y-75445000D01*
X96183329Y-75522820D01*
X95814803Y-75675468D01*
X95483138Y-75897080D01*
X95201080Y-76179138D01*
X94979468Y-76510803D01*
X94826820Y-76879329D01*
X94749000Y-77270555D01*
X92100000Y-77270555D01*
X92100000Y-76473380D01*
X93223380Y-75350000D01*
X100111928Y-75350000D01*
X100111928Y-77050000D01*
X100124188Y-77174482D01*
X100160498Y-77294180D01*
X100219463Y-77404494D01*
X100298815Y-77501185D01*
X100395506Y-77580537D01*
X100505820Y-77639502D01*
X100581626Y-77662498D01*
X100404822Y-77858645D01*
X100255843Y-78108748D01*
X100158519Y-78383109D01*
X100279186Y-78613000D01*
X101473000Y-78613000D01*
X101473000Y-78593000D01*
X101727000Y-78593000D01*
X101727000Y-78613000D01*
X101747000Y-78613000D01*
X101747000Y-78867000D01*
X101727000Y-78867000D01*
X101727000Y-80060155D01*
X101956890Y-80181476D01*
X102104099Y-80136825D01*
X102366920Y-80011641D01*
X102600269Y-79837588D01*
X102795178Y-79621355D01*
X102864799Y-79504477D01*
X102899294Y-79569014D01*
X103084866Y-79795134D01*
X103310986Y-79980706D01*
X103568966Y-80118599D01*
X103848889Y-80203513D01*
X104067050Y-80225000D01*
X104212950Y-80225000D01*
X104431111Y-80203513D01*
X104478556Y-80189121D01*
X104414774Y-80343102D01*
X104375000Y-80543061D01*
X104375000Y-80746939D01*
X104414774Y-80946898D01*
X104492795Y-81135256D01*
X104606063Y-81304774D01*
X104750226Y-81448937D01*
X104919744Y-81562205D01*
X105108102Y-81640226D01*
X105308061Y-81680000D01*
X105511939Y-81680000D01*
X105711898Y-81640226D01*
X105900256Y-81562205D01*
X106069774Y-81448937D01*
X106113711Y-81405000D01*
X107246289Y-81405000D01*
X107290226Y-81448937D01*
X107459744Y-81562205D01*
X107648102Y-81640226D01*
X107848061Y-81680000D01*
X108051939Y-81680000D01*
X108251898Y-81640226D01*
X108440256Y-81562205D01*
X108609774Y-81448937D01*
X108653711Y-81405000D01*
X109786289Y-81405000D01*
X109830226Y-81448937D01*
X109999744Y-81562205D01*
X110188102Y-81640226D01*
X110388061Y-81680000D01*
X110591939Y-81680000D01*
X110791898Y-81640226D01*
X110980256Y-81562205D01*
X111149774Y-81448937D01*
X111293937Y-81304774D01*
X111407205Y-81135256D01*
X111485226Y-80946898D01*
X111525000Y-80746939D01*
X111525000Y-80543061D01*
X111485226Y-80343102D01*
X111421444Y-80189121D01*
X111468889Y-80203513D01*
X111687050Y-80225000D01*
X111832950Y-80225000D01*
X112051111Y-80203513D01*
X112331034Y-80118599D01*
X112589014Y-79980706D01*
X112815134Y-79795134D01*
X113000706Y-79569014D01*
X113030000Y-79514209D01*
X113059294Y-79569014D01*
X113244866Y-79795134D01*
X113470986Y-79980706D01*
X113728966Y-80118599D01*
X114008889Y-80203513D01*
X114227050Y-80225000D01*
X114372950Y-80225000D01*
X114591111Y-80203513D01*
X114871034Y-80118599D01*
X115129014Y-79980706D01*
X115355134Y-79795134D01*
X115540706Y-79569014D01*
X115570000Y-79514209D01*
X115599294Y-79569014D01*
X115784866Y-79795134D01*
X116010986Y-79980706D01*
X116268966Y-80118599D01*
X116548889Y-80203513D01*
X116767050Y-80225000D01*
X116912950Y-80225000D01*
X117131111Y-80203513D01*
X117411034Y-80118599D01*
X117669014Y-79980706D01*
X117895134Y-79795134D01*
X118080706Y-79569014D01*
X118110000Y-79514209D01*
X118139294Y-79569014D01*
X118324866Y-79795134D01*
X118550986Y-79980706D01*
X118808966Y-80118599D01*
X119088889Y-80203513D01*
X119307050Y-80225000D01*
X119452950Y-80225000D01*
X119671111Y-80203513D01*
X119951034Y-80118599D01*
X120209014Y-79980706D01*
X120435134Y-79795134D01*
X120620706Y-79569014D01*
X120655201Y-79504477D01*
X120724822Y-79621355D01*
X120919731Y-79837588D01*
X121153080Y-80011641D01*
X121415901Y-80136825D01*
X121563110Y-80181476D01*
X121793000Y-80060155D01*
X121793000Y-78867000D01*
X121773000Y-78867000D01*
X121773000Y-78613000D01*
X121793000Y-78613000D01*
X121793000Y-78593000D01*
X122047000Y-78593000D01*
X122047000Y-78613000D01*
X122067000Y-78613000D01*
X122067000Y-78867000D01*
X122047000Y-78867000D01*
X122047000Y-80060155D01*
X122276890Y-80181476D01*
X122424099Y-80136825D01*
X122686920Y-80011641D01*
X122920269Y-79837588D01*
X123115178Y-79621355D01*
X123184799Y-79504477D01*
X123219294Y-79569014D01*
X123404866Y-79795134D01*
X123630986Y-79980706D01*
X123888966Y-80118599D01*
X124168889Y-80203513D01*
X124387050Y-80225000D01*
X124532950Y-80225000D01*
X124751111Y-80203513D01*
X125031034Y-80118599D01*
X125289014Y-79980706D01*
X125515134Y-79795134D01*
X125700706Y-79569014D01*
X125730000Y-79514209D01*
X125759294Y-79569014D01*
X125944866Y-79795134D01*
X126170986Y-79980706D01*
X126428966Y-80118599D01*
X126708889Y-80203513D01*
X126927050Y-80225000D01*
X127072950Y-80225000D01*
X127291111Y-80203513D01*
X127571034Y-80118599D01*
X127829014Y-79980706D01*
X128055134Y-79795134D01*
X128240706Y-79569014D01*
X128270000Y-79514209D01*
X128299294Y-79569014D01*
X128484866Y-79795134D01*
X128710986Y-79980706D01*
X128968966Y-80118599D01*
X129248889Y-80203513D01*
X129467050Y-80225000D01*
X129612950Y-80225000D01*
X129831111Y-80203513D01*
X130111034Y-80118599D01*
X130369014Y-79980706D01*
X130595134Y-79795134D01*
X130780706Y-79569014D01*
X130810000Y-79514209D01*
X130839294Y-79569014D01*
X131024866Y-79795134D01*
X131250986Y-79980706D01*
X131508966Y-80118599D01*
X131788889Y-80203513D01*
X132007050Y-80225000D01*
X132152950Y-80225000D01*
X132371111Y-80203513D01*
X132651034Y-80118599D01*
X132909014Y-79980706D01*
X133135134Y-79795134D01*
X133320706Y-79569014D01*
X133350000Y-79514209D01*
X133379294Y-79569014D01*
X133564866Y-79795134D01*
X133790986Y-79980706D01*
X134048966Y-80118599D01*
X134328889Y-80203513D01*
X134547050Y-80225000D01*
X134692950Y-80225000D01*
X134911111Y-80203513D01*
X135191034Y-80118599D01*
X135449014Y-79980706D01*
X135675134Y-79795134D01*
X135860706Y-79569014D01*
X135890000Y-79514209D01*
X135919294Y-79569014D01*
X136104866Y-79795134D01*
X136330986Y-79980706D01*
X136588966Y-80118599D01*
X136868889Y-80203513D01*
X137087050Y-80225000D01*
X137232950Y-80225000D01*
X137451111Y-80203513D01*
X137731034Y-80118599D01*
X137989014Y-79980706D01*
X138215134Y-79795134D01*
X138400706Y-79569014D01*
X138430000Y-79514209D01*
X138459294Y-79569014D01*
X138644866Y-79795134D01*
X138870986Y-79980706D01*
X139128966Y-80118599D01*
X139408889Y-80203513D01*
X139627050Y-80225000D01*
X139772950Y-80225000D01*
X139991111Y-80203513D01*
X140271034Y-80118599D01*
X140529014Y-79980706D01*
X140755134Y-79795134D01*
X140940706Y-79569014D01*
X140970000Y-79514209D01*
X140999294Y-79569014D01*
X141184866Y-79795134D01*
X141410986Y-79980706D01*
X141668966Y-80118599D01*
X141948889Y-80203513D01*
X142167050Y-80225000D01*
X142312950Y-80225000D01*
X142531111Y-80203513D01*
X142811034Y-80118599D01*
X143069014Y-79980706D01*
X143295134Y-79795134D01*
X143480706Y-79569014D01*
X143510000Y-79514209D01*
X143539294Y-79569014D01*
X143724866Y-79795134D01*
X143950986Y-79980706D01*
X144208966Y-80118599D01*
X144488889Y-80203513D01*
X144707050Y-80225000D01*
X144852950Y-80225000D01*
X145071111Y-80203513D01*
X145351034Y-80118599D01*
X145609014Y-79980706D01*
X145835134Y-79795134D01*
X146020706Y-79569014D01*
X146050000Y-79514209D01*
X146079294Y-79569014D01*
X146264866Y-79795134D01*
X146490986Y-79980706D01*
X146748966Y-80118599D01*
X147028889Y-80203513D01*
X147247050Y-80225000D01*
X147392950Y-80225000D01*
X147611111Y-80203513D01*
X147891034Y-80118599D01*
X148149014Y-79980706D01*
X148375134Y-79795134D01*
X148560706Y-79569014D01*
X148590000Y-79514209D01*
X148619294Y-79569014D01*
X148804866Y-79795134D01*
X149030986Y-79980706D01*
X149288966Y-80118599D01*
X149568889Y-80203513D01*
X149787050Y-80225000D01*
X149932950Y-80225000D01*
X150151111Y-80203513D01*
X150431034Y-80118599D01*
X150689014Y-79980706D01*
X150915134Y-79795134D01*
X151100706Y-79569014D01*
X151238599Y-79311034D01*
X151323513Y-79031111D01*
X151352185Y-78740000D01*
X151323513Y-78448889D01*
X151238599Y-78168966D01*
X151100706Y-77910986D01*
X150915134Y-77684866D01*
X150689014Y-77499294D01*
X150634209Y-77470000D01*
X150689014Y-77440706D01*
X150896343Y-77270555D01*
X152788000Y-77270555D01*
X152788000Y-77669445D01*
X152865820Y-78060671D01*
X153018468Y-78429197D01*
X153240080Y-78760862D01*
X153522138Y-79042920D01*
X153853803Y-79264532D01*
X154222329Y-79417180D01*
X154613555Y-79495000D01*
X155012445Y-79495000D01*
X155403671Y-79417180D01*
X155772197Y-79264532D01*
X156103862Y-79042920D01*
X156385920Y-78760862D01*
X156607532Y-78429197D01*
X156760180Y-78060671D01*
X156838000Y-77669445D01*
X156838000Y-77270555D01*
X156760180Y-76879329D01*
X156607532Y-76510803D01*
X156385920Y-76179138D01*
X156103862Y-75897080D01*
X155772197Y-75675468D01*
X155403671Y-75522820D01*
X155012445Y-75445000D01*
X154613555Y-75445000D01*
X154222329Y-75522820D01*
X153853803Y-75675468D01*
X153522138Y-75897080D01*
X153240080Y-76179138D01*
X153018468Y-76510803D01*
X152865820Y-76879329D01*
X152788000Y-77270555D01*
X150896343Y-77270555D01*
X150915134Y-77255134D01*
X151100706Y-77029014D01*
X151238599Y-76771034D01*
X151323513Y-76491111D01*
X151352185Y-76200000D01*
X151323513Y-75908889D01*
X151238599Y-75628966D01*
X151100706Y-75370986D01*
X150915134Y-75144866D01*
X150689014Y-74959294D01*
X150431034Y-74821401D01*
X150151111Y-74736487D01*
X149932950Y-74715000D01*
X149787050Y-74715000D01*
X149568889Y-74736487D01*
X149288966Y-74821401D01*
X149030986Y-74959294D01*
X148804866Y-75144866D01*
X148619294Y-75370986D01*
X148590000Y-75425791D01*
X148560706Y-75370986D01*
X148375134Y-75144866D01*
X148149014Y-74959294D01*
X147891034Y-74821401D01*
X147611111Y-74736487D01*
X147392950Y-74715000D01*
X147247050Y-74715000D01*
X147028889Y-74736487D01*
X146748966Y-74821401D01*
X146490986Y-74959294D01*
X146264866Y-75144866D01*
X146079294Y-75370986D01*
X146050000Y-75425791D01*
X146020706Y-75370986D01*
X145835134Y-75144866D01*
X145609014Y-74959294D01*
X145351034Y-74821401D01*
X145071111Y-74736487D01*
X144852950Y-74715000D01*
X144707050Y-74715000D01*
X144488889Y-74736487D01*
X144208966Y-74821401D01*
X143950986Y-74959294D01*
X143724866Y-75144866D01*
X143539294Y-75370986D01*
X143510000Y-75425791D01*
X143480706Y-75370986D01*
X143295134Y-75144866D01*
X143069014Y-74959294D01*
X142811034Y-74821401D01*
X142531111Y-74736487D01*
X142312950Y-74715000D01*
X142167050Y-74715000D01*
X141948889Y-74736487D01*
X141668966Y-74821401D01*
X141410986Y-74959294D01*
X141184866Y-75144866D01*
X140999294Y-75370986D01*
X140970000Y-75425791D01*
X140940706Y-75370986D01*
X140755134Y-75144866D01*
X140529014Y-74959294D01*
X140271034Y-74821401D01*
X139991111Y-74736487D01*
X139772950Y-74715000D01*
X139627050Y-74715000D01*
X139408889Y-74736487D01*
X139128966Y-74821401D01*
X138870986Y-74959294D01*
X138644866Y-75144866D01*
X138459294Y-75370986D01*
X138430000Y-75425791D01*
X138400706Y-75370986D01*
X138215134Y-75144866D01*
X137989014Y-74959294D01*
X137731034Y-74821401D01*
X137451111Y-74736487D01*
X137232950Y-74715000D01*
X137087050Y-74715000D01*
X136868889Y-74736487D01*
X136588966Y-74821401D01*
X136330986Y-74959294D01*
X136104866Y-75144866D01*
X135919294Y-75370986D01*
X135890000Y-75425791D01*
X135860706Y-75370986D01*
X135675134Y-75144866D01*
X135449014Y-74959294D01*
X135191034Y-74821401D01*
X134911111Y-74736487D01*
X134692950Y-74715000D01*
X134547050Y-74715000D01*
X134328889Y-74736487D01*
X134048966Y-74821401D01*
X133790986Y-74959294D01*
X133564866Y-75144866D01*
X133379294Y-75370986D01*
X133350000Y-75425791D01*
X133320706Y-75370986D01*
X133135134Y-75144866D01*
X132909014Y-74959294D01*
X132651034Y-74821401D01*
X132371111Y-74736487D01*
X132152950Y-74715000D01*
X132007050Y-74715000D01*
X131788889Y-74736487D01*
X131508966Y-74821401D01*
X131250986Y-74959294D01*
X131024866Y-75144866D01*
X130839294Y-75370986D01*
X130810000Y-75425791D01*
X130780706Y-75370986D01*
X130595134Y-75144866D01*
X130369014Y-74959294D01*
X130111034Y-74821401D01*
X129831111Y-74736487D01*
X129612950Y-74715000D01*
X129467050Y-74715000D01*
X129248889Y-74736487D01*
X128968966Y-74821401D01*
X128710986Y-74959294D01*
X128484866Y-75144866D01*
X128299294Y-75370986D01*
X128270000Y-75425791D01*
X128240706Y-75370986D01*
X128055134Y-75144866D01*
X127829014Y-74959294D01*
X127571034Y-74821401D01*
X127291111Y-74736487D01*
X127072950Y-74715000D01*
X126927050Y-74715000D01*
X126708889Y-74736487D01*
X126428966Y-74821401D01*
X126170986Y-74959294D01*
X125944866Y-75144866D01*
X125759294Y-75370986D01*
X125730000Y-75425791D01*
X125700706Y-75370986D01*
X125515134Y-75144866D01*
X125289014Y-74959294D01*
X125031034Y-74821401D01*
X124751111Y-74736487D01*
X124532950Y-74715000D01*
X124387050Y-74715000D01*
X124168889Y-74736487D01*
X123888966Y-74821401D01*
X123630986Y-74959294D01*
X123404866Y-75144866D01*
X123219294Y-75370986D01*
X123190000Y-75425791D01*
X123160706Y-75370986D01*
X122975134Y-75144866D01*
X122749014Y-74959294D01*
X122491034Y-74821401D01*
X122211111Y-74736487D01*
X121992950Y-74715000D01*
X121847050Y-74715000D01*
X121628889Y-74736487D01*
X121348966Y-74821401D01*
X121090986Y-74959294D01*
X120864866Y-75144866D01*
X120679294Y-75370986D01*
X120650000Y-75425791D01*
X120620706Y-75370986D01*
X120435134Y-75144866D01*
X120209014Y-74959294D01*
X119951034Y-74821401D01*
X119671111Y-74736487D01*
X119452950Y-74715000D01*
X119307050Y-74715000D01*
X119088889Y-74736487D01*
X118808966Y-74821401D01*
X118550986Y-74959294D01*
X118324866Y-75144866D01*
X118139294Y-75370986D01*
X118110000Y-75425791D01*
X118080706Y-75370986D01*
X117895134Y-75144866D01*
X117669014Y-74959294D01*
X117411034Y-74821401D01*
X117131111Y-74736487D01*
X116912950Y-74715000D01*
X116767050Y-74715000D01*
X116548889Y-74736487D01*
X116268966Y-74821401D01*
X116010986Y-74959294D01*
X115784866Y-75144866D01*
X115599294Y-75370986D01*
X115570000Y-75425791D01*
X115540706Y-75370986D01*
X115355134Y-75144866D01*
X115129014Y-74959294D01*
X114871034Y-74821401D01*
X114591111Y-74736487D01*
X114372950Y-74715000D01*
X114227050Y-74715000D01*
X114008889Y-74736487D01*
X113728966Y-74821401D01*
X113470986Y-74959294D01*
X113244866Y-75144866D01*
X113059294Y-75370986D01*
X113030000Y-75425791D01*
X113000706Y-75370986D01*
X112815134Y-75144866D01*
X112589014Y-74959294D01*
X112331034Y-74821401D01*
X112051111Y-74736487D01*
X111832950Y-74715000D01*
X111687050Y-74715000D01*
X111468889Y-74736487D01*
X111188966Y-74821401D01*
X110930986Y-74959294D01*
X110704866Y-75144866D01*
X110519294Y-75370986D01*
X110490000Y-75425791D01*
X110460706Y-75370986D01*
X110275134Y-75144866D01*
X110049014Y-74959294D01*
X109791034Y-74821401D01*
X109511111Y-74736487D01*
X109292950Y-74715000D01*
X109147050Y-74715000D01*
X108928889Y-74736487D01*
X108648966Y-74821401D01*
X108390986Y-74959294D01*
X108164866Y-75144866D01*
X107979294Y-75370986D01*
X107950000Y-75425791D01*
X107920706Y-75370986D01*
X107735134Y-75144866D01*
X107509014Y-74959294D01*
X107251034Y-74821401D01*
X106971111Y-74736487D01*
X106752950Y-74715000D01*
X106607050Y-74715000D01*
X106388889Y-74736487D01*
X106108966Y-74821401D01*
X105850986Y-74959294D01*
X105624866Y-75144866D01*
X105439294Y-75370986D01*
X105410000Y-75425791D01*
X105380706Y-75370986D01*
X105195134Y-75144866D01*
X104969014Y-74959294D01*
X104711034Y-74821401D01*
X104431111Y-74736487D01*
X104212950Y-74715000D01*
X104067050Y-74715000D01*
X103848889Y-74736487D01*
X103568966Y-74821401D01*
X103310986Y-74959294D01*
X103084866Y-75144866D01*
X103060393Y-75174687D01*
X103039502Y-75105820D01*
X102980537Y-74995506D01*
X102901185Y-74898815D01*
X102804494Y-74819463D01*
X102694180Y-74760498D01*
X102574482Y-74724188D01*
X102450000Y-74711928D01*
X100750000Y-74711928D01*
X100625518Y-74724188D01*
X100505820Y-74760498D01*
X100395506Y-74819463D01*
X100298815Y-74898815D01*
X100219463Y-74995506D01*
X100160498Y-75105820D01*
X100124188Y-75225518D01*
X100111928Y-75350000D01*
X93223380Y-75350000D01*
X95523381Y-73050000D01*
X178796620Y-73050000D01*
X182220000Y-76473381D01*
M02*
