M48
;DRILL file {KiCad 5.0.2-bee76a0~70~ubuntu18.04.1} date 2019年11月21日 17時42分14秒
;FORMAT={-:-/ absolute / inch / decimal}
FMAT,2
INCH,TZ
T1C0.0157
T2C0.0394
T3C0.0433
T4C0.1087
T5C0.1575
%
G90
G05
T1
X3.85Y-4.625
X4.3Y-3.65
X4.4189Y-3.975
X4.45Y-3.65
X4.525Y-3.975
X4.5586Y-3.65
X4.5586Y-3.85
X4.6Y-4.05
X4.65Y-3.825
X4.7Y-4.05
X4.7Y-4.05
X5.3Y-3.3
X5.5Y-3.3
X5.6Y-3.9
X6.05Y-3.55
X6.05Y-3.65
X6.1Y-3.6
X6.1Y-3.7
X6.15Y-3.55
X6.15Y-3.65
X6.2Y-3.6
X6.25Y-3.55
X6.362Y-4.3278
T2
X4.Y-4.5
X4.1Y-4.5
X4.2Y-4.5
X4.3Y-4.5
X4.4Y-4.5
X4.5Y-4.5
X4.6Y-4.5
X4.7Y-4.5
X4.8Y-4.5
X4.9Y-4.5
X5.Y-4.5
X5.1Y-4.5
X5.2Y-4.5
X5.3Y-4.5
X5.4Y-4.5
X5.5Y-4.5
X5.6Y-4.5
X5.7Y-4.5
X5.8Y-4.5
X4.7Y-3.7
X4.8Y-3.7
X4.9Y-3.7
X5.Y-3.7
X5.1Y-3.7
X5.2Y-3.7
X5.3Y-3.7
X5.4Y-3.7
X5.5Y-3.7
X5.6Y-3.7
X5.5Y-4.8
X5.6Y-4.8
X4.05Y-4.25
X4.15Y-4.25
X4.25Y-4.25
X4.35Y-4.25
X4.Y-3.
X4.Y-3.1
X4.1Y-3.
X4.1Y-3.1
X4.2Y-3.
X4.2Y-3.1
X4.3Y-3.
X4.3Y-3.1
X4.4Y-3.
X4.4Y-3.1
X4.5Y-3.
X4.5Y-3.1
X4.6Y-3.
X4.6Y-3.1
X4.7Y-3.
X4.7Y-3.1
X4.8Y-3.
X4.8Y-3.1
X4.9Y-3.
X4.9Y-3.1
X5.Y-3.
X5.Y-3.1
X5.1Y-3.
X5.1Y-3.1
X5.2Y-3.
X5.2Y-3.1
X5.3Y-3.
X5.3Y-3.1
X5.4Y-3.
X5.4Y-3.1
X5.5Y-3.
X5.5Y-3.1
X5.6Y-3.
X5.6Y-3.1
X5.7Y-3.
X5.7Y-3.1
X5.8Y-3.
X5.8Y-3.1
X5.9Y-3.
X5.9Y-3.1
X4.05Y-3.85
X4.15Y-3.85
X4.25Y-3.85
X4.35Y-3.85
X4.Y-3.5
X4.1Y-3.5
X4.2Y-3.5
X4.3Y-3.5
X4.4Y-3.5
X4.5Y-3.5
X4.6Y-3.5
X4.7Y-3.5
X4.8Y-3.5
X4.9Y-3.5
X5.Y-3.5
X5.1Y-3.5
X5.2Y-3.5
X5.3Y-3.5
X5.4Y-3.5
X5.5Y-3.5
X5.6Y-3.5
X5.7Y-3.5
X5.8Y-3.5
X4.3Y-4.75
X4.4Y-4.75
X4.5Y-4.75
X4.6Y-4.75
T3
X5.9823Y-4.1
X6.0492Y-4.1
X6.1161Y-4.1
X6.1831Y-4.1
X6.25Y-4.1
T4
X3.8075Y-4.98
X3.81Y-3.05
X6.095Y-3.05
X6.095Y-4.98
T5
X6.8Y-3.8632
X6.8Y-4.1368
X6.8Y-4.55
X6.8Y-4.8236
T0
M30
