G04 #@! TF.GenerationSoftware,KiCad,Pcbnew,5.0.2-bee76a0~70~ubuntu18.04.1*
G04 #@! TF.CreationDate,2019-11-21T17:40:54+09:00*
G04 #@! TF.ProjectId,Drone,44726f6e-652e-46b6-9963-61645f706362,rev?*
G04 #@! TF.SameCoordinates,Original*
G04 #@! TF.FileFunction,Legend,Top*
G04 #@! TF.FilePolarity,Positive*
%FSLAX46Y46*%
G04 Gerber Fmt 4.6, Leading zero omitted, Abs format (unit mm)*
G04 Created by KiCad (PCBNEW 5.0.2-bee76a0~70~ubuntu18.04.1) date 2019年11月21日 17時40分54秒*
%MOMM*%
%LPD*%
G01*
G04 APERTURE LIST*
%ADD10C,0.150000*%
%ADD11C,0.120000*%
%ADD12C,0.100000*%
%ADD13C,0.010000*%
%ADD14C,0.300000*%
%ADD15C,0.200000*%
G04 APERTURE END LIST*
D10*
X177585714Y-116919047D02*
X177585714Y-116538095D01*
X177252380Y-116776190D02*
X178109523Y-116776190D01*
X178204761Y-116728571D01*
X178252380Y-116633333D01*
X178252380Y-116538095D01*
X178252380Y-116061904D02*
X178204761Y-116157142D01*
X178157142Y-116204761D01*
X178061904Y-116252380D01*
X177776190Y-116252380D01*
X177680952Y-116204761D01*
X177633333Y-116157142D01*
X177585714Y-116061904D01*
X177585714Y-115919047D01*
X177633333Y-115823809D01*
X177680952Y-115776190D01*
X177776190Y-115728571D01*
X178061904Y-115728571D01*
X178157142Y-115776190D01*
X178204761Y-115823809D01*
X178252380Y-115919047D01*
X178252380Y-116061904D01*
X178252380Y-114061904D02*
X178252380Y-114538095D01*
X177252380Y-114538095D01*
X178252380Y-113728571D02*
X177585714Y-113728571D01*
X177252380Y-113728571D02*
X177300000Y-113776190D01*
X177347619Y-113728571D01*
X177300000Y-113680952D01*
X177252380Y-113728571D01*
X177347619Y-113728571D01*
X178252380Y-113252380D02*
X177252380Y-113252380D01*
X177252380Y-112871428D01*
X177300000Y-112776190D01*
X177347619Y-112728571D01*
X177442857Y-112680952D01*
X177585714Y-112680952D01*
X177680952Y-112728571D01*
X177728571Y-112776190D01*
X177776190Y-112871428D01*
X177776190Y-113252380D01*
X178252380Y-112109523D02*
X178204761Y-112204761D01*
X178157142Y-112252380D01*
X178061904Y-112300000D01*
X177776190Y-112300000D01*
X177680952Y-112252380D01*
X177633333Y-112204761D01*
X177585714Y-112109523D01*
X177585714Y-111966666D01*
X177633333Y-111871428D01*
X177680952Y-111823809D01*
X177776190Y-111776190D01*
X178061904Y-111776190D01*
X178157142Y-111823809D01*
X178204761Y-111871428D01*
X178252380Y-111966666D01*
X178252380Y-112109523D01*
X177585714Y-98972380D02*
X177585714Y-98591428D01*
X177252380Y-98829523D02*
X178109523Y-98829523D01*
X178204761Y-98781904D01*
X178252380Y-98686666D01*
X178252380Y-98591428D01*
X178252380Y-98115238D02*
X178204761Y-98210476D01*
X178157142Y-98258095D01*
X178061904Y-98305714D01*
X177776190Y-98305714D01*
X177680952Y-98258095D01*
X177633333Y-98210476D01*
X177585714Y-98115238D01*
X177585714Y-97972380D01*
X177633333Y-97877142D01*
X177680952Y-97829523D01*
X177776190Y-97781904D01*
X178061904Y-97781904D01*
X178157142Y-97829523D01*
X178204761Y-97877142D01*
X178252380Y-97972380D01*
X178252380Y-98115238D01*
X177728571Y-96591428D02*
X177728571Y-96258095D01*
X178252380Y-96115238D02*
X178252380Y-96591428D01*
X177252380Y-96591428D01*
X177252380Y-96115238D01*
X178204761Y-95734285D02*
X178252380Y-95591428D01*
X178252380Y-95353333D01*
X178204761Y-95258095D01*
X178157142Y-95210476D01*
X178061904Y-95162857D01*
X177966666Y-95162857D01*
X177871428Y-95210476D01*
X177823809Y-95258095D01*
X177776190Y-95353333D01*
X177728571Y-95543809D01*
X177680952Y-95639047D01*
X177633333Y-95686666D01*
X177538095Y-95734285D01*
X177442857Y-95734285D01*
X177347619Y-95686666D01*
X177300000Y-95639047D01*
X177252380Y-95543809D01*
X177252380Y-95305714D01*
X177300000Y-95162857D01*
X178157142Y-94162857D02*
X178204761Y-94210476D01*
X178252380Y-94353333D01*
X178252380Y-94448571D01*
X178204761Y-94591428D01*
X178109523Y-94686666D01*
X178014285Y-94734285D01*
X177823809Y-94781904D01*
X177680952Y-94781904D01*
X177490476Y-94734285D01*
X177395238Y-94686666D01*
X177300000Y-94591428D01*
X177252380Y-94448571D01*
X177252380Y-94353333D01*
X177300000Y-94210476D01*
X177347619Y-94162857D01*
D11*
X166647690Y-87272380D02*
X166772690Y-86272380D01*
X166963166Y-86272380D01*
X167071500Y-86320000D01*
X167135785Y-86415238D01*
X167161976Y-86510476D01*
X167176261Y-86700952D01*
X167158404Y-86843809D01*
X167096500Y-87034285D01*
X167046500Y-87129523D01*
X166958404Y-87224761D01*
X166838166Y-87272380D01*
X166647690Y-87272380D01*
X167904833Y-87272380D02*
X167697690Y-86796190D01*
X167447690Y-87272380D02*
X167572690Y-86272380D01*
X167877452Y-86272380D01*
X167947690Y-86320000D01*
X167979833Y-86367619D01*
X168006023Y-86462857D01*
X167988166Y-86605714D01*
X167938166Y-86700952D01*
X167894119Y-86748571D01*
X167811976Y-86796190D01*
X167507214Y-86796190D01*
X168525071Y-86272380D02*
X168677452Y-86272380D01*
X168747690Y-86320000D01*
X168811976Y-86415238D01*
X168826261Y-86605714D01*
X168784595Y-86939047D01*
X168722690Y-87129523D01*
X168634595Y-87224761D01*
X168552452Y-87272380D01*
X168400071Y-87272380D01*
X168329833Y-87224761D01*
X168265547Y-87129523D01*
X168251261Y-86939047D01*
X168292928Y-86605714D01*
X168354833Y-86415238D01*
X168442928Y-86320000D01*
X168525071Y-86272380D01*
X169085785Y-87272380D02*
X169210785Y-86272380D01*
X169542928Y-87272380D01*
X169667928Y-86272380D01*
X169989357Y-86748571D02*
X170256023Y-86748571D01*
X170304833Y-87272380D02*
X169923880Y-87272380D01*
X170048880Y-86272380D01*
X170429833Y-86272380D01*
X170445309Y-87367619D02*
X171054833Y-87367619D01*
X171257214Y-87272380D02*
X171382214Y-86272380D01*
X171686976Y-86272380D01*
X171757214Y-86320000D01*
X171789357Y-86367619D01*
X171815547Y-86462857D01*
X171797690Y-86605714D01*
X171747690Y-86700952D01*
X171703642Y-86748571D01*
X171621500Y-86796190D01*
X171316738Y-86796190D01*
X172514357Y-87272380D02*
X172307214Y-86796190D01*
X172057214Y-87272380D02*
X172182214Y-86272380D01*
X172486976Y-86272380D01*
X172557214Y-86320000D01*
X172589357Y-86367619D01*
X172615547Y-86462857D01*
X172597690Y-86605714D01*
X172547690Y-86700952D01*
X172503642Y-86748571D01*
X172421500Y-86796190D01*
X172116738Y-86796190D01*
X173134595Y-86272380D02*
X173286976Y-86272380D01*
X173357214Y-86320000D01*
X173421500Y-86415238D01*
X173435785Y-86605714D01*
X173394119Y-86939047D01*
X173332214Y-87129523D01*
X173244119Y-87224761D01*
X173161976Y-87272380D01*
X173009595Y-87272380D01*
X172939357Y-87224761D01*
X172875071Y-87129523D01*
X172860785Y-86939047D01*
X172902452Y-86605714D01*
X172964357Y-86415238D01*
X173052452Y-86320000D01*
X173134595Y-86272380D01*
X174048880Y-86272380D02*
X173959595Y-86986666D01*
X173903642Y-87129523D01*
X173815547Y-87224761D01*
X173695309Y-87272380D01*
X173619119Y-87272380D01*
X174370309Y-86748571D02*
X174636976Y-86748571D01*
X174685785Y-87272380D02*
X174304833Y-87272380D01*
X174429833Y-86272380D01*
X174810785Y-86272380D01*
X175497690Y-87177142D02*
X175453642Y-87224761D01*
X175333404Y-87272380D01*
X175257214Y-87272380D01*
X175148880Y-87224761D01*
X175084595Y-87129523D01*
X175058404Y-87034285D01*
X175044119Y-86843809D01*
X175061976Y-86700952D01*
X175123880Y-86510476D01*
X175173880Y-86415238D01*
X175261976Y-86320000D01*
X175382214Y-86272380D01*
X175458404Y-86272380D01*
X175566738Y-86320000D01*
X175598880Y-86367619D01*
X175839357Y-86272380D02*
X176296500Y-86272380D01*
X175942928Y-87272380D02*
X176067928Y-86272380D01*
X166411976Y-88797142D02*
X166367928Y-88844761D01*
X166247690Y-88892380D01*
X166171500Y-88892380D01*
X166063166Y-88844761D01*
X165998880Y-88749523D01*
X165972690Y-88654285D01*
X165958404Y-88463809D01*
X165976261Y-88320952D01*
X166038166Y-88130476D01*
X166088166Y-88035238D01*
X166176261Y-87940000D01*
X166296500Y-87892380D01*
X166372690Y-87892380D01*
X166481023Y-87940000D01*
X166513166Y-87987619D01*
X166742928Y-88892380D02*
X166867928Y-87892380D01*
X167581023Y-88892380D02*
X167373880Y-88416190D01*
X167123880Y-88892380D02*
X167248880Y-87892380D01*
X167553642Y-87892380D01*
X167623880Y-87940000D01*
X167656023Y-87987619D01*
X167682214Y-88082857D01*
X167664357Y-88225714D01*
X167614357Y-88320952D01*
X167570309Y-88368571D01*
X167488166Y-88416190D01*
X167183404Y-88416190D01*
X168392928Y-88797142D02*
X168348880Y-88844761D01*
X168228642Y-88892380D01*
X168152452Y-88892380D01*
X168044119Y-88844761D01*
X167979833Y-88749523D01*
X167953642Y-88654285D01*
X167939357Y-88463809D01*
X167957214Y-88320952D01*
X168019119Y-88130476D01*
X168069119Y-88035238D01*
X168157214Y-87940000D01*
X168277452Y-87892380D01*
X168353642Y-87892380D01*
X168461976Y-87940000D01*
X168494119Y-87987619D01*
X168848880Y-87892380D02*
X168747690Y-88701904D01*
X168773880Y-88797142D01*
X168806023Y-88844761D01*
X168876261Y-88892380D01*
X169028642Y-88892380D01*
X169110785Y-88844761D01*
X169154833Y-88797142D01*
X169204833Y-88701904D01*
X169306023Y-87892380D01*
X169561976Y-88892380D02*
X169686976Y-87892380D01*
X169953642Y-87892380D02*
X170410785Y-87892380D01*
X170057214Y-88892380D02*
X170182214Y-87892380D01*
X170350071Y-88987619D02*
X170959595Y-88987619D01*
X171494119Y-88368571D02*
X171602452Y-88416190D01*
X171634595Y-88463809D01*
X171660785Y-88559047D01*
X171642928Y-88701904D01*
X171592928Y-88797142D01*
X171548880Y-88844761D01*
X171466738Y-88892380D01*
X171161976Y-88892380D01*
X171286976Y-87892380D01*
X171553642Y-87892380D01*
X171623880Y-87940000D01*
X171656023Y-87987619D01*
X171682214Y-88082857D01*
X171670309Y-88178095D01*
X171620309Y-88273333D01*
X171576261Y-88320952D01*
X171494119Y-88368571D01*
X171227452Y-88368571D01*
X172239357Y-87892380D02*
X172391738Y-87892380D01*
X172461976Y-87940000D01*
X172526261Y-88035238D01*
X172540547Y-88225714D01*
X172498880Y-88559047D01*
X172436976Y-88749523D01*
X172348880Y-88844761D01*
X172266738Y-88892380D01*
X172114357Y-88892380D01*
X172044119Y-88844761D01*
X171979833Y-88749523D01*
X171965547Y-88559047D01*
X172007214Y-88225714D01*
X172069119Y-88035238D01*
X172157214Y-87940000D01*
X172239357Y-87892380D01*
X172797690Y-88606666D02*
X173178642Y-88606666D01*
X172685785Y-88892380D02*
X173077452Y-87892380D01*
X173219119Y-88892380D01*
X173942928Y-88892380D02*
X173735785Y-88416190D01*
X173485785Y-88892380D02*
X173610785Y-87892380D01*
X173915547Y-87892380D01*
X173985785Y-87940000D01*
X174017928Y-87987619D01*
X174044119Y-88082857D01*
X174026261Y-88225714D01*
X173976261Y-88320952D01*
X173932214Y-88368571D01*
X173850071Y-88416190D01*
X173545309Y-88416190D01*
X174285785Y-88892380D02*
X174410785Y-87892380D01*
X174601261Y-87892380D01*
X174709595Y-87940000D01*
X174773880Y-88035238D01*
X174800071Y-88130476D01*
X174814357Y-88320952D01*
X174796500Y-88463809D01*
X174734595Y-88654285D01*
X174684595Y-88749523D01*
X174596500Y-88844761D01*
X174476261Y-88892380D01*
X174285785Y-88892380D01*
X174883404Y-88987619D02*
X175492928Y-88987619D01*
X175706023Y-87892380D02*
X175847690Y-88892380D01*
X176239357Y-87892380D01*
X176456023Y-87987619D02*
X176500071Y-87940000D01*
X176582214Y-87892380D01*
X176772690Y-87892380D01*
X176842928Y-87940000D01*
X176875071Y-87987619D01*
X176901261Y-88082857D01*
X176889357Y-88178095D01*
X176833404Y-88320952D01*
X176304833Y-88892380D01*
X176800071Y-88892380D01*
D12*
X135985714Y-118037857D02*
X136252380Y-118037857D01*
X136366666Y-118456904D02*
X135985714Y-118456904D01*
X135985714Y-117656904D01*
X136366666Y-117656904D01*
X136633333Y-118456904D02*
X137052380Y-117923571D01*
X136633333Y-117923571D02*
X137052380Y-118456904D01*
X137242857Y-117923571D02*
X137547619Y-117923571D01*
X137357142Y-117656904D02*
X137357142Y-118342619D01*
X137395238Y-118418809D01*
X137471428Y-118456904D01*
X137547619Y-118456904D01*
X137814285Y-118456904D02*
X137814285Y-117923571D01*
X137814285Y-118075952D02*
X137852380Y-117999761D01*
X137890476Y-117961666D01*
X137966666Y-117923571D01*
X138042857Y-117923571D01*
X138652380Y-118456904D02*
X138652380Y-118037857D01*
X138614285Y-117961666D01*
X138538095Y-117923571D01*
X138385714Y-117923571D01*
X138309523Y-117961666D01*
X138652380Y-118418809D02*
X138576190Y-118456904D01*
X138385714Y-118456904D01*
X138309523Y-118418809D01*
X138271428Y-118342619D01*
X138271428Y-118266428D01*
X138309523Y-118190238D01*
X138385714Y-118152142D01*
X138576190Y-118152142D01*
X138652380Y-118114047D01*
X139642857Y-118456904D02*
X139642857Y-117656904D01*
X139947619Y-117656904D01*
X140023809Y-117695000D01*
X140061904Y-117733095D01*
X140100000Y-117809285D01*
X140100000Y-117923571D01*
X140061904Y-117999761D01*
X140023809Y-118037857D01*
X139947619Y-118075952D01*
X139642857Y-118075952D01*
X140557142Y-118456904D02*
X140480952Y-118418809D01*
X140442857Y-118380714D01*
X140404761Y-118304523D01*
X140404761Y-118075952D01*
X140442857Y-117999761D01*
X140480952Y-117961666D01*
X140557142Y-117923571D01*
X140671428Y-117923571D01*
X140747619Y-117961666D01*
X140785714Y-117999761D01*
X140823809Y-118075952D01*
X140823809Y-118304523D01*
X140785714Y-118380714D01*
X140747619Y-118418809D01*
X140671428Y-118456904D01*
X140557142Y-118456904D01*
X141090476Y-117923571D02*
X141242857Y-118456904D01*
X141395238Y-118075952D01*
X141547619Y-118456904D01*
X141700000Y-117923571D01*
X142309523Y-118418809D02*
X142233333Y-118456904D01*
X142080952Y-118456904D01*
X142004761Y-118418809D01*
X141966666Y-118342619D01*
X141966666Y-118037857D01*
X142004761Y-117961666D01*
X142080952Y-117923571D01*
X142233333Y-117923571D01*
X142309523Y-117961666D01*
X142347619Y-118037857D01*
X142347619Y-118114047D01*
X141966666Y-118190238D01*
X142690476Y-118456904D02*
X142690476Y-117923571D01*
X142690476Y-118075952D02*
X142728571Y-117999761D01*
X142766666Y-117961666D01*
X142842857Y-117923571D01*
X142919047Y-117923571D01*
X137547619Y-119756904D02*
X137547619Y-118956904D01*
X137738095Y-118956904D01*
X137852380Y-118995000D01*
X137928571Y-119071190D01*
X137966666Y-119147380D01*
X138004761Y-119299761D01*
X138004761Y-119414047D01*
X137966666Y-119566428D01*
X137928571Y-119642619D01*
X137852380Y-119718809D01*
X137738095Y-119756904D01*
X137547619Y-119756904D01*
X138652380Y-119718809D02*
X138576190Y-119756904D01*
X138423809Y-119756904D01*
X138347619Y-119718809D01*
X138309523Y-119642619D01*
X138309523Y-119337857D01*
X138347619Y-119261666D01*
X138423809Y-119223571D01*
X138576190Y-119223571D01*
X138652380Y-119261666D01*
X138690476Y-119337857D01*
X138690476Y-119414047D01*
X138309523Y-119490238D01*
X139147619Y-119756904D02*
X139071428Y-119718809D01*
X139033333Y-119642619D01*
X139033333Y-118956904D01*
X139452380Y-119756904D02*
X139452380Y-119223571D01*
X139452380Y-118956904D02*
X139414285Y-118995000D01*
X139452380Y-119033095D01*
X139490476Y-118995000D01*
X139452380Y-118956904D01*
X139452380Y-119033095D01*
X139757142Y-119223571D02*
X139947619Y-119756904D01*
X140138095Y-119223571D01*
X140747619Y-119718809D02*
X140671428Y-119756904D01*
X140519047Y-119756904D01*
X140442857Y-119718809D01*
X140404761Y-119642619D01*
X140404761Y-119337857D01*
X140442857Y-119261666D01*
X140519047Y-119223571D01*
X140671428Y-119223571D01*
X140747619Y-119261666D01*
X140785714Y-119337857D01*
X140785714Y-119414047D01*
X140404761Y-119490238D01*
X141128571Y-119756904D02*
X141128571Y-119223571D01*
X141128571Y-119375952D02*
X141166666Y-119299761D01*
X141204761Y-119261666D01*
X141280952Y-119223571D01*
X141357142Y-119223571D01*
X141547619Y-119223571D02*
X141738095Y-119756904D01*
X141928571Y-119223571D02*
X141738095Y-119756904D01*
X141661904Y-119947380D01*
X141623809Y-119985476D01*
X141547619Y-120023571D01*
D10*
X139200000Y-125856904D02*
X139152380Y-125952142D01*
X139152380Y-126095000D01*
X139200000Y-126237857D01*
X139295238Y-126333095D01*
X139390476Y-126380714D01*
X139580952Y-126428333D01*
X139723809Y-126428333D01*
X139914285Y-126380714D01*
X140009523Y-126333095D01*
X140104761Y-126237857D01*
X140152380Y-126095000D01*
X140152380Y-125999761D01*
X140104761Y-125856904D01*
X140057142Y-125809285D01*
X139723809Y-125809285D01*
X139723809Y-125999761D01*
X140152380Y-125380714D02*
X139152380Y-125380714D01*
X140152380Y-124809285D01*
X139152380Y-124809285D01*
X140152380Y-124333095D02*
X139152380Y-124333095D01*
X139152380Y-124095000D01*
X139200000Y-123952142D01*
X139295238Y-123856904D01*
X139390476Y-123809285D01*
X139580952Y-123761666D01*
X139723809Y-123761666D01*
X139914285Y-123809285D01*
X140009523Y-123856904D01*
X140104761Y-123952142D01*
X140152380Y-124095000D01*
X140152380Y-124333095D01*
X141692380Y-124650476D02*
X141692380Y-125126666D01*
X142168571Y-125174285D01*
X142120952Y-125126666D01*
X142073333Y-125031428D01*
X142073333Y-124793333D01*
X142120952Y-124698095D01*
X142168571Y-124650476D01*
X142263809Y-124602857D01*
X142501904Y-124602857D01*
X142597142Y-124650476D01*
X142644761Y-124698095D01*
X142692380Y-124793333D01*
X142692380Y-125031428D01*
X142644761Y-125126666D01*
X142597142Y-125174285D01*
X141692380Y-124317142D02*
X142692380Y-123983809D01*
X141692380Y-123650476D01*
X116292380Y-124015476D02*
X116292380Y-124491666D01*
X116768571Y-124539285D01*
X116720952Y-124491666D01*
X116673333Y-124396428D01*
X116673333Y-124158333D01*
X116720952Y-124063095D01*
X116768571Y-124015476D01*
X116863809Y-123967857D01*
X117101904Y-123967857D01*
X117197142Y-124015476D01*
X117244761Y-124063095D01*
X117292380Y-124158333D01*
X117292380Y-124396428D01*
X117244761Y-124491666D01*
X117197142Y-124539285D01*
X116292380Y-123682142D02*
X117292380Y-123348809D01*
X116292380Y-123015476D01*
X113752380Y-125110714D02*
X113752380Y-124539285D01*
X114752380Y-124825000D02*
X113752380Y-124825000D01*
X114752380Y-124205952D02*
X114085714Y-124205952D01*
X114276190Y-124205952D02*
X114180952Y-124158333D01*
X114133333Y-124110714D01*
X114085714Y-124015476D01*
X114085714Y-123920238D01*
X114752380Y-123586904D02*
X114085714Y-123586904D01*
X113752380Y-123586904D02*
X113800000Y-123634523D01*
X113847619Y-123586904D01*
X113800000Y-123539285D01*
X113752380Y-123586904D01*
X113847619Y-123586904D01*
X114085714Y-122682142D02*
X114895238Y-122682142D01*
X114990476Y-122729761D01*
X115038095Y-122777380D01*
X115085714Y-122872619D01*
X115085714Y-123015476D01*
X115038095Y-123110714D01*
X114704761Y-122682142D02*
X114752380Y-122777380D01*
X114752380Y-122967857D01*
X114704761Y-123063095D01*
X114657142Y-123110714D01*
X114561904Y-123158333D01*
X114276190Y-123158333D01*
X114180952Y-123110714D01*
X114133333Y-123063095D01*
X114085714Y-122967857D01*
X114085714Y-122777380D01*
X114133333Y-122682142D01*
X111688571Y-125372619D02*
X111688571Y-125039285D01*
X112212380Y-124896428D02*
X112212380Y-125372619D01*
X111212380Y-125372619D01*
X111212380Y-124896428D01*
X112164761Y-124039285D02*
X112212380Y-124134523D01*
X112212380Y-124325000D01*
X112164761Y-124420238D01*
X112117142Y-124467857D01*
X112021904Y-124515476D01*
X111736190Y-124515476D01*
X111640952Y-124467857D01*
X111593333Y-124420238D01*
X111545714Y-124325000D01*
X111545714Y-124134523D01*
X111593333Y-124039285D01*
X112212380Y-123610714D02*
X111212380Y-123610714D01*
X112212380Y-123182142D02*
X111688571Y-123182142D01*
X111593333Y-123229761D01*
X111545714Y-123325000D01*
X111545714Y-123467857D01*
X111593333Y-123563095D01*
X111640952Y-123610714D01*
X112212380Y-122563095D02*
X112164761Y-122658333D01*
X112117142Y-122705952D01*
X112021904Y-122753571D01*
X111736190Y-122753571D01*
X111640952Y-122705952D01*
X111593333Y-122658333D01*
X111545714Y-122563095D01*
X111545714Y-122420238D01*
X111593333Y-122325000D01*
X111640952Y-122277380D01*
X111736190Y-122229761D01*
X112021904Y-122229761D01*
X112117142Y-122277380D01*
X112164761Y-122325000D01*
X112212380Y-122420238D01*
X112212380Y-122563095D01*
X108720000Y-124586904D02*
X108672380Y-124682142D01*
X108672380Y-124825000D01*
X108720000Y-124967857D01*
X108815238Y-125063095D01*
X108910476Y-125110714D01*
X109100952Y-125158333D01*
X109243809Y-125158333D01*
X109434285Y-125110714D01*
X109529523Y-125063095D01*
X109624761Y-124967857D01*
X109672380Y-124825000D01*
X109672380Y-124729761D01*
X109624761Y-124586904D01*
X109577142Y-124539285D01*
X109243809Y-124539285D01*
X109243809Y-124729761D01*
X109672380Y-124110714D02*
X108672380Y-124110714D01*
X109672380Y-123539285D01*
X108672380Y-123539285D01*
X109672380Y-123063095D02*
X108672380Y-123063095D01*
X108672380Y-122825000D01*
X108720000Y-122682142D01*
X108815238Y-122586904D01*
X108910476Y-122539285D01*
X109100952Y-122491666D01*
X109243809Y-122491666D01*
X109434285Y-122539285D01*
X109529523Y-122586904D01*
X109624761Y-122682142D01*
X109672380Y-122825000D01*
X109672380Y-123063095D01*
X98790476Y-120102380D02*
X98790476Y-120911904D01*
X98838095Y-121007142D01*
X98885714Y-121054761D01*
X98980952Y-121102380D01*
X99171428Y-121102380D01*
X99266666Y-121054761D01*
X99314285Y-121007142D01*
X99361904Y-120911904D01*
X99361904Y-120102380D01*
X99790476Y-121054761D02*
X99933333Y-121102380D01*
X100171428Y-121102380D01*
X100266666Y-121054761D01*
X100314285Y-121007142D01*
X100361904Y-120911904D01*
X100361904Y-120816666D01*
X100314285Y-120721428D01*
X100266666Y-120673809D01*
X100171428Y-120626190D01*
X99980952Y-120578571D01*
X99885714Y-120530952D01*
X99838095Y-120483333D01*
X99790476Y-120388095D01*
X99790476Y-120292857D01*
X99838095Y-120197619D01*
X99885714Y-120150000D01*
X99980952Y-120102380D01*
X100219047Y-120102380D01*
X100361904Y-120150000D01*
X100790476Y-120721428D02*
X101552380Y-120721428D01*
X102219047Y-120102380D02*
X102314285Y-120102380D01*
X102409523Y-120150000D01*
X102457142Y-120197619D01*
X102504761Y-120292857D01*
X102552380Y-120483333D01*
X102552380Y-120721428D01*
X102504761Y-120911904D01*
X102457142Y-121007142D01*
X102409523Y-121054761D01*
X102314285Y-121102380D01*
X102219047Y-121102380D01*
X102123809Y-121054761D01*
X102076190Y-121007142D01*
X102028571Y-120911904D01*
X101980952Y-120721428D01*
X101980952Y-120483333D01*
X102028571Y-120292857D01*
X102076190Y-120197619D01*
X102123809Y-120150000D01*
X102219047Y-120102380D01*
X103504761Y-121102380D02*
X102933333Y-121102380D01*
X103219047Y-121102380D02*
X103219047Y-120102380D01*
X103123809Y-120245238D01*
X103028571Y-120340476D01*
X102933333Y-120388095D01*
X104409523Y-120102380D02*
X103933333Y-120102380D01*
X103885714Y-120578571D01*
X103933333Y-120530952D01*
X104028571Y-120483333D01*
X104266666Y-120483333D01*
X104361904Y-120530952D01*
X104409523Y-120578571D01*
X104457142Y-120673809D01*
X104457142Y-120911904D01*
X104409523Y-121007142D01*
X104361904Y-121054761D01*
X104266666Y-121102380D01*
X104028571Y-121102380D01*
X103933333Y-121054761D01*
X103885714Y-121007142D01*
X107132380Y-105536666D02*
X106132380Y-105536666D01*
X106132380Y-105298571D01*
X106180000Y-105155714D01*
X106275238Y-105060476D01*
X106370476Y-105012857D01*
X106560952Y-104965238D01*
X106703809Y-104965238D01*
X106894285Y-105012857D01*
X106989523Y-105060476D01*
X107084761Y-105155714D01*
X107132380Y-105298571D01*
X107132380Y-105536666D01*
X107132380Y-104536666D02*
X106132380Y-104536666D01*
X106132380Y-104155714D01*
X106180000Y-104060476D01*
X106227619Y-104012857D01*
X106322857Y-103965238D01*
X106465714Y-103965238D01*
X106560952Y-104012857D01*
X106608571Y-104060476D01*
X106656190Y-104155714D01*
X106656190Y-104536666D01*
X107084761Y-103584285D02*
X107132380Y-103441428D01*
X107132380Y-103203333D01*
X107084761Y-103108095D01*
X107037142Y-103060476D01*
X106941904Y-103012857D01*
X106846666Y-103012857D01*
X106751428Y-103060476D01*
X106703809Y-103108095D01*
X106656190Y-103203333D01*
X106608571Y-103393809D01*
X106560952Y-103489047D01*
X106513333Y-103536666D01*
X106418095Y-103584285D01*
X106322857Y-103584285D01*
X106227619Y-103536666D01*
X106180000Y-103489047D01*
X106132380Y-103393809D01*
X106132380Y-103155714D01*
X106180000Y-103012857D01*
X106132380Y-102679523D02*
X106132380Y-102060476D01*
X106513333Y-102393809D01*
X106513333Y-102250952D01*
X106560952Y-102155714D01*
X106608571Y-102108095D01*
X106703809Y-102060476D01*
X106941904Y-102060476D01*
X107037142Y-102108095D01*
X107084761Y-102155714D01*
X107132380Y-102250952D01*
X107132380Y-102536666D01*
X107084761Y-102631904D01*
X107037142Y-102679523D01*
X107132380Y-101108095D02*
X107132380Y-101679523D01*
X107132380Y-101393809D02*
X106132380Y-101393809D01*
X106275238Y-101489047D01*
X106370476Y-101584285D01*
X106418095Y-101679523D01*
X106132380Y-100489047D02*
X106132380Y-100393809D01*
X106180000Y-100298571D01*
X106227619Y-100250952D01*
X106322857Y-100203333D01*
X106513333Y-100155714D01*
X106751428Y-100155714D01*
X106941904Y-100203333D01*
X107037142Y-100250952D01*
X107084761Y-100298571D01*
X107132380Y-100393809D01*
X107132380Y-100489047D01*
X107084761Y-100584285D01*
X107037142Y-100631904D01*
X106941904Y-100679523D01*
X106751428Y-100727142D01*
X106513333Y-100727142D01*
X106322857Y-100679523D01*
X106227619Y-100631904D01*
X106180000Y-100584285D01*
X106132380Y-100489047D01*
D11*
X118110000Y-107950000D02*
X118110000Y-92710000D01*
X143510000Y-107950000D02*
X118110000Y-107950000D01*
X143510000Y-92710000D02*
X143510000Y-107950000D01*
D10*
X124492857Y-98242380D02*
X124492857Y-97242380D01*
X124492857Y-97718571D02*
X125064285Y-97718571D01*
X125064285Y-98242380D02*
X125064285Y-97242380D01*
X125540476Y-98242380D02*
X125540476Y-97575714D01*
X125540476Y-97242380D02*
X125492857Y-97290000D01*
X125540476Y-97337619D01*
X125588095Y-97290000D01*
X125540476Y-97242380D01*
X125540476Y-97337619D01*
X126492857Y-98242380D02*
X126016666Y-98242380D01*
X126016666Y-97242380D01*
X127207142Y-98194761D02*
X127111904Y-98242380D01*
X126921428Y-98242380D01*
X126826190Y-98194761D01*
X126778571Y-98099523D01*
X126778571Y-97718571D01*
X126826190Y-97623333D01*
X126921428Y-97575714D01*
X127111904Y-97575714D01*
X127207142Y-97623333D01*
X127254761Y-97718571D01*
X127254761Y-97813809D01*
X126778571Y-97909047D01*
X127540476Y-97575714D02*
X127921428Y-97575714D01*
X127683333Y-97242380D02*
X127683333Y-98099523D01*
X127730952Y-98194761D01*
X127826190Y-98242380D01*
X127921428Y-98242380D01*
X128683333Y-97575714D02*
X128683333Y-98385238D01*
X128635714Y-98480476D01*
X128588095Y-98528095D01*
X128492857Y-98575714D01*
X128350000Y-98575714D01*
X128254761Y-98528095D01*
X128683333Y-98194761D02*
X128588095Y-98242380D01*
X128397619Y-98242380D01*
X128302380Y-98194761D01*
X128254761Y-98147142D01*
X128207142Y-98051904D01*
X128207142Y-97766190D01*
X128254761Y-97670952D01*
X128302380Y-97623333D01*
X128397619Y-97575714D01*
X128588095Y-97575714D01*
X128683333Y-97623333D01*
X129302380Y-98242380D02*
X129207142Y-98194761D01*
X129159523Y-98147142D01*
X129111904Y-98051904D01*
X129111904Y-97766190D01*
X129159523Y-97670952D01*
X129207142Y-97623333D01*
X129302380Y-97575714D01*
X129445238Y-97575714D01*
X129540476Y-97623333D01*
X129588095Y-97670952D01*
X129635714Y-97766190D01*
X129635714Y-98051904D01*
X129588095Y-98147142D01*
X129540476Y-98194761D01*
X129445238Y-98242380D01*
X129302380Y-98242380D01*
X130826190Y-98242380D02*
X130826190Y-97242380D01*
X131159523Y-97956666D01*
X131492857Y-97242380D01*
X131492857Y-98242380D01*
X131969047Y-98242380D02*
X131969047Y-97242380D01*
X132350000Y-97242380D01*
X132445238Y-97290000D01*
X132492857Y-97337619D01*
X132540476Y-97432857D01*
X132540476Y-97575714D01*
X132492857Y-97670952D01*
X132445238Y-97718571D01*
X132350000Y-97766190D01*
X131969047Y-97766190D01*
X132969047Y-97242380D02*
X132969047Y-98051904D01*
X133016666Y-98147142D01*
X133064285Y-98194761D01*
X133159523Y-98242380D01*
X133350000Y-98242380D01*
X133445238Y-98194761D01*
X133492857Y-98147142D01*
X133540476Y-98051904D01*
X133540476Y-97242380D01*
X134064285Y-98242380D02*
X134254761Y-98242380D01*
X134350000Y-98194761D01*
X134397619Y-98147142D01*
X134492857Y-98004285D01*
X134540476Y-97813809D01*
X134540476Y-97432857D01*
X134492857Y-97337619D01*
X134445238Y-97290000D01*
X134350000Y-97242380D01*
X134159523Y-97242380D01*
X134064285Y-97290000D01*
X134016666Y-97337619D01*
X133969047Y-97432857D01*
X133969047Y-97670952D01*
X134016666Y-97766190D01*
X134064285Y-97813809D01*
X134159523Y-97861428D01*
X134350000Y-97861428D01*
X134445238Y-97813809D01*
X134492857Y-97766190D01*
X134540476Y-97670952D01*
X134921428Y-97337619D02*
X134969047Y-97290000D01*
X135064285Y-97242380D01*
X135302380Y-97242380D01*
X135397619Y-97290000D01*
X135445238Y-97337619D01*
X135492857Y-97432857D01*
X135492857Y-97528095D01*
X135445238Y-97670952D01*
X134873809Y-98242380D01*
X135492857Y-98242380D01*
X136397619Y-97242380D02*
X135921428Y-97242380D01*
X135873809Y-97718571D01*
X135921428Y-97670952D01*
X136016666Y-97623333D01*
X136254761Y-97623333D01*
X136350000Y-97670952D01*
X136397619Y-97718571D01*
X136445238Y-97813809D01*
X136445238Y-98051904D01*
X136397619Y-98147142D01*
X136350000Y-98194761D01*
X136254761Y-98242380D01*
X136016666Y-98242380D01*
X135921428Y-98194761D01*
X135873809Y-98147142D01*
X137064285Y-97242380D02*
X137159523Y-97242380D01*
X137254761Y-97290000D01*
X137302380Y-97337619D01*
X137350000Y-97432857D01*
X137397619Y-97623333D01*
X137397619Y-97861428D01*
X137350000Y-98051904D01*
X137302380Y-98147142D01*
X137254761Y-98194761D01*
X137159523Y-98242380D01*
X137064285Y-98242380D01*
X136969047Y-98194761D01*
X136921428Y-98147142D01*
X136873809Y-98051904D01*
X136826190Y-97861428D01*
X136826190Y-97623333D01*
X136873809Y-97432857D01*
X136921428Y-97337619D01*
X136969047Y-97290000D01*
X137064285Y-97242380D01*
X138540476Y-97194761D02*
X137683333Y-98480476D01*
X139302380Y-97242380D02*
X139111904Y-97242380D01*
X139016666Y-97290000D01*
X138969047Y-97337619D01*
X138873809Y-97480476D01*
X138826190Y-97670952D01*
X138826190Y-98051904D01*
X138873809Y-98147142D01*
X138921428Y-98194761D01*
X139016666Y-98242380D01*
X139207142Y-98242380D01*
X139302380Y-98194761D01*
X139350000Y-98147142D01*
X139397619Y-98051904D01*
X139397619Y-97813809D01*
X139350000Y-97718571D01*
X139302380Y-97670952D01*
X139207142Y-97623333D01*
X139016666Y-97623333D01*
X138921428Y-97670952D01*
X138873809Y-97718571D01*
X138826190Y-97813809D01*
X140302380Y-97242380D02*
X139826190Y-97242380D01*
X139778571Y-97718571D01*
X139826190Y-97670952D01*
X139921428Y-97623333D01*
X140159523Y-97623333D01*
X140254761Y-97670952D01*
X140302380Y-97718571D01*
X140350000Y-97813809D01*
X140350000Y-98051904D01*
X140302380Y-98147142D01*
X140254761Y-98194761D01*
X140159523Y-98242380D01*
X139921428Y-98242380D01*
X139826190Y-98194761D01*
X139778571Y-98147142D01*
X140969047Y-97242380D02*
X141064285Y-97242380D01*
X141159523Y-97290000D01*
X141207142Y-97337619D01*
X141254761Y-97432857D01*
X141302380Y-97623333D01*
X141302380Y-97861428D01*
X141254761Y-98051904D01*
X141207142Y-98147142D01*
X141159523Y-98194761D01*
X141064285Y-98242380D01*
X140969047Y-98242380D01*
X140873809Y-98194761D01*
X140826190Y-98147142D01*
X140778571Y-98051904D01*
X140730952Y-97861428D01*
X140730952Y-97623333D01*
X140778571Y-97432857D01*
X140826190Y-97337619D01*
X140873809Y-97290000D01*
X140969047Y-97242380D01*
X141921428Y-97242380D02*
X142016666Y-97242380D01*
X142111904Y-97290000D01*
X142159523Y-97337619D01*
X142207142Y-97432857D01*
X142254761Y-97623333D01*
X142254761Y-97861428D01*
X142207142Y-98051904D01*
X142159523Y-98147142D01*
X142111904Y-98194761D01*
X142016666Y-98242380D01*
X141921428Y-98242380D01*
X141826190Y-98194761D01*
X141778571Y-98147142D01*
X141730952Y-98051904D01*
X141683333Y-97861428D01*
X141683333Y-97623333D01*
X141730952Y-97432857D01*
X141778571Y-97337619D01*
X141826190Y-97290000D01*
X141921428Y-97242380D01*
D11*
G04 #@! TO.C,U1*
X151950000Y-107830000D02*
X151950000Y-105190000D01*
X153650000Y-107830000D02*
X153650000Y-105190000D01*
X155350000Y-107830000D02*
X155350000Y-105190000D01*
X157050000Y-107830000D02*
X157050000Y-105190000D01*
X158750000Y-107830000D02*
X158750000Y-105190000D01*
X150230000Y-123720000D02*
X150230000Y-107830000D01*
X160471000Y-123720000D02*
X160471000Y-107830000D01*
X160471000Y-123720000D02*
X150230000Y-123720000D01*
X160471000Y-107830000D02*
X150230000Y-107830000D01*
G04 #@! TO.C,L1*
X149910000Y-100280000D02*
X149910000Y-97280000D01*
X162510000Y-100280000D02*
X149910000Y-100280000D01*
X162510000Y-97280000D02*
X162510000Y-100280000D01*
X162510000Y-87680000D02*
X162510000Y-90680000D01*
X149910000Y-87680000D02*
X162510000Y-87680000D01*
X149910000Y-90680000D02*
X149910000Y-87680000D01*
G04 #@! TO.C,C2*
X146810000Y-95087221D02*
X146810000Y-95412779D01*
X147830000Y-95087221D02*
X147830000Y-95412779D01*
D13*
G04 #@! TO.C,G\002A\002A\002A*
G36*
X171881800Y-81216500D02*
X171869100Y-81229200D01*
X171856400Y-81216500D01*
X171869100Y-81203800D01*
X171881800Y-81216500D01*
X171881800Y-81216500D01*
G37*
X171881800Y-81216500D02*
X171869100Y-81229200D01*
X171856400Y-81216500D01*
X171869100Y-81203800D01*
X171881800Y-81216500D01*
G36*
X170773720Y-78046060D02*
X171012296Y-78097701D01*
X171214825Y-78184277D01*
X171372398Y-78297255D01*
X171489791Y-78429575D01*
X171562623Y-78577868D01*
X171590164Y-78696146D01*
X171608168Y-78816200D01*
X171056300Y-78815878D01*
X171013335Y-78740369D01*
X170935929Y-78652859D01*
X170821006Y-78586446D01*
X170677742Y-78542214D01*
X170515310Y-78521247D01*
X170342887Y-78524629D01*
X170169646Y-78553444D01*
X170004764Y-78608776D01*
X169982984Y-78618646D01*
X169868334Y-78687722D01*
X169764648Y-78778086D01*
X169678236Y-78880642D01*
X169615409Y-78986291D01*
X169582478Y-79085936D01*
X169585753Y-79170479D01*
X169590906Y-79183904D01*
X169633647Y-79244249D01*
X169682577Y-79287045D01*
X169734630Y-79312800D01*
X169787954Y-79312535D01*
X169839308Y-79298071D01*
X169973068Y-79277849D01*
X170111103Y-79297595D01*
X170239901Y-79352066D01*
X170345952Y-79436020D01*
X170403335Y-79516923D01*
X170459619Y-79591245D01*
X170554659Y-79676033D01*
X170626141Y-79728159D01*
X170777417Y-79849254D01*
X170878417Y-79971531D01*
X170918893Y-80043297D01*
X170941964Y-80107470D01*
X170952331Y-80183603D01*
X170954700Y-80288725D01*
X170952272Y-80390577D01*
X170941683Y-80470186D01*
X170917972Y-80547328D01*
X170876178Y-80641786D01*
X170855466Y-80684417D01*
X170723505Y-80897000D01*
X170553169Y-81082442D01*
X170350606Y-81238066D01*
X170121962Y-81361194D01*
X169873385Y-81449149D01*
X169611022Y-81499254D01*
X169341020Y-81508830D01*
X169069526Y-81475200D01*
X169049700Y-81470955D01*
X168800562Y-81399418D01*
X168587488Y-81301274D01*
X168445509Y-81207619D01*
X168293584Y-81073842D01*
X168189888Y-80939684D01*
X168135533Y-80806669D01*
X168130103Y-80776211D01*
X168115911Y-80670400D01*
X168417705Y-80670400D01*
X168719500Y-80670401D01*
X168790481Y-80759361D01*
X168898421Y-80856517D01*
X169041385Y-80929132D01*
X169209696Y-80976800D01*
X169393673Y-80999111D01*
X169583639Y-80995656D01*
X169769914Y-80966027D01*
X169942821Y-80909814D01*
X170092681Y-80826608D01*
X170108347Y-80815026D01*
X170233199Y-80703645D01*
X170328203Y-80585693D01*
X170389603Y-80468492D01*
X170413643Y-80359359D01*
X170396569Y-80265617D01*
X170393464Y-80259289D01*
X170351486Y-80195822D01*
X170303743Y-80172702D01*
X170235424Y-80185402D01*
X170198523Y-80199703D01*
X170050016Y-80237765D01*
X169901458Y-80233008D01*
X169763030Y-80188884D01*
X169644918Y-80108845D01*
X169557303Y-79996342D01*
X169548660Y-79979461D01*
X169516517Y-79905553D01*
X169496962Y-79846106D01*
X169494200Y-79828257D01*
X169473277Y-79790899D01*
X169432734Y-79763103D01*
X169799000Y-79763103D01*
X169799000Y-79763526D01*
X169819825Y-79854937D01*
X169874026Y-79919647D01*
X169949187Y-79952464D01*
X170032892Y-79948191D01*
X170112727Y-79901635D01*
X170117654Y-79896854D01*
X170170131Y-79814632D01*
X170175106Y-79727398D01*
X170132601Y-79645590D01*
X170117080Y-79629545D01*
X170034559Y-79580147D01*
X169949549Y-79573833D01*
X169873993Y-79605574D01*
X169819829Y-79670340D01*
X169799000Y-79763103D01*
X169432734Y-79763103D01*
X169425973Y-79758468D01*
X169283454Y-79667993D01*
X169163149Y-79541730D01*
X169098487Y-79436660D01*
X169060577Y-79350880D01*
X169042118Y-79278128D01*
X169038816Y-79194432D01*
X169042634Y-79124649D01*
X169080964Y-78930938D01*
X169164346Y-78742021D01*
X169287040Y-78563743D01*
X169443309Y-78401949D01*
X169627416Y-78262485D01*
X169833621Y-78151195D01*
X170056188Y-78073925D01*
X170079743Y-78068148D01*
X170180666Y-78050768D01*
X170310175Y-78037356D01*
X170446090Y-78029977D01*
X170498513Y-78029175D01*
X170773720Y-78046060D01*
X170773720Y-78046060D01*
G37*
X170773720Y-78046060D02*
X171012296Y-78097701D01*
X171214825Y-78184277D01*
X171372398Y-78297255D01*
X171489791Y-78429575D01*
X171562623Y-78577868D01*
X171590164Y-78696146D01*
X171608168Y-78816200D01*
X171056300Y-78815878D01*
X171013335Y-78740369D01*
X170935929Y-78652859D01*
X170821006Y-78586446D01*
X170677742Y-78542214D01*
X170515310Y-78521247D01*
X170342887Y-78524629D01*
X170169646Y-78553444D01*
X170004764Y-78608776D01*
X169982984Y-78618646D01*
X169868334Y-78687722D01*
X169764648Y-78778086D01*
X169678236Y-78880642D01*
X169615409Y-78986291D01*
X169582478Y-79085936D01*
X169585753Y-79170479D01*
X169590906Y-79183904D01*
X169633647Y-79244249D01*
X169682577Y-79287045D01*
X169734630Y-79312800D01*
X169787954Y-79312535D01*
X169839308Y-79298071D01*
X169973068Y-79277849D01*
X170111103Y-79297595D01*
X170239901Y-79352066D01*
X170345952Y-79436020D01*
X170403335Y-79516923D01*
X170459619Y-79591245D01*
X170554659Y-79676033D01*
X170626141Y-79728159D01*
X170777417Y-79849254D01*
X170878417Y-79971531D01*
X170918893Y-80043297D01*
X170941964Y-80107470D01*
X170952331Y-80183603D01*
X170954700Y-80288725D01*
X170952272Y-80390577D01*
X170941683Y-80470186D01*
X170917972Y-80547328D01*
X170876178Y-80641786D01*
X170855466Y-80684417D01*
X170723505Y-80897000D01*
X170553169Y-81082442D01*
X170350606Y-81238066D01*
X170121962Y-81361194D01*
X169873385Y-81449149D01*
X169611022Y-81499254D01*
X169341020Y-81508830D01*
X169069526Y-81475200D01*
X169049700Y-81470955D01*
X168800562Y-81399418D01*
X168587488Y-81301274D01*
X168445509Y-81207619D01*
X168293584Y-81073842D01*
X168189888Y-80939684D01*
X168135533Y-80806669D01*
X168130103Y-80776211D01*
X168115911Y-80670400D01*
X168417705Y-80670400D01*
X168719500Y-80670401D01*
X168790481Y-80759361D01*
X168898421Y-80856517D01*
X169041385Y-80929132D01*
X169209696Y-80976800D01*
X169393673Y-80999111D01*
X169583639Y-80995656D01*
X169769914Y-80966027D01*
X169942821Y-80909814D01*
X170092681Y-80826608D01*
X170108347Y-80815026D01*
X170233199Y-80703645D01*
X170328203Y-80585693D01*
X170389603Y-80468492D01*
X170413643Y-80359359D01*
X170396569Y-80265617D01*
X170393464Y-80259289D01*
X170351486Y-80195822D01*
X170303743Y-80172702D01*
X170235424Y-80185402D01*
X170198523Y-80199703D01*
X170050016Y-80237765D01*
X169901458Y-80233008D01*
X169763030Y-80188884D01*
X169644918Y-80108845D01*
X169557303Y-79996342D01*
X169548660Y-79979461D01*
X169516517Y-79905553D01*
X169496962Y-79846106D01*
X169494200Y-79828257D01*
X169473277Y-79790899D01*
X169432734Y-79763103D01*
X169799000Y-79763103D01*
X169799000Y-79763526D01*
X169819825Y-79854937D01*
X169874026Y-79919647D01*
X169949187Y-79952464D01*
X170032892Y-79948191D01*
X170112727Y-79901635D01*
X170117654Y-79896854D01*
X170170131Y-79814632D01*
X170175106Y-79727398D01*
X170132601Y-79645590D01*
X170117080Y-79629545D01*
X170034559Y-79580147D01*
X169949549Y-79573833D01*
X169873993Y-79605574D01*
X169819829Y-79670340D01*
X169799000Y-79763103D01*
X169432734Y-79763103D01*
X169425973Y-79758468D01*
X169283454Y-79667993D01*
X169163149Y-79541730D01*
X169098487Y-79436660D01*
X169060577Y-79350880D01*
X169042118Y-79278128D01*
X169038816Y-79194432D01*
X169042634Y-79124649D01*
X169080964Y-78930938D01*
X169164346Y-78742021D01*
X169287040Y-78563743D01*
X169443309Y-78401949D01*
X169627416Y-78262485D01*
X169833621Y-78151195D01*
X170056188Y-78073925D01*
X170079743Y-78068148D01*
X170180666Y-78050768D01*
X170310175Y-78037356D01*
X170446090Y-78029977D01*
X170498513Y-78029175D01*
X170773720Y-78046060D01*
G36*
X164330525Y-78250296D02*
X164358102Y-78382242D01*
X164391839Y-78540120D01*
X164430328Y-78717653D01*
X164472159Y-78908563D01*
X164515922Y-79106571D01*
X164560209Y-79305398D01*
X164603610Y-79498767D01*
X164644716Y-79680399D01*
X164682117Y-79844015D01*
X164714404Y-79983339D01*
X164740168Y-80092090D01*
X164757999Y-80163991D01*
X164766487Y-80192764D01*
X164766604Y-80192919D01*
X164778305Y-80173629D01*
X164805327Y-80111264D01*
X164845841Y-80010566D01*
X164898020Y-79876278D01*
X164960036Y-79713143D01*
X165030062Y-79525903D01*
X165106269Y-79319301D01*
X165160546Y-79170569D01*
X165538513Y-78130400D01*
X165827256Y-78130400D01*
X165941542Y-78131964D01*
X166034456Y-78136215D01*
X166095915Y-78142486D01*
X166116006Y-78149450D01*
X166107554Y-78176000D01*
X166083157Y-78246260D01*
X166044258Y-78356206D01*
X165992303Y-78501816D01*
X165928734Y-78679068D01*
X165854995Y-78883938D01*
X165772530Y-79112406D01*
X165682782Y-79360447D01*
X165587195Y-79624040D01*
X165550856Y-79724103D01*
X164985700Y-81279707D01*
X164679349Y-81279853D01*
X164372998Y-81280000D01*
X164145949Y-80239880D01*
X164097216Y-80018817D01*
X164051280Y-79814618D01*
X164009338Y-79632307D01*
X163972590Y-79476906D01*
X163942232Y-79353437D01*
X163919464Y-79266924D01*
X163905484Y-79222387D01*
X163902036Y-79217530D01*
X163889970Y-79244516D01*
X163862549Y-79314155D01*
X163821691Y-79421329D01*
X163769311Y-79560916D01*
X163707327Y-79727798D01*
X163637654Y-79916853D01*
X163562210Y-80122963D01*
X163529331Y-80213200D01*
X163451821Y-80426127D01*
X163379290Y-80625230D01*
X163313673Y-80805206D01*
X163256904Y-80960757D01*
X163210917Y-81086581D01*
X163177649Y-81177378D01*
X163159033Y-81227849D01*
X163156126Y-81235550D01*
X163142656Y-81255006D01*
X163114376Y-81267879D01*
X163062315Y-81275469D01*
X162977506Y-81279076D01*
X162850979Y-81279999D01*
X162849382Y-81280000D01*
X162735100Y-81278439D01*
X162642314Y-81274201D01*
X162581047Y-81267946D01*
X162561133Y-81260950D01*
X162569803Y-81234400D01*
X162594445Y-81164162D01*
X162633606Y-81054264D01*
X162685832Y-80908735D01*
X162749672Y-80731604D01*
X162823671Y-80526901D01*
X162906378Y-80298654D01*
X162996338Y-80050892D01*
X163092099Y-79787645D01*
X163126753Y-79692500D01*
X163691239Y-78143100D01*
X163998405Y-78135996D01*
X164305570Y-78128892D01*
X164330525Y-78250296D01*
X164330525Y-78250296D01*
G37*
X164330525Y-78250296D02*
X164358102Y-78382242D01*
X164391839Y-78540120D01*
X164430328Y-78717653D01*
X164472159Y-78908563D01*
X164515922Y-79106571D01*
X164560209Y-79305398D01*
X164603610Y-79498767D01*
X164644716Y-79680399D01*
X164682117Y-79844015D01*
X164714404Y-79983339D01*
X164740168Y-80092090D01*
X164757999Y-80163991D01*
X164766487Y-80192764D01*
X164766604Y-80192919D01*
X164778305Y-80173629D01*
X164805327Y-80111264D01*
X164845841Y-80010566D01*
X164898020Y-79876278D01*
X164960036Y-79713143D01*
X165030062Y-79525903D01*
X165106269Y-79319301D01*
X165160546Y-79170569D01*
X165538513Y-78130400D01*
X165827256Y-78130400D01*
X165941542Y-78131964D01*
X166034456Y-78136215D01*
X166095915Y-78142486D01*
X166116006Y-78149450D01*
X166107554Y-78176000D01*
X166083157Y-78246260D01*
X166044258Y-78356206D01*
X165992303Y-78501816D01*
X165928734Y-78679068D01*
X165854995Y-78883938D01*
X165772530Y-79112406D01*
X165682782Y-79360447D01*
X165587195Y-79624040D01*
X165550856Y-79724103D01*
X164985700Y-81279707D01*
X164679349Y-81279853D01*
X164372998Y-81280000D01*
X164145949Y-80239880D01*
X164097216Y-80018817D01*
X164051280Y-79814618D01*
X164009338Y-79632307D01*
X163972590Y-79476906D01*
X163942232Y-79353437D01*
X163919464Y-79266924D01*
X163905484Y-79222387D01*
X163902036Y-79217530D01*
X163889970Y-79244516D01*
X163862549Y-79314155D01*
X163821691Y-79421329D01*
X163769311Y-79560916D01*
X163707327Y-79727798D01*
X163637654Y-79916853D01*
X163562210Y-80122963D01*
X163529331Y-80213200D01*
X163451821Y-80426127D01*
X163379290Y-80625230D01*
X163313673Y-80805206D01*
X163256904Y-80960757D01*
X163210917Y-81086581D01*
X163177649Y-81177378D01*
X163159033Y-81227849D01*
X163156126Y-81235550D01*
X163142656Y-81255006D01*
X163114376Y-81267879D01*
X163062315Y-81275469D01*
X162977506Y-81279076D01*
X162850979Y-81279999D01*
X162849382Y-81280000D01*
X162735100Y-81278439D01*
X162642314Y-81274201D01*
X162581047Y-81267946D01*
X162561133Y-81260950D01*
X162569803Y-81234400D01*
X162594445Y-81164162D01*
X162633606Y-81054264D01*
X162685832Y-80908735D01*
X162749672Y-80731604D01*
X162823671Y-80526901D01*
X162906378Y-80298654D01*
X162996338Y-80050892D01*
X163092099Y-79787645D01*
X163126753Y-79692500D01*
X163691239Y-78143100D01*
X163998405Y-78135996D01*
X164305570Y-78128892D01*
X164330525Y-78250296D01*
G36*
X163522401Y-78225650D02*
X163269764Y-78494972D01*
X163031635Y-78748581D01*
X162810490Y-78983849D01*
X162608807Y-79198149D01*
X162429062Y-79388853D01*
X162273733Y-79553334D01*
X162145295Y-79688964D01*
X162046227Y-79793116D01*
X161979003Y-79863162D01*
X161972000Y-79870380D01*
X161799026Y-80048260D01*
X161353462Y-81267300D01*
X160732832Y-81281550D01*
X160818528Y-81045825D01*
X160858666Y-80935444D01*
X160910436Y-80793122D01*
X160968090Y-80634653D01*
X161025884Y-80475829D01*
X161045783Y-80421153D01*
X161187342Y-80032206D01*
X160984671Y-79097859D01*
X160939069Y-78887201D01*
X160897050Y-78692277D01*
X160859797Y-78518633D01*
X160828491Y-78371812D01*
X160804314Y-78257357D01*
X160788446Y-78180813D01*
X160782071Y-78147724D01*
X160782000Y-78146956D01*
X160805849Y-78140881D01*
X160871205Y-78135808D01*
X160968773Y-78132189D01*
X161089264Y-78130477D01*
X161122146Y-78130400D01*
X161259265Y-78130735D01*
X161353926Y-78132639D01*
X161414470Y-78137459D01*
X161449238Y-78146543D01*
X161466571Y-78161238D01*
X161474810Y-78182890D01*
X161475952Y-78187550D01*
X161484602Y-78228700D01*
X161501099Y-78311592D01*
X161523849Y-78428050D01*
X161551260Y-78569902D01*
X161581738Y-78728972D01*
X161593520Y-78790800D01*
X161624853Y-78952953D01*
X161654119Y-79099716D01*
X161679673Y-79223215D01*
X161699874Y-79315576D01*
X161713076Y-79368925D01*
X161715965Y-79377436D01*
X161729418Y-79379830D01*
X161759970Y-79360124D01*
X161810182Y-79315757D01*
X161882614Y-79244169D01*
X161979826Y-79142799D01*
X162104378Y-79009086D01*
X162258830Y-78840470D01*
X162318700Y-78774637D01*
X162902900Y-78131301D01*
X163257304Y-78130850D01*
X163611709Y-78130400D01*
X163522401Y-78225650D01*
X163522401Y-78225650D01*
G37*
X163522401Y-78225650D02*
X163269764Y-78494972D01*
X163031635Y-78748581D01*
X162810490Y-78983849D01*
X162608807Y-79198149D01*
X162429062Y-79388853D01*
X162273733Y-79553334D01*
X162145295Y-79688964D01*
X162046227Y-79793116D01*
X161979003Y-79863162D01*
X161972000Y-79870380D01*
X161799026Y-80048260D01*
X161353462Y-81267300D01*
X160732832Y-81281550D01*
X160818528Y-81045825D01*
X160858666Y-80935444D01*
X160910436Y-80793122D01*
X160968090Y-80634653D01*
X161025884Y-80475829D01*
X161045783Y-80421153D01*
X161187342Y-80032206D01*
X160984671Y-79097859D01*
X160939069Y-78887201D01*
X160897050Y-78692277D01*
X160859797Y-78518633D01*
X160828491Y-78371812D01*
X160804314Y-78257357D01*
X160788446Y-78180813D01*
X160782071Y-78147724D01*
X160782000Y-78146956D01*
X160805849Y-78140881D01*
X160871205Y-78135808D01*
X160968773Y-78132189D01*
X161089264Y-78130477D01*
X161122146Y-78130400D01*
X161259265Y-78130735D01*
X161353926Y-78132639D01*
X161414470Y-78137459D01*
X161449238Y-78146543D01*
X161466571Y-78161238D01*
X161474810Y-78182890D01*
X161475952Y-78187550D01*
X161484602Y-78228700D01*
X161501099Y-78311592D01*
X161523849Y-78428050D01*
X161551260Y-78569902D01*
X161581738Y-78728972D01*
X161593520Y-78790800D01*
X161624853Y-78952953D01*
X161654119Y-79099716D01*
X161679673Y-79223215D01*
X161699874Y-79315576D01*
X161713076Y-79368925D01*
X161715965Y-79377436D01*
X161729418Y-79379830D01*
X161759970Y-79360124D01*
X161810182Y-79315757D01*
X161882614Y-79244169D01*
X161979826Y-79142799D01*
X162104378Y-79009086D01*
X162258830Y-78840470D01*
X162318700Y-78774637D01*
X162902900Y-78131301D01*
X163257304Y-78130850D01*
X163611709Y-78130400D01*
X163522401Y-78225650D01*
G36*
X159962020Y-78131359D02*
X160057975Y-78133972D01*
X160122921Y-78137839D01*
X160146998Y-78142564D01*
X160147000Y-78142599D01*
X160138576Y-78168112D01*
X160114376Y-78236901D01*
X160076002Y-78344508D01*
X160025059Y-78486476D01*
X159963152Y-78658346D01*
X159891884Y-78855662D01*
X159812859Y-79073965D01*
X159727682Y-79308797D01*
X159689800Y-79413100D01*
X159602398Y-79654103D01*
X159520476Y-79880889D01*
X159445643Y-80088939D01*
X159379506Y-80273739D01*
X159323675Y-80430773D01*
X159279759Y-80555525D01*
X159249368Y-80643480D01*
X159234109Y-80690121D01*
X159232600Y-80696300D01*
X159257535Y-80704089D01*
X159330514Y-80710541D01*
X159448796Y-80715557D01*
X159609639Y-80719044D01*
X159810303Y-80720904D01*
X159943800Y-80721200D01*
X160127949Y-80721737D01*
X160294384Y-80723256D01*
X160436678Y-80725615D01*
X160548403Y-80728670D01*
X160623134Y-80732279D01*
X160654445Y-80736302D01*
X160655000Y-80736925D01*
X160646857Y-80765808D01*
X160624788Y-80832010D01*
X160592334Y-80925149D01*
X160559750Y-81016293D01*
X160464500Y-81279936D01*
X159426732Y-81279968D01*
X159169815Y-81279873D01*
X158959224Y-81279441D01*
X158790484Y-81278476D01*
X158659120Y-81276785D01*
X158560660Y-81274172D01*
X158490628Y-81270442D01*
X158444550Y-81265401D01*
X158417952Y-81258853D01*
X158406360Y-81250604D01*
X158405299Y-81240459D01*
X158406932Y-81235550D01*
X158418612Y-81204358D01*
X158446135Y-81129647D01*
X158487961Y-81015627D01*
X158542551Y-80866513D01*
X158608364Y-80686516D01*
X158683859Y-80479849D01*
X158767498Y-80250725D01*
X158857738Y-80003356D01*
X158953041Y-79741955D01*
X158966438Y-79705200D01*
X159062306Y-79442204D01*
X159153307Y-79192662D01*
X159237904Y-78960785D01*
X159314556Y-78750787D01*
X159381726Y-78566879D01*
X159437875Y-78413274D01*
X159481465Y-78294184D01*
X159510955Y-78213823D01*
X159524809Y-78176402D01*
X159525405Y-78174850D01*
X159538579Y-78155753D01*
X159566175Y-78142983D01*
X159616967Y-78135316D01*
X159699730Y-78131533D01*
X159823238Y-78130413D01*
X159844917Y-78130400D01*
X159962020Y-78131359D01*
X159962020Y-78131359D01*
G37*
X159962020Y-78131359D02*
X160057975Y-78133972D01*
X160122921Y-78137839D01*
X160146998Y-78142564D01*
X160147000Y-78142599D01*
X160138576Y-78168112D01*
X160114376Y-78236901D01*
X160076002Y-78344508D01*
X160025059Y-78486476D01*
X159963152Y-78658346D01*
X159891884Y-78855662D01*
X159812859Y-79073965D01*
X159727682Y-79308797D01*
X159689800Y-79413100D01*
X159602398Y-79654103D01*
X159520476Y-79880889D01*
X159445643Y-80088939D01*
X159379506Y-80273739D01*
X159323675Y-80430773D01*
X159279759Y-80555525D01*
X159249368Y-80643480D01*
X159234109Y-80690121D01*
X159232600Y-80696300D01*
X159257535Y-80704089D01*
X159330514Y-80710541D01*
X159448796Y-80715557D01*
X159609639Y-80719044D01*
X159810303Y-80720904D01*
X159943800Y-80721200D01*
X160127949Y-80721737D01*
X160294384Y-80723256D01*
X160436678Y-80725615D01*
X160548403Y-80728670D01*
X160623134Y-80732279D01*
X160654445Y-80736302D01*
X160655000Y-80736925D01*
X160646857Y-80765808D01*
X160624788Y-80832010D01*
X160592334Y-80925149D01*
X160559750Y-81016293D01*
X160464500Y-81279936D01*
X159426732Y-81279968D01*
X159169815Y-81279873D01*
X158959224Y-81279441D01*
X158790484Y-81278476D01*
X158659120Y-81276785D01*
X158560660Y-81274172D01*
X158490628Y-81270442D01*
X158444550Y-81265401D01*
X158417952Y-81258853D01*
X158406360Y-81250604D01*
X158405299Y-81240459D01*
X158406932Y-81235550D01*
X158418612Y-81204358D01*
X158446135Y-81129647D01*
X158487961Y-81015627D01*
X158542551Y-80866513D01*
X158608364Y-80686516D01*
X158683859Y-80479849D01*
X158767498Y-80250725D01*
X158857738Y-80003356D01*
X158953041Y-79741955D01*
X158966438Y-79705200D01*
X159062306Y-79442204D01*
X159153307Y-79192662D01*
X159237904Y-78960785D01*
X159314556Y-78750787D01*
X159381726Y-78566879D01*
X159437875Y-78413274D01*
X159481465Y-78294184D01*
X159510955Y-78213823D01*
X159524809Y-78176402D01*
X159525405Y-78174850D01*
X159538579Y-78155753D01*
X159566175Y-78142983D01*
X159616967Y-78135316D01*
X159699730Y-78131533D01*
X159823238Y-78130413D01*
X159844917Y-78130400D01*
X159962020Y-78131359D01*
G36*
X163573957Y-82023474D02*
X163600731Y-82048568D01*
X163601400Y-82054700D01*
X163580543Y-82086631D01*
X163555680Y-82092800D01*
X163490933Y-82114938D01*
X163453029Y-82170580D01*
X163449000Y-82199480D01*
X163469164Y-82238035D01*
X163499800Y-82245200D01*
X163541171Y-82261081D01*
X163550600Y-82283300D01*
X163529424Y-82314328D01*
X163499800Y-82321400D01*
X163474489Y-82325642D01*
X163459319Y-82345181D01*
X163451737Y-82390236D01*
X163449186Y-82471024D01*
X163449000Y-82524600D01*
X163447939Y-82625842D01*
X163443054Y-82686520D01*
X163431790Y-82716850D01*
X163411593Y-82727052D01*
X163398200Y-82727800D01*
X163372889Y-82723557D01*
X163357719Y-82704018D01*
X163350137Y-82658963D01*
X163347586Y-82578175D01*
X163347400Y-82524600D01*
X163344429Y-82423970D01*
X163336319Y-82353255D01*
X163324272Y-82322077D01*
X163322000Y-82321400D01*
X163299465Y-82300827D01*
X163296600Y-82283300D01*
X163308627Y-82249474D01*
X163318825Y-82245200D01*
X163339018Y-82223316D01*
X163355677Y-82172061D01*
X163380638Y-82103236D01*
X163411466Y-82057761D01*
X163461088Y-82028365D01*
X163521331Y-82016838D01*
X163573957Y-82023474D01*
X163573957Y-82023474D01*
G37*
X163573957Y-82023474D02*
X163600731Y-82048568D01*
X163601400Y-82054700D01*
X163580543Y-82086631D01*
X163555680Y-82092800D01*
X163490933Y-82114938D01*
X163453029Y-82170580D01*
X163449000Y-82199480D01*
X163469164Y-82238035D01*
X163499800Y-82245200D01*
X163541171Y-82261081D01*
X163550600Y-82283300D01*
X163529424Y-82314328D01*
X163499800Y-82321400D01*
X163474489Y-82325642D01*
X163459319Y-82345181D01*
X163451737Y-82390236D01*
X163449186Y-82471024D01*
X163449000Y-82524600D01*
X163447939Y-82625842D01*
X163443054Y-82686520D01*
X163431790Y-82716850D01*
X163411593Y-82727052D01*
X163398200Y-82727800D01*
X163372889Y-82723557D01*
X163357719Y-82704018D01*
X163350137Y-82658963D01*
X163347586Y-82578175D01*
X163347400Y-82524600D01*
X163344429Y-82423970D01*
X163336319Y-82353255D01*
X163324272Y-82322077D01*
X163322000Y-82321400D01*
X163299465Y-82300827D01*
X163296600Y-82283300D01*
X163308627Y-82249474D01*
X163318825Y-82245200D01*
X163339018Y-82223316D01*
X163355677Y-82172061D01*
X163380638Y-82103236D01*
X163411466Y-82057761D01*
X163461088Y-82028365D01*
X163521331Y-82016838D01*
X163573957Y-82023474D01*
G36*
X161996856Y-82261589D02*
X162001200Y-82275680D01*
X162008697Y-82293351D01*
X162031680Y-82275680D01*
X162078343Y-82249418D01*
X162125339Y-82249233D01*
X162152349Y-82273855D01*
X162153600Y-82283300D01*
X162140847Y-82317115D01*
X162130014Y-82321400D01*
X162077422Y-82344932D01*
X162042873Y-82413936D01*
X162027383Y-82526019D01*
X162026600Y-82564514D01*
X162024982Y-82653268D01*
X162017788Y-82702543D01*
X162001511Y-82723619D01*
X161975800Y-82727800D01*
X161952189Y-82724156D01*
X161937287Y-82706943D01*
X161929111Y-82666736D01*
X161925677Y-82594114D01*
X161925000Y-82486500D01*
X161926363Y-82371474D01*
X161931350Y-82298681D01*
X161941306Y-82259605D01*
X161957574Y-82245730D01*
X161963100Y-82245200D01*
X161996856Y-82261589D01*
X161996856Y-82261589D01*
G37*
X161996856Y-82261589D02*
X162001200Y-82275680D01*
X162008697Y-82293351D01*
X162031680Y-82275680D01*
X162078343Y-82249418D01*
X162125339Y-82249233D01*
X162152349Y-82273855D01*
X162153600Y-82283300D01*
X162140847Y-82317115D01*
X162130014Y-82321400D01*
X162077422Y-82344932D01*
X162042873Y-82413936D01*
X162027383Y-82526019D01*
X162026600Y-82564514D01*
X162024982Y-82653268D01*
X162017788Y-82702543D01*
X162001511Y-82723619D01*
X161975800Y-82727800D01*
X161952189Y-82724156D01*
X161937287Y-82706943D01*
X161929111Y-82666736D01*
X161925677Y-82594114D01*
X161925000Y-82486500D01*
X161926363Y-82371474D01*
X161931350Y-82298681D01*
X161941306Y-82259605D01*
X161957574Y-82245730D01*
X161963100Y-82245200D01*
X161996856Y-82261589D01*
G36*
X160472856Y-82261589D02*
X160477200Y-82275680D01*
X160484697Y-82293351D01*
X160507680Y-82275680D01*
X160554343Y-82249418D01*
X160601339Y-82249233D01*
X160628349Y-82273855D01*
X160629600Y-82283300D01*
X160616847Y-82317115D01*
X160606014Y-82321400D01*
X160553422Y-82344932D01*
X160518873Y-82413936D01*
X160503383Y-82526019D01*
X160502600Y-82564514D01*
X160500982Y-82653268D01*
X160493788Y-82702543D01*
X160477511Y-82723619D01*
X160451800Y-82727800D01*
X160428189Y-82724156D01*
X160413287Y-82706943D01*
X160405111Y-82666736D01*
X160401677Y-82594114D01*
X160401000Y-82486500D01*
X160402363Y-82371474D01*
X160407350Y-82298681D01*
X160417306Y-82259605D01*
X160433574Y-82245730D01*
X160439100Y-82245200D01*
X160472856Y-82261589D01*
X160472856Y-82261589D01*
G37*
X160472856Y-82261589D02*
X160477200Y-82275680D01*
X160484697Y-82293351D01*
X160507680Y-82275680D01*
X160554343Y-82249418D01*
X160601339Y-82249233D01*
X160628349Y-82273855D01*
X160629600Y-82283300D01*
X160616847Y-82317115D01*
X160606014Y-82321400D01*
X160553422Y-82344932D01*
X160518873Y-82413936D01*
X160503383Y-82526019D01*
X160502600Y-82564514D01*
X160500982Y-82653268D01*
X160493788Y-82702543D01*
X160477511Y-82723619D01*
X160451800Y-82727800D01*
X160428189Y-82724156D01*
X160413287Y-82706943D01*
X160405111Y-82666736D01*
X160401677Y-82594114D01*
X160401000Y-82486500D01*
X160402363Y-82371474D01*
X160407350Y-82298681D01*
X160417306Y-82259605D01*
X160433574Y-82245730D01*
X160439100Y-82245200D01*
X160472856Y-82261589D01*
G36*
X163140098Y-82266711D02*
X163205577Y-82323397D01*
X163247125Y-82403486D01*
X163262477Y-82495205D01*
X163249373Y-82586782D01*
X163205549Y-82666445D01*
X163143345Y-82715541D01*
X163048732Y-82749085D01*
X162968961Y-82738377D01*
X162890833Y-82681523D01*
X162888246Y-82678953D01*
X162828456Y-82585853D01*
X162817206Y-82502614D01*
X162915600Y-82502614D01*
X162927301Y-82582751D01*
X162967247Y-82633972D01*
X162972051Y-82637459D01*
X163026596Y-82670281D01*
X163063639Y-82670143D01*
X163104247Y-82637123D01*
X163149721Y-82564524D01*
X163161956Y-82482449D01*
X163143786Y-82405367D01*
X163098044Y-82347746D01*
X163043174Y-82325337D01*
X162977498Y-82337309D01*
X162934050Y-82392026D01*
X162915939Y-82485170D01*
X162915600Y-82502614D01*
X162817206Y-82502614D01*
X162813707Y-82476728D01*
X162845051Y-82360969D01*
X162851160Y-82348616D01*
X162895581Y-82286030D01*
X162956037Y-82254309D01*
X163048612Y-82245210D01*
X163052949Y-82245200D01*
X163140098Y-82266711D01*
X163140098Y-82266711D01*
G37*
X163140098Y-82266711D02*
X163205577Y-82323397D01*
X163247125Y-82403486D01*
X163262477Y-82495205D01*
X163249373Y-82586782D01*
X163205549Y-82666445D01*
X163143345Y-82715541D01*
X163048732Y-82749085D01*
X162968961Y-82738377D01*
X162890833Y-82681523D01*
X162888246Y-82678953D01*
X162828456Y-82585853D01*
X162817206Y-82502614D01*
X162915600Y-82502614D01*
X162927301Y-82582751D01*
X162967247Y-82633972D01*
X162972051Y-82637459D01*
X163026596Y-82670281D01*
X163063639Y-82670143D01*
X163104247Y-82637123D01*
X163149721Y-82564524D01*
X163161956Y-82482449D01*
X163143786Y-82405367D01*
X163098044Y-82347746D01*
X163043174Y-82325337D01*
X162977498Y-82337309D01*
X162934050Y-82392026D01*
X162915939Y-82485170D01*
X162915600Y-82502614D01*
X162817206Y-82502614D01*
X162813707Y-82476728D01*
X162845051Y-82360969D01*
X162851160Y-82348616D01*
X162895581Y-82286030D01*
X162956037Y-82254309D01*
X163048612Y-82245210D01*
X163052949Y-82245200D01*
X163140098Y-82266711D01*
G36*
X161712488Y-82255510D02*
X161773468Y-82292315D01*
X161811639Y-82348616D01*
X161844805Y-82457737D01*
X161836932Y-82564669D01*
X161791290Y-82656535D01*
X161718116Y-82717004D01*
X161623905Y-82749572D01*
X161543531Y-82736968D01*
X161465846Y-82678953D01*
X161406056Y-82585853D01*
X161394119Y-82497530D01*
X161493200Y-82497530D01*
X161508713Y-82565168D01*
X161546767Y-82628701D01*
X161594634Y-82670141D01*
X161620200Y-82677000D01*
X161655240Y-82660605D01*
X161696400Y-82626200D01*
X161736461Y-82557969D01*
X161743745Y-82478775D01*
X161722539Y-82403227D01*
X161677130Y-82345933D01*
X161611806Y-82321502D01*
X161606953Y-82321400D01*
X161544164Y-82343782D01*
X161505214Y-82407610D01*
X161493200Y-82497530D01*
X161394119Y-82497530D01*
X161391307Y-82476728D01*
X161422651Y-82360969D01*
X161428760Y-82348616D01*
X161476222Y-82283432D01*
X161541582Y-82251989D01*
X161620200Y-82245200D01*
X161712488Y-82255510D01*
X161712488Y-82255510D01*
G37*
X161712488Y-82255510D02*
X161773468Y-82292315D01*
X161811639Y-82348616D01*
X161844805Y-82457737D01*
X161836932Y-82564669D01*
X161791290Y-82656535D01*
X161718116Y-82717004D01*
X161623905Y-82749572D01*
X161543531Y-82736968D01*
X161465846Y-82678953D01*
X161406056Y-82585853D01*
X161394119Y-82497530D01*
X161493200Y-82497530D01*
X161508713Y-82565168D01*
X161546767Y-82628701D01*
X161594634Y-82670141D01*
X161620200Y-82677000D01*
X161655240Y-82660605D01*
X161696400Y-82626200D01*
X161736461Y-82557969D01*
X161743745Y-82478775D01*
X161722539Y-82403227D01*
X161677130Y-82345933D01*
X161611806Y-82321502D01*
X161606953Y-82321400D01*
X161544164Y-82343782D01*
X161505214Y-82407610D01*
X161493200Y-82497530D01*
X161394119Y-82497530D01*
X161391307Y-82476728D01*
X161422651Y-82360969D01*
X161428760Y-82348616D01*
X161476222Y-82283432D01*
X161541582Y-82251989D01*
X161620200Y-82245200D01*
X161712488Y-82255510D01*
G36*
X161228792Y-82138221D02*
X161239200Y-82179837D01*
X161249011Y-82229112D01*
X161288158Y-82244775D01*
X161302700Y-82245200D01*
X161353771Y-82258448D01*
X161366200Y-82283300D01*
X161344119Y-82313942D01*
X161302700Y-82321400D01*
X161267577Y-82324604D01*
X161248574Y-82342149D01*
X161240760Y-82385934D01*
X161239202Y-82467858D01*
X161239200Y-82474597D01*
X161242233Y-82564600D01*
X161253424Y-82616006D01*
X161275903Y-82640768D01*
X161283650Y-82644194D01*
X161336131Y-82676921D01*
X161355136Y-82717046D01*
X161350325Y-82732937D01*
X161312378Y-82751991D01*
X161253177Y-82744411D01*
X161200591Y-82717869D01*
X161172702Y-82685329D01*
X161155060Y-82629605D01*
X161144428Y-82538762D01*
X161142070Y-82501969D01*
X161134172Y-82413581D01*
X161122886Y-82349225D01*
X161110523Y-82321644D01*
X161109333Y-82321400D01*
X161089329Y-82300785D01*
X161086800Y-82283300D01*
X161099577Y-82249484D01*
X161110433Y-82245200D01*
X161132012Y-82223611D01*
X161142183Y-82188309D01*
X161163702Y-82138196D01*
X161198182Y-82121010D01*
X161228792Y-82138221D01*
X161228792Y-82138221D01*
G37*
X161228792Y-82138221D02*
X161239200Y-82179837D01*
X161249011Y-82229112D01*
X161288158Y-82244775D01*
X161302700Y-82245200D01*
X161353771Y-82258448D01*
X161366200Y-82283300D01*
X161344119Y-82313942D01*
X161302700Y-82321400D01*
X161267577Y-82324604D01*
X161248574Y-82342149D01*
X161240760Y-82385934D01*
X161239202Y-82467858D01*
X161239200Y-82474597D01*
X161242233Y-82564600D01*
X161253424Y-82616006D01*
X161275903Y-82640768D01*
X161283650Y-82644194D01*
X161336131Y-82676921D01*
X161355136Y-82717046D01*
X161350325Y-82732937D01*
X161312378Y-82751991D01*
X161253177Y-82744411D01*
X161200591Y-82717869D01*
X161172702Y-82685329D01*
X161155060Y-82629605D01*
X161144428Y-82538762D01*
X161142070Y-82501969D01*
X161134172Y-82413581D01*
X161122886Y-82349225D01*
X161110523Y-82321644D01*
X161109333Y-82321400D01*
X161089329Y-82300785D01*
X161086800Y-82283300D01*
X161099577Y-82249484D01*
X161110433Y-82245200D01*
X161132012Y-82223611D01*
X161142183Y-82188309D01*
X161163702Y-82138196D01*
X161198182Y-82121010D01*
X161228792Y-82138221D01*
G36*
X160885099Y-82248736D02*
X160922230Y-82255763D01*
X160978123Y-82295523D01*
X161015643Y-82380936D01*
X161034097Y-82510034D01*
X161036000Y-82579593D01*
X161034808Y-82662752D01*
X161027455Y-82707066D01*
X161008269Y-82724488D01*
X160971581Y-82726971D01*
X160966150Y-82726843D01*
X160884525Y-82731914D01*
X160828935Y-82741626D01*
X160761745Y-82741601D01*
X160708285Y-82704885D01*
X160669108Y-82648876D01*
X160656139Y-82603617D01*
X160756054Y-82603617D01*
X160775523Y-82647927D01*
X160829785Y-82673924D01*
X160837335Y-82674994D01*
X160866932Y-82660728D01*
X160894485Y-82637085D01*
X160930472Y-82581027D01*
X160930767Y-82531260D01*
X160897276Y-82501992D01*
X160875980Y-82499200D01*
X160809324Y-82515414D01*
X160768335Y-82554833D01*
X160756054Y-82603617D01*
X160656139Y-82603617D01*
X160655000Y-82599645D01*
X160677315Y-82533217D01*
X160733369Y-82472541D01*
X160806821Y-82431904D01*
X160857045Y-82423000D01*
X160916441Y-82416644D01*
X160931476Y-82392689D01*
X160911153Y-82349414D01*
X160872856Y-82326080D01*
X160798762Y-82328529D01*
X160795636Y-82329027D01*
X160734742Y-82335422D01*
X160710979Y-82324884D01*
X160710762Y-82301013D01*
X160740537Y-82266838D01*
X160803889Y-82248291D01*
X160885099Y-82248736D01*
X160885099Y-82248736D01*
G37*
X160885099Y-82248736D02*
X160922230Y-82255763D01*
X160978123Y-82295523D01*
X161015643Y-82380936D01*
X161034097Y-82510034D01*
X161036000Y-82579593D01*
X161034808Y-82662752D01*
X161027455Y-82707066D01*
X161008269Y-82724488D01*
X160971581Y-82726971D01*
X160966150Y-82726843D01*
X160884525Y-82731914D01*
X160828935Y-82741626D01*
X160761745Y-82741601D01*
X160708285Y-82704885D01*
X160669108Y-82648876D01*
X160656139Y-82603617D01*
X160756054Y-82603617D01*
X160775523Y-82647927D01*
X160829785Y-82673924D01*
X160837335Y-82674994D01*
X160866932Y-82660728D01*
X160894485Y-82637085D01*
X160930472Y-82581027D01*
X160930767Y-82531260D01*
X160897276Y-82501992D01*
X160875980Y-82499200D01*
X160809324Y-82515414D01*
X160768335Y-82554833D01*
X160756054Y-82603617D01*
X160656139Y-82603617D01*
X160655000Y-82599645D01*
X160677315Y-82533217D01*
X160733369Y-82472541D01*
X160806821Y-82431904D01*
X160857045Y-82423000D01*
X160916441Y-82416644D01*
X160931476Y-82392689D01*
X160911153Y-82349414D01*
X160872856Y-82326080D01*
X160798762Y-82328529D01*
X160795636Y-82329027D01*
X160734742Y-82335422D01*
X160710979Y-82324884D01*
X160710762Y-82301013D01*
X160740537Y-82266838D01*
X160803889Y-82248291D01*
X160885099Y-82248736D01*
G36*
X160201268Y-82266301D02*
X160274922Y-82325617D01*
X160315307Y-82417164D01*
X160318311Y-82534960D01*
X160314398Y-82559379D01*
X160274706Y-82652693D01*
X160203699Y-82716823D01*
X160113951Y-82745382D01*
X160018035Y-82731981D01*
X159995100Y-82721606D01*
X159918714Y-82655814D01*
X159876969Y-82564806D01*
X159873711Y-82497530D01*
X159969200Y-82497530D01*
X159984713Y-82565168D01*
X160022767Y-82628701D01*
X160070634Y-82670141D01*
X160096200Y-82677000D01*
X160131240Y-82660605D01*
X160172400Y-82626200D01*
X160215396Y-82556416D01*
X160226220Y-82476969D01*
X160208393Y-82401943D01*
X160165434Y-82345422D01*
X160100866Y-82321492D01*
X160096200Y-82321400D01*
X160024350Y-82341398D01*
X159982208Y-82401888D01*
X159969200Y-82497530D01*
X159873711Y-82497530D01*
X159872009Y-82462410D01*
X159905977Y-82362457D01*
X159933357Y-82323348D01*
X159992108Y-82268237D01*
X160057883Y-82247062D01*
X160098457Y-82245200D01*
X160201268Y-82266301D01*
X160201268Y-82266301D01*
G37*
X160201268Y-82266301D02*
X160274922Y-82325617D01*
X160315307Y-82417164D01*
X160318311Y-82534960D01*
X160314398Y-82559379D01*
X160274706Y-82652693D01*
X160203699Y-82716823D01*
X160113951Y-82745382D01*
X160018035Y-82731981D01*
X159995100Y-82721606D01*
X159918714Y-82655814D01*
X159876969Y-82564806D01*
X159873711Y-82497530D01*
X159969200Y-82497530D01*
X159984713Y-82565168D01*
X160022767Y-82628701D01*
X160070634Y-82670141D01*
X160096200Y-82677000D01*
X160131240Y-82660605D01*
X160172400Y-82626200D01*
X160215396Y-82556416D01*
X160226220Y-82476969D01*
X160208393Y-82401943D01*
X160165434Y-82345422D01*
X160100866Y-82321492D01*
X160096200Y-82321400D01*
X160024350Y-82341398D01*
X159982208Y-82401888D01*
X159969200Y-82497530D01*
X159873711Y-82497530D01*
X159872009Y-82462410D01*
X159905977Y-82362457D01*
X159933357Y-82323348D01*
X159992108Y-82268237D01*
X160057883Y-82247062D01*
X160098457Y-82245200D01*
X160201268Y-82266301D01*
G36*
X159464749Y-82022450D02*
X159480064Y-82047912D01*
X159485907Y-82104852D01*
X159486600Y-82161380D01*
X159488872Y-82242306D01*
X159496915Y-82279469D01*
X159512563Y-82279753D01*
X159517079Y-82275680D01*
X159562586Y-82254180D01*
X159629313Y-82245200D01*
X159629536Y-82245200D01*
X159712194Y-82266945D01*
X159773506Y-82324384D01*
X159810426Y-82405820D01*
X159819905Y-82499556D01*
X159798895Y-82593894D01*
X159744349Y-82677139D01*
X159742553Y-82678953D01*
X159666522Y-82737420D01*
X159596163Y-82749264D01*
X159521151Y-82716080D01*
X159517651Y-82713659D01*
X159476819Y-82693197D01*
X159461200Y-82700959D01*
X159440649Y-82724763D01*
X159423100Y-82727800D01*
X159407733Y-82720681D01*
X159397029Y-82694475D01*
X159390206Y-82641902D01*
X159386484Y-82555684D01*
X159385723Y-82486500D01*
X159486600Y-82486500D01*
X159498700Y-82581511D01*
X159536784Y-82635251D01*
X159600900Y-82651600D01*
X159659188Y-82637844D01*
X159684720Y-82621120D01*
X159704135Y-82577688D01*
X159714608Y-82507505D01*
X159715200Y-82486500D01*
X159703099Y-82391488D01*
X159665015Y-82337748D01*
X159600900Y-82321400D01*
X159535122Y-82338878D01*
X159497918Y-82393888D01*
X159486600Y-82486500D01*
X159385723Y-82486500D01*
X159385085Y-82428544D01*
X159385000Y-82372200D01*
X159385376Y-82231483D01*
X159387250Y-82133758D01*
X159391737Y-82071219D01*
X159399951Y-82036057D01*
X159413008Y-82020467D01*
X159432024Y-82016641D01*
X159435800Y-82016600D01*
X159464749Y-82022450D01*
X159464749Y-82022450D01*
G37*
X159464749Y-82022450D02*
X159480064Y-82047912D01*
X159485907Y-82104852D01*
X159486600Y-82161380D01*
X159488872Y-82242306D01*
X159496915Y-82279469D01*
X159512563Y-82279753D01*
X159517079Y-82275680D01*
X159562586Y-82254180D01*
X159629313Y-82245200D01*
X159629536Y-82245200D01*
X159712194Y-82266945D01*
X159773506Y-82324384D01*
X159810426Y-82405820D01*
X159819905Y-82499556D01*
X159798895Y-82593894D01*
X159744349Y-82677139D01*
X159742553Y-82678953D01*
X159666522Y-82737420D01*
X159596163Y-82749264D01*
X159521151Y-82716080D01*
X159517651Y-82713659D01*
X159476819Y-82693197D01*
X159461200Y-82700959D01*
X159440649Y-82724763D01*
X159423100Y-82727800D01*
X159407733Y-82720681D01*
X159397029Y-82694475D01*
X159390206Y-82641902D01*
X159386484Y-82555684D01*
X159385723Y-82486500D01*
X159486600Y-82486500D01*
X159498700Y-82581511D01*
X159536784Y-82635251D01*
X159600900Y-82651600D01*
X159659188Y-82637844D01*
X159684720Y-82621120D01*
X159704135Y-82577688D01*
X159714608Y-82507505D01*
X159715200Y-82486500D01*
X159703099Y-82391488D01*
X159665015Y-82337748D01*
X159600900Y-82321400D01*
X159535122Y-82338878D01*
X159497918Y-82393888D01*
X159486600Y-82486500D01*
X159385723Y-82486500D01*
X159385085Y-82428544D01*
X159385000Y-82372200D01*
X159385376Y-82231483D01*
X159387250Y-82133758D01*
X159391737Y-82071219D01*
X159399951Y-82036057D01*
X159413008Y-82020467D01*
X159432024Y-82016641D01*
X159435800Y-82016600D01*
X159464749Y-82022450D01*
G36*
X159171409Y-82261524D02*
X159216602Y-82276909D01*
X159244909Y-82310817D01*
X159250525Y-82321400D01*
X159267267Y-82379556D01*
X159279025Y-82468135D01*
X159283025Y-82556753D01*
X159282411Y-82647645D01*
X159277032Y-82698897D01*
X159262331Y-82721666D01*
X159233748Y-82727112D01*
X159213550Y-82726843D01*
X159131925Y-82731914D01*
X159076335Y-82741626D01*
X159009145Y-82741601D01*
X158955685Y-82704885D01*
X158910867Y-82632136D01*
X158910997Y-82571249D01*
X159012658Y-82571249D01*
X159018174Y-82622951D01*
X159027633Y-82636770D01*
X159069799Y-82672606D01*
X159110715Y-82664024D01*
X159141885Y-82637085D01*
X159174744Y-82582234D01*
X159181800Y-82546498D01*
X159170837Y-82509914D01*
X159129004Y-82502459D01*
X159114511Y-82503862D01*
X159047397Y-82527536D01*
X159012658Y-82571249D01*
X158910997Y-82571249D01*
X158911026Y-82558178D01*
X158951578Y-82492933D01*
X159027933Y-82446323D01*
X159081585Y-82432532D01*
X159150693Y-82418305D01*
X159177261Y-82399570D01*
X159169374Y-82367596D01*
X159158553Y-82349414D01*
X159120256Y-82326080D01*
X159046162Y-82328529D01*
X159043036Y-82329027D01*
X158982162Y-82335428D01*
X158958439Y-82324913D01*
X158958292Y-82301013D01*
X158975459Y-82273980D01*
X159021177Y-82260882D01*
X159092497Y-82257900D01*
X159171409Y-82261524D01*
X159171409Y-82261524D01*
G37*
X159171409Y-82261524D02*
X159216602Y-82276909D01*
X159244909Y-82310817D01*
X159250525Y-82321400D01*
X159267267Y-82379556D01*
X159279025Y-82468135D01*
X159283025Y-82556753D01*
X159282411Y-82647645D01*
X159277032Y-82698897D01*
X159262331Y-82721666D01*
X159233748Y-82727112D01*
X159213550Y-82726843D01*
X159131925Y-82731914D01*
X159076335Y-82741626D01*
X159009145Y-82741601D01*
X158955685Y-82704885D01*
X158910867Y-82632136D01*
X158910997Y-82571249D01*
X159012658Y-82571249D01*
X159018174Y-82622951D01*
X159027633Y-82636770D01*
X159069799Y-82672606D01*
X159110715Y-82664024D01*
X159141885Y-82637085D01*
X159174744Y-82582234D01*
X159181800Y-82546498D01*
X159170837Y-82509914D01*
X159129004Y-82502459D01*
X159114511Y-82503862D01*
X159047397Y-82527536D01*
X159012658Y-82571249D01*
X158910997Y-82571249D01*
X158911026Y-82558178D01*
X158951578Y-82492933D01*
X159027933Y-82446323D01*
X159081585Y-82432532D01*
X159150693Y-82418305D01*
X159177261Y-82399570D01*
X159169374Y-82367596D01*
X159158553Y-82349414D01*
X159120256Y-82326080D01*
X159046162Y-82328529D01*
X159043036Y-82329027D01*
X158982162Y-82335428D01*
X158958439Y-82324913D01*
X158958292Y-82301013D01*
X158975459Y-82273980D01*
X159021177Y-82260882D01*
X159092497Y-82257900D01*
X159171409Y-82261524D01*
G36*
X158606587Y-82053627D02*
X158616293Y-82081238D01*
X158621138Y-82136104D01*
X158622812Y-82226620D01*
X158623000Y-82331006D01*
X158623000Y-82623545D01*
X158756350Y-82631222D01*
X158835269Y-82638530D01*
X158875469Y-82652204D01*
X158889019Y-82677535D01*
X158889700Y-82689700D01*
X158884544Y-82716276D01*
X158862000Y-82732493D01*
X158811456Y-82741702D01*
X158722295Y-82747255D01*
X158705182Y-82747970D01*
X158600643Y-82749326D01*
X158538236Y-82742267D01*
X158509822Y-82725691D01*
X158507511Y-82721161D01*
X158503014Y-82683655D01*
X158500368Y-82606451D01*
X158499762Y-82500623D01*
X158501384Y-82377246D01*
X158501528Y-82370791D01*
X158504915Y-82239427D01*
X158509154Y-82150334D01*
X158515935Y-82094989D01*
X158526951Y-82064870D01*
X158543891Y-82051455D01*
X158565850Y-82046583D01*
X158590335Y-82044874D01*
X158606587Y-82053627D01*
X158606587Y-82053627D01*
G37*
X158606587Y-82053627D02*
X158616293Y-82081238D01*
X158621138Y-82136104D01*
X158622812Y-82226620D01*
X158623000Y-82331006D01*
X158623000Y-82623545D01*
X158756350Y-82631222D01*
X158835269Y-82638530D01*
X158875469Y-82652204D01*
X158889019Y-82677535D01*
X158889700Y-82689700D01*
X158884544Y-82716276D01*
X158862000Y-82732493D01*
X158811456Y-82741702D01*
X158722295Y-82747255D01*
X158705182Y-82747970D01*
X158600643Y-82749326D01*
X158538236Y-82742267D01*
X158509822Y-82725691D01*
X158507511Y-82721161D01*
X158503014Y-82683655D01*
X158500368Y-82606451D01*
X158499762Y-82500623D01*
X158501384Y-82377246D01*
X158501528Y-82370791D01*
X158504915Y-82239427D01*
X158509154Y-82150334D01*
X158515935Y-82094989D01*
X158526951Y-82064870D01*
X158543891Y-82051455D01*
X158565850Y-82046583D01*
X158590335Y-82044874D01*
X158606587Y-82053627D01*
G36*
X162589132Y-82245770D02*
X162603319Y-82253265D01*
X162604710Y-82276363D01*
X162592304Y-82323740D01*
X162565100Y-82404073D01*
X162534966Y-82489517D01*
X162488228Y-82618992D01*
X162451412Y-82711332D01*
X162418898Y-82777769D01*
X162385065Y-82829530D01*
X162344293Y-82877845D01*
X162336244Y-82886550D01*
X162280704Y-82939693D01*
X162246188Y-82953641D01*
X162224868Y-82931010D01*
X162222334Y-82924650D01*
X162231166Y-82888246D01*
X162267242Y-82834487D01*
X162286332Y-82812794D01*
X162362027Y-82732688D01*
X162272881Y-82495294D01*
X162237658Y-82394767D01*
X162213950Y-82313493D01*
X162204527Y-82261911D01*
X162207605Y-82249154D01*
X162250986Y-82248747D01*
X162289215Y-82285765D01*
X162326543Y-82365490D01*
X162345310Y-82420232D01*
X162372633Y-82499920D01*
X162395383Y-82555905D01*
X162407912Y-82575400D01*
X162420864Y-82552980D01*
X162442382Y-82494161D01*
X162467844Y-82411600D01*
X162468216Y-82410300D01*
X162498251Y-82317371D01*
X162525053Y-82265616D01*
X162553759Y-82246103D01*
X162563149Y-82245200D01*
X162589132Y-82245770D01*
X162589132Y-82245770D01*
G37*
X162589132Y-82245770D02*
X162603319Y-82253265D01*
X162604710Y-82276363D01*
X162592304Y-82323740D01*
X162565100Y-82404073D01*
X162534966Y-82489517D01*
X162488228Y-82618992D01*
X162451412Y-82711332D01*
X162418898Y-82777769D01*
X162385065Y-82829530D01*
X162344293Y-82877845D01*
X162336244Y-82886550D01*
X162280704Y-82939693D01*
X162246188Y-82953641D01*
X162224868Y-82931010D01*
X162222334Y-82924650D01*
X162231166Y-82888246D01*
X162267242Y-82834487D01*
X162286332Y-82812794D01*
X162362027Y-82732688D01*
X162272881Y-82495294D01*
X162237658Y-82394767D01*
X162213950Y-82313493D01*
X162204527Y-82261911D01*
X162207605Y-82249154D01*
X162250986Y-82248747D01*
X162289215Y-82285765D01*
X162326543Y-82365490D01*
X162345310Y-82420232D01*
X162372633Y-82499920D01*
X162395383Y-82555905D01*
X162407912Y-82575400D01*
X162420864Y-82552980D01*
X162442382Y-82494161D01*
X162467844Y-82411600D01*
X162468216Y-82410300D01*
X162498251Y-82317371D01*
X162525053Y-82265616D01*
X162553759Y-82246103D01*
X162563149Y-82245200D01*
X162589132Y-82245770D01*
G36*
X161623361Y-83103683D02*
X161642040Y-83142088D01*
X161641127Y-83151068D01*
X161615715Y-83196203D01*
X161573978Y-83197141D01*
X161543808Y-83172069D01*
X161524594Y-83129338D01*
X161538289Y-83104350D01*
X161581378Y-83087743D01*
X161623361Y-83103683D01*
X161623361Y-83103683D01*
G37*
X161623361Y-83103683D02*
X161642040Y-83142088D01*
X161641127Y-83151068D01*
X161615715Y-83196203D01*
X161573978Y-83197141D01*
X161543808Y-83172069D01*
X161524594Y-83129338D01*
X161538289Y-83104350D01*
X161581378Y-83087743D01*
X161623361Y-83103683D01*
G36*
X161968841Y-83265993D02*
X162041560Y-83281604D01*
X162071877Y-83314650D01*
X162072648Y-83318076D01*
X162070336Y-83347200D01*
X162039127Y-83352525D01*
X162002320Y-83346514D01*
X161916535Y-83349475D01*
X161856329Y-83394378D01*
X161826107Y-83476985D01*
X161823400Y-83518551D01*
X161843226Y-83607725D01*
X161896498Y-83666724D01*
X161973905Y-83687631D01*
X162015769Y-83682100D01*
X162062700Y-83675956D01*
X162074838Y-83695831D01*
X162072885Y-83711050D01*
X162049830Y-83744178D01*
X161990212Y-83761211D01*
X161961225Y-83764081D01*
X161881752Y-83761595D01*
X161822877Y-83733082D01*
X161789994Y-83703467D01*
X161732455Y-83613242D01*
X161717607Y-83509726D01*
X161745168Y-83406711D01*
X161797603Y-83333889D01*
X161859469Y-83282910D01*
X161920397Y-83264987D01*
X161968841Y-83265993D01*
X161968841Y-83265993D01*
G37*
X161968841Y-83265993D02*
X162041560Y-83281604D01*
X162071877Y-83314650D01*
X162072648Y-83318076D01*
X162070336Y-83347200D01*
X162039127Y-83352525D01*
X162002320Y-83346514D01*
X161916535Y-83349475D01*
X161856329Y-83394378D01*
X161826107Y-83476985D01*
X161823400Y-83518551D01*
X161843226Y-83607725D01*
X161896498Y-83666724D01*
X161973905Y-83687631D01*
X162015769Y-83682100D01*
X162062700Y-83675956D01*
X162074838Y-83695831D01*
X162072885Y-83711050D01*
X162049830Y-83744178D01*
X161990212Y-83761211D01*
X161961225Y-83764081D01*
X161881752Y-83761595D01*
X161822877Y-83733082D01*
X161789994Y-83703467D01*
X161732455Y-83613242D01*
X161717607Y-83509726D01*
X161745168Y-83406711D01*
X161797603Y-83333889D01*
X161859469Y-83282910D01*
X161920397Y-83264987D01*
X161968841Y-83265993D01*
G36*
X161609394Y-83276162D02*
X161622597Y-83303120D01*
X161629760Y-83356435D01*
X161632582Y-83445634D01*
X161632900Y-83515200D01*
X161631774Y-83628785D01*
X161627263Y-83701124D01*
X161617668Y-83741745D01*
X161601290Y-83760173D01*
X161588450Y-83764364D01*
X161568285Y-83763569D01*
X161555301Y-83746072D01*
X161547954Y-83703223D01*
X161544701Y-83626377D01*
X161544000Y-83515200D01*
X161544806Y-83398439D01*
X161548255Y-83323818D01*
X161555890Y-83282691D01*
X161569251Y-83266408D01*
X161588450Y-83266035D01*
X161609394Y-83276162D01*
X161609394Y-83276162D01*
G37*
X161609394Y-83276162D02*
X161622597Y-83303120D01*
X161629760Y-83356435D01*
X161632582Y-83445634D01*
X161632900Y-83515200D01*
X161631774Y-83628785D01*
X161627263Y-83701124D01*
X161617668Y-83741745D01*
X161601290Y-83760173D01*
X161588450Y-83764364D01*
X161568285Y-83763569D01*
X161555301Y-83746072D01*
X161547954Y-83703223D01*
X161544701Y-83626377D01*
X161544000Y-83515200D01*
X161544806Y-83398439D01*
X161548255Y-83323818D01*
X161555890Y-83282691D01*
X161569251Y-83266408D01*
X161588450Y-83266035D01*
X161609394Y-83276162D01*
G36*
X161336933Y-83164996D02*
X161340800Y-83195583D01*
X161350407Y-83244868D01*
X161389406Y-83260680D01*
X161406162Y-83261200D01*
X161454371Y-83270435D01*
X161463400Y-83302837D01*
X161462896Y-83305650D01*
X161434044Y-83342202D01*
X161403884Y-83350100D01*
X161372165Y-83358459D01*
X161354969Y-83391811D01*
X161346280Y-83462563D01*
X161345793Y-83469885D01*
X161349324Y-83575365D01*
X161372847Y-83651588D01*
X161413127Y-83690040D01*
X161430593Y-83693000D01*
X161463488Y-83713351D01*
X161467800Y-83731100D01*
X161446951Y-83758329D01*
X161397767Y-83769180D01*
X161340293Y-83762768D01*
X161295080Y-83738720D01*
X161278453Y-83696961D01*
X161267627Y-83618805D01*
X161264600Y-83538237D01*
X161261353Y-83439043D01*
X161250339Y-83381052D01*
X161229647Y-83355004D01*
X161226500Y-83353614D01*
X161195097Y-83324400D01*
X161191060Y-83286405D01*
X161214823Y-83262366D01*
X161224733Y-83261200D01*
X161256666Y-83239645D01*
X161269183Y-83206039D01*
X161288266Y-83154930D01*
X161315658Y-83140547D01*
X161336933Y-83164996D01*
X161336933Y-83164996D01*
G37*
X161336933Y-83164996D02*
X161340800Y-83195583D01*
X161350407Y-83244868D01*
X161389406Y-83260680D01*
X161406162Y-83261200D01*
X161454371Y-83270435D01*
X161463400Y-83302837D01*
X161462896Y-83305650D01*
X161434044Y-83342202D01*
X161403884Y-83350100D01*
X161372165Y-83358459D01*
X161354969Y-83391811D01*
X161346280Y-83462563D01*
X161345793Y-83469885D01*
X161349324Y-83575365D01*
X161372847Y-83651588D01*
X161413127Y-83690040D01*
X161430593Y-83693000D01*
X161463488Y-83713351D01*
X161467800Y-83731100D01*
X161446951Y-83758329D01*
X161397767Y-83769180D01*
X161340293Y-83762768D01*
X161295080Y-83738720D01*
X161278453Y-83696961D01*
X161267627Y-83618805D01*
X161264600Y-83538237D01*
X161261353Y-83439043D01*
X161250339Y-83381052D01*
X161229647Y-83355004D01*
X161226500Y-83353614D01*
X161195097Y-83324400D01*
X161191060Y-83286405D01*
X161214823Y-83262366D01*
X161224733Y-83261200D01*
X161256666Y-83239645D01*
X161269183Y-83206039D01*
X161288266Y-83154930D01*
X161315658Y-83140547D01*
X161336933Y-83164996D01*
G36*
X161064091Y-83284249D02*
X161122973Y-83350193D01*
X161154709Y-83448549D01*
X161169646Y-83540600D01*
X161003601Y-83540600D01*
X160914856Y-83541821D01*
X160866563Y-83547817D01*
X160848392Y-83562080D01*
X160850012Y-83588106D01*
X160851050Y-83592204D01*
X160890629Y-83652837D01*
X160961846Y-83684709D01*
X161038118Y-83683686D01*
X161096226Y-83682899D01*
X161129405Y-83701403D01*
X161127438Y-83730189D01*
X161109104Y-83746250D01*
X161031257Y-83769910D01*
X160937785Y-83764139D01*
X160852020Y-83732103D01*
X160818945Y-83706854D01*
X160771293Y-83626275D01*
X160755720Y-83522610D01*
X160771955Y-83422672D01*
X160862687Y-83422672D01*
X160867596Y-83449779D01*
X160903723Y-83462086D01*
X160959800Y-83464400D01*
X161027421Y-83460341D01*
X161055480Y-83445069D01*
X161056912Y-83422672D01*
X161025616Y-83367479D01*
X160971132Y-83341427D01*
X160915350Y-83352952D01*
X160874368Y-83395418D01*
X160862687Y-83422672D01*
X160771955Y-83422672D01*
X160773499Y-83413168D01*
X160793760Y-83364616D01*
X160841828Y-83298930D01*
X160908154Y-83267563D01*
X160983340Y-83261200D01*
X161064091Y-83284249D01*
X161064091Y-83284249D01*
G37*
X161064091Y-83284249D02*
X161122973Y-83350193D01*
X161154709Y-83448549D01*
X161169646Y-83540600D01*
X161003601Y-83540600D01*
X160914856Y-83541821D01*
X160866563Y-83547817D01*
X160848392Y-83562080D01*
X160850012Y-83588106D01*
X160851050Y-83592204D01*
X160890629Y-83652837D01*
X160961846Y-83684709D01*
X161038118Y-83683686D01*
X161096226Y-83682899D01*
X161129405Y-83701403D01*
X161127438Y-83730189D01*
X161109104Y-83746250D01*
X161031257Y-83769910D01*
X160937785Y-83764139D01*
X160852020Y-83732103D01*
X160818945Y-83706854D01*
X160771293Y-83626275D01*
X160755720Y-83522610D01*
X160771955Y-83422672D01*
X160862687Y-83422672D01*
X160867596Y-83449779D01*
X160903723Y-83462086D01*
X160959800Y-83464400D01*
X161027421Y-83460341D01*
X161055480Y-83445069D01*
X161056912Y-83422672D01*
X161025616Y-83367479D01*
X160971132Y-83341427D01*
X160915350Y-83352952D01*
X160874368Y-83395418D01*
X160862687Y-83422672D01*
X160771955Y-83422672D01*
X160773499Y-83413168D01*
X160793760Y-83364616D01*
X160841828Y-83298930D01*
X160908154Y-83267563D01*
X160983340Y-83261200D01*
X161064091Y-83284249D01*
G36*
X160350034Y-83061731D02*
X160366901Y-83115953D01*
X160375600Y-83185000D01*
X160386039Y-83260394D01*
X160399096Y-83295639D01*
X160408849Y-83292950D01*
X160454842Y-83262949D01*
X160520730Y-83263867D01*
X160588571Y-83292725D01*
X160628773Y-83329418D01*
X160657907Y-83375237D01*
X160672963Y-83428899D01*
X160676954Y-83506507D01*
X160675067Y-83576799D01*
X160668887Y-83673713D01*
X160658311Y-83730446D01*
X160640410Y-83757597D01*
X160623250Y-83764443D01*
X160599341Y-83762844D01*
X160585858Y-83739761D01*
X160579963Y-83684975D01*
X160578800Y-83604292D01*
X160571482Y-83469986D01*
X160549002Y-83383151D01*
X160510572Y-83342532D01*
X160455402Y-83346877D01*
X160426400Y-83362217D01*
X160400873Y-83403232D01*
X160383057Y-83490593D01*
X160375600Y-83569383D01*
X160364009Y-83674762D01*
X160347251Y-83741691D01*
X160331163Y-83762967D01*
X160295548Y-83753071D01*
X160285917Y-83738218D01*
X160281356Y-83700578D01*
X160278589Y-83623003D01*
X160277807Y-83516331D01*
X160279198Y-83391402D01*
X160279553Y-83374156D01*
X160283462Y-83236478D01*
X160288834Y-83142176D01*
X160296691Y-83083829D01*
X160308055Y-83054016D01*
X160323946Y-83045314D01*
X160324800Y-83045300D01*
X160350034Y-83061731D01*
X160350034Y-83061731D01*
G37*
X160350034Y-83061731D02*
X160366901Y-83115953D01*
X160375600Y-83185000D01*
X160386039Y-83260394D01*
X160399096Y-83295639D01*
X160408849Y-83292950D01*
X160454842Y-83262949D01*
X160520730Y-83263867D01*
X160588571Y-83292725D01*
X160628773Y-83329418D01*
X160657907Y-83375237D01*
X160672963Y-83428899D01*
X160676954Y-83506507D01*
X160675067Y-83576799D01*
X160668887Y-83673713D01*
X160658311Y-83730446D01*
X160640410Y-83757597D01*
X160623250Y-83764443D01*
X160599341Y-83762844D01*
X160585858Y-83739761D01*
X160579963Y-83684975D01*
X160578800Y-83604292D01*
X160571482Y-83469986D01*
X160549002Y-83383151D01*
X160510572Y-83342532D01*
X160455402Y-83346877D01*
X160426400Y-83362217D01*
X160400873Y-83403232D01*
X160383057Y-83490593D01*
X160375600Y-83569383D01*
X160364009Y-83674762D01*
X160347251Y-83741691D01*
X160331163Y-83762967D01*
X160295548Y-83753071D01*
X160285917Y-83738218D01*
X160281356Y-83700578D01*
X160278589Y-83623003D01*
X160277807Y-83516331D01*
X160279198Y-83391402D01*
X160279553Y-83374156D01*
X160283462Y-83236478D01*
X160288834Y-83142176D01*
X160296691Y-83083829D01*
X160308055Y-83054016D01*
X160323946Y-83045314D01*
X160324800Y-83045300D01*
X160350034Y-83061731D01*
G36*
X160085875Y-83146255D02*
X160096179Y-83192389D01*
X160096200Y-83195837D01*
X160107391Y-83246557D01*
X160146556Y-83261199D01*
X160147000Y-83261200D01*
X160188951Y-83278611D01*
X160197800Y-83314962D01*
X160187052Y-83354469D01*
X160147167Y-83355484D01*
X160147000Y-83355440D01*
X160119681Y-83352421D01*
X160104416Y-83368300D01*
X160097744Y-83413420D01*
X160096205Y-83498121D01*
X160096200Y-83507255D01*
X160098158Y-83598061D01*
X160106338Y-83650287D01*
X160124198Y-83676079D01*
X160147000Y-83685640D01*
X160188279Y-83711154D01*
X160197800Y-83734062D01*
X160177802Y-83761300D01*
X160130376Y-83768137D01*
X160074370Y-83755124D01*
X160034514Y-83729285D01*
X160010292Y-83684931D01*
X159997588Y-83606909D01*
X159994600Y-83511886D01*
X159991547Y-83422292D01*
X159983279Y-83364896D01*
X159971133Y-83348908D01*
X159970955Y-83349015D01*
X159940727Y-83350452D01*
X159927715Y-83323037D01*
X159937939Y-83287471D01*
X159949656Y-83275763D01*
X159987685Y-83227219D01*
X159998278Y-83197358D01*
X160025826Y-83152210D01*
X160052041Y-83138979D01*
X160085875Y-83146255D01*
X160085875Y-83146255D01*
G37*
X160085875Y-83146255D02*
X160096179Y-83192389D01*
X160096200Y-83195837D01*
X160107391Y-83246557D01*
X160146556Y-83261199D01*
X160147000Y-83261200D01*
X160188951Y-83278611D01*
X160197800Y-83314962D01*
X160187052Y-83354469D01*
X160147167Y-83355484D01*
X160147000Y-83355440D01*
X160119681Y-83352421D01*
X160104416Y-83368300D01*
X160097744Y-83413420D01*
X160096205Y-83498121D01*
X160096200Y-83507255D01*
X160098158Y-83598061D01*
X160106338Y-83650287D01*
X160124198Y-83676079D01*
X160147000Y-83685640D01*
X160188279Y-83711154D01*
X160197800Y-83734062D01*
X160177802Y-83761300D01*
X160130376Y-83768137D01*
X160074370Y-83755124D01*
X160034514Y-83729285D01*
X160010292Y-83684931D01*
X159997588Y-83606909D01*
X159994600Y-83511886D01*
X159991547Y-83422292D01*
X159983279Y-83364896D01*
X159971133Y-83348908D01*
X159970955Y-83349015D01*
X159940727Y-83350452D01*
X159927715Y-83323037D01*
X159937939Y-83287471D01*
X159949656Y-83275763D01*
X159987685Y-83227219D01*
X159998278Y-83197358D01*
X160025826Y-83152210D01*
X160052041Y-83138979D01*
X160085875Y-83146255D01*
G36*
X159416136Y-83062583D02*
X159454311Y-83082696D01*
X159502527Y-83136496D01*
X159564880Y-83229037D01*
X159605596Y-83296431D01*
X159738520Y-83522162D01*
X159745910Y-83296431D01*
X159750400Y-83188483D01*
X159756911Y-83121644D01*
X159767941Y-83086225D01*
X159785986Y-83072538D01*
X159804100Y-83070700D01*
X159824423Y-83073587D01*
X159838724Y-83087494D01*
X159848308Y-83120284D01*
X159854475Y-83179822D01*
X159858530Y-83273974D01*
X159861776Y-83410603D01*
X159861966Y-83419950D01*
X159869033Y-83769200D01*
X159806592Y-83769200D01*
X159774021Y-83762309D01*
X159740707Y-83736667D01*
X159700361Y-83684812D01*
X159646697Y-83599286D01*
X159609025Y-83534845D01*
X159473900Y-83300490D01*
X159466596Y-83534845D01*
X159462231Y-83645305D01*
X159455959Y-83714462D01*
X159445467Y-83751812D01*
X159428437Y-83766850D01*
X159409446Y-83769200D01*
X159389754Y-83766373D01*
X159376062Y-83752710D01*
X159367286Y-83720430D01*
X159362341Y-83661758D01*
X159360142Y-83568914D01*
X159359604Y-83434121D01*
X159359600Y-83411833D01*
X159359833Y-83270950D01*
X159361358Y-83173227D01*
X159365412Y-83111026D01*
X159373231Y-83076706D01*
X159386051Y-83062630D01*
X159405110Y-83061157D01*
X159416136Y-83062583D01*
X159416136Y-83062583D01*
G37*
X159416136Y-83062583D02*
X159454311Y-83082696D01*
X159502527Y-83136496D01*
X159564880Y-83229037D01*
X159605596Y-83296431D01*
X159738520Y-83522162D01*
X159745910Y-83296431D01*
X159750400Y-83188483D01*
X159756911Y-83121644D01*
X159767941Y-83086225D01*
X159785986Y-83072538D01*
X159804100Y-83070700D01*
X159824423Y-83073587D01*
X159838724Y-83087494D01*
X159848308Y-83120284D01*
X159854475Y-83179822D01*
X159858530Y-83273974D01*
X159861776Y-83410603D01*
X159861966Y-83419950D01*
X159869033Y-83769200D01*
X159806592Y-83769200D01*
X159774021Y-83762309D01*
X159740707Y-83736667D01*
X159700361Y-83684812D01*
X159646697Y-83599286D01*
X159609025Y-83534845D01*
X159473900Y-83300490D01*
X159466596Y-83534845D01*
X159462231Y-83645305D01*
X159455959Y-83714462D01*
X159445467Y-83751812D01*
X159428437Y-83766850D01*
X159409446Y-83769200D01*
X159389754Y-83766373D01*
X159376062Y-83752710D01*
X159367286Y-83720430D01*
X159362341Y-83661758D01*
X159360142Y-83568914D01*
X159359604Y-83434121D01*
X159359600Y-83411833D01*
X159359833Y-83270950D01*
X159361358Y-83173227D01*
X159365412Y-83111026D01*
X159373231Y-83076706D01*
X159386051Y-83062630D01*
X159405110Y-83061157D01*
X159416136Y-83062583D01*
G36*
X159320863Y-83064209D02*
X159334200Y-83074883D01*
X159322754Y-83103498D01*
X159292291Y-83164883D01*
X159248618Y-83247488D01*
X159232600Y-83276886D01*
X159179390Y-83379562D01*
X159148499Y-83458731D01*
X159134262Y-83533284D01*
X159131000Y-83615603D01*
X159129679Y-83700476D01*
X159122444Y-83746442D01*
X159104380Y-83765387D01*
X159070574Y-83769193D01*
X159067500Y-83769200D01*
X159031764Y-83765792D01*
X159012787Y-83747464D01*
X159005291Y-83702053D01*
X159004000Y-83622838D01*
X158999540Y-83537043D01*
X158982492Y-83460085D01*
X158947349Y-83373607D01*
X158903068Y-83286288D01*
X158856954Y-83197424D01*
X158821728Y-83125793D01*
X158803049Y-83083053D01*
X158801468Y-83077050D01*
X158822728Y-83062828D01*
X158865473Y-83058000D01*
X158904137Y-83065059D01*
X158936369Y-83093008D01*
X158970941Y-83152002D01*
X158999311Y-83212892D01*
X159068476Y-83367785D01*
X159142508Y-83212892D01*
X159187588Y-83126235D01*
X159223905Y-83078188D01*
X159259469Y-83059409D01*
X159275370Y-83058000D01*
X159320863Y-83064209D01*
X159320863Y-83064209D01*
G37*
X159320863Y-83064209D02*
X159334200Y-83074883D01*
X159322754Y-83103498D01*
X159292291Y-83164883D01*
X159248618Y-83247488D01*
X159232600Y-83276886D01*
X159179390Y-83379562D01*
X159148499Y-83458731D01*
X159134262Y-83533284D01*
X159131000Y-83615603D01*
X159129679Y-83700476D01*
X159122444Y-83746442D01*
X159104380Y-83765387D01*
X159070574Y-83769193D01*
X159067500Y-83769200D01*
X159031764Y-83765792D01*
X159012787Y-83747464D01*
X159005291Y-83702053D01*
X159004000Y-83622838D01*
X158999540Y-83537043D01*
X158982492Y-83460085D01*
X158947349Y-83373607D01*
X158903068Y-83286288D01*
X158856954Y-83197424D01*
X158821728Y-83125793D01*
X158803049Y-83083053D01*
X158801468Y-83077050D01*
X158822728Y-83062828D01*
X158865473Y-83058000D01*
X158904137Y-83065059D01*
X158936369Y-83093008D01*
X158970941Y-83152002D01*
X158999311Y-83212892D01*
X159068476Y-83367785D01*
X159142508Y-83212892D01*
X159187588Y-83126235D01*
X159223905Y-83078188D01*
X159259469Y-83059409D01*
X159275370Y-83058000D01*
X159320863Y-83064209D01*
G36*
X158677774Y-83265763D02*
X158740896Y-83282993D01*
X158764527Y-83310763D01*
X158747322Y-83336884D01*
X158687938Y-83349167D01*
X158686966Y-83349181D01*
X158624992Y-83364284D01*
X158600078Y-83398473D01*
X158615905Y-83437953D01*
X158656688Y-83462722D01*
X158719589Y-83502993D01*
X158772749Y-83563425D01*
X158799916Y-83624573D01*
X158800800Y-83635151D01*
X158778306Y-83689696D01*
X158721952Y-83737239D01*
X158648432Y-83765766D01*
X158614533Y-83769200D01*
X158551772Y-83764553D01*
X158514080Y-83753266D01*
X158512933Y-83752266D01*
X158493456Y-83713160D01*
X158519144Y-83686551D01*
X158584945Y-83677269D01*
X158591250Y-83677402D01*
X158661491Y-83668646D01*
X158687104Y-83639729D01*
X158667887Y-83595121D01*
X158603641Y-83539291D01*
X158597600Y-83535177D01*
X158528923Y-83468308D01*
X158502653Y-83397057D01*
X158515588Y-83332180D01*
X158564529Y-83284435D01*
X158646273Y-83264575D01*
X158677774Y-83265763D01*
X158677774Y-83265763D01*
G37*
X158677774Y-83265763D02*
X158740896Y-83282993D01*
X158764527Y-83310763D01*
X158747322Y-83336884D01*
X158687938Y-83349167D01*
X158686966Y-83349181D01*
X158624992Y-83364284D01*
X158600078Y-83398473D01*
X158615905Y-83437953D01*
X158656688Y-83462722D01*
X158719589Y-83502993D01*
X158772749Y-83563425D01*
X158799916Y-83624573D01*
X158800800Y-83635151D01*
X158778306Y-83689696D01*
X158721952Y-83737239D01*
X158648432Y-83765766D01*
X158614533Y-83769200D01*
X158551772Y-83764553D01*
X158514080Y-83753266D01*
X158512933Y-83752266D01*
X158493456Y-83713160D01*
X158519144Y-83686551D01*
X158584945Y-83677269D01*
X158591250Y-83677402D01*
X158661491Y-83668646D01*
X158687104Y-83639729D01*
X158667887Y-83595121D01*
X158603641Y-83539291D01*
X158597600Y-83535177D01*
X158528923Y-83468308D01*
X158502653Y-83397057D01*
X158515588Y-83332180D01*
X158564529Y-83284435D01*
X158646273Y-83264575D01*
X158677774Y-83265763D01*
G36*
X162412049Y-84119089D02*
X162428138Y-84162755D01*
X162411872Y-84206759D01*
X162373014Y-84226400D01*
X162332651Y-84205979D01*
X162322927Y-84190157D01*
X162326038Y-84146913D01*
X162356744Y-84115051D01*
X162396454Y-84109396D01*
X162412049Y-84119089D01*
X162412049Y-84119089D01*
G37*
X162412049Y-84119089D02*
X162428138Y-84162755D01*
X162411872Y-84206759D01*
X162373014Y-84226400D01*
X162332651Y-84205979D01*
X162322927Y-84190157D01*
X162326038Y-84146913D01*
X162356744Y-84115051D01*
X162396454Y-84109396D01*
X162412049Y-84119089D01*
G36*
X160724113Y-84109890D02*
X160734572Y-84118012D01*
X160750687Y-84159784D01*
X160739524Y-84204303D01*
X160707780Y-84226340D01*
X160705800Y-84226400D01*
X160674436Y-84206014D01*
X160663530Y-84186592D01*
X160662457Y-84139640D01*
X160687718Y-84109182D01*
X160724113Y-84109890D01*
X160724113Y-84109890D01*
G37*
X160724113Y-84109890D02*
X160734572Y-84118012D01*
X160750687Y-84159784D01*
X160739524Y-84204303D01*
X160707780Y-84226340D01*
X160705800Y-84226400D01*
X160674436Y-84206014D01*
X160663530Y-84186592D01*
X160662457Y-84139640D01*
X160687718Y-84109182D01*
X160724113Y-84109890D01*
G36*
X164152600Y-84298455D02*
X164211530Y-84351724D01*
X164258770Y-84421256D01*
X164277702Y-84474050D01*
X164293550Y-84556600D01*
X164125275Y-84556600D01*
X164040292Y-84559321D01*
X163979799Y-84566453D01*
X163957000Y-84576348D01*
X163970242Y-84609728D01*
X163998201Y-84654920D01*
X164037329Y-84694427D01*
X164091050Y-84706729D01*
X164137382Y-84704400D01*
X164209095Y-84705238D01*
X164245604Y-84722437D01*
X164246830Y-84724945D01*
X164249413Y-84758353D01*
X164219971Y-84777128D01*
X164150884Y-84784615D01*
X164109594Y-84785200D01*
X164022659Y-84777855D01*
X163963166Y-84750672D01*
X163932563Y-84722726D01*
X163888825Y-84643661D01*
X163872979Y-84542043D01*
X163884193Y-84457990D01*
X163968218Y-84457990D01*
X163973866Y-84474697D01*
X164014813Y-84479973D01*
X164068201Y-84480400D01*
X164137439Y-84475830D01*
X164179604Y-84464239D01*
X164185600Y-84456814D01*
X164165189Y-84413796D01*
X164119350Y-84374529D01*
X164071170Y-84357826D01*
X164064901Y-84358481D01*
X164022762Y-84384090D01*
X163988686Y-84423250D01*
X163968218Y-84457990D01*
X163884193Y-84457990D01*
X163886746Y-84438857D01*
X163905526Y-84392757D01*
X163961254Y-84331002D01*
X164040478Y-84287815D01*
X164096478Y-84277200D01*
X164152600Y-84298455D01*
X164152600Y-84298455D01*
G37*
X164152600Y-84298455D02*
X164211530Y-84351724D01*
X164258770Y-84421256D01*
X164277702Y-84474050D01*
X164293550Y-84556600D01*
X164125275Y-84556600D01*
X164040292Y-84559321D01*
X163979799Y-84566453D01*
X163957000Y-84576348D01*
X163970242Y-84609728D01*
X163998201Y-84654920D01*
X164037329Y-84694427D01*
X164091050Y-84706729D01*
X164137382Y-84704400D01*
X164209095Y-84705238D01*
X164245604Y-84722437D01*
X164246830Y-84724945D01*
X164249413Y-84758353D01*
X164219971Y-84777128D01*
X164150884Y-84784615D01*
X164109594Y-84785200D01*
X164022659Y-84777855D01*
X163963166Y-84750672D01*
X163932563Y-84722726D01*
X163888825Y-84643661D01*
X163872979Y-84542043D01*
X163884193Y-84457990D01*
X163968218Y-84457990D01*
X163973866Y-84474697D01*
X164014813Y-84479973D01*
X164068201Y-84480400D01*
X164137439Y-84475830D01*
X164179604Y-84464239D01*
X164185600Y-84456814D01*
X164165189Y-84413796D01*
X164119350Y-84374529D01*
X164071170Y-84357826D01*
X164064901Y-84358481D01*
X164022762Y-84384090D01*
X163988686Y-84423250D01*
X163968218Y-84457990D01*
X163884193Y-84457990D01*
X163886746Y-84438857D01*
X163905526Y-84392757D01*
X163961254Y-84331002D01*
X164040478Y-84287815D01*
X164096478Y-84277200D01*
X164152600Y-84298455D01*
G36*
X163797843Y-84298974D02*
X163828877Y-84333020D01*
X163830000Y-84342411D01*
X163810231Y-84368584D01*
X163747566Y-84378576D01*
X163731510Y-84378800D01*
X163643373Y-84391193D01*
X163593398Y-84431847D01*
X163575553Y-84493100D01*
X163579196Y-84600716D01*
X163616126Y-84671335D01*
X163685247Y-84703537D01*
X163738124Y-84704210D01*
X163797120Y-84706199D01*
X163817132Y-84730434D01*
X163817300Y-84734400D01*
X163797607Y-84762492D01*
X163734927Y-84777963D01*
X163709641Y-84780296D01*
X163629095Y-84778703D01*
X163571885Y-84753868D01*
X163538191Y-84724300D01*
X163486068Y-84641007D01*
X163470912Y-84543735D01*
X163489179Y-84446032D01*
X163537319Y-84361440D01*
X163611786Y-84303505D01*
X163651938Y-84289957D01*
X163734340Y-84283287D01*
X163797843Y-84298974D01*
X163797843Y-84298974D01*
G37*
X163797843Y-84298974D02*
X163828877Y-84333020D01*
X163830000Y-84342411D01*
X163810231Y-84368584D01*
X163747566Y-84378576D01*
X163731510Y-84378800D01*
X163643373Y-84391193D01*
X163593398Y-84431847D01*
X163575553Y-84493100D01*
X163579196Y-84600716D01*
X163616126Y-84671335D01*
X163685247Y-84703537D01*
X163738124Y-84704210D01*
X163797120Y-84706199D01*
X163817132Y-84730434D01*
X163817300Y-84734400D01*
X163797607Y-84762492D01*
X163734927Y-84777963D01*
X163709641Y-84780296D01*
X163629095Y-84778703D01*
X163571885Y-84753868D01*
X163538191Y-84724300D01*
X163486068Y-84641007D01*
X163470912Y-84543735D01*
X163489179Y-84446032D01*
X163537319Y-84361440D01*
X163611786Y-84303505D01*
X163651938Y-84289957D01*
X163734340Y-84283287D01*
X163797843Y-84298974D01*
G36*
X163244395Y-84281723D02*
X163288899Y-84302981D01*
X163337736Y-84340603D01*
X163369406Y-84395196D01*
X163387363Y-84477218D01*
X163395058Y-84597128D01*
X163395668Y-84626450D01*
X163395363Y-84713707D01*
X163388662Y-84761644D01*
X163372181Y-84781649D01*
X163348512Y-84785200D01*
X163322282Y-84779642D01*
X163306299Y-84755879D01*
X163297213Y-84703271D01*
X163291674Y-84611180D01*
X163291362Y-84603711D01*
X163283968Y-84499929D01*
X163270450Y-84435912D01*
X163248101Y-84400738D01*
X163239450Y-84394291D01*
X163184572Y-84379974D01*
X163150550Y-84394291D01*
X163125087Y-84423057D01*
X163109251Y-84477454D01*
X163100336Y-84568401D01*
X163098637Y-84603711D01*
X163093210Y-84698684D01*
X163084450Y-84753495D01*
X163069008Y-84778782D01*
X163043532Y-84785184D01*
X163041487Y-84785200D01*
X163018375Y-84781299D01*
X163003786Y-84763330D01*
X162995785Y-84721895D01*
X162992436Y-84647593D01*
X162991800Y-84543900D01*
X162993163Y-84428874D01*
X162998150Y-84356081D01*
X163008106Y-84317005D01*
X163024374Y-84303130D01*
X163029900Y-84302600D01*
X163063710Y-84315688D01*
X163068000Y-84326818D01*
X163086851Y-84332003D01*
X163133276Y-84313588D01*
X163143904Y-84307768D01*
X163200978Y-84280552D01*
X163244395Y-84281723D01*
X163244395Y-84281723D01*
G37*
X163244395Y-84281723D02*
X163288899Y-84302981D01*
X163337736Y-84340603D01*
X163369406Y-84395196D01*
X163387363Y-84477218D01*
X163395058Y-84597128D01*
X163395668Y-84626450D01*
X163395363Y-84713707D01*
X163388662Y-84761644D01*
X163372181Y-84781649D01*
X163348512Y-84785200D01*
X163322282Y-84779642D01*
X163306299Y-84755879D01*
X163297213Y-84703271D01*
X163291674Y-84611180D01*
X163291362Y-84603711D01*
X163283968Y-84499929D01*
X163270450Y-84435912D01*
X163248101Y-84400738D01*
X163239450Y-84394291D01*
X163184572Y-84379974D01*
X163150550Y-84394291D01*
X163125087Y-84423057D01*
X163109251Y-84477454D01*
X163100336Y-84568401D01*
X163098637Y-84603711D01*
X163093210Y-84698684D01*
X163084450Y-84753495D01*
X163069008Y-84778782D01*
X163043532Y-84785184D01*
X163041487Y-84785200D01*
X163018375Y-84781299D01*
X163003786Y-84763330D01*
X162995785Y-84721895D01*
X162992436Y-84647593D01*
X162991800Y-84543900D01*
X162993163Y-84428874D01*
X162998150Y-84356081D01*
X163008106Y-84317005D01*
X163024374Y-84303130D01*
X163029900Y-84302600D01*
X163063710Y-84315688D01*
X163068000Y-84326818D01*
X163086851Y-84332003D01*
X163133276Y-84313588D01*
X163143904Y-84307768D01*
X163200978Y-84280552D01*
X163244395Y-84281723D01*
G36*
X162826404Y-84312284D02*
X162878439Y-84380616D01*
X162905268Y-84448268D01*
X162915600Y-84503378D01*
X162909836Y-84531320D01*
X162885107Y-84547853D01*
X162830257Y-84556940D01*
X162751234Y-84561789D01*
X162586869Y-84569300D01*
X162618765Y-84632800D01*
X162648455Y-84673952D01*
X162694419Y-84693110D01*
X162764080Y-84698236D01*
X162841243Y-84705458D01*
X162874856Y-84725064D01*
X162877500Y-84736336D01*
X162857071Y-84762160D01*
X162792768Y-84777125D01*
X162757077Y-84780232D01*
X162674631Y-84780206D01*
X162619221Y-84762267D01*
X162572927Y-84724236D01*
X162519316Y-84637612D01*
X162504766Y-84534854D01*
X162525146Y-84447539D01*
X162611396Y-84447539D01*
X162648994Y-84472729D01*
X162712400Y-84480400D01*
X162785830Y-84472951D01*
X162813588Y-84449917D01*
X162814000Y-84445410D01*
X162793260Y-84391008D01*
X162741724Y-84364404D01*
X162675415Y-84373686D01*
X162673547Y-84374521D01*
X162618634Y-84412222D01*
X162611396Y-84447539D01*
X162525146Y-84447539D01*
X162528829Y-84431764D01*
X162583446Y-84351446D01*
X162669206Y-84290757D01*
X162752401Y-84277922D01*
X162826404Y-84312284D01*
X162826404Y-84312284D01*
G37*
X162826404Y-84312284D02*
X162878439Y-84380616D01*
X162905268Y-84448268D01*
X162915600Y-84503378D01*
X162909836Y-84531320D01*
X162885107Y-84547853D01*
X162830257Y-84556940D01*
X162751234Y-84561789D01*
X162586869Y-84569300D01*
X162618765Y-84632800D01*
X162648455Y-84673952D01*
X162694419Y-84693110D01*
X162764080Y-84698236D01*
X162841243Y-84705458D01*
X162874856Y-84725064D01*
X162877500Y-84736336D01*
X162857071Y-84762160D01*
X162792768Y-84777125D01*
X162757077Y-84780232D01*
X162674631Y-84780206D01*
X162619221Y-84762267D01*
X162572927Y-84724236D01*
X162519316Y-84637612D01*
X162504766Y-84534854D01*
X162525146Y-84447539D01*
X162611396Y-84447539D01*
X162648994Y-84472729D01*
X162712400Y-84480400D01*
X162785830Y-84472951D01*
X162813588Y-84449917D01*
X162814000Y-84445410D01*
X162793260Y-84391008D01*
X162741724Y-84364404D01*
X162675415Y-84373686D01*
X162673547Y-84374521D01*
X162618634Y-84412222D01*
X162611396Y-84447539D01*
X162525146Y-84447539D01*
X162528829Y-84431764D01*
X162583446Y-84351446D01*
X162669206Y-84290757D01*
X162752401Y-84277922D01*
X162826404Y-84312284D01*
G36*
X162405810Y-84306243D02*
X162420712Y-84323456D01*
X162428888Y-84363663D01*
X162432322Y-84436285D01*
X162433000Y-84543900D01*
X162432232Y-84656050D01*
X162428609Y-84726832D01*
X162420144Y-84765668D01*
X162404855Y-84781981D01*
X162382200Y-84785200D01*
X162358589Y-84781556D01*
X162343687Y-84764343D01*
X162335511Y-84724136D01*
X162332077Y-84651514D01*
X162331400Y-84543900D01*
X162332167Y-84431749D01*
X162335790Y-84360967D01*
X162344255Y-84322131D01*
X162359544Y-84305818D01*
X162382200Y-84302600D01*
X162405810Y-84306243D01*
X162405810Y-84306243D01*
G37*
X162405810Y-84306243D02*
X162420712Y-84323456D01*
X162428888Y-84363663D01*
X162432322Y-84436285D01*
X162433000Y-84543900D01*
X162432232Y-84656050D01*
X162428609Y-84726832D01*
X162420144Y-84765668D01*
X162404855Y-84781981D01*
X162382200Y-84785200D01*
X162358589Y-84781556D01*
X162343687Y-84764343D01*
X162335511Y-84724136D01*
X162332077Y-84651514D01*
X162331400Y-84543900D01*
X162332167Y-84431749D01*
X162335790Y-84360967D01*
X162344255Y-84322131D01*
X162359544Y-84305818D01*
X162382200Y-84302600D01*
X162405810Y-84306243D01*
G36*
X162208182Y-84294061D02*
X162249082Y-84322226D01*
X162255200Y-84341183D01*
X162237251Y-84367850D01*
X162178805Y-84378379D01*
X162156710Y-84378800D01*
X162066018Y-84393504D01*
X162012539Y-84440756D01*
X161991699Y-84525261D01*
X161991040Y-84549249D01*
X162010491Y-84636875D01*
X162066120Y-84689922D01*
X162153841Y-84704787D01*
X162166300Y-84703836D01*
X162224046Y-84706698D01*
X162242479Y-84732977D01*
X162242500Y-84734400D01*
X162220636Y-84763189D01*
X162166231Y-84779344D01*
X162096062Y-84782402D01*
X162026907Y-84771903D01*
X161975543Y-84747385D01*
X161969878Y-84741890D01*
X161908385Y-84642963D01*
X161888887Y-84537776D01*
X161908844Y-84437463D01*
X161965714Y-84353155D01*
X162056956Y-84295985D01*
X162072883Y-84290610D01*
X162143622Y-84281906D01*
X162208182Y-84294061D01*
X162208182Y-84294061D01*
G37*
X162208182Y-84294061D02*
X162249082Y-84322226D01*
X162255200Y-84341183D01*
X162237251Y-84367850D01*
X162178805Y-84378379D01*
X162156710Y-84378800D01*
X162066018Y-84393504D01*
X162012539Y-84440756D01*
X161991699Y-84525261D01*
X161991040Y-84549249D01*
X162010491Y-84636875D01*
X162066120Y-84689922D01*
X162153841Y-84704787D01*
X162166300Y-84703836D01*
X162224046Y-84706698D01*
X162242479Y-84732977D01*
X162242500Y-84734400D01*
X162220636Y-84763189D01*
X162166231Y-84779344D01*
X162096062Y-84782402D01*
X162026907Y-84771903D01*
X161975543Y-84747385D01*
X161969878Y-84741890D01*
X161908385Y-84642963D01*
X161888887Y-84537776D01*
X161908844Y-84437463D01*
X161965714Y-84353155D01*
X162056956Y-84295985D01*
X162072883Y-84290610D01*
X162143622Y-84281906D01*
X162208182Y-84294061D01*
G36*
X161136148Y-84287873D02*
X161178193Y-84319062D01*
X161183652Y-84334350D01*
X161178985Y-84365108D01*
X161141407Y-84377493D01*
X161105299Y-84378800D01*
X161016288Y-84399000D01*
X160957721Y-84452305D01*
X160934737Y-84527773D01*
X160952474Y-84614461D01*
X160975630Y-84654961D01*
X161019144Y-84696726D01*
X161079515Y-84705884D01*
X161101902Y-84703898D01*
X161165074Y-84707150D01*
X161202353Y-84728637D01*
X161202772Y-84760581D01*
X161195116Y-84770016D01*
X161155795Y-84782449D01*
X161088074Y-84784429D01*
X161012956Y-84777345D01*
X160951443Y-84762584D01*
X160932198Y-84752642D01*
X160866653Y-84674413D01*
X160837464Y-84578191D01*
X160843123Y-84477673D01*
X160882122Y-84386556D01*
X160952953Y-84318537D01*
X160981590Y-84304095D01*
X161066223Y-84282226D01*
X161136148Y-84287873D01*
X161136148Y-84287873D01*
G37*
X161136148Y-84287873D02*
X161178193Y-84319062D01*
X161183652Y-84334350D01*
X161178985Y-84365108D01*
X161141407Y-84377493D01*
X161105299Y-84378800D01*
X161016288Y-84399000D01*
X160957721Y-84452305D01*
X160934737Y-84527773D01*
X160952474Y-84614461D01*
X160975630Y-84654961D01*
X161019144Y-84696726D01*
X161079515Y-84705884D01*
X161101902Y-84703898D01*
X161165074Y-84707150D01*
X161202353Y-84728637D01*
X161202772Y-84760581D01*
X161195116Y-84770016D01*
X161155795Y-84782449D01*
X161088074Y-84784429D01*
X161012956Y-84777345D01*
X160951443Y-84762584D01*
X160932198Y-84752642D01*
X160866653Y-84674413D01*
X160837464Y-84578191D01*
X160843123Y-84477673D01*
X160882122Y-84386556D01*
X160952953Y-84318537D01*
X160981590Y-84304095D01*
X161066223Y-84282226D01*
X161136148Y-84287873D01*
G36*
X160729410Y-84306243D02*
X160744312Y-84323456D01*
X160752488Y-84363663D01*
X160755922Y-84436285D01*
X160756600Y-84543900D01*
X160755832Y-84656050D01*
X160752209Y-84726832D01*
X160743744Y-84765668D01*
X160728455Y-84781981D01*
X160705800Y-84785200D01*
X160682189Y-84781556D01*
X160667287Y-84764343D01*
X160659111Y-84724136D01*
X160655677Y-84651514D01*
X160655000Y-84543900D01*
X160655767Y-84431749D01*
X160659390Y-84360967D01*
X160667855Y-84322131D01*
X160683144Y-84305818D01*
X160705800Y-84302600D01*
X160729410Y-84306243D01*
X160729410Y-84306243D01*
G37*
X160729410Y-84306243D02*
X160744312Y-84323456D01*
X160752488Y-84363663D01*
X160755922Y-84436285D01*
X160756600Y-84543900D01*
X160755832Y-84656050D01*
X160752209Y-84726832D01*
X160743744Y-84765668D01*
X160728455Y-84781981D01*
X160705800Y-84785200D01*
X160682189Y-84781556D01*
X160667287Y-84764343D01*
X160659111Y-84724136D01*
X160655677Y-84651514D01*
X160655000Y-84543900D01*
X160655767Y-84431749D01*
X160659390Y-84360967D01*
X160667855Y-84322131D01*
X160683144Y-84305818D01*
X160705800Y-84302600D01*
X160729410Y-84306243D01*
G36*
X160163505Y-84291023D02*
X160200594Y-84317829D01*
X160237778Y-84344197D01*
X160272241Y-84337998D01*
X160303496Y-84317829D01*
X160380366Y-84281411D01*
X160445543Y-84292746D01*
X160500756Y-84344125D01*
X160529929Y-84392111D01*
X160546218Y-84452993D01*
X160552779Y-84542002D01*
X160553400Y-84598125D01*
X160552112Y-84694570D01*
X160546373Y-84750819D01*
X160533373Y-84777448D01*
X160510299Y-84785035D01*
X160503668Y-84785200D01*
X160478298Y-84780070D01*
X160462522Y-84757835D01*
X160453358Y-84708221D01*
X160447824Y-84620958D01*
X160446518Y-84588350D01*
X160441740Y-84489059D01*
X160434242Y-84429587D01*
X160420390Y-84398962D01*
X160396550Y-84386211D01*
X160378472Y-84382927D01*
X160329743Y-84384997D01*
X160298471Y-84412779D01*
X160281271Y-84473775D01*
X160274761Y-84575492D01*
X160274388Y-84613750D01*
X160272651Y-84705283D01*
X160265818Y-84757043D01*
X160250677Y-84780018D01*
X160224268Y-84785200D01*
X160198898Y-84780070D01*
X160183122Y-84757835D01*
X160173958Y-84708221D01*
X160168424Y-84620958D01*
X160167118Y-84588350D01*
X160162340Y-84489059D01*
X160154842Y-84429587D01*
X160140990Y-84398962D01*
X160117150Y-84386211D01*
X160099072Y-84382927D01*
X160050343Y-84384997D01*
X160019071Y-84412779D01*
X160001871Y-84473775D01*
X159995361Y-84575492D01*
X159994988Y-84613750D01*
X159993301Y-84705174D01*
X159986565Y-84756866D01*
X159971485Y-84779861D01*
X159944765Y-84785197D01*
X159943800Y-84785200D01*
X159920189Y-84781556D01*
X159905287Y-84764343D01*
X159897111Y-84724136D01*
X159893677Y-84651514D01*
X159893000Y-84543900D01*
X159894363Y-84428874D01*
X159899350Y-84356081D01*
X159909306Y-84317005D01*
X159925574Y-84303130D01*
X159931100Y-84302600D01*
X159964889Y-84317076D01*
X159969200Y-84329440D01*
X159986315Y-84336866D01*
X160025651Y-84316740D01*
X160099796Y-84281088D01*
X160163505Y-84291023D01*
X160163505Y-84291023D01*
G37*
X160163505Y-84291023D02*
X160200594Y-84317829D01*
X160237778Y-84344197D01*
X160272241Y-84337998D01*
X160303496Y-84317829D01*
X160380366Y-84281411D01*
X160445543Y-84292746D01*
X160500756Y-84344125D01*
X160529929Y-84392111D01*
X160546218Y-84452993D01*
X160552779Y-84542002D01*
X160553400Y-84598125D01*
X160552112Y-84694570D01*
X160546373Y-84750819D01*
X160533373Y-84777448D01*
X160510299Y-84785035D01*
X160503668Y-84785200D01*
X160478298Y-84780070D01*
X160462522Y-84757835D01*
X160453358Y-84708221D01*
X160447824Y-84620958D01*
X160446518Y-84588350D01*
X160441740Y-84489059D01*
X160434242Y-84429587D01*
X160420390Y-84398962D01*
X160396550Y-84386211D01*
X160378472Y-84382927D01*
X160329743Y-84384997D01*
X160298471Y-84412779D01*
X160281271Y-84473775D01*
X160274761Y-84575492D01*
X160274388Y-84613750D01*
X160272651Y-84705283D01*
X160265818Y-84757043D01*
X160250677Y-84780018D01*
X160224268Y-84785200D01*
X160198898Y-84780070D01*
X160183122Y-84757835D01*
X160173958Y-84708221D01*
X160168424Y-84620958D01*
X160167118Y-84588350D01*
X160162340Y-84489059D01*
X160154842Y-84429587D01*
X160140990Y-84398962D01*
X160117150Y-84386211D01*
X160099072Y-84382927D01*
X160050343Y-84384997D01*
X160019071Y-84412779D01*
X160001871Y-84473775D01*
X159995361Y-84575492D01*
X159994988Y-84613750D01*
X159993301Y-84705174D01*
X159986565Y-84756866D01*
X159971485Y-84779861D01*
X159944765Y-84785197D01*
X159943800Y-84785200D01*
X159920189Y-84781556D01*
X159905287Y-84764343D01*
X159897111Y-84724136D01*
X159893677Y-84651514D01*
X159893000Y-84543900D01*
X159894363Y-84428874D01*
X159899350Y-84356081D01*
X159909306Y-84317005D01*
X159925574Y-84303130D01*
X159931100Y-84302600D01*
X159964889Y-84317076D01*
X159969200Y-84329440D01*
X159986315Y-84336866D01*
X160025651Y-84316740D01*
X160099796Y-84281088D01*
X160163505Y-84291023D01*
G36*
X159726026Y-84287160D02*
X159781250Y-84313824D01*
X159791826Y-84345505D01*
X159760452Y-84368799D01*
X159708850Y-84372546D01*
X159646331Y-84379130D01*
X159625743Y-84407853D01*
X159646805Y-84452586D01*
X159709237Y-84507205D01*
X159715200Y-84511274D01*
X159785573Y-84579490D01*
X159811300Y-84651312D01*
X159795243Y-84716403D01*
X159740269Y-84764425D01*
X159649240Y-84785042D01*
X159639296Y-84785200D01*
X159573503Y-84780976D01*
X159532123Y-84770581D01*
X159528933Y-84768266D01*
X159507342Y-84728262D01*
X159529302Y-84703311D01*
X159588367Y-84699462D01*
X159600449Y-84701147D01*
X159664680Y-84705367D01*
X159697457Y-84687102D01*
X159706581Y-84669421D01*
X159704417Y-84620116D01*
X159677975Y-84596321D01*
X159624806Y-84560442D01*
X159567997Y-84516502D01*
X159524091Y-84455551D01*
X159521644Y-84390965D01*
X159553351Y-84333346D01*
X159611906Y-84293295D01*
X159690005Y-84281414D01*
X159726026Y-84287160D01*
X159726026Y-84287160D01*
G37*
X159726026Y-84287160D02*
X159781250Y-84313824D01*
X159791826Y-84345505D01*
X159760452Y-84368799D01*
X159708850Y-84372546D01*
X159646331Y-84379130D01*
X159625743Y-84407853D01*
X159646805Y-84452586D01*
X159709237Y-84507205D01*
X159715200Y-84511274D01*
X159785573Y-84579490D01*
X159811300Y-84651312D01*
X159795243Y-84716403D01*
X159740269Y-84764425D01*
X159649240Y-84785042D01*
X159639296Y-84785200D01*
X159573503Y-84780976D01*
X159532123Y-84770581D01*
X159528933Y-84768266D01*
X159507342Y-84728262D01*
X159529302Y-84703311D01*
X159588367Y-84699462D01*
X159600449Y-84701147D01*
X159664680Y-84705367D01*
X159697457Y-84687102D01*
X159706581Y-84669421D01*
X159704417Y-84620116D01*
X159677975Y-84596321D01*
X159624806Y-84560442D01*
X159567997Y-84516502D01*
X159524091Y-84455551D01*
X159521644Y-84390965D01*
X159553351Y-84333346D01*
X159611906Y-84293295D01*
X159690005Y-84281414D01*
X159726026Y-84287160D01*
G36*
X159320348Y-84303895D02*
X159385463Y-84354490D01*
X159432815Y-84426021D01*
X159456425Y-84511114D01*
X159450311Y-84602399D01*
X159408492Y-84692501D01*
X159381578Y-84725342D01*
X159310641Y-84768653D01*
X159216808Y-84785494D01*
X159122527Y-84772303D01*
X159111415Y-84768199D01*
X159068512Y-84728405D01*
X159031533Y-84655878D01*
X159008216Y-84568654D01*
X159008083Y-84567042D01*
X159106898Y-84567042D01*
X159129518Y-84655274D01*
X159131893Y-84659869D01*
X159177831Y-84700446D01*
X159240295Y-84705099D01*
X159300631Y-84674555D01*
X159320059Y-84652548D01*
X159350689Y-84582758D01*
X159359600Y-84525548D01*
X159343687Y-84462164D01*
X159305076Y-84400871D01*
X159257459Y-84360228D01*
X159232600Y-84353400D01*
X159197559Y-84369794D01*
X159156400Y-84404200D01*
X159116585Y-84475774D01*
X159106898Y-84567042D01*
X159008083Y-84567042D01*
X159004000Y-84517807D01*
X159019107Y-84433093D01*
X159071349Y-84358479D01*
X159078246Y-84351446D01*
X159160759Y-84295000D01*
X159243453Y-84281608D01*
X159320348Y-84303895D01*
X159320348Y-84303895D01*
G37*
X159320348Y-84303895D02*
X159385463Y-84354490D01*
X159432815Y-84426021D01*
X159456425Y-84511114D01*
X159450311Y-84602399D01*
X159408492Y-84692501D01*
X159381578Y-84725342D01*
X159310641Y-84768653D01*
X159216808Y-84785494D01*
X159122527Y-84772303D01*
X159111415Y-84768199D01*
X159068512Y-84728405D01*
X159031533Y-84655878D01*
X159008216Y-84568654D01*
X159008083Y-84567042D01*
X159106898Y-84567042D01*
X159129518Y-84655274D01*
X159131893Y-84659869D01*
X159177831Y-84700446D01*
X159240295Y-84705099D01*
X159300631Y-84674555D01*
X159320059Y-84652548D01*
X159350689Y-84582758D01*
X159359600Y-84525548D01*
X159343687Y-84462164D01*
X159305076Y-84400871D01*
X159257459Y-84360228D01*
X159232600Y-84353400D01*
X159197559Y-84369794D01*
X159156400Y-84404200D01*
X159116585Y-84475774D01*
X159106898Y-84567042D01*
X159008083Y-84567042D01*
X159004000Y-84517807D01*
X159019107Y-84433093D01*
X159071349Y-84358479D01*
X159078246Y-84351446D01*
X159160759Y-84295000D01*
X159243453Y-84281608D01*
X159320348Y-84303895D01*
G36*
X161756233Y-84098005D02*
X161802993Y-84129595D01*
X161806847Y-84169912D01*
X161786859Y-84201547D01*
X161739962Y-84214645D01*
X161688210Y-84215756D01*
X161620991Y-84217475D01*
X161590352Y-84231530D01*
X161582252Y-84266028D01*
X161582100Y-84277000D01*
X161595451Y-84327210D01*
X161642953Y-84367430D01*
X161676692Y-84384840D01*
X161771429Y-84449355D01*
X161827110Y-84529908D01*
X161841274Y-84617266D01*
X161811459Y-84702192D01*
X161773131Y-84746618D01*
X161705417Y-84781953D01*
X161613075Y-84800187D01*
X161520332Y-84798153D01*
X161474150Y-84785708D01*
X161426066Y-84755694D01*
X161423093Y-84717865D01*
X161437737Y-84690274D01*
X161474194Y-84671229D01*
X161532832Y-84680397D01*
X161607221Y-84689203D01*
X161666671Y-84680230D01*
X161713508Y-84645408D01*
X161715734Y-84596547D01*
X161675467Y-84539537D01*
X161594828Y-84480273D01*
X161505108Y-84408661D01*
X161454273Y-84326783D01*
X161443600Y-84243702D01*
X161474362Y-84168480D01*
X161543106Y-84112561D01*
X161624047Y-84079939D01*
X161694875Y-84079311D01*
X161756233Y-84098005D01*
X161756233Y-84098005D01*
G37*
X161756233Y-84098005D02*
X161802993Y-84129595D01*
X161806847Y-84169912D01*
X161786859Y-84201547D01*
X161739962Y-84214645D01*
X161688210Y-84215756D01*
X161620991Y-84217475D01*
X161590352Y-84231530D01*
X161582252Y-84266028D01*
X161582100Y-84277000D01*
X161595451Y-84327210D01*
X161642953Y-84367430D01*
X161676692Y-84384840D01*
X161771429Y-84449355D01*
X161827110Y-84529908D01*
X161841274Y-84617266D01*
X161811459Y-84702192D01*
X161773131Y-84746618D01*
X161705417Y-84781953D01*
X161613075Y-84800187D01*
X161520332Y-84798153D01*
X161474150Y-84785708D01*
X161426066Y-84755694D01*
X161423093Y-84717865D01*
X161437737Y-84690274D01*
X161474194Y-84671229D01*
X161532832Y-84680397D01*
X161607221Y-84689203D01*
X161666671Y-84680230D01*
X161713508Y-84645408D01*
X161715734Y-84596547D01*
X161675467Y-84539537D01*
X161594828Y-84480273D01*
X161505108Y-84408661D01*
X161454273Y-84326783D01*
X161443600Y-84243702D01*
X161474362Y-84168480D01*
X161543106Y-84112561D01*
X161624047Y-84079939D01*
X161694875Y-84079311D01*
X161756233Y-84098005D01*
G36*
X158920729Y-84092772D02*
X158965265Y-84122947D01*
X158973692Y-84158271D01*
X158962792Y-84190836D01*
X158933355Y-84205104D01*
X158871454Y-84206139D01*
X158845969Y-84204720D01*
X158732318Y-84215546D01*
X158652833Y-84263937D01*
X158608066Y-84349373D01*
X158597600Y-84439729D01*
X158616832Y-84556268D01*
X158672057Y-84638415D01*
X158759569Y-84683472D01*
X158875659Y-84688742D01*
X158927196Y-84679589D01*
X158961067Y-84693325D01*
X158972979Y-84724739D01*
X158958975Y-84770314D01*
X158908627Y-84799500D01*
X158834071Y-84811087D01*
X158747440Y-84803864D01*
X158660871Y-84776623D01*
X158627821Y-84759148D01*
X158539122Y-84678467D01*
X158487242Y-84574666D01*
X158471284Y-84458656D01*
X158490350Y-84341350D01*
X158543543Y-84233657D01*
X158629965Y-84146489D01*
X158680702Y-84116254D01*
X158765866Y-84087621D01*
X158850069Y-84080395D01*
X158920729Y-84092772D01*
X158920729Y-84092772D01*
G37*
X158920729Y-84092772D02*
X158965265Y-84122947D01*
X158973692Y-84158271D01*
X158962792Y-84190836D01*
X158933355Y-84205104D01*
X158871454Y-84206139D01*
X158845969Y-84204720D01*
X158732318Y-84215546D01*
X158652833Y-84263937D01*
X158608066Y-84349373D01*
X158597600Y-84439729D01*
X158616832Y-84556268D01*
X158672057Y-84638415D01*
X158759569Y-84683472D01*
X158875659Y-84688742D01*
X158927196Y-84679589D01*
X158961067Y-84693325D01*
X158972979Y-84724739D01*
X158958975Y-84770314D01*
X158908627Y-84799500D01*
X158834071Y-84811087D01*
X158747440Y-84803864D01*
X158660871Y-84776623D01*
X158627821Y-84759148D01*
X158539122Y-84678467D01*
X158487242Y-84574666D01*
X158471284Y-84458656D01*
X158490350Y-84341350D01*
X158543543Y-84233657D01*
X158629965Y-84146489D01*
X158680702Y-84116254D01*
X158765866Y-84087621D01*
X158850069Y-84080395D01*
X158920729Y-84092772D01*
G36*
X171607108Y-73935323D02*
X171580850Y-74015802D01*
X171575849Y-74030281D01*
X171514202Y-74220888D01*
X171464796Y-74400161D01*
X171428940Y-74561114D01*
X171407944Y-74696763D01*
X171403116Y-74800121D01*
X171415766Y-74864204D01*
X171418638Y-74869101D01*
X171448977Y-74873489D01*
X171520785Y-74856159D01*
X171635468Y-74816698D01*
X171754800Y-74770605D01*
X171911485Y-74712115D01*
X172093457Y-74650289D01*
X172276470Y-74593080D01*
X172415200Y-74553906D01*
X172537337Y-74522283D01*
X172636040Y-74499034D01*
X172723186Y-74482837D01*
X172810652Y-74472368D01*
X172910315Y-74466303D01*
X173034053Y-74463318D01*
X173193743Y-74462090D01*
X173240700Y-74461902D01*
X173413359Y-74461747D01*
X173544840Y-74463307D01*
X173644760Y-74467420D01*
X173722732Y-74474923D01*
X173788371Y-74486653D01*
X173851292Y-74503448D01*
X173901100Y-74519409D01*
X174173911Y-74633881D01*
X174409601Y-74783024D01*
X174608413Y-74967090D01*
X174770591Y-75186331D01*
X174896378Y-75441002D01*
X174956027Y-75616214D01*
X174987597Y-75761869D01*
X175010679Y-75943941D01*
X175024656Y-76148658D01*
X175028908Y-76362252D01*
X175022820Y-76570951D01*
X175006951Y-76751691D01*
X174942662Y-77123930D01*
X174840350Y-77521637D01*
X174702311Y-77939383D01*
X174530845Y-78371734D01*
X174328248Y-78813259D01*
X174096817Y-79258526D01*
X173838851Y-79702104D01*
X173604030Y-80068391D01*
X173360607Y-80421976D01*
X173116956Y-80754555D01*
X172864533Y-81076753D01*
X172594791Y-81399194D01*
X172299185Y-81732502D01*
X172043437Y-82008694D01*
X171728220Y-82343689D01*
X171809459Y-82436215D01*
X171883878Y-82501060D01*
X172003589Y-82577072D01*
X172170317Y-82665331D01*
X172197399Y-82678671D01*
X172308480Y-82733431D01*
X172399715Y-82779288D01*
X172463204Y-82812201D01*
X172491044Y-82828131D01*
X172491400Y-82828997D01*
X172462995Y-82821952D01*
X172398374Y-82802839D01*
X172309637Y-82775277D01*
X172275500Y-82764425D01*
X172115977Y-82723258D01*
X171942942Y-82694178D01*
X171856400Y-82685909D01*
X171745792Y-82680600D01*
X171669200Y-82682975D01*
X171610113Y-82695424D01*
X171552024Y-82720338D01*
X171526574Y-82733680D01*
X171417173Y-82817922D01*
X171309282Y-82951394D01*
X171203943Y-83132528D01*
X171102196Y-83359756D01*
X171088973Y-83393409D01*
X171046632Y-83499726D01*
X171010475Y-83584826D01*
X170984450Y-83639791D01*
X170972689Y-83655955D01*
X170976027Y-83629152D01*
X170993057Y-83564314D01*
X171020946Y-83471444D01*
X171053458Y-83370750D01*
X171092820Y-83245634D01*
X171127173Y-83124116D01*
X171152128Y-83022419D01*
X171161885Y-82970040D01*
X171178987Y-82843980D01*
X170990643Y-83008196D01*
X170549215Y-83373613D01*
X170095880Y-83711486D01*
X169635430Y-84019134D01*
X169172659Y-84293877D01*
X168712360Y-84533031D01*
X168259326Y-84733918D01*
X167818351Y-84893854D01*
X167424100Y-85003300D01*
X167295252Y-85031832D01*
X167184848Y-85051698D01*
X167077717Y-85064430D01*
X166958686Y-85071561D01*
X166812581Y-85074623D01*
X166712900Y-85075133D01*
X166459998Y-85069007D01*
X166245620Y-85047490D01*
X166058979Y-85007420D01*
X165889293Y-84945633D01*
X165725775Y-84858964D01*
X165557642Y-84744251D01*
X165540108Y-84731076D01*
X165447501Y-84664688D01*
X165380904Y-84632256D01*
X165327820Y-84634605D01*
X165275748Y-84672557D01*
X165212192Y-84746939D01*
X165207394Y-84753018D01*
X165124656Y-84875112D01*
X165039420Y-85035631D01*
X164949079Y-85239639D01*
X164920329Y-85310740D01*
X164882639Y-85403008D01*
X164850934Y-85475752D01*
X164830483Y-85517052D01*
X164827045Y-85521800D01*
X164821130Y-85514410D01*
X164826062Y-85496285D01*
X164899836Y-85279353D01*
X164953724Y-85098650D01*
X164990088Y-84944735D01*
X165011287Y-84808167D01*
X165017790Y-84729143D01*
X165022493Y-84618766D01*
X165020281Y-84543096D01*
X165008548Y-84486221D01*
X164984686Y-84432232D01*
X164962758Y-84393404D01*
X164889882Y-84296793D01*
X164785868Y-84206654D01*
X164779582Y-84202734D01*
X164995343Y-84202734D01*
X165060550Y-84280228D01*
X165109046Y-84356288D01*
X165147708Y-84447938D01*
X165153935Y-84469630D01*
X165182114Y-84581538D01*
X165255220Y-84520024D01*
X165315676Y-84475727D01*
X165367666Y-84448082D01*
X165372912Y-84446415D01*
X165431342Y-84431756D01*
X165488878Y-84418393D01*
X165560256Y-84402465D01*
X165496983Y-84327269D01*
X165456744Y-84275634D01*
X165430637Y-84227007D01*
X165410200Y-84162095D01*
X165393593Y-84091521D01*
X165377665Y-84020143D01*
X165302469Y-84083416D01*
X165250834Y-84123655D01*
X165202207Y-84149762D01*
X165137295Y-84170199D01*
X165066721Y-84186806D01*
X164995343Y-84202734D01*
X164779582Y-84202734D01*
X164644463Y-84118485D01*
X164459408Y-84027785D01*
X164447027Y-84022273D01*
X164353248Y-83979215D01*
X164276967Y-83941453D01*
X164224142Y-83912467D01*
X164200730Y-83895736D01*
X164212687Y-83894742D01*
X164249100Y-83906652D01*
X164412167Y-83959821D01*
X164579836Y-84003448D01*
X164736314Y-84034033D01*
X164865810Y-84048077D01*
X164889658Y-84048600D01*
X164978042Y-84047151D01*
X165025459Y-84040842D01*
X165041703Y-84026727D01*
X165037474Y-84004150D01*
X164993985Y-83853985D01*
X164962076Y-83665580D01*
X164942179Y-83450255D01*
X164936154Y-83263568D01*
X165141066Y-83263568D01*
X165148655Y-83459893D01*
X165165220Y-83634795D01*
X165185706Y-83752698D01*
X165231599Y-83952097D01*
X165304785Y-83881980D01*
X165358406Y-83815867D01*
X165423232Y-83713122D01*
X165493233Y-83584901D01*
X165562377Y-83442359D01*
X165624634Y-83296651D01*
X165633511Y-83273900D01*
X165674560Y-83171485D01*
X165700300Y-83116293D01*
X165710513Y-83107040D01*
X165704980Y-83142442D01*
X165683482Y-83221214D01*
X165645802Y-83342074D01*
X165645343Y-83343491D01*
X165579942Y-83560223D01*
X165537861Y-83739345D01*
X165518763Y-83888207D01*
X165522316Y-84014156D01*
X165548185Y-84124540D01*
X165596037Y-84226708D01*
X165604544Y-84240892D01*
X165668818Y-84314491D01*
X165772201Y-84396017D01*
X165905066Y-84479056D01*
X166057789Y-84557195D01*
X166121401Y-84585271D01*
X166226841Y-84631630D01*
X166296387Y-84666055D01*
X166327805Y-84686637D01*
X166318859Y-84691467D01*
X166267313Y-84678636D01*
X166208083Y-84659295D01*
X166121206Y-84632526D01*
X166012604Y-84603442D01*
X165896805Y-84575412D01*
X165788336Y-84551805D01*
X165701723Y-84535994D01*
X165655934Y-84531200D01*
X165639276Y-84542157D01*
X165660222Y-84571237D01*
X165711504Y-84612748D01*
X165785852Y-84660998D01*
X165875999Y-84710296D01*
X165899191Y-84721658D01*
X166145965Y-84813508D01*
X166421944Y-84868399D01*
X166720808Y-84885686D01*
X167036238Y-84864722D01*
X167144700Y-84849002D01*
X167558889Y-84759106D01*
X167989908Y-84623406D01*
X168435316Y-84443104D01*
X168892671Y-84219400D01*
X169359532Y-83953493D01*
X169833457Y-83646584D01*
X170312006Y-83299873D01*
X170341187Y-83277544D01*
X170486028Y-83164508D01*
X170629280Y-83049323D01*
X170765403Y-82936782D01*
X170888855Y-82831678D01*
X170994097Y-82738802D01*
X171075588Y-82662947D01*
X171127788Y-82608906D01*
X171145200Y-82582095D01*
X171123239Y-82524917D01*
X171062377Y-82453394D01*
X170970144Y-82373790D01*
X170920032Y-82338637D01*
X171159814Y-82338637D01*
X171185021Y-82377374D01*
X171204931Y-82403950D01*
X171253816Y-82484852D01*
X171293780Y-82577531D01*
X171298692Y-82592940D01*
X171330136Y-82699381D01*
X171421818Y-82636843D01*
X171504841Y-82592290D01*
X171592907Y-82562041D01*
X171608750Y-82558906D01*
X171678054Y-82542900D01*
X171700024Y-82520597D01*
X171678119Y-82484918D01*
X171655520Y-82463200D01*
X171593608Y-82376137D01*
X171546809Y-82240781D01*
X171540371Y-82213013D01*
X171525013Y-82142726D01*
X171468456Y-82196949D01*
X171388566Y-82255351D01*
X171293042Y-82300333D01*
X171205661Y-82321052D01*
X171195523Y-82321400D01*
X171163750Y-82323799D01*
X171159814Y-82338637D01*
X170920032Y-82338637D01*
X170854072Y-82292368D01*
X170721692Y-82215394D01*
X170676993Y-82192664D01*
X170571437Y-82142214D01*
X170481032Y-82101480D01*
X170416397Y-82075092D01*
X170389728Y-82067400D01*
X170360073Y-82053082D01*
X170357800Y-82044685D01*
X170380056Y-82041971D01*
X170439783Y-82053473D01*
X170526417Y-82076875D01*
X170580351Y-82093540D01*
X170793884Y-82153463D01*
X170973147Y-82183378D01*
X171124909Y-82183215D01*
X171255939Y-82152906D01*
X171373008Y-82092380D01*
X171383247Y-82085339D01*
X171458662Y-82012895D01*
X171541238Y-81899641D01*
X171625793Y-81754045D01*
X171707147Y-81584575D01*
X171744414Y-81495029D01*
X171784765Y-81395949D01*
X171818466Y-81318551D01*
X171841253Y-81272315D01*
X171848487Y-81263621D01*
X171844924Y-81289903D01*
X171828505Y-81354558D01*
X171801939Y-81447601D01*
X171770976Y-81549332D01*
X171726077Y-81702528D01*
X171691469Y-81839768D01*
X171668442Y-81954005D01*
X171658290Y-82038187D01*
X171662303Y-82085267D01*
X171671368Y-82092800D01*
X171695934Y-82075135D01*
X171748022Y-82026545D01*
X171820922Y-81953641D01*
X171907925Y-81863029D01*
X171946802Y-81821555D01*
X172411088Y-81301423D01*
X172839302Y-80777889D01*
X173230101Y-80253300D01*
X173582141Y-79730000D01*
X173894080Y-79210334D01*
X174164575Y-78696646D01*
X174392283Y-78191283D01*
X174575861Y-77696587D01*
X174713965Y-77214905D01*
X174787121Y-76862274D01*
X174809643Y-76687117D01*
X174822983Y-76487890D01*
X174827098Y-76280111D01*
X174821947Y-76079296D01*
X174807488Y-75900963D01*
X174790022Y-75788910D01*
X174731318Y-75585056D01*
X174642723Y-75383125D01*
X174532601Y-75199369D01*
X174410185Y-75050906D01*
X174278578Y-74939257D01*
X174120518Y-74835735D01*
X173955425Y-74751757D01*
X173817691Y-74702542D01*
X173540156Y-74652249D01*
X173233972Y-74640482D01*
X172903039Y-74666765D01*
X172551255Y-74730620D01*
X172182519Y-74831570D01*
X171873164Y-74940563D01*
X171757100Y-74985869D01*
X171657696Y-75025489D01*
X171584890Y-75055404D01*
X171548620Y-75071594D01*
X171547403Y-75072293D01*
X171540300Y-75099845D01*
X171573349Y-75143377D01*
X171640139Y-75198564D01*
X171734258Y-75261076D01*
X171849295Y-75326586D01*
X171978838Y-75390767D01*
X172091038Y-75439227D01*
X172165179Y-75471121D01*
X172214047Y-75496138D01*
X172226765Y-75507900D01*
X172199769Y-75505217D01*
X172136141Y-75489523D01*
X172047461Y-75463811D01*
X172004827Y-75450521D01*
X171833620Y-75404892D01*
X171665544Y-75376073D01*
X171513003Y-75365295D01*
X171388401Y-75373787D01*
X171342711Y-75384886D01*
X171241142Y-75434933D01*
X171145133Y-75518178D01*
X171051841Y-75638527D01*
X170958422Y-75799887D01*
X170862036Y-76006165D01*
X170823527Y-76098400D01*
X170780805Y-76201464D01*
X170745860Y-76281898D01*
X170722434Y-76331357D01*
X170714258Y-76342114D01*
X170721416Y-76310136D01*
X170741516Y-76240456D01*
X170771418Y-76143558D01*
X170805561Y-76037314D01*
X170856681Y-75862628D01*
X170893062Y-75699853D01*
X170910579Y-75570144D01*
X170923435Y-75384789D01*
X170761267Y-75479202D01*
X170381178Y-75714225D01*
X169984901Y-75985177D01*
X169582704Y-76284620D01*
X169184859Y-76605116D01*
X169058418Y-76712390D01*
X168949646Y-76808319D01*
X168822033Y-76924875D01*
X168681264Y-77056486D01*
X168533024Y-77197580D01*
X168383000Y-77342585D01*
X168236876Y-77485928D01*
X168100337Y-77622037D01*
X167979070Y-77745340D01*
X167878759Y-77850264D01*
X167805091Y-77931238D01*
X167766750Y-77978350D01*
X167717048Y-78048150D01*
X167910646Y-78076945D01*
X168122754Y-78122602D01*
X168293916Y-78192180D01*
X168429708Y-78289196D01*
X168535706Y-78417165D01*
X168582694Y-78500730D01*
X168620073Y-78580097D01*
X168642736Y-78643746D01*
X168653576Y-78708489D01*
X168655486Y-78791135D01*
X168651657Y-78901619D01*
X168642421Y-79029903D01*
X168628014Y-79125007D01*
X168609747Y-79178643D01*
X168607380Y-79181872D01*
X168581845Y-79200746D01*
X168536583Y-79212980D01*
X168462329Y-79219801D01*
X168349821Y-79222438D01*
X168300066Y-79222600D01*
X168026552Y-79222600D01*
X168016997Y-79033388D01*
X167995862Y-78877031D01*
X167947816Y-78760555D01*
X167869027Y-78680734D01*
X167755666Y-78634341D01*
X167603901Y-78618151D01*
X167525700Y-78619680D01*
X167304407Y-78654684D01*
X167097553Y-78737864D01*
X166904898Y-78869404D01*
X166726204Y-79049488D01*
X166561233Y-79278299D01*
X166473793Y-79429578D01*
X166364015Y-79661555D01*
X166286823Y-79884124D01*
X166242220Y-80092895D01*
X166230206Y-80283479D01*
X166250782Y-80451488D01*
X166303950Y-80592531D01*
X166389712Y-80702220D01*
X166473364Y-80760212D01*
X166563930Y-80787470D01*
X166685812Y-80797752D01*
X166822627Y-80791559D01*
X166957991Y-80769391D01*
X167048497Y-80742660D01*
X167166045Y-80680827D01*
X167293606Y-80583612D01*
X167420096Y-80461843D01*
X167534430Y-80326352D01*
X167625524Y-80187966D01*
X167635911Y-80168750D01*
X167719178Y-80010000D01*
X168305907Y-80010000D01*
X168288958Y-80079850D01*
X168242114Y-80205016D01*
X168159525Y-80351590D01*
X168046766Y-80511426D01*
X167909412Y-80676375D01*
X167805100Y-80787009D01*
X167693645Y-80897145D01*
X167603600Y-80978918D01*
X167522466Y-81041796D01*
X167437748Y-81095244D01*
X167336949Y-81148730D01*
X167309800Y-81162218D01*
X167056083Y-81267431D01*
X166808807Y-81331474D01*
X166572331Y-81354626D01*
X166351011Y-81337166D01*
X166149205Y-81279372D01*
X165971269Y-81181522D01*
X165843399Y-81068534D01*
X165737938Y-80954122D01*
X165618186Y-81237711D01*
X165439706Y-81699330D01*
X165298162Y-82149967D01*
X165195847Y-82582057D01*
X165173912Y-82702400D01*
X165153519Y-82869188D01*
X165142629Y-83061455D01*
X165141066Y-83263568D01*
X164936154Y-83263568D01*
X164934726Y-83219331D01*
X164940150Y-82984129D01*
X164958884Y-82755971D01*
X164983387Y-82588100D01*
X165034648Y-82348507D01*
X165105861Y-82080108D01*
X165192269Y-81797151D01*
X165289116Y-81513882D01*
X165391646Y-81244548D01*
X165495102Y-81003397D01*
X165551504Y-80886300D01*
X165577019Y-80832263D01*
X165594894Y-80780798D01*
X165606598Y-80721166D01*
X165613602Y-80642629D01*
X165617377Y-80534449D01*
X165619345Y-80391000D01*
X165621733Y-80238882D01*
X165626689Y-80124142D01*
X165635943Y-80033364D01*
X165651224Y-79953133D01*
X165674261Y-79870034D01*
X165694654Y-79806800D01*
X165828305Y-79473518D01*
X165997922Y-79164720D01*
X166199682Y-78884753D01*
X166429757Y-78637964D01*
X166684322Y-78428699D01*
X166959551Y-78261308D01*
X167118813Y-78188478D01*
X167215877Y-78150606D01*
X167297783Y-78121382D01*
X167351087Y-78105504D01*
X167360600Y-78103965D01*
X167393350Y-78084621D01*
X167447635Y-78034695D01*
X167513617Y-77963560D01*
X167538400Y-77934496D01*
X167628276Y-77831861D01*
X167748530Y-77702170D01*
X167891982Y-77552573D01*
X168051452Y-77390220D01*
X168219761Y-77222263D01*
X168389729Y-77055852D01*
X168554177Y-76898138D01*
X168705926Y-76756271D01*
X168837796Y-76637402D01*
X168861393Y-76616809D01*
X169205544Y-76328242D01*
X169557380Y-76051667D01*
X169907714Y-75793797D01*
X170247361Y-75561344D01*
X170567133Y-75361023D01*
X170630850Y-75323695D01*
X170721145Y-75269527D01*
X170791909Y-75223339D01*
X170833477Y-75191642D01*
X170840400Y-75182551D01*
X170819430Y-75146686D01*
X170762973Y-75094516D01*
X170680709Y-75032987D01*
X170668864Y-75025289D01*
X170881105Y-75025289D01*
X170881627Y-75025638D01*
X170924772Y-75068912D01*
X170973163Y-75138056D01*
X171015585Y-75214238D01*
X171040822Y-75278627D01*
X171043600Y-75297611D01*
X171050746Y-75352356D01*
X171076842Y-75368269D01*
X171128870Y-75346728D01*
X171167315Y-75321984D01*
X171249705Y-75277498D01*
X171336419Y-75247302D01*
X171352785Y-75244020D01*
X171446070Y-75228935D01*
X171373907Y-75129317D01*
X171325324Y-75045540D01*
X171290863Y-74956149D01*
X171284898Y-74929991D01*
X171268053Y-74830284D01*
X171212976Y-74883128D01*
X171119586Y-74949008D01*
X171008534Y-74993647D01*
X170923765Y-75006588D01*
X170882343Y-75012200D01*
X170881105Y-75025289D01*
X170668864Y-75025289D01*
X170582317Y-74969045D01*
X170477474Y-74909638D01*
X170421300Y-74881755D01*
X170320920Y-74834686D01*
X170231237Y-74792457D01*
X170167414Y-74762212D01*
X170154600Y-74756074D01*
X170091100Y-74725472D01*
X170154600Y-74740018D01*
X170206350Y-74752767D01*
X170292684Y-74774944D01*
X170399124Y-74802808D01*
X170459400Y-74818779D01*
X170652223Y-74860592D01*
X170817230Y-74873110D01*
X170959269Y-74853295D01*
X171083189Y-74798108D01*
X171193840Y-74704510D01*
X171296071Y-74569461D01*
X171394731Y-74389924D01*
X171490777Y-74172424D01*
X171543489Y-74045703D01*
X171582550Y-73956842D01*
X171606887Y-73907632D01*
X171615430Y-73899863D01*
X171607108Y-73935323D01*
X171607108Y-73935323D01*
G37*
X171607108Y-73935323D02*
X171580850Y-74015802D01*
X171575849Y-74030281D01*
X171514202Y-74220888D01*
X171464796Y-74400161D01*
X171428940Y-74561114D01*
X171407944Y-74696763D01*
X171403116Y-74800121D01*
X171415766Y-74864204D01*
X171418638Y-74869101D01*
X171448977Y-74873489D01*
X171520785Y-74856159D01*
X171635468Y-74816698D01*
X171754800Y-74770605D01*
X171911485Y-74712115D01*
X172093457Y-74650289D01*
X172276470Y-74593080D01*
X172415200Y-74553906D01*
X172537337Y-74522283D01*
X172636040Y-74499034D01*
X172723186Y-74482837D01*
X172810652Y-74472368D01*
X172910315Y-74466303D01*
X173034053Y-74463318D01*
X173193743Y-74462090D01*
X173240700Y-74461902D01*
X173413359Y-74461747D01*
X173544840Y-74463307D01*
X173644760Y-74467420D01*
X173722732Y-74474923D01*
X173788371Y-74486653D01*
X173851292Y-74503448D01*
X173901100Y-74519409D01*
X174173911Y-74633881D01*
X174409601Y-74783024D01*
X174608413Y-74967090D01*
X174770591Y-75186331D01*
X174896378Y-75441002D01*
X174956027Y-75616214D01*
X174987597Y-75761869D01*
X175010679Y-75943941D01*
X175024656Y-76148658D01*
X175028908Y-76362252D01*
X175022820Y-76570951D01*
X175006951Y-76751691D01*
X174942662Y-77123930D01*
X174840350Y-77521637D01*
X174702311Y-77939383D01*
X174530845Y-78371734D01*
X174328248Y-78813259D01*
X174096817Y-79258526D01*
X173838851Y-79702104D01*
X173604030Y-80068391D01*
X173360607Y-80421976D01*
X173116956Y-80754555D01*
X172864533Y-81076753D01*
X172594791Y-81399194D01*
X172299185Y-81732502D01*
X172043437Y-82008694D01*
X171728220Y-82343689D01*
X171809459Y-82436215D01*
X171883878Y-82501060D01*
X172003589Y-82577072D01*
X172170317Y-82665331D01*
X172197399Y-82678671D01*
X172308480Y-82733431D01*
X172399715Y-82779288D01*
X172463204Y-82812201D01*
X172491044Y-82828131D01*
X172491400Y-82828997D01*
X172462995Y-82821952D01*
X172398374Y-82802839D01*
X172309637Y-82775277D01*
X172275500Y-82764425D01*
X172115977Y-82723258D01*
X171942942Y-82694178D01*
X171856400Y-82685909D01*
X171745792Y-82680600D01*
X171669200Y-82682975D01*
X171610113Y-82695424D01*
X171552024Y-82720338D01*
X171526574Y-82733680D01*
X171417173Y-82817922D01*
X171309282Y-82951394D01*
X171203943Y-83132528D01*
X171102196Y-83359756D01*
X171088973Y-83393409D01*
X171046632Y-83499726D01*
X171010475Y-83584826D01*
X170984450Y-83639791D01*
X170972689Y-83655955D01*
X170976027Y-83629152D01*
X170993057Y-83564314D01*
X171020946Y-83471444D01*
X171053458Y-83370750D01*
X171092820Y-83245634D01*
X171127173Y-83124116D01*
X171152128Y-83022419D01*
X171161885Y-82970040D01*
X171178987Y-82843980D01*
X170990643Y-83008196D01*
X170549215Y-83373613D01*
X170095880Y-83711486D01*
X169635430Y-84019134D01*
X169172659Y-84293877D01*
X168712360Y-84533031D01*
X168259326Y-84733918D01*
X167818351Y-84893854D01*
X167424100Y-85003300D01*
X167295252Y-85031832D01*
X167184848Y-85051698D01*
X167077717Y-85064430D01*
X166958686Y-85071561D01*
X166812581Y-85074623D01*
X166712900Y-85075133D01*
X166459998Y-85069007D01*
X166245620Y-85047490D01*
X166058979Y-85007420D01*
X165889293Y-84945633D01*
X165725775Y-84858964D01*
X165557642Y-84744251D01*
X165540108Y-84731076D01*
X165447501Y-84664688D01*
X165380904Y-84632256D01*
X165327820Y-84634605D01*
X165275748Y-84672557D01*
X165212192Y-84746939D01*
X165207394Y-84753018D01*
X165124656Y-84875112D01*
X165039420Y-85035631D01*
X164949079Y-85239639D01*
X164920329Y-85310740D01*
X164882639Y-85403008D01*
X164850934Y-85475752D01*
X164830483Y-85517052D01*
X164827045Y-85521800D01*
X164821130Y-85514410D01*
X164826062Y-85496285D01*
X164899836Y-85279353D01*
X164953724Y-85098650D01*
X164990088Y-84944735D01*
X165011287Y-84808167D01*
X165017790Y-84729143D01*
X165022493Y-84618766D01*
X165020281Y-84543096D01*
X165008548Y-84486221D01*
X164984686Y-84432232D01*
X164962758Y-84393404D01*
X164889882Y-84296793D01*
X164785868Y-84206654D01*
X164779582Y-84202734D01*
X164995343Y-84202734D01*
X165060550Y-84280228D01*
X165109046Y-84356288D01*
X165147708Y-84447938D01*
X165153935Y-84469630D01*
X165182114Y-84581538D01*
X165255220Y-84520024D01*
X165315676Y-84475727D01*
X165367666Y-84448082D01*
X165372912Y-84446415D01*
X165431342Y-84431756D01*
X165488878Y-84418393D01*
X165560256Y-84402465D01*
X165496983Y-84327269D01*
X165456744Y-84275634D01*
X165430637Y-84227007D01*
X165410200Y-84162095D01*
X165393593Y-84091521D01*
X165377665Y-84020143D01*
X165302469Y-84083416D01*
X165250834Y-84123655D01*
X165202207Y-84149762D01*
X165137295Y-84170199D01*
X165066721Y-84186806D01*
X164995343Y-84202734D01*
X164779582Y-84202734D01*
X164644463Y-84118485D01*
X164459408Y-84027785D01*
X164447027Y-84022273D01*
X164353248Y-83979215D01*
X164276967Y-83941453D01*
X164224142Y-83912467D01*
X164200730Y-83895736D01*
X164212687Y-83894742D01*
X164249100Y-83906652D01*
X164412167Y-83959821D01*
X164579836Y-84003448D01*
X164736314Y-84034033D01*
X164865810Y-84048077D01*
X164889658Y-84048600D01*
X164978042Y-84047151D01*
X165025459Y-84040842D01*
X165041703Y-84026727D01*
X165037474Y-84004150D01*
X164993985Y-83853985D01*
X164962076Y-83665580D01*
X164942179Y-83450255D01*
X164936154Y-83263568D01*
X165141066Y-83263568D01*
X165148655Y-83459893D01*
X165165220Y-83634795D01*
X165185706Y-83752698D01*
X165231599Y-83952097D01*
X165304785Y-83881980D01*
X165358406Y-83815867D01*
X165423232Y-83713122D01*
X165493233Y-83584901D01*
X165562377Y-83442359D01*
X165624634Y-83296651D01*
X165633511Y-83273900D01*
X165674560Y-83171485D01*
X165700300Y-83116293D01*
X165710513Y-83107040D01*
X165704980Y-83142442D01*
X165683482Y-83221214D01*
X165645802Y-83342074D01*
X165645343Y-83343491D01*
X165579942Y-83560223D01*
X165537861Y-83739345D01*
X165518763Y-83888207D01*
X165522316Y-84014156D01*
X165548185Y-84124540D01*
X165596037Y-84226708D01*
X165604544Y-84240892D01*
X165668818Y-84314491D01*
X165772201Y-84396017D01*
X165905066Y-84479056D01*
X166057789Y-84557195D01*
X166121401Y-84585271D01*
X166226841Y-84631630D01*
X166296387Y-84666055D01*
X166327805Y-84686637D01*
X166318859Y-84691467D01*
X166267313Y-84678636D01*
X166208083Y-84659295D01*
X166121206Y-84632526D01*
X166012604Y-84603442D01*
X165896805Y-84575412D01*
X165788336Y-84551805D01*
X165701723Y-84535994D01*
X165655934Y-84531200D01*
X165639276Y-84542157D01*
X165660222Y-84571237D01*
X165711504Y-84612748D01*
X165785852Y-84660998D01*
X165875999Y-84710296D01*
X165899191Y-84721658D01*
X166145965Y-84813508D01*
X166421944Y-84868399D01*
X166720808Y-84885686D01*
X167036238Y-84864722D01*
X167144700Y-84849002D01*
X167558889Y-84759106D01*
X167989908Y-84623406D01*
X168435316Y-84443104D01*
X168892671Y-84219400D01*
X169359532Y-83953493D01*
X169833457Y-83646584D01*
X170312006Y-83299873D01*
X170341187Y-83277544D01*
X170486028Y-83164508D01*
X170629280Y-83049323D01*
X170765403Y-82936782D01*
X170888855Y-82831678D01*
X170994097Y-82738802D01*
X171075588Y-82662947D01*
X171127788Y-82608906D01*
X171145200Y-82582095D01*
X171123239Y-82524917D01*
X171062377Y-82453394D01*
X170970144Y-82373790D01*
X170920032Y-82338637D01*
X171159814Y-82338637D01*
X171185021Y-82377374D01*
X171204931Y-82403950D01*
X171253816Y-82484852D01*
X171293780Y-82577531D01*
X171298692Y-82592940D01*
X171330136Y-82699381D01*
X171421818Y-82636843D01*
X171504841Y-82592290D01*
X171592907Y-82562041D01*
X171608750Y-82558906D01*
X171678054Y-82542900D01*
X171700024Y-82520597D01*
X171678119Y-82484918D01*
X171655520Y-82463200D01*
X171593608Y-82376137D01*
X171546809Y-82240781D01*
X171540371Y-82213013D01*
X171525013Y-82142726D01*
X171468456Y-82196949D01*
X171388566Y-82255351D01*
X171293042Y-82300333D01*
X171205661Y-82321052D01*
X171195523Y-82321400D01*
X171163750Y-82323799D01*
X171159814Y-82338637D01*
X170920032Y-82338637D01*
X170854072Y-82292368D01*
X170721692Y-82215394D01*
X170676993Y-82192664D01*
X170571437Y-82142214D01*
X170481032Y-82101480D01*
X170416397Y-82075092D01*
X170389728Y-82067400D01*
X170360073Y-82053082D01*
X170357800Y-82044685D01*
X170380056Y-82041971D01*
X170439783Y-82053473D01*
X170526417Y-82076875D01*
X170580351Y-82093540D01*
X170793884Y-82153463D01*
X170973147Y-82183378D01*
X171124909Y-82183215D01*
X171255939Y-82152906D01*
X171373008Y-82092380D01*
X171383247Y-82085339D01*
X171458662Y-82012895D01*
X171541238Y-81899641D01*
X171625793Y-81754045D01*
X171707147Y-81584575D01*
X171744414Y-81495029D01*
X171784765Y-81395949D01*
X171818466Y-81318551D01*
X171841253Y-81272315D01*
X171848487Y-81263621D01*
X171844924Y-81289903D01*
X171828505Y-81354558D01*
X171801939Y-81447601D01*
X171770976Y-81549332D01*
X171726077Y-81702528D01*
X171691469Y-81839768D01*
X171668442Y-81954005D01*
X171658290Y-82038187D01*
X171662303Y-82085267D01*
X171671368Y-82092800D01*
X171695934Y-82075135D01*
X171748022Y-82026545D01*
X171820922Y-81953641D01*
X171907925Y-81863029D01*
X171946802Y-81821555D01*
X172411088Y-81301423D01*
X172839302Y-80777889D01*
X173230101Y-80253300D01*
X173582141Y-79730000D01*
X173894080Y-79210334D01*
X174164575Y-78696646D01*
X174392283Y-78191283D01*
X174575861Y-77696587D01*
X174713965Y-77214905D01*
X174787121Y-76862274D01*
X174809643Y-76687117D01*
X174822983Y-76487890D01*
X174827098Y-76280111D01*
X174821947Y-76079296D01*
X174807488Y-75900963D01*
X174790022Y-75788910D01*
X174731318Y-75585056D01*
X174642723Y-75383125D01*
X174532601Y-75199369D01*
X174410185Y-75050906D01*
X174278578Y-74939257D01*
X174120518Y-74835735D01*
X173955425Y-74751757D01*
X173817691Y-74702542D01*
X173540156Y-74652249D01*
X173233972Y-74640482D01*
X172903039Y-74666765D01*
X172551255Y-74730620D01*
X172182519Y-74831570D01*
X171873164Y-74940563D01*
X171757100Y-74985869D01*
X171657696Y-75025489D01*
X171584890Y-75055404D01*
X171548620Y-75071594D01*
X171547403Y-75072293D01*
X171540300Y-75099845D01*
X171573349Y-75143377D01*
X171640139Y-75198564D01*
X171734258Y-75261076D01*
X171849295Y-75326586D01*
X171978838Y-75390767D01*
X172091038Y-75439227D01*
X172165179Y-75471121D01*
X172214047Y-75496138D01*
X172226765Y-75507900D01*
X172199769Y-75505217D01*
X172136141Y-75489523D01*
X172047461Y-75463811D01*
X172004827Y-75450521D01*
X171833620Y-75404892D01*
X171665544Y-75376073D01*
X171513003Y-75365295D01*
X171388401Y-75373787D01*
X171342711Y-75384886D01*
X171241142Y-75434933D01*
X171145133Y-75518178D01*
X171051841Y-75638527D01*
X170958422Y-75799887D01*
X170862036Y-76006165D01*
X170823527Y-76098400D01*
X170780805Y-76201464D01*
X170745860Y-76281898D01*
X170722434Y-76331357D01*
X170714258Y-76342114D01*
X170721416Y-76310136D01*
X170741516Y-76240456D01*
X170771418Y-76143558D01*
X170805561Y-76037314D01*
X170856681Y-75862628D01*
X170893062Y-75699853D01*
X170910579Y-75570144D01*
X170923435Y-75384789D01*
X170761267Y-75479202D01*
X170381178Y-75714225D01*
X169984901Y-75985177D01*
X169582704Y-76284620D01*
X169184859Y-76605116D01*
X169058418Y-76712390D01*
X168949646Y-76808319D01*
X168822033Y-76924875D01*
X168681264Y-77056486D01*
X168533024Y-77197580D01*
X168383000Y-77342585D01*
X168236876Y-77485928D01*
X168100337Y-77622037D01*
X167979070Y-77745340D01*
X167878759Y-77850264D01*
X167805091Y-77931238D01*
X167766750Y-77978350D01*
X167717048Y-78048150D01*
X167910646Y-78076945D01*
X168122754Y-78122602D01*
X168293916Y-78192180D01*
X168429708Y-78289196D01*
X168535706Y-78417165D01*
X168582694Y-78500730D01*
X168620073Y-78580097D01*
X168642736Y-78643746D01*
X168653576Y-78708489D01*
X168655486Y-78791135D01*
X168651657Y-78901619D01*
X168642421Y-79029903D01*
X168628014Y-79125007D01*
X168609747Y-79178643D01*
X168607380Y-79181872D01*
X168581845Y-79200746D01*
X168536583Y-79212980D01*
X168462329Y-79219801D01*
X168349821Y-79222438D01*
X168300066Y-79222600D01*
X168026552Y-79222600D01*
X168016997Y-79033388D01*
X167995862Y-78877031D01*
X167947816Y-78760555D01*
X167869027Y-78680734D01*
X167755666Y-78634341D01*
X167603901Y-78618151D01*
X167525700Y-78619680D01*
X167304407Y-78654684D01*
X167097553Y-78737864D01*
X166904898Y-78869404D01*
X166726204Y-79049488D01*
X166561233Y-79278299D01*
X166473793Y-79429578D01*
X166364015Y-79661555D01*
X166286823Y-79884124D01*
X166242220Y-80092895D01*
X166230206Y-80283479D01*
X166250782Y-80451488D01*
X166303950Y-80592531D01*
X166389712Y-80702220D01*
X166473364Y-80760212D01*
X166563930Y-80787470D01*
X166685812Y-80797752D01*
X166822627Y-80791559D01*
X166957991Y-80769391D01*
X167048497Y-80742660D01*
X167166045Y-80680827D01*
X167293606Y-80583612D01*
X167420096Y-80461843D01*
X167534430Y-80326352D01*
X167625524Y-80187966D01*
X167635911Y-80168750D01*
X167719178Y-80010000D01*
X168305907Y-80010000D01*
X168288958Y-80079850D01*
X168242114Y-80205016D01*
X168159525Y-80351590D01*
X168046766Y-80511426D01*
X167909412Y-80676375D01*
X167805100Y-80787009D01*
X167693645Y-80897145D01*
X167603600Y-80978918D01*
X167522466Y-81041796D01*
X167437748Y-81095244D01*
X167336949Y-81148730D01*
X167309800Y-81162218D01*
X167056083Y-81267431D01*
X166808807Y-81331474D01*
X166572331Y-81354626D01*
X166351011Y-81337166D01*
X166149205Y-81279372D01*
X165971269Y-81181522D01*
X165843399Y-81068534D01*
X165737938Y-80954122D01*
X165618186Y-81237711D01*
X165439706Y-81699330D01*
X165298162Y-82149967D01*
X165195847Y-82582057D01*
X165173912Y-82702400D01*
X165153519Y-82869188D01*
X165142629Y-83061455D01*
X165141066Y-83263568D01*
X164936154Y-83263568D01*
X164934726Y-83219331D01*
X164940150Y-82984129D01*
X164958884Y-82755971D01*
X164983387Y-82588100D01*
X165034648Y-82348507D01*
X165105861Y-82080108D01*
X165192269Y-81797151D01*
X165289116Y-81513882D01*
X165391646Y-81244548D01*
X165495102Y-81003397D01*
X165551504Y-80886300D01*
X165577019Y-80832263D01*
X165594894Y-80780798D01*
X165606598Y-80721166D01*
X165613602Y-80642629D01*
X165617377Y-80534449D01*
X165619345Y-80391000D01*
X165621733Y-80238882D01*
X165626689Y-80124142D01*
X165635943Y-80033364D01*
X165651224Y-79953133D01*
X165674261Y-79870034D01*
X165694654Y-79806800D01*
X165828305Y-79473518D01*
X165997922Y-79164720D01*
X166199682Y-78884753D01*
X166429757Y-78637964D01*
X166684322Y-78428699D01*
X166959551Y-78261308D01*
X167118813Y-78188478D01*
X167215877Y-78150606D01*
X167297783Y-78121382D01*
X167351087Y-78105504D01*
X167360600Y-78103965D01*
X167393350Y-78084621D01*
X167447635Y-78034695D01*
X167513617Y-77963560D01*
X167538400Y-77934496D01*
X167628276Y-77831861D01*
X167748530Y-77702170D01*
X167891982Y-77552573D01*
X168051452Y-77390220D01*
X168219761Y-77222263D01*
X168389729Y-77055852D01*
X168554177Y-76898138D01*
X168705926Y-76756271D01*
X168837796Y-76637402D01*
X168861393Y-76616809D01*
X169205544Y-76328242D01*
X169557380Y-76051667D01*
X169907714Y-75793797D01*
X170247361Y-75561344D01*
X170567133Y-75361023D01*
X170630850Y-75323695D01*
X170721145Y-75269527D01*
X170791909Y-75223339D01*
X170833477Y-75191642D01*
X170840400Y-75182551D01*
X170819430Y-75146686D01*
X170762973Y-75094516D01*
X170680709Y-75032987D01*
X170668864Y-75025289D01*
X170881105Y-75025289D01*
X170881627Y-75025638D01*
X170924772Y-75068912D01*
X170973163Y-75138056D01*
X171015585Y-75214238D01*
X171040822Y-75278627D01*
X171043600Y-75297611D01*
X171050746Y-75352356D01*
X171076842Y-75368269D01*
X171128870Y-75346728D01*
X171167315Y-75321984D01*
X171249705Y-75277498D01*
X171336419Y-75247302D01*
X171352785Y-75244020D01*
X171446070Y-75228935D01*
X171373907Y-75129317D01*
X171325324Y-75045540D01*
X171290863Y-74956149D01*
X171284898Y-74929991D01*
X171268053Y-74830284D01*
X171212976Y-74883128D01*
X171119586Y-74949008D01*
X171008534Y-74993647D01*
X170923765Y-75006588D01*
X170882343Y-75012200D01*
X170881105Y-75025289D01*
X170668864Y-75025289D01*
X170582317Y-74969045D01*
X170477474Y-74909638D01*
X170421300Y-74881755D01*
X170320920Y-74834686D01*
X170231237Y-74792457D01*
X170167414Y-74762212D01*
X170154600Y-74756074D01*
X170091100Y-74725472D01*
X170154600Y-74740018D01*
X170206350Y-74752767D01*
X170292684Y-74774944D01*
X170399124Y-74802808D01*
X170459400Y-74818779D01*
X170652223Y-74860592D01*
X170817230Y-74873110D01*
X170959269Y-74853295D01*
X171083189Y-74798108D01*
X171193840Y-74704510D01*
X171296071Y-74569461D01*
X171394731Y-74389924D01*
X171490777Y-74172424D01*
X171543489Y-74045703D01*
X171582550Y-73956842D01*
X171606887Y-73907632D01*
X171615430Y-73899863D01*
X171607108Y-73935323D01*
D11*
G04 #@! TO.C,J11*
X138370000Y-123250000D02*
X138370000Y-121920000D01*
X139700000Y-123250000D02*
X138370000Y-123250000D01*
X140970000Y-123250000D02*
X140970000Y-120590000D01*
X140970000Y-120590000D02*
X143570000Y-120590000D01*
X140970000Y-123250000D02*
X143570000Y-123250000D01*
X143570000Y-123250000D02*
X143570000Y-120590000D01*
G04 #@! TO.C,J9*
X109220000Y-106620000D02*
X109220000Y-109280000D01*
X109220000Y-106620000D02*
X101540000Y-106620000D01*
X101540000Y-106620000D02*
X101540000Y-109280000D01*
X109220000Y-109280000D02*
X101540000Y-109280000D01*
X111820000Y-109280000D02*
X110490000Y-109280000D01*
X111820000Y-107950000D02*
X111820000Y-109280000D01*
D14*
G04 #@! TO.C,J10*
X168595000Y-109400000D02*
X168595000Y-96900000D01*
X176845000Y-109400000D02*
X176845000Y-96900000D01*
X168595000Y-109400000D02*
X176845000Y-109400000D01*
X168595000Y-96900000D02*
X170970000Y-93800000D01*
X170970000Y-93800000D02*
X174470000Y-93800000D01*
X176845000Y-96900000D02*
X174470000Y-93800000D01*
D15*
X169320000Y-108600000D02*
X176120000Y-108600000D01*
X176120000Y-108600000D02*
X176120000Y-97100000D01*
X176120000Y-97100000D02*
X174220000Y-94600000D01*
X169320000Y-97100000D02*
X171220000Y-94600000D01*
X171220000Y-94600000D02*
X174220000Y-94600000D01*
X169320000Y-102500000D02*
X170570000Y-102500000D01*
X170570000Y-102500000D02*
X170570000Y-100700000D01*
X170570000Y-100700000D02*
X169320000Y-100700000D01*
X169320000Y-100700000D02*
X169320000Y-97100000D01*
X169320000Y-108600000D02*
X169320000Y-102500000D01*
D14*
G04 #@! TO.C,J2*
X176845000Y-111245000D02*
X176845000Y-123745000D01*
X168595000Y-111245000D02*
X168595000Y-123745000D01*
X176845000Y-111245000D02*
X168595000Y-111245000D01*
X176845000Y-123745000D02*
X174470000Y-126845000D01*
X174470000Y-126845000D02*
X170970000Y-126845000D01*
X168595000Y-123745000D02*
X170970000Y-126845000D01*
D15*
X176120000Y-112045000D02*
X169320000Y-112045000D01*
X169320000Y-112045000D02*
X169320000Y-123545000D01*
X169320000Y-123545000D02*
X171220000Y-126045000D01*
X176120000Y-123545000D02*
X174220000Y-126045000D01*
X174220000Y-126045000D02*
X171220000Y-126045000D01*
X176120000Y-118145000D02*
X174870000Y-118145000D01*
X174870000Y-118145000D02*
X174870000Y-119945000D01*
X174870000Y-119945000D02*
X176120000Y-119945000D01*
X176120000Y-119945000D02*
X176120000Y-123545000D01*
X176120000Y-112045000D02*
X176120000Y-118145000D01*
D11*
G04 #@! TO.C,C3*
X145577779Y-117985000D02*
X145252221Y-117985000D01*
X145577779Y-116965000D02*
X145252221Y-116965000D01*
G04 #@! TO.C,J4*
X100270000Y-80070000D02*
X100270000Y-77470000D01*
X100270000Y-80070000D02*
X151190000Y-80070000D01*
X151190000Y-80070000D02*
X151190000Y-74870000D01*
X102870000Y-74870000D02*
X151190000Y-74870000D01*
X102870000Y-77470000D02*
X102870000Y-74870000D01*
X100270000Y-77470000D02*
X102870000Y-77470000D01*
X100270000Y-74870000D02*
X101600000Y-74870000D01*
X100270000Y-76200000D02*
X100270000Y-74870000D01*
G04 #@! TO.C,J6*
X109220000Y-96460000D02*
X109220000Y-99120000D01*
X109220000Y-96460000D02*
X101540000Y-96460000D01*
X101540000Y-96460000D02*
X101540000Y-99120000D01*
X109220000Y-99120000D02*
X101540000Y-99120000D01*
X111820000Y-99120000D02*
X110490000Y-99120000D01*
X111820000Y-97790000D02*
X111820000Y-99120000D01*
G04 #@! TO.C,J7*
X115570000Y-119320000D02*
X115570000Y-121980000D01*
X115570000Y-119320000D02*
X107890000Y-119320000D01*
X107890000Y-119320000D02*
X107890000Y-121980000D01*
X115570000Y-121980000D02*
X107890000Y-121980000D01*
X118170000Y-121980000D02*
X116840000Y-121980000D01*
X118170000Y-120650000D02*
X118170000Y-121980000D01*
G04 #@! TO.C,J8*
X140970000Y-92650000D02*
X140970000Y-95310000D01*
X140970000Y-92650000D02*
X118050000Y-92650000D01*
X118050000Y-92650000D02*
X118050000Y-95310000D01*
X140970000Y-95310000D02*
X118050000Y-95310000D01*
X143570000Y-95310000D02*
X142240000Y-95310000D01*
X143570000Y-93980000D02*
X143570000Y-95310000D01*
G04 #@! TO.C,R3*
X111536267Y-94105000D02*
X111193733Y-94105000D01*
X111536267Y-95125000D02*
X111193733Y-95125000D01*
G04 #@! TO.C,R5*
X117543733Y-99570000D02*
X117886267Y-99570000D01*
X117543733Y-98550000D02*
X117886267Y-98550000D01*
G04 #@! TO.C,R6*
X120083733Y-96645000D02*
X120426267Y-96645000D01*
X120083733Y-97665000D02*
X120426267Y-97665000D01*
G04 #@! TO.C,R4*
X113836267Y-91950000D02*
X113493733Y-91950000D01*
X113836267Y-90930000D02*
X113493733Y-90930000D01*
G04 #@! TO.C,U1*
D10*
X161377380Y-116331904D02*
X162186904Y-116331904D01*
X162282142Y-116284285D01*
X162329761Y-116236666D01*
X162377380Y-116141428D01*
X162377380Y-115950952D01*
X162329761Y-115855714D01*
X162282142Y-115808095D01*
X162186904Y-115760476D01*
X161377380Y-115760476D01*
X162377380Y-114760476D02*
X162377380Y-115331904D01*
X162377380Y-115046190D02*
X161377380Y-115046190D01*
X161520238Y-115141428D01*
X161615476Y-115236666D01*
X161663095Y-115331904D01*
G04 #@! TO.C,L1*
X156043333Y-101532380D02*
X155567142Y-101532380D01*
X155567142Y-100532380D01*
X156900476Y-101532380D02*
X156329047Y-101532380D01*
X156614761Y-101532380D02*
X156614761Y-100532380D01*
X156519523Y-100675238D01*
X156424285Y-100770476D01*
X156329047Y-100818095D01*
G04 #@! TO.C,C2*
X149107142Y-95416666D02*
X149154761Y-95464285D01*
X149202380Y-95607142D01*
X149202380Y-95702380D01*
X149154761Y-95845238D01*
X149059523Y-95940476D01*
X148964285Y-95988095D01*
X148773809Y-96035714D01*
X148630952Y-96035714D01*
X148440476Y-95988095D01*
X148345238Y-95940476D01*
X148250000Y-95845238D01*
X148202380Y-95702380D01*
X148202380Y-95607142D01*
X148250000Y-95464285D01*
X148297619Y-95416666D01*
X148297619Y-95035714D02*
X148250000Y-94988095D01*
X148202380Y-94892857D01*
X148202380Y-94654761D01*
X148250000Y-94559523D01*
X148297619Y-94511904D01*
X148392857Y-94464285D01*
X148488095Y-94464285D01*
X148630952Y-94511904D01*
X149202380Y-95083333D01*
X149202380Y-94464285D01*
G04 #@! TO.C,J11*
X136822380Y-122729523D02*
X137536666Y-122729523D01*
X137679523Y-122777142D01*
X137774761Y-122872380D01*
X137822380Y-123015238D01*
X137822380Y-123110476D01*
X137822380Y-121729523D02*
X137822380Y-122300952D01*
X137822380Y-122015238D02*
X136822380Y-122015238D01*
X136965238Y-122110476D01*
X137060476Y-122205714D01*
X137108095Y-122300952D01*
X137822380Y-120777142D02*
X137822380Y-121348571D01*
X137822380Y-121062857D02*
X136822380Y-121062857D01*
X136965238Y-121158095D01*
X137060476Y-121253333D01*
X137108095Y-121348571D01*
G04 #@! TO.C,J9*
X112712380Y-108283333D02*
X113426666Y-108283333D01*
X113569523Y-108330952D01*
X113664761Y-108426190D01*
X113712380Y-108569047D01*
X113712380Y-108664285D01*
X113712380Y-107759523D02*
X113712380Y-107569047D01*
X113664761Y-107473809D01*
X113617142Y-107426190D01*
X113474285Y-107330952D01*
X113283809Y-107283333D01*
X112902857Y-107283333D01*
X112807619Y-107330952D01*
X112760000Y-107378571D01*
X112712380Y-107473809D01*
X112712380Y-107664285D01*
X112760000Y-107759523D01*
X112807619Y-107807142D01*
X112902857Y-107854761D01*
X113140952Y-107854761D01*
X113236190Y-107807142D01*
X113283809Y-107759523D01*
X113331428Y-107664285D01*
X113331428Y-107473809D01*
X113283809Y-107378571D01*
X113236190Y-107330952D01*
X113140952Y-107283333D01*
G04 #@! TO.C,J10*
D15*
X166672380Y-102409523D02*
X167386666Y-102409523D01*
X167529523Y-102457142D01*
X167624761Y-102552380D01*
X167672380Y-102695238D01*
X167672380Y-102790476D01*
X167672380Y-101409523D02*
X167672380Y-101980952D01*
X167672380Y-101695238D02*
X166672380Y-101695238D01*
X166815238Y-101790476D01*
X166910476Y-101885714D01*
X166958095Y-101980952D01*
X166672380Y-100790476D02*
X166672380Y-100695238D01*
X166720000Y-100600000D01*
X166767619Y-100552380D01*
X166862857Y-100504761D01*
X167053333Y-100457142D01*
X167291428Y-100457142D01*
X167481904Y-100504761D01*
X167577142Y-100552380D01*
X167624761Y-100600000D01*
X167672380Y-100695238D01*
X167672380Y-100790476D01*
X167624761Y-100885714D01*
X167577142Y-100933333D01*
X167481904Y-100980952D01*
X167291428Y-101028571D01*
X167053333Y-101028571D01*
X166862857Y-100980952D01*
X166767619Y-100933333D01*
X166720000Y-100885714D01*
X166672380Y-100790476D01*
X170001428Y-108300952D02*
X170001428Y-107539047D01*
X170382380Y-107920000D02*
X169620476Y-107920000D01*
X175148571Y-101457142D02*
X175148571Y-101790476D01*
X175672380Y-101790476D02*
X174672380Y-101790476D01*
X174672380Y-101314285D01*
G04 #@! TO.C,J2*
X177672380Y-119378333D02*
X178386666Y-119378333D01*
X178529523Y-119425952D01*
X178624761Y-119521190D01*
X178672380Y-119664047D01*
X178672380Y-119759285D01*
X177767619Y-118949761D02*
X177720000Y-118902142D01*
X177672380Y-118806904D01*
X177672380Y-118568809D01*
X177720000Y-118473571D01*
X177767619Y-118425952D01*
X177862857Y-118378333D01*
X177958095Y-118378333D01*
X178100952Y-118425952D01*
X178672380Y-118997380D01*
X178672380Y-118378333D01*
X175581428Y-113105952D02*
X175581428Y-112344047D01*
X175962380Y-112725000D02*
X175200476Y-112725000D01*
X170148571Y-118902142D02*
X170148571Y-119235476D01*
X170672380Y-119235476D02*
X169672380Y-119235476D01*
X169672380Y-118759285D01*
G04 #@! TO.C,C3*
D10*
X145248333Y-119262142D02*
X145200714Y-119309761D01*
X145057857Y-119357380D01*
X144962619Y-119357380D01*
X144819761Y-119309761D01*
X144724523Y-119214523D01*
X144676904Y-119119285D01*
X144629285Y-118928809D01*
X144629285Y-118785952D01*
X144676904Y-118595476D01*
X144724523Y-118500238D01*
X144819761Y-118405000D01*
X144962619Y-118357380D01*
X145057857Y-118357380D01*
X145200714Y-118405000D01*
X145248333Y-118452619D01*
X145581666Y-118357380D02*
X146200714Y-118357380D01*
X145867380Y-118738333D01*
X146010238Y-118738333D01*
X146105476Y-118785952D01*
X146153095Y-118833571D01*
X146200714Y-118928809D01*
X146200714Y-119166904D01*
X146153095Y-119262142D01*
X146105476Y-119309761D01*
X146010238Y-119357380D01*
X145724523Y-119357380D01*
X145629285Y-119309761D01*
X145581666Y-119262142D01*
G04 #@! TO.C,J4*
X98512380Y-75898333D02*
X99226666Y-75898333D01*
X99369523Y-75945952D01*
X99464761Y-76041190D01*
X99512380Y-76184047D01*
X99512380Y-76279285D01*
X98845714Y-74993571D02*
X99512380Y-74993571D01*
X98464761Y-75231666D02*
X99179047Y-75469761D01*
X99179047Y-74850714D01*
G04 #@! TO.C,J6*
X112712380Y-98123333D02*
X113426666Y-98123333D01*
X113569523Y-98170952D01*
X113664761Y-98266190D01*
X113712380Y-98409047D01*
X113712380Y-98504285D01*
X112712380Y-97218571D02*
X112712380Y-97409047D01*
X112760000Y-97504285D01*
X112807619Y-97551904D01*
X112950476Y-97647142D01*
X113140952Y-97694761D01*
X113521904Y-97694761D01*
X113617142Y-97647142D01*
X113664761Y-97599523D01*
X113712380Y-97504285D01*
X113712380Y-97313809D01*
X113664761Y-97218571D01*
X113617142Y-97170952D01*
X113521904Y-97123333D01*
X113283809Y-97123333D01*
X113188571Y-97170952D01*
X113140952Y-97218571D01*
X113093333Y-97313809D01*
X113093333Y-97504285D01*
X113140952Y-97599523D01*
X113188571Y-97647142D01*
X113283809Y-97694761D01*
G04 #@! TO.C,J7*
X119062380Y-120983333D02*
X119776666Y-120983333D01*
X119919523Y-121030952D01*
X120014761Y-121126190D01*
X120062380Y-121269047D01*
X120062380Y-121364285D01*
X119062380Y-120602380D02*
X119062380Y-119935714D01*
X120062380Y-120364285D01*
G04 #@! TO.C,J8*
X144462380Y-94313333D02*
X145176666Y-94313333D01*
X145319523Y-94360952D01*
X145414761Y-94456190D01*
X145462380Y-94599047D01*
X145462380Y-94694285D01*
X144890952Y-93694285D02*
X144843333Y-93789523D01*
X144795714Y-93837142D01*
X144700476Y-93884761D01*
X144652857Y-93884761D01*
X144557619Y-93837142D01*
X144510000Y-93789523D01*
X144462380Y-93694285D01*
X144462380Y-93503809D01*
X144510000Y-93408571D01*
X144557619Y-93360952D01*
X144652857Y-93313333D01*
X144700476Y-93313333D01*
X144795714Y-93360952D01*
X144843333Y-93408571D01*
X144890952Y-93503809D01*
X144890952Y-93694285D01*
X144938571Y-93789523D01*
X144986190Y-93837142D01*
X145081428Y-93884761D01*
X145271904Y-93884761D01*
X145367142Y-93837142D01*
X145414761Y-93789523D01*
X145462380Y-93694285D01*
X145462380Y-93503809D01*
X145414761Y-93408571D01*
X145367142Y-93360952D01*
X145271904Y-93313333D01*
X145081428Y-93313333D01*
X144986190Y-93360952D01*
X144938571Y-93408571D01*
X144890952Y-93503809D01*
G04 #@! TO.C,R3*
X111198333Y-96497380D02*
X110865000Y-96021190D01*
X110626904Y-96497380D02*
X110626904Y-95497380D01*
X111007857Y-95497380D01*
X111103095Y-95545000D01*
X111150714Y-95592619D01*
X111198333Y-95687857D01*
X111198333Y-95830714D01*
X111150714Y-95925952D01*
X111103095Y-95973571D01*
X111007857Y-96021190D01*
X110626904Y-96021190D01*
X111531666Y-95497380D02*
X112150714Y-95497380D01*
X111817380Y-95878333D01*
X111960238Y-95878333D01*
X112055476Y-95925952D01*
X112103095Y-95973571D01*
X112150714Y-96068809D01*
X112150714Y-96306904D01*
X112103095Y-96402142D01*
X112055476Y-96449761D01*
X111960238Y-96497380D01*
X111674523Y-96497380D01*
X111579285Y-96449761D01*
X111531666Y-96402142D01*
G04 #@! TO.C,R5*
X117548333Y-98082380D02*
X117215000Y-97606190D01*
X116976904Y-98082380D02*
X116976904Y-97082380D01*
X117357857Y-97082380D01*
X117453095Y-97130000D01*
X117500714Y-97177619D01*
X117548333Y-97272857D01*
X117548333Y-97415714D01*
X117500714Y-97510952D01*
X117453095Y-97558571D01*
X117357857Y-97606190D01*
X116976904Y-97606190D01*
X118453095Y-97082380D02*
X117976904Y-97082380D01*
X117929285Y-97558571D01*
X117976904Y-97510952D01*
X118072142Y-97463333D01*
X118310238Y-97463333D01*
X118405476Y-97510952D01*
X118453095Y-97558571D01*
X118500714Y-97653809D01*
X118500714Y-97891904D01*
X118453095Y-97987142D01*
X118405476Y-98034761D01*
X118310238Y-98082380D01*
X118072142Y-98082380D01*
X117976904Y-98034761D01*
X117929285Y-97987142D01*
G04 #@! TO.C,R6*
X120088333Y-96177380D02*
X119755000Y-95701190D01*
X119516904Y-96177380D02*
X119516904Y-95177380D01*
X119897857Y-95177380D01*
X119993095Y-95225000D01*
X120040714Y-95272619D01*
X120088333Y-95367857D01*
X120088333Y-95510714D01*
X120040714Y-95605952D01*
X119993095Y-95653571D01*
X119897857Y-95701190D01*
X119516904Y-95701190D01*
X120945476Y-95177380D02*
X120755000Y-95177380D01*
X120659761Y-95225000D01*
X120612142Y-95272619D01*
X120516904Y-95415476D01*
X120469285Y-95605952D01*
X120469285Y-95986904D01*
X120516904Y-96082142D01*
X120564523Y-96129761D01*
X120659761Y-96177380D01*
X120850238Y-96177380D01*
X120945476Y-96129761D01*
X120993095Y-96082142D01*
X121040714Y-95986904D01*
X121040714Y-95748809D01*
X120993095Y-95653571D01*
X120945476Y-95605952D01*
X120850238Y-95558333D01*
X120659761Y-95558333D01*
X120564523Y-95605952D01*
X120516904Y-95653571D01*
X120469285Y-95748809D01*
G04 #@! TO.C,R4*
X113498333Y-93322380D02*
X113165000Y-92846190D01*
X112926904Y-93322380D02*
X112926904Y-92322380D01*
X113307857Y-92322380D01*
X113403095Y-92370000D01*
X113450714Y-92417619D01*
X113498333Y-92512857D01*
X113498333Y-92655714D01*
X113450714Y-92750952D01*
X113403095Y-92798571D01*
X113307857Y-92846190D01*
X112926904Y-92846190D01*
X114355476Y-92655714D02*
X114355476Y-93322380D01*
X114117380Y-92274761D02*
X113879285Y-92989047D01*
X114498333Y-92989047D01*
G04 #@! TD*
M02*
