G04 #@! TF.GenerationSoftware,KiCad,Pcbnew,5.1.4+dfsg1-1*
G04 #@! TF.CreationDate,2019-12-03T12:49:09+09:00*
G04 #@! TF.ProjectId,Drone,44726f6e-652e-46b6-9963-61645f706362,rev?*
G04 #@! TF.SameCoordinates,Original*
G04 #@! TF.FileFunction,Soldermask,Top*
G04 #@! TF.FilePolarity,Negative*
%FSLAX46Y46*%
G04 Gerber Fmt 4.6, Leading zero omitted, Abs format (unit mm)*
G04 Created by KiCad (PCBNEW 5.1.4+dfsg1-1) date 2019-12-03 12:49:09*
%MOMM*%
%LPD*%
G04 APERTURE LIST*
%ADD10C,0.100000*%
G04 APERTURE END LIST*
D10*
G36*
X107109434Y-126758686D02*
G01*
X107149284Y-126770774D01*
X107185999Y-126790399D01*
X107218186Y-126816814D01*
X107244601Y-126849001D01*
X107264226Y-126885716D01*
X107276314Y-126925566D01*
X107281000Y-126973141D01*
X107281000Y-127636859D01*
X107276314Y-127684434D01*
X107264226Y-127724284D01*
X107244601Y-127760999D01*
X107218186Y-127793186D01*
X107185999Y-127819601D01*
X107149284Y-127839226D01*
X107109434Y-127851314D01*
X107061859Y-127856000D01*
X106298141Y-127856000D01*
X106250566Y-127851314D01*
X106210716Y-127839226D01*
X106174001Y-127819601D01*
X106141814Y-127793186D01*
X106115399Y-127760999D01*
X106095774Y-127724284D01*
X106083686Y-127684434D01*
X106079000Y-127636859D01*
X106079000Y-126973141D01*
X106083686Y-126925566D01*
X106095774Y-126885716D01*
X106115399Y-126849001D01*
X106141814Y-126816814D01*
X106174001Y-126790399D01*
X106210716Y-126770774D01*
X106250566Y-126758686D01*
X106298141Y-126754000D01*
X107061859Y-126754000D01*
X107109434Y-126758686D01*
X107109434Y-126758686D01*
G37*
G36*
X107109434Y-125183686D02*
G01*
X107149284Y-125195774D01*
X107185999Y-125215399D01*
X107218186Y-125241814D01*
X107244601Y-125274001D01*
X107264226Y-125310716D01*
X107276314Y-125350566D01*
X107281000Y-125398141D01*
X107281000Y-126061859D01*
X107276314Y-126109434D01*
X107264226Y-126149284D01*
X107244601Y-126185999D01*
X107218186Y-126218186D01*
X107185999Y-126244601D01*
X107149284Y-126264226D01*
X107109434Y-126276314D01*
X107061859Y-126281000D01*
X106298141Y-126281000D01*
X106250566Y-126276314D01*
X106210716Y-126264226D01*
X106174001Y-126244601D01*
X106141814Y-126218186D01*
X106115399Y-126185999D01*
X106095774Y-126149284D01*
X106083686Y-126109434D01*
X106079000Y-126061859D01*
X106079000Y-125398141D01*
X106083686Y-125350566D01*
X106095774Y-125310716D01*
X106115399Y-125274001D01*
X106141814Y-125241814D01*
X106174001Y-125215399D01*
X106210716Y-125195774D01*
X106250566Y-125183686D01*
X106298141Y-125179000D01*
X107061859Y-125179000D01*
X107109434Y-125183686D01*
X107109434Y-125183686D01*
G37*
G36*
X173682865Y-119345855D02*
G01*
X174104106Y-119520339D01*
X174283610Y-119594692D01*
X174824265Y-119955946D01*
X175284054Y-120415735D01*
X175645308Y-120956390D01*
X175645309Y-120956392D01*
X175894145Y-121557135D01*
X176021000Y-122194879D01*
X176021000Y-122845121D01*
X175894145Y-123482865D01*
X175697748Y-123957009D01*
X175645308Y-124083610D01*
X175284054Y-124624265D01*
X174824265Y-125084054D01*
X174283610Y-125445308D01*
X174283609Y-125445309D01*
X174283608Y-125445309D01*
X173682865Y-125694145D01*
X173045121Y-125821000D01*
X172394879Y-125821000D01*
X171757135Y-125694145D01*
X171156392Y-125445309D01*
X171156391Y-125445309D01*
X171156390Y-125445308D01*
X170615735Y-125084054D01*
X170155946Y-124624265D01*
X169794692Y-124083610D01*
X169742252Y-123957009D01*
X169545855Y-123482865D01*
X169419000Y-122845121D01*
X169419000Y-122194879D01*
X169545855Y-121557135D01*
X169794691Y-120956392D01*
X169794692Y-120956390D01*
X170155946Y-120415735D01*
X170615735Y-119955946D01*
X171156390Y-119594692D01*
X171335894Y-119520339D01*
X171757135Y-119345855D01*
X172394879Y-119219000D01*
X173045121Y-119219000D01*
X173682865Y-119345855D01*
X173682865Y-119345855D01*
G37*
G36*
X104581000Y-125656000D02*
G01*
X102479000Y-125656000D01*
X102479000Y-124054000D01*
X104581000Y-124054000D01*
X104581000Y-125656000D01*
X104581000Y-125656000D01*
G37*
G36*
X125840442Y-123565518D02*
G01*
X125906627Y-123572037D01*
X126076466Y-123623557D01*
X126232991Y-123707222D01*
X126268729Y-123736552D01*
X126370186Y-123819814D01*
X126453448Y-123921271D01*
X126482778Y-123957009D01*
X126566443Y-124113534D01*
X126617963Y-124283373D01*
X126635359Y-124460000D01*
X126617963Y-124636627D01*
X126566443Y-124806466D01*
X126482778Y-124962991D01*
X126453448Y-124998729D01*
X126370186Y-125100186D01*
X126274149Y-125179000D01*
X126232991Y-125212778D01*
X126076466Y-125296443D01*
X125906627Y-125347963D01*
X125840442Y-125354482D01*
X125774260Y-125361000D01*
X125685740Y-125361000D01*
X125619558Y-125354482D01*
X125553373Y-125347963D01*
X125383534Y-125296443D01*
X125227009Y-125212778D01*
X125185851Y-125179000D01*
X125089814Y-125100186D01*
X125006552Y-124998729D01*
X124977222Y-124962991D01*
X124893557Y-124806466D01*
X124842037Y-124636627D01*
X124824641Y-124460000D01*
X124842037Y-124283373D01*
X124893557Y-124113534D01*
X124977222Y-123957009D01*
X125006552Y-123921271D01*
X125089814Y-123819814D01*
X125191271Y-123736552D01*
X125227009Y-123707222D01*
X125383534Y-123623557D01*
X125553373Y-123572037D01*
X125619558Y-123565518D01*
X125685740Y-123559000D01*
X125774260Y-123559000D01*
X125840442Y-123565518D01*
X125840442Y-123565518D01*
G37*
G36*
X129171000Y-125361000D02*
G01*
X127369000Y-125361000D01*
X127369000Y-123559000D01*
X129171000Y-123559000D01*
X129171000Y-125361000D01*
X129171000Y-125361000D01*
G37*
G36*
X123300442Y-123565518D02*
G01*
X123366627Y-123572037D01*
X123536466Y-123623557D01*
X123692991Y-123707222D01*
X123728729Y-123736552D01*
X123830186Y-123819814D01*
X123913448Y-123921271D01*
X123942778Y-123957009D01*
X124026443Y-124113534D01*
X124077963Y-124283373D01*
X124095359Y-124460000D01*
X124077963Y-124636627D01*
X124026443Y-124806466D01*
X123942778Y-124962991D01*
X123913448Y-124998729D01*
X123830186Y-125100186D01*
X123734149Y-125179000D01*
X123692991Y-125212778D01*
X123536466Y-125296443D01*
X123366627Y-125347963D01*
X123300442Y-125354482D01*
X123234260Y-125361000D01*
X123145740Y-125361000D01*
X123079558Y-125354482D01*
X123013373Y-125347963D01*
X122843534Y-125296443D01*
X122687009Y-125212778D01*
X122645851Y-125179000D01*
X122549814Y-125100186D01*
X122466552Y-124998729D01*
X122437222Y-124962991D01*
X122353557Y-124806466D01*
X122302037Y-124636627D01*
X122284641Y-124460000D01*
X122302037Y-124283373D01*
X122353557Y-124113534D01*
X122437222Y-123957009D01*
X122466552Y-123921271D01*
X122549814Y-123819814D01*
X122651271Y-123736552D01*
X122687009Y-123707222D01*
X122843534Y-123623557D01*
X123013373Y-123572037D01*
X123079558Y-123565518D01*
X123145740Y-123559000D01*
X123234260Y-123559000D01*
X123300442Y-123565518D01*
X123300442Y-123565518D01*
G37*
G36*
X120760442Y-123565518D02*
G01*
X120826627Y-123572037D01*
X120996466Y-123623557D01*
X121152991Y-123707222D01*
X121188729Y-123736552D01*
X121290186Y-123819814D01*
X121373448Y-123921271D01*
X121402778Y-123957009D01*
X121486443Y-124113534D01*
X121537963Y-124283373D01*
X121555359Y-124460000D01*
X121537963Y-124636627D01*
X121486443Y-124806466D01*
X121402778Y-124962991D01*
X121373448Y-124998729D01*
X121290186Y-125100186D01*
X121194149Y-125179000D01*
X121152991Y-125212778D01*
X120996466Y-125296443D01*
X120826627Y-125347963D01*
X120760442Y-125354482D01*
X120694260Y-125361000D01*
X120605740Y-125361000D01*
X120539558Y-125354482D01*
X120473373Y-125347963D01*
X120303534Y-125296443D01*
X120147009Y-125212778D01*
X120105851Y-125179000D01*
X120009814Y-125100186D01*
X119926552Y-124998729D01*
X119897222Y-124962991D01*
X119813557Y-124806466D01*
X119762037Y-124636627D01*
X119744641Y-124460000D01*
X119762037Y-124283373D01*
X119813557Y-124113534D01*
X119897222Y-123957009D01*
X119926552Y-123921271D01*
X120009814Y-123819814D01*
X120111271Y-123736552D01*
X120147009Y-123707222D01*
X120303534Y-123623557D01*
X120473373Y-123572037D01*
X120539558Y-123565518D01*
X120605740Y-123559000D01*
X120694260Y-123559000D01*
X120760442Y-123565518D01*
X120760442Y-123565518D01*
G37*
G36*
X118220442Y-123565518D02*
G01*
X118286627Y-123572037D01*
X118456466Y-123623557D01*
X118612991Y-123707222D01*
X118648729Y-123736552D01*
X118750186Y-123819814D01*
X118833448Y-123921271D01*
X118862778Y-123957009D01*
X118946443Y-124113534D01*
X118997963Y-124283373D01*
X119015359Y-124460000D01*
X118997963Y-124636627D01*
X118946443Y-124806466D01*
X118862778Y-124962991D01*
X118833448Y-124998729D01*
X118750186Y-125100186D01*
X118654149Y-125179000D01*
X118612991Y-125212778D01*
X118456466Y-125296443D01*
X118286627Y-125347963D01*
X118220442Y-125354482D01*
X118154260Y-125361000D01*
X118065740Y-125361000D01*
X117999558Y-125354482D01*
X117933373Y-125347963D01*
X117763534Y-125296443D01*
X117607009Y-125212778D01*
X117565851Y-125179000D01*
X117469814Y-125100186D01*
X117386552Y-124998729D01*
X117357222Y-124962991D01*
X117273557Y-124806466D01*
X117222037Y-124636627D01*
X117204641Y-124460000D01*
X117222037Y-124283373D01*
X117273557Y-124113534D01*
X117357222Y-123957009D01*
X117386552Y-123921271D01*
X117469814Y-123819814D01*
X117571271Y-123736552D01*
X117607009Y-123707222D01*
X117763534Y-123623557D01*
X117933373Y-123572037D01*
X117999558Y-123565518D01*
X118065740Y-123559000D01*
X118154260Y-123559000D01*
X118220442Y-123565518D01*
X118220442Y-123565518D01*
G37*
G36*
X115680442Y-123565518D02*
G01*
X115746627Y-123572037D01*
X115916466Y-123623557D01*
X116072991Y-123707222D01*
X116108729Y-123736552D01*
X116210186Y-123819814D01*
X116293448Y-123921271D01*
X116322778Y-123957009D01*
X116406443Y-124113534D01*
X116457963Y-124283373D01*
X116475359Y-124460000D01*
X116457963Y-124636627D01*
X116406443Y-124806466D01*
X116322778Y-124962991D01*
X116293448Y-124998729D01*
X116210186Y-125100186D01*
X116114149Y-125179000D01*
X116072991Y-125212778D01*
X115916466Y-125296443D01*
X115746627Y-125347963D01*
X115680442Y-125354482D01*
X115614260Y-125361000D01*
X115525740Y-125361000D01*
X115459558Y-125354482D01*
X115393373Y-125347963D01*
X115223534Y-125296443D01*
X115067009Y-125212778D01*
X115025851Y-125179000D01*
X114929814Y-125100186D01*
X114846552Y-124998729D01*
X114817222Y-124962991D01*
X114733557Y-124806466D01*
X114682037Y-124636627D01*
X114664641Y-124460000D01*
X114682037Y-124283373D01*
X114733557Y-124113534D01*
X114817222Y-123957009D01*
X114846552Y-123921271D01*
X114929814Y-123819814D01*
X115031271Y-123736552D01*
X115067009Y-123707222D01*
X115223534Y-123623557D01*
X115393373Y-123572037D01*
X115459558Y-123565518D01*
X115525740Y-123559000D01*
X115614260Y-123559000D01*
X115680442Y-123565518D01*
X115680442Y-123565518D01*
G37*
G36*
X110881000Y-124506000D02*
G01*
X108779000Y-124506000D01*
X108779000Y-120604000D01*
X110881000Y-120604000D01*
X110881000Y-124506000D01*
X110881000Y-124506000D01*
G37*
G36*
X104581000Y-123356000D02*
G01*
X102479000Y-123356000D01*
X102479000Y-121754000D01*
X104581000Y-121754000D01*
X104581000Y-123356000D01*
X104581000Y-123356000D01*
G37*
G36*
X123941000Y-122801000D02*
G01*
X122439000Y-122801000D01*
X122439000Y-121299000D01*
X123941000Y-121299000D01*
X123941000Y-122801000D01*
X123941000Y-122801000D01*
G37*
G36*
X155526669Y-119007686D02*
G01*
X155703058Y-119025059D01*
X156042548Y-119128042D01*
X156042550Y-119128043D01*
X156355422Y-119295277D01*
X156417053Y-119345856D01*
X156629661Y-119520339D01*
X156854722Y-119794577D01*
X157021958Y-120107452D01*
X157124941Y-120446942D01*
X157159714Y-120800000D01*
X157124941Y-121153058D01*
X157080670Y-121299000D01*
X157021957Y-121492550D01*
X156854723Y-121805422D01*
X156629661Y-122079661D01*
X156355422Y-122304723D01*
X156042550Y-122471957D01*
X156042548Y-122471958D01*
X155703058Y-122574941D01*
X155526669Y-122592314D01*
X155438476Y-122601000D01*
X155261524Y-122601000D01*
X155173331Y-122592314D01*
X154996942Y-122574941D01*
X154657452Y-122471958D01*
X154657450Y-122471957D01*
X154344578Y-122304723D01*
X154070339Y-122079661D01*
X153845277Y-121805422D01*
X153678043Y-121492550D01*
X153619330Y-121299000D01*
X153575059Y-121153058D01*
X153540286Y-120800000D01*
X153575059Y-120446942D01*
X153678042Y-120107452D01*
X153845278Y-119794577D01*
X154070339Y-119520339D01*
X154282947Y-119345856D01*
X154344578Y-119295277D01*
X154657450Y-119128043D01*
X154657452Y-119128042D01*
X154996942Y-119025059D01*
X155173331Y-119007686D01*
X155261524Y-118999000D01*
X155438476Y-118999000D01*
X155526669Y-119007686D01*
X155526669Y-119007686D01*
G37*
G36*
X104581000Y-121056000D02*
G01*
X102479000Y-121056000D01*
X102479000Y-119454000D01*
X104581000Y-119454000D01*
X104581000Y-121056000D01*
X104581000Y-121056000D01*
G37*
G36*
X123941000Y-120001000D02*
G01*
X122439000Y-120001000D01*
X122439000Y-118499000D01*
X123941000Y-118499000D01*
X123941000Y-120001000D01*
X123941000Y-120001000D01*
G37*
G36*
X173682865Y-112395855D02*
G01*
X174283608Y-112644691D01*
X174283610Y-112644692D01*
X174824265Y-113005946D01*
X175284054Y-113465735D01*
X175632352Y-113987000D01*
X175645309Y-114006392D01*
X175894145Y-114607135D01*
X176021000Y-115244879D01*
X176021000Y-115895121D01*
X175894145Y-116532865D01*
X175645309Y-117133608D01*
X175645308Y-117133610D01*
X175284054Y-117674265D01*
X174824265Y-118134054D01*
X174283610Y-118495308D01*
X174283609Y-118495309D01*
X174283608Y-118495309D01*
X173682865Y-118744145D01*
X173045121Y-118871000D01*
X172394879Y-118871000D01*
X171757135Y-118744145D01*
X171156392Y-118495309D01*
X171156391Y-118495309D01*
X171156390Y-118495308D01*
X170615735Y-118134054D01*
X170155946Y-117674265D01*
X169794692Y-117133610D01*
X169794691Y-117133608D01*
X169545855Y-116532865D01*
X169419000Y-115895121D01*
X169419000Y-115244879D01*
X169545855Y-114607135D01*
X169794691Y-114006392D01*
X169807648Y-113987000D01*
X170155946Y-113465735D01*
X170615735Y-113005946D01*
X171156390Y-112644692D01*
X171156392Y-112644691D01*
X171757135Y-112395855D01*
X172394879Y-112269000D01*
X173045121Y-112269000D01*
X173682865Y-112395855D01*
X173682865Y-112395855D01*
G37*
G36*
X102614434Y-117513686D02*
G01*
X102654284Y-117525774D01*
X102690999Y-117545399D01*
X102723186Y-117571814D01*
X102749601Y-117604001D01*
X102769226Y-117640716D01*
X102781314Y-117680566D01*
X102786000Y-117728141D01*
X102786000Y-118491859D01*
X102781314Y-118539434D01*
X102769226Y-118579284D01*
X102749601Y-118615999D01*
X102723186Y-118648186D01*
X102690999Y-118674601D01*
X102654284Y-118694226D01*
X102614434Y-118706314D01*
X102566859Y-118711000D01*
X101903141Y-118711000D01*
X101855566Y-118706314D01*
X101815716Y-118694226D01*
X101779001Y-118674601D01*
X101746814Y-118648186D01*
X101720399Y-118615999D01*
X101700774Y-118579284D01*
X101688686Y-118539434D01*
X101684000Y-118491859D01*
X101684000Y-117728141D01*
X101688686Y-117680566D01*
X101700774Y-117640716D01*
X101720399Y-117604001D01*
X101746814Y-117571814D01*
X101779001Y-117545399D01*
X101815716Y-117525774D01*
X101855566Y-117513686D01*
X101903141Y-117509000D01*
X102566859Y-117509000D01*
X102614434Y-117513686D01*
X102614434Y-117513686D01*
G37*
G36*
X101039434Y-117513686D02*
G01*
X101079284Y-117525774D01*
X101115999Y-117545399D01*
X101148186Y-117571814D01*
X101174601Y-117604001D01*
X101194226Y-117640716D01*
X101206314Y-117680566D01*
X101211000Y-117728141D01*
X101211000Y-118491859D01*
X101206314Y-118539434D01*
X101194226Y-118579284D01*
X101174601Y-118615999D01*
X101148186Y-118648186D01*
X101115999Y-118674601D01*
X101079284Y-118694226D01*
X101039434Y-118706314D01*
X100991859Y-118711000D01*
X100328141Y-118711000D01*
X100280566Y-118706314D01*
X100240716Y-118694226D01*
X100204001Y-118674601D01*
X100171814Y-118648186D01*
X100145399Y-118615999D01*
X100125774Y-118579284D01*
X100113686Y-118539434D01*
X100109000Y-118491859D01*
X100109000Y-117728141D01*
X100113686Y-117680566D01*
X100125774Y-117640716D01*
X100145399Y-117604001D01*
X100171814Y-117571814D01*
X100204001Y-117545399D01*
X100240716Y-117525774D01*
X100280566Y-117513686D01*
X100328141Y-117509000D01*
X100991859Y-117509000D01*
X101039434Y-117513686D01*
X101039434Y-117513686D01*
G37*
G36*
X129650442Y-115310518D02*
G01*
X129716627Y-115317037D01*
X129886466Y-115368557D01*
X130042991Y-115452222D01*
X130047248Y-115455716D01*
X130180186Y-115564814D01*
X130242216Y-115640399D01*
X130292778Y-115702009D01*
X130376443Y-115858534D01*
X130427963Y-116028373D01*
X130445359Y-116205000D01*
X130427963Y-116381627D01*
X130376443Y-116551466D01*
X130292778Y-116707991D01*
X130290309Y-116710999D01*
X130180186Y-116845186D01*
X130078729Y-116928448D01*
X130042991Y-116957778D01*
X129886466Y-117041443D01*
X129716627Y-117092963D01*
X129650443Y-117099481D01*
X129584260Y-117106000D01*
X129495740Y-117106000D01*
X129429557Y-117099481D01*
X129363373Y-117092963D01*
X129193534Y-117041443D01*
X129037009Y-116957778D01*
X129001271Y-116928448D01*
X128899814Y-116845186D01*
X128789691Y-116710999D01*
X128787222Y-116707991D01*
X128703557Y-116551466D01*
X128652037Y-116381627D01*
X128634641Y-116205000D01*
X128652037Y-116028373D01*
X128703557Y-115858534D01*
X128787222Y-115702009D01*
X128837784Y-115640399D01*
X128899814Y-115564814D01*
X129032752Y-115455716D01*
X129037009Y-115452222D01*
X129193534Y-115368557D01*
X129363373Y-115317037D01*
X129429558Y-115310518D01*
X129495740Y-115304000D01*
X129584260Y-115304000D01*
X129650442Y-115310518D01*
X129650442Y-115310518D01*
G37*
G36*
X143141000Y-117106000D02*
G01*
X141339000Y-117106000D01*
X141339000Y-115304000D01*
X143141000Y-115304000D01*
X143141000Y-117106000D01*
X143141000Y-117106000D01*
G37*
G36*
X144890442Y-115310518D02*
G01*
X144956627Y-115317037D01*
X145126466Y-115368557D01*
X145282991Y-115452222D01*
X145287248Y-115455716D01*
X145420186Y-115564814D01*
X145482216Y-115640399D01*
X145532778Y-115702009D01*
X145616443Y-115858534D01*
X145667963Y-116028373D01*
X145685359Y-116205000D01*
X145667963Y-116381627D01*
X145616443Y-116551466D01*
X145532778Y-116707991D01*
X145530309Y-116710999D01*
X145420186Y-116845186D01*
X145318729Y-116928448D01*
X145282991Y-116957778D01*
X145126466Y-117041443D01*
X144956627Y-117092963D01*
X144890443Y-117099481D01*
X144824260Y-117106000D01*
X144735740Y-117106000D01*
X144669557Y-117099481D01*
X144603373Y-117092963D01*
X144433534Y-117041443D01*
X144277009Y-116957778D01*
X144241271Y-116928448D01*
X144139814Y-116845186D01*
X144029691Y-116710999D01*
X144027222Y-116707991D01*
X143943557Y-116551466D01*
X143892037Y-116381627D01*
X143874641Y-116205000D01*
X143892037Y-116028373D01*
X143943557Y-115858534D01*
X144027222Y-115702009D01*
X144077784Y-115640399D01*
X144139814Y-115564814D01*
X144272752Y-115455716D01*
X144277009Y-115452222D01*
X144433534Y-115368557D01*
X144603373Y-115317037D01*
X144669558Y-115310518D01*
X144735740Y-115304000D01*
X144824260Y-115304000D01*
X144890442Y-115310518D01*
X144890442Y-115310518D01*
G37*
G36*
X132190442Y-115310518D02*
G01*
X132256627Y-115317037D01*
X132426466Y-115368557D01*
X132582991Y-115452222D01*
X132587248Y-115455716D01*
X132720186Y-115564814D01*
X132782216Y-115640399D01*
X132832778Y-115702009D01*
X132916443Y-115858534D01*
X132967963Y-116028373D01*
X132985359Y-116205000D01*
X132967963Y-116381627D01*
X132916443Y-116551466D01*
X132832778Y-116707991D01*
X132830309Y-116710999D01*
X132720186Y-116845186D01*
X132618729Y-116928448D01*
X132582991Y-116957778D01*
X132426466Y-117041443D01*
X132256627Y-117092963D01*
X132190443Y-117099481D01*
X132124260Y-117106000D01*
X132035740Y-117106000D01*
X131969557Y-117099481D01*
X131903373Y-117092963D01*
X131733534Y-117041443D01*
X131577009Y-116957778D01*
X131541271Y-116928448D01*
X131439814Y-116845186D01*
X131329691Y-116710999D01*
X131327222Y-116707991D01*
X131243557Y-116551466D01*
X131192037Y-116381627D01*
X131174641Y-116205000D01*
X131192037Y-116028373D01*
X131243557Y-115858534D01*
X131327222Y-115702009D01*
X131377784Y-115640399D01*
X131439814Y-115564814D01*
X131572752Y-115455716D01*
X131577009Y-115452222D01*
X131733534Y-115368557D01*
X131903373Y-115317037D01*
X131969558Y-115310518D01*
X132035740Y-115304000D01*
X132124260Y-115304000D01*
X132190442Y-115310518D01*
X132190442Y-115310518D01*
G37*
G36*
X127901000Y-117106000D02*
G01*
X126099000Y-117106000D01*
X126099000Y-115304000D01*
X127901000Y-115304000D01*
X127901000Y-117106000D01*
X127901000Y-117106000D01*
G37*
G36*
X134730442Y-115310518D02*
G01*
X134796627Y-115317037D01*
X134966466Y-115368557D01*
X135122991Y-115452222D01*
X135127248Y-115455716D01*
X135260186Y-115564814D01*
X135322216Y-115640399D01*
X135372778Y-115702009D01*
X135456443Y-115858534D01*
X135507963Y-116028373D01*
X135525359Y-116205000D01*
X135507963Y-116381627D01*
X135456443Y-116551466D01*
X135372778Y-116707991D01*
X135370309Y-116710999D01*
X135260186Y-116845186D01*
X135158729Y-116928448D01*
X135122991Y-116957778D01*
X134966466Y-117041443D01*
X134796627Y-117092963D01*
X134730443Y-117099481D01*
X134664260Y-117106000D01*
X134575740Y-117106000D01*
X134509557Y-117099481D01*
X134443373Y-117092963D01*
X134273534Y-117041443D01*
X134117009Y-116957778D01*
X134081271Y-116928448D01*
X133979814Y-116845186D01*
X133869691Y-116710999D01*
X133867222Y-116707991D01*
X133783557Y-116551466D01*
X133732037Y-116381627D01*
X133714641Y-116205000D01*
X133732037Y-116028373D01*
X133783557Y-115858534D01*
X133867222Y-115702009D01*
X133917784Y-115640399D01*
X133979814Y-115564814D01*
X134112752Y-115455716D01*
X134117009Y-115452222D01*
X134273534Y-115368557D01*
X134443373Y-115317037D01*
X134509558Y-115310518D01*
X134575740Y-115304000D01*
X134664260Y-115304000D01*
X134730442Y-115310518D01*
X134730442Y-115310518D01*
G37*
G36*
X102614434Y-115608686D02*
G01*
X102654284Y-115620774D01*
X102690999Y-115640399D01*
X102723186Y-115666814D01*
X102749601Y-115699001D01*
X102769226Y-115735716D01*
X102781314Y-115775566D01*
X102786000Y-115823141D01*
X102786000Y-116586859D01*
X102781314Y-116634434D01*
X102769226Y-116674284D01*
X102749601Y-116710999D01*
X102723186Y-116743186D01*
X102690999Y-116769601D01*
X102654284Y-116789226D01*
X102614434Y-116801314D01*
X102566859Y-116806000D01*
X101903141Y-116806000D01*
X101855566Y-116801314D01*
X101815716Y-116789226D01*
X101779001Y-116769601D01*
X101746814Y-116743186D01*
X101720399Y-116710999D01*
X101700774Y-116674284D01*
X101688686Y-116634434D01*
X101684000Y-116586859D01*
X101684000Y-115823141D01*
X101688686Y-115775566D01*
X101700774Y-115735716D01*
X101720399Y-115699001D01*
X101746814Y-115666814D01*
X101779001Y-115640399D01*
X101815716Y-115620774D01*
X101855566Y-115608686D01*
X101903141Y-115604000D01*
X102566859Y-115604000D01*
X102614434Y-115608686D01*
X102614434Y-115608686D01*
G37*
G36*
X101039434Y-115608686D02*
G01*
X101079284Y-115620774D01*
X101115999Y-115640399D01*
X101148186Y-115666814D01*
X101174601Y-115699001D01*
X101194226Y-115735716D01*
X101206314Y-115775566D01*
X101211000Y-115823141D01*
X101211000Y-116586859D01*
X101206314Y-116634434D01*
X101194226Y-116674284D01*
X101174601Y-116710999D01*
X101148186Y-116743186D01*
X101115999Y-116769601D01*
X101079284Y-116789226D01*
X101039434Y-116801314D01*
X100991859Y-116806000D01*
X100328141Y-116806000D01*
X100280566Y-116801314D01*
X100240716Y-116789226D01*
X100204001Y-116769601D01*
X100171814Y-116743186D01*
X100145399Y-116710999D01*
X100125774Y-116674284D01*
X100113686Y-116634434D01*
X100109000Y-116586859D01*
X100109000Y-115823141D01*
X100113686Y-115775566D01*
X100125774Y-115735716D01*
X100145399Y-115699001D01*
X100171814Y-115666814D01*
X100204001Y-115640399D01*
X100240716Y-115620774D01*
X100280566Y-115608686D01*
X100328141Y-115604000D01*
X100991859Y-115604000D01*
X101039434Y-115608686D01*
X101039434Y-115608686D01*
G37*
G36*
X104569434Y-115328686D02*
G01*
X104609284Y-115340774D01*
X104645999Y-115360399D01*
X104678186Y-115386814D01*
X104704601Y-115419001D01*
X104724226Y-115455716D01*
X104736314Y-115495566D01*
X104741000Y-115543141D01*
X104741000Y-116206859D01*
X104736314Y-116254434D01*
X104724226Y-116294284D01*
X104704601Y-116330999D01*
X104678186Y-116363186D01*
X104645999Y-116389601D01*
X104609284Y-116409226D01*
X104569434Y-116421314D01*
X104521859Y-116426000D01*
X103758141Y-116426000D01*
X103710566Y-116421314D01*
X103670716Y-116409226D01*
X103634001Y-116389601D01*
X103601814Y-116363186D01*
X103575399Y-116330999D01*
X103555774Y-116294284D01*
X103543686Y-116254434D01*
X103539000Y-116206859D01*
X103539000Y-115543141D01*
X103543686Y-115495566D01*
X103555774Y-115455716D01*
X103575399Y-115419001D01*
X103601814Y-115386814D01*
X103634001Y-115360399D01*
X103670716Y-115340774D01*
X103710566Y-115328686D01*
X103758141Y-115324000D01*
X104521859Y-115324000D01*
X104569434Y-115328686D01*
X104569434Y-115328686D01*
G37*
G36*
X102709250Y-113679406D02*
G01*
X102756133Y-113693628D01*
X102799333Y-113716719D01*
X102837203Y-113747797D01*
X102868281Y-113785667D01*
X102891372Y-113828867D01*
X102905594Y-113875750D01*
X102911000Y-113930640D01*
X102911000Y-114669360D01*
X102905594Y-114724250D01*
X102891372Y-114771133D01*
X102868281Y-114814333D01*
X102837203Y-114852203D01*
X102799333Y-114883281D01*
X102756133Y-114906372D01*
X102709250Y-114920594D01*
X102654360Y-114926000D01*
X101815640Y-114926000D01*
X101760750Y-114920594D01*
X101713867Y-114906372D01*
X101670667Y-114883281D01*
X101632797Y-114852203D01*
X101601719Y-114814333D01*
X101578628Y-114771133D01*
X101564406Y-114724250D01*
X101559000Y-114669360D01*
X101559000Y-113930640D01*
X101564406Y-113875750D01*
X101578628Y-113828867D01*
X101601719Y-113785667D01*
X101632797Y-113747797D01*
X101670667Y-113716719D01*
X101713867Y-113693628D01*
X101760750Y-113679406D01*
X101815640Y-113674000D01*
X102654360Y-113674000D01*
X102709250Y-113679406D01*
X102709250Y-113679406D01*
G37*
G36*
X100959250Y-113679406D02*
G01*
X101006133Y-113693628D01*
X101049333Y-113716719D01*
X101087203Y-113747797D01*
X101118281Y-113785667D01*
X101141372Y-113828867D01*
X101155594Y-113875750D01*
X101161000Y-113930640D01*
X101161000Y-114669360D01*
X101155594Y-114724250D01*
X101141372Y-114771133D01*
X101118281Y-114814333D01*
X101087203Y-114852203D01*
X101049333Y-114883281D01*
X101006133Y-114906372D01*
X100959250Y-114920594D01*
X100904360Y-114926000D01*
X100065640Y-114926000D01*
X100010750Y-114920594D01*
X99963867Y-114906372D01*
X99920667Y-114883281D01*
X99882797Y-114852203D01*
X99851719Y-114814333D01*
X99828628Y-114771133D01*
X99814406Y-114724250D01*
X99809000Y-114669360D01*
X99809000Y-113930640D01*
X99814406Y-113875750D01*
X99828628Y-113828867D01*
X99851719Y-113785667D01*
X99882797Y-113747797D01*
X99920667Y-113716719D01*
X99963867Y-113693628D01*
X100010750Y-113679406D01*
X100065640Y-113674000D01*
X100904360Y-113674000D01*
X100959250Y-113679406D01*
X100959250Y-113679406D01*
G37*
G36*
X106424434Y-113703686D02*
G01*
X106464284Y-113715774D01*
X106500999Y-113735399D01*
X106533186Y-113761814D01*
X106559601Y-113794001D01*
X106579226Y-113830716D01*
X106591314Y-113870566D01*
X106596000Y-113918141D01*
X106596000Y-114681859D01*
X106591314Y-114729434D01*
X106579226Y-114769284D01*
X106559601Y-114805999D01*
X106533186Y-114838186D01*
X106500999Y-114864601D01*
X106464284Y-114884226D01*
X106424434Y-114896314D01*
X106376859Y-114901000D01*
X105713141Y-114901000D01*
X105665566Y-114896314D01*
X105625716Y-114884226D01*
X105589001Y-114864601D01*
X105556814Y-114838186D01*
X105530399Y-114805999D01*
X105510774Y-114769284D01*
X105498686Y-114729434D01*
X105494000Y-114681859D01*
X105494000Y-113918141D01*
X105498686Y-113870566D01*
X105510774Y-113830716D01*
X105530399Y-113794001D01*
X105556814Y-113761814D01*
X105589001Y-113735399D01*
X105625716Y-113715774D01*
X105665566Y-113703686D01*
X105713141Y-113699000D01*
X106376859Y-113699000D01*
X106424434Y-113703686D01*
X106424434Y-113703686D01*
G37*
G36*
X107999434Y-113703686D02*
G01*
X108039284Y-113715774D01*
X108075999Y-113735399D01*
X108108186Y-113761814D01*
X108134601Y-113794001D01*
X108154226Y-113830716D01*
X108166314Y-113870566D01*
X108171000Y-113918141D01*
X108171000Y-114681859D01*
X108166314Y-114729434D01*
X108154226Y-114769284D01*
X108134601Y-114805999D01*
X108108186Y-114838186D01*
X108075999Y-114864601D01*
X108039284Y-114884226D01*
X107999434Y-114896314D01*
X107951859Y-114901000D01*
X107288141Y-114901000D01*
X107240566Y-114896314D01*
X107200716Y-114884226D01*
X107164001Y-114864601D01*
X107131814Y-114838186D01*
X107105399Y-114805999D01*
X107085774Y-114769284D01*
X107073686Y-114729434D01*
X107069000Y-114681859D01*
X107069000Y-113918141D01*
X107073686Y-113870566D01*
X107085774Y-113830716D01*
X107105399Y-113794001D01*
X107131814Y-113761814D01*
X107164001Y-113735399D01*
X107200716Y-113715774D01*
X107240566Y-113703686D01*
X107288141Y-113699000D01*
X107951859Y-113699000D01*
X107999434Y-113703686D01*
X107999434Y-113703686D01*
G37*
G36*
X104569434Y-113753686D02*
G01*
X104609284Y-113765774D01*
X104645999Y-113785399D01*
X104678186Y-113811814D01*
X104704601Y-113844001D01*
X104724226Y-113880716D01*
X104736314Y-113920566D01*
X104741000Y-113968141D01*
X104741000Y-114631859D01*
X104736314Y-114679434D01*
X104724226Y-114719284D01*
X104704601Y-114755999D01*
X104678186Y-114788186D01*
X104645999Y-114814601D01*
X104609284Y-114834226D01*
X104569434Y-114846314D01*
X104521859Y-114851000D01*
X103758141Y-114851000D01*
X103710566Y-114846314D01*
X103670716Y-114834226D01*
X103634001Y-114814601D01*
X103601814Y-114788186D01*
X103575399Y-114755999D01*
X103555774Y-114719284D01*
X103543686Y-114679434D01*
X103539000Y-114631859D01*
X103539000Y-113968141D01*
X103543686Y-113920566D01*
X103555774Y-113880716D01*
X103575399Y-113844001D01*
X103601814Y-113811814D01*
X103634001Y-113785399D01*
X103670716Y-113765774D01*
X103710566Y-113753686D01*
X103758141Y-113749000D01*
X104521859Y-113749000D01*
X104569434Y-113753686D01*
X104569434Y-113753686D01*
G37*
G36*
X100196000Y-112421000D02*
G01*
X99194000Y-112421000D01*
X99194000Y-110319000D01*
X100196000Y-110319000D01*
X100196000Y-112421000D01*
X100196000Y-112421000D01*
G37*
G36*
X101466000Y-112421000D02*
G01*
X100464000Y-112421000D01*
X100464000Y-110319000D01*
X101466000Y-110319000D01*
X101466000Y-112421000D01*
X101466000Y-112421000D01*
G37*
G36*
X102736000Y-112421000D02*
G01*
X101734000Y-112421000D01*
X101734000Y-110319000D01*
X102736000Y-110319000D01*
X102736000Y-112421000D01*
X102736000Y-112421000D01*
G37*
G36*
X104006000Y-112421000D02*
G01*
X103004000Y-112421000D01*
X103004000Y-110319000D01*
X104006000Y-110319000D01*
X104006000Y-112421000D01*
X104006000Y-112421000D01*
G37*
G36*
X105276000Y-112421000D02*
G01*
X104274000Y-112421000D01*
X104274000Y-110319000D01*
X105276000Y-110319000D01*
X105276000Y-112421000D01*
X105276000Y-112421000D01*
G37*
G36*
X106546000Y-112421000D02*
G01*
X105544000Y-112421000D01*
X105544000Y-110319000D01*
X106546000Y-110319000D01*
X106546000Y-112421000D01*
X106546000Y-112421000D01*
G37*
G36*
X107816000Y-112421000D02*
G01*
X106814000Y-112421000D01*
X106814000Y-110319000D01*
X107816000Y-110319000D01*
X107816000Y-112421000D01*
X107816000Y-112421000D01*
G37*
G36*
X110356000Y-112421000D02*
G01*
X109354000Y-112421000D01*
X109354000Y-110319000D01*
X110356000Y-110319000D01*
X110356000Y-112421000D01*
X110356000Y-112421000D01*
G37*
G36*
X109086000Y-112421000D02*
G01*
X108084000Y-112421000D01*
X108084000Y-110319000D01*
X109086000Y-110319000D01*
X109086000Y-112421000D01*
X109086000Y-112421000D01*
G37*
G36*
X115436000Y-112421000D02*
G01*
X114434000Y-112421000D01*
X114434000Y-110319000D01*
X115436000Y-110319000D01*
X115436000Y-112421000D01*
X115436000Y-112421000D01*
G37*
G36*
X116706000Y-112421000D02*
G01*
X115704000Y-112421000D01*
X115704000Y-110319000D01*
X116706000Y-110319000D01*
X116706000Y-112421000D01*
X116706000Y-112421000D01*
G37*
G36*
X114166000Y-112421000D02*
G01*
X113164000Y-112421000D01*
X113164000Y-110319000D01*
X114166000Y-110319000D01*
X114166000Y-112421000D01*
X114166000Y-112421000D01*
G37*
G36*
X112896000Y-112421000D02*
G01*
X111894000Y-112421000D01*
X111894000Y-110319000D01*
X112896000Y-110319000D01*
X112896000Y-112421000D01*
X112896000Y-112421000D01*
G37*
G36*
X111626000Y-112421000D02*
G01*
X110624000Y-112421000D01*
X110624000Y-110319000D01*
X111626000Y-110319000D01*
X111626000Y-112421000D01*
X111626000Y-112421000D01*
G37*
G36*
X123619585Y-106746302D02*
G01*
X123769410Y-106776104D01*
X124051674Y-106893021D01*
X124305705Y-107062759D01*
X124521741Y-107278795D01*
X124691479Y-107532826D01*
X124808396Y-107815090D01*
X124808396Y-107815091D01*
X124861886Y-108084000D01*
X124868000Y-108114740D01*
X124868000Y-108420260D01*
X124808396Y-108719910D01*
X124691479Y-109002174D01*
X124521741Y-109256205D01*
X124305705Y-109472241D01*
X124051674Y-109641979D01*
X123769410Y-109758896D01*
X123619585Y-109788698D01*
X123469761Y-109818500D01*
X123164239Y-109818500D01*
X123014415Y-109788698D01*
X122864590Y-109758896D01*
X122582326Y-109641979D01*
X122328295Y-109472241D01*
X122112259Y-109256205D01*
X121942521Y-109002174D01*
X121825604Y-108719910D01*
X121766000Y-108420260D01*
X121766000Y-108114740D01*
X121772115Y-108084000D01*
X121825604Y-107815091D01*
X121825604Y-107815090D01*
X121942521Y-107532826D01*
X122112259Y-107278795D01*
X122328295Y-107062759D01*
X122582326Y-106893021D01*
X122864590Y-106776104D01*
X123014415Y-106746302D01*
X123164239Y-106716500D01*
X123469761Y-106716500D01*
X123619585Y-106746302D01*
X123619585Y-106746302D01*
G37*
G36*
X143749085Y-106682802D02*
G01*
X143898910Y-106712604D01*
X144181174Y-106829521D01*
X144435205Y-106999259D01*
X144651241Y-107215295D01*
X144820979Y-107469326D01*
X144937896Y-107751590D01*
X144997500Y-108051240D01*
X144997500Y-108356760D01*
X144937896Y-108656410D01*
X144820979Y-108938674D01*
X144651241Y-109192705D01*
X144435205Y-109408741D01*
X144181174Y-109578479D01*
X143898910Y-109695396D01*
X143749085Y-109725198D01*
X143599261Y-109755000D01*
X143293739Y-109755000D01*
X143143915Y-109725198D01*
X142994090Y-109695396D01*
X142711826Y-109578479D01*
X142457795Y-109408741D01*
X142241759Y-109192705D01*
X142072021Y-108938674D01*
X141955104Y-108656410D01*
X141895500Y-108356760D01*
X141895500Y-108051240D01*
X141955104Y-107751590D01*
X142072021Y-107469326D01*
X142241759Y-107215295D01*
X142457795Y-106999259D01*
X142711826Y-106829521D01*
X142994090Y-106712604D01*
X143143915Y-106682802D01*
X143293739Y-106653000D01*
X143599261Y-106653000D01*
X143749085Y-106682802D01*
X143749085Y-106682802D01*
G37*
G36*
X118256000Y-109086000D02*
G01*
X116154000Y-109086000D01*
X116154000Y-108084000D01*
X118256000Y-108084000D01*
X118256000Y-109086000D01*
X118256000Y-109086000D01*
G37*
G36*
X173682865Y-101900855D02*
G01*
X174283608Y-102149691D01*
X174283610Y-102149692D01*
X174824265Y-102510946D01*
X175284054Y-102970735D01*
X175645308Y-103511390D01*
X175645309Y-103511392D01*
X175894145Y-104112135D01*
X176021000Y-104749879D01*
X176021000Y-105400121D01*
X175894145Y-106037865D01*
X175645309Y-106638608D01*
X175645308Y-106638610D01*
X175284054Y-107179265D01*
X174824265Y-107639054D01*
X174283610Y-108000308D01*
X174283609Y-108000309D01*
X174283608Y-108000309D01*
X173682865Y-108249145D01*
X173045121Y-108376000D01*
X172394879Y-108376000D01*
X171757135Y-108249145D01*
X171156392Y-108000309D01*
X171156391Y-108000309D01*
X171156390Y-108000308D01*
X170615735Y-107639054D01*
X170155946Y-107179265D01*
X169794692Y-106638610D01*
X169794691Y-106638608D01*
X169545855Y-106037865D01*
X169419000Y-105400121D01*
X169419000Y-104749879D01*
X169545855Y-104112135D01*
X169794691Y-103511392D01*
X169794692Y-103511390D01*
X170155946Y-102970735D01*
X170615735Y-102510946D01*
X171156390Y-102149692D01*
X171156392Y-102149691D01*
X171757135Y-101900855D01*
X172394879Y-101774000D01*
X173045121Y-101774000D01*
X173682865Y-101900855D01*
X173682865Y-101900855D01*
G37*
G36*
X118256000Y-107816000D02*
G01*
X116154000Y-107816000D01*
X116154000Y-106814000D01*
X118256000Y-106814000D01*
X118256000Y-107816000D01*
X118256000Y-107816000D01*
G37*
G36*
X118256000Y-106546000D02*
G01*
X116154000Y-106546000D01*
X116154000Y-105544000D01*
X118256000Y-105544000D01*
X118256000Y-106546000D01*
X118256000Y-106546000D01*
G37*
G36*
X109746000Y-106421000D02*
G01*
X104644000Y-106421000D01*
X104644000Y-101319000D01*
X109746000Y-101319000D01*
X109746000Y-106421000D01*
X109746000Y-106421000D01*
G37*
G36*
X118256000Y-105276000D02*
G01*
X116154000Y-105276000D01*
X116154000Y-104274000D01*
X118256000Y-104274000D01*
X118256000Y-105276000D01*
X118256000Y-105276000D01*
G37*
G36*
X152084970Y-103198962D02*
G01*
X152214752Y-103238331D01*
X152264145Y-103264733D01*
X152334360Y-103302263D01*
X152439199Y-103388301D01*
X152525237Y-103493140D01*
X152534993Y-103511392D01*
X152589169Y-103612748D01*
X152628538Y-103742530D01*
X152638500Y-103843679D01*
X152638500Y-104436321D01*
X152628538Y-104537470D01*
X152589169Y-104667252D01*
X152589166Y-104667257D01*
X152525237Y-104786860D01*
X152439199Y-104891698D01*
X152334359Y-104977737D01*
X152264144Y-105015267D01*
X152214751Y-105041669D01*
X152084969Y-105081038D01*
X151950000Y-105094331D01*
X151815030Y-105081038D01*
X151685248Y-105041669D01*
X151635855Y-105015267D01*
X151565640Y-104977737D01*
X151460802Y-104891699D01*
X151374763Y-104786859D01*
X151337233Y-104716644D01*
X151310831Y-104667251D01*
X151271462Y-104537469D01*
X151261500Y-104436320D01*
X151261500Y-103843679D01*
X151271462Y-103742530D01*
X151310831Y-103612748D01*
X151374764Y-103493139D01*
X151382479Y-103483739D01*
X151460802Y-103388301D01*
X151565641Y-103302263D01*
X151635856Y-103264733D01*
X151685249Y-103238331D01*
X151815031Y-103198962D01*
X151950000Y-103185669D01*
X152084970Y-103198962D01*
X152084970Y-103198962D01*
G37*
G36*
X157184970Y-103198962D02*
G01*
X157314752Y-103238331D01*
X157364145Y-103264733D01*
X157434360Y-103302263D01*
X157539199Y-103388301D01*
X157625237Y-103493140D01*
X157634993Y-103511392D01*
X157689169Y-103612748D01*
X157728538Y-103742530D01*
X157738500Y-103843679D01*
X157738500Y-104436321D01*
X157728538Y-104537470D01*
X157689169Y-104667252D01*
X157689166Y-104667257D01*
X157625237Y-104786860D01*
X157539199Y-104891698D01*
X157434359Y-104977737D01*
X157364144Y-105015267D01*
X157314751Y-105041669D01*
X157184969Y-105081038D01*
X157050000Y-105094331D01*
X156915030Y-105081038D01*
X156785248Y-105041669D01*
X156735855Y-105015267D01*
X156665640Y-104977737D01*
X156560802Y-104891699D01*
X156474763Y-104786859D01*
X156437233Y-104716644D01*
X156410831Y-104667251D01*
X156371462Y-104537469D01*
X156361500Y-104436320D01*
X156361500Y-103843679D01*
X156371462Y-103742530D01*
X156410831Y-103612748D01*
X156474764Y-103493139D01*
X156482479Y-103483739D01*
X156560802Y-103388301D01*
X156665641Y-103302263D01*
X156735856Y-103264733D01*
X156785249Y-103238331D01*
X156915031Y-103198962D01*
X157050000Y-103185669D01*
X157184970Y-103198962D01*
X157184970Y-103198962D01*
G37*
G36*
X153784970Y-103198962D02*
G01*
X153914752Y-103238331D01*
X153964145Y-103264733D01*
X154034360Y-103302263D01*
X154139199Y-103388301D01*
X154225237Y-103493140D01*
X154234993Y-103511392D01*
X154289169Y-103612748D01*
X154328538Y-103742530D01*
X154338500Y-103843679D01*
X154338500Y-104436321D01*
X154328538Y-104537470D01*
X154289169Y-104667252D01*
X154289166Y-104667257D01*
X154225237Y-104786860D01*
X154139199Y-104891698D01*
X154034359Y-104977737D01*
X153964144Y-105015267D01*
X153914751Y-105041669D01*
X153784969Y-105081038D01*
X153650000Y-105094331D01*
X153515030Y-105081038D01*
X153385248Y-105041669D01*
X153335855Y-105015267D01*
X153265640Y-104977737D01*
X153160802Y-104891699D01*
X153074763Y-104786859D01*
X153037233Y-104716644D01*
X153010831Y-104667251D01*
X152971462Y-104537469D01*
X152961500Y-104436320D01*
X152961500Y-103843679D01*
X152971462Y-103742530D01*
X153010831Y-103612748D01*
X153074764Y-103493139D01*
X153082479Y-103483739D01*
X153160802Y-103388301D01*
X153265641Y-103302263D01*
X153335856Y-103264733D01*
X153385249Y-103238331D01*
X153515031Y-103198962D01*
X153650000Y-103185669D01*
X153784970Y-103198962D01*
X153784970Y-103198962D01*
G37*
G36*
X155484970Y-103198962D02*
G01*
X155614752Y-103238331D01*
X155664145Y-103264733D01*
X155734360Y-103302263D01*
X155839199Y-103388301D01*
X155925237Y-103493140D01*
X155934993Y-103511392D01*
X155989169Y-103612748D01*
X156028538Y-103742530D01*
X156038500Y-103843679D01*
X156038500Y-104436321D01*
X156028538Y-104537470D01*
X155989169Y-104667252D01*
X155989166Y-104667257D01*
X155925237Y-104786860D01*
X155839199Y-104891698D01*
X155734359Y-104977737D01*
X155664144Y-105015267D01*
X155614751Y-105041669D01*
X155484969Y-105081038D01*
X155350000Y-105094331D01*
X155215030Y-105081038D01*
X155085248Y-105041669D01*
X155035855Y-105015267D01*
X154965640Y-104977737D01*
X154860802Y-104891699D01*
X154774763Y-104786859D01*
X154737233Y-104716644D01*
X154710831Y-104667251D01*
X154671462Y-104537469D01*
X154661500Y-104436320D01*
X154661500Y-103843679D01*
X154671462Y-103742530D01*
X154710831Y-103612748D01*
X154774764Y-103493139D01*
X154782479Y-103483739D01*
X154860802Y-103388301D01*
X154965641Y-103302263D01*
X155035856Y-103264733D01*
X155085249Y-103238331D01*
X155215031Y-103198962D01*
X155350000Y-103185669D01*
X155484970Y-103198962D01*
X155484970Y-103198962D01*
G37*
G36*
X159438500Y-105091000D02*
G01*
X158061500Y-105091000D01*
X158061500Y-103189000D01*
X159438500Y-103189000D01*
X159438500Y-105091000D01*
X159438500Y-105091000D01*
G37*
G36*
X118256000Y-104006000D02*
G01*
X116154000Y-104006000D01*
X116154000Y-103004000D01*
X118256000Y-103004000D01*
X118256000Y-104006000D01*
X118256000Y-104006000D01*
G37*
G36*
X118256000Y-102736000D02*
G01*
X116154000Y-102736000D01*
X116154000Y-101734000D01*
X118256000Y-101734000D01*
X118256000Y-102736000D01*
X118256000Y-102736000D01*
G37*
G36*
X151954591Y-101078085D02*
G01*
X151988569Y-101088393D01*
X152019890Y-101105134D01*
X152047339Y-101127661D01*
X152069866Y-101155110D01*
X152086607Y-101186431D01*
X152096915Y-101220409D01*
X152101000Y-101261890D01*
X152101000Y-101938110D01*
X152096915Y-101979591D01*
X152086607Y-102013569D01*
X152069866Y-102044890D01*
X152047339Y-102072339D01*
X152019890Y-102094866D01*
X151988569Y-102111607D01*
X151954591Y-102121915D01*
X151913110Y-102126000D01*
X151311890Y-102126000D01*
X151270409Y-102121915D01*
X151236431Y-102111607D01*
X151205110Y-102094866D01*
X151177661Y-102072339D01*
X151155134Y-102044890D01*
X151138393Y-102013569D01*
X151128085Y-101979591D01*
X151124000Y-101938110D01*
X151124000Y-101261890D01*
X151128085Y-101220409D01*
X151138393Y-101186431D01*
X151155134Y-101155110D01*
X151177661Y-101127661D01*
X151205110Y-101105134D01*
X151236431Y-101088393D01*
X151270409Y-101078085D01*
X151311890Y-101074000D01*
X151913110Y-101074000D01*
X151954591Y-101078085D01*
X151954591Y-101078085D01*
G37*
G36*
X153529591Y-101078085D02*
G01*
X153563569Y-101088393D01*
X153594890Y-101105134D01*
X153622339Y-101127661D01*
X153644866Y-101155110D01*
X153661607Y-101186431D01*
X153671915Y-101220409D01*
X153676000Y-101261890D01*
X153676000Y-101938110D01*
X153671915Y-101979591D01*
X153661607Y-102013569D01*
X153644866Y-102044890D01*
X153622339Y-102072339D01*
X153594890Y-102094866D01*
X153563569Y-102111607D01*
X153529591Y-102121915D01*
X153488110Y-102126000D01*
X152886890Y-102126000D01*
X152845409Y-102121915D01*
X152811431Y-102111607D01*
X152780110Y-102094866D01*
X152752661Y-102072339D01*
X152730134Y-102044890D01*
X152713393Y-102013569D01*
X152703085Y-101979591D01*
X152699000Y-101938110D01*
X152699000Y-101261890D01*
X152703085Y-101220409D01*
X152713393Y-101186431D01*
X152730134Y-101155110D01*
X152752661Y-101127661D01*
X152780110Y-101105134D01*
X152811431Y-101088393D01*
X152845409Y-101078085D01*
X152886890Y-101074000D01*
X153488110Y-101074000D01*
X153529591Y-101078085D01*
X153529591Y-101078085D01*
G37*
G36*
X118256000Y-101466000D02*
G01*
X116154000Y-101466000D01*
X116154000Y-100464000D01*
X118256000Y-100464000D01*
X118256000Y-101466000D01*
X118256000Y-101466000D01*
G37*
G36*
X173682865Y-94950855D02*
G01*
X174283608Y-95199691D01*
X174283610Y-95199692D01*
X174824265Y-95560946D01*
X175284054Y-96020735D01*
X175499635Y-96343375D01*
X175645309Y-96561392D01*
X175894145Y-97162135D01*
X176021000Y-97799879D01*
X176021000Y-98450121D01*
X175894145Y-99087865D01*
X175850182Y-99194000D01*
X175645308Y-99688610D01*
X175284054Y-100229265D01*
X174824265Y-100689054D01*
X174283610Y-101050308D01*
X174283609Y-101050309D01*
X174283608Y-101050309D01*
X173682865Y-101299145D01*
X173045121Y-101426000D01*
X172394879Y-101426000D01*
X171757135Y-101299145D01*
X171156392Y-101050309D01*
X171156391Y-101050309D01*
X171156390Y-101050308D01*
X170615735Y-100689054D01*
X170155946Y-100229265D01*
X169794692Y-99688610D01*
X169589818Y-99194000D01*
X169545855Y-99087865D01*
X169419000Y-98450121D01*
X169419000Y-97799879D01*
X169545855Y-97162135D01*
X169794691Y-96561392D01*
X169940365Y-96343375D01*
X170155946Y-96020735D01*
X170615735Y-95560946D01*
X171156390Y-95199692D01*
X171156392Y-95199691D01*
X171757135Y-94950855D01*
X172394879Y-94824000D01*
X173045121Y-94824000D01*
X173682865Y-94950855D01*
X173682865Y-94950855D01*
G37*
G36*
X118256000Y-100196000D02*
G01*
X116154000Y-100196000D01*
X116154000Y-99194000D01*
X118256000Y-99194000D01*
X118256000Y-100196000D01*
X118256000Y-100196000D01*
G37*
G36*
X118256000Y-98926000D02*
G01*
X116154000Y-98926000D01*
X116154000Y-97924000D01*
X118256000Y-97924000D01*
X118256000Y-98926000D01*
X118256000Y-98926000D01*
G37*
G36*
X118256000Y-97656000D02*
G01*
X116154000Y-97656000D01*
X116154000Y-96654000D01*
X118256000Y-96654000D01*
X118256000Y-97656000D01*
X118256000Y-97656000D01*
G37*
G36*
X145681000Y-97421000D02*
G01*
X143879000Y-97421000D01*
X143879000Y-95619000D01*
X145681000Y-95619000D01*
X145681000Y-97421000D01*
X145681000Y-97421000D01*
G37*
G36*
X139810442Y-95625518D02*
G01*
X139876627Y-95632037D01*
X140046466Y-95683557D01*
X140202991Y-95767222D01*
X140238729Y-95796552D01*
X140340186Y-95879814D01*
X140423448Y-95981271D01*
X140452778Y-96017009D01*
X140536443Y-96173534D01*
X140587963Y-96343373D01*
X140605359Y-96520000D01*
X140587963Y-96696627D01*
X140536443Y-96866466D01*
X140452778Y-97022991D01*
X140423448Y-97058729D01*
X140340186Y-97160186D01*
X140238729Y-97243448D01*
X140202991Y-97272778D01*
X140046466Y-97356443D01*
X139876627Y-97407963D01*
X139810442Y-97414482D01*
X139744260Y-97421000D01*
X139655740Y-97421000D01*
X139589558Y-97414482D01*
X139523373Y-97407963D01*
X139353534Y-97356443D01*
X139197009Y-97272778D01*
X139161271Y-97243448D01*
X139059814Y-97160186D01*
X138976552Y-97058729D01*
X138947222Y-97022991D01*
X138863557Y-96866466D01*
X138812037Y-96696627D01*
X138794641Y-96520000D01*
X138812037Y-96343373D01*
X138863557Y-96173534D01*
X138947222Y-96017009D01*
X138976552Y-95981271D01*
X139059814Y-95879814D01*
X139161271Y-95796552D01*
X139197009Y-95767222D01*
X139353534Y-95683557D01*
X139523373Y-95632037D01*
X139589558Y-95625518D01*
X139655740Y-95619000D01*
X139744260Y-95619000D01*
X139810442Y-95625518D01*
X139810442Y-95625518D01*
G37*
G36*
X137270442Y-95625518D02*
G01*
X137336627Y-95632037D01*
X137506466Y-95683557D01*
X137662991Y-95767222D01*
X137698729Y-95796552D01*
X137800186Y-95879814D01*
X137883448Y-95981271D01*
X137912778Y-96017009D01*
X137996443Y-96173534D01*
X138047963Y-96343373D01*
X138065359Y-96520000D01*
X138047963Y-96696627D01*
X137996443Y-96866466D01*
X137912778Y-97022991D01*
X137883448Y-97058729D01*
X137800186Y-97160186D01*
X137698729Y-97243448D01*
X137662991Y-97272778D01*
X137506466Y-97356443D01*
X137336627Y-97407963D01*
X137270442Y-97414482D01*
X137204260Y-97421000D01*
X137115740Y-97421000D01*
X137049558Y-97414482D01*
X136983373Y-97407963D01*
X136813534Y-97356443D01*
X136657009Y-97272778D01*
X136621271Y-97243448D01*
X136519814Y-97160186D01*
X136436552Y-97058729D01*
X136407222Y-97022991D01*
X136323557Y-96866466D01*
X136272037Y-96696627D01*
X136254641Y-96520000D01*
X136272037Y-96343373D01*
X136323557Y-96173534D01*
X136407222Y-96017009D01*
X136436552Y-95981271D01*
X136519814Y-95879814D01*
X136621271Y-95796552D01*
X136657009Y-95767222D01*
X136813534Y-95683557D01*
X136983373Y-95632037D01*
X137049558Y-95625518D01*
X137115740Y-95619000D01*
X137204260Y-95619000D01*
X137270442Y-95625518D01*
X137270442Y-95625518D01*
G37*
G36*
X134730442Y-95625518D02*
G01*
X134796627Y-95632037D01*
X134966466Y-95683557D01*
X135122991Y-95767222D01*
X135158729Y-95796552D01*
X135260186Y-95879814D01*
X135343448Y-95981271D01*
X135372778Y-96017009D01*
X135456443Y-96173534D01*
X135507963Y-96343373D01*
X135525359Y-96520000D01*
X135507963Y-96696627D01*
X135456443Y-96866466D01*
X135372778Y-97022991D01*
X135343448Y-97058729D01*
X135260186Y-97160186D01*
X135158729Y-97243448D01*
X135122991Y-97272778D01*
X134966466Y-97356443D01*
X134796627Y-97407963D01*
X134730442Y-97414482D01*
X134664260Y-97421000D01*
X134575740Y-97421000D01*
X134509558Y-97414482D01*
X134443373Y-97407963D01*
X134273534Y-97356443D01*
X134117009Y-97272778D01*
X134081271Y-97243448D01*
X133979814Y-97160186D01*
X133896552Y-97058729D01*
X133867222Y-97022991D01*
X133783557Y-96866466D01*
X133732037Y-96696627D01*
X133714641Y-96520000D01*
X133732037Y-96343373D01*
X133783557Y-96173534D01*
X133867222Y-96017009D01*
X133896552Y-95981271D01*
X133979814Y-95879814D01*
X134081271Y-95796552D01*
X134117009Y-95767222D01*
X134273534Y-95683557D01*
X134443373Y-95632037D01*
X134509558Y-95625518D01*
X134575740Y-95619000D01*
X134664260Y-95619000D01*
X134730442Y-95625518D01*
X134730442Y-95625518D01*
G37*
G36*
X132190442Y-95625518D02*
G01*
X132256627Y-95632037D01*
X132426466Y-95683557D01*
X132582991Y-95767222D01*
X132618729Y-95796552D01*
X132720186Y-95879814D01*
X132803448Y-95981271D01*
X132832778Y-96017009D01*
X132916443Y-96173534D01*
X132967963Y-96343373D01*
X132985359Y-96520000D01*
X132967963Y-96696627D01*
X132916443Y-96866466D01*
X132832778Y-97022991D01*
X132803448Y-97058729D01*
X132720186Y-97160186D01*
X132618729Y-97243448D01*
X132582991Y-97272778D01*
X132426466Y-97356443D01*
X132256627Y-97407963D01*
X132190442Y-97414482D01*
X132124260Y-97421000D01*
X132035740Y-97421000D01*
X131969558Y-97414482D01*
X131903373Y-97407963D01*
X131733534Y-97356443D01*
X131577009Y-97272778D01*
X131541271Y-97243448D01*
X131439814Y-97160186D01*
X131356552Y-97058729D01*
X131327222Y-97022991D01*
X131243557Y-96866466D01*
X131192037Y-96696627D01*
X131174641Y-96520000D01*
X131192037Y-96343373D01*
X131243557Y-96173534D01*
X131327222Y-96017009D01*
X131356552Y-95981271D01*
X131439814Y-95879814D01*
X131541271Y-95796552D01*
X131577009Y-95767222D01*
X131733534Y-95683557D01*
X131903373Y-95632037D01*
X131969558Y-95625518D01*
X132035740Y-95619000D01*
X132124260Y-95619000D01*
X132190442Y-95625518D01*
X132190442Y-95625518D01*
G37*
G36*
X122030442Y-95625518D02*
G01*
X122096627Y-95632037D01*
X122266466Y-95683557D01*
X122422991Y-95767222D01*
X122458729Y-95796552D01*
X122560186Y-95879814D01*
X122643448Y-95981271D01*
X122672778Y-96017009D01*
X122756443Y-96173534D01*
X122807963Y-96343373D01*
X122825359Y-96520000D01*
X122807963Y-96696627D01*
X122756443Y-96866466D01*
X122672778Y-97022991D01*
X122643448Y-97058729D01*
X122560186Y-97160186D01*
X122458729Y-97243448D01*
X122422991Y-97272778D01*
X122266466Y-97356443D01*
X122096627Y-97407963D01*
X122030442Y-97414482D01*
X121964260Y-97421000D01*
X121875740Y-97421000D01*
X121809558Y-97414482D01*
X121743373Y-97407963D01*
X121573534Y-97356443D01*
X121417009Y-97272778D01*
X121381271Y-97243448D01*
X121279814Y-97160186D01*
X121196552Y-97058729D01*
X121167222Y-97022991D01*
X121083557Y-96866466D01*
X121032037Y-96696627D01*
X121014641Y-96520000D01*
X121032037Y-96343373D01*
X121083557Y-96173534D01*
X121167222Y-96017009D01*
X121196552Y-95981271D01*
X121279814Y-95879814D01*
X121381271Y-95796552D01*
X121417009Y-95767222D01*
X121573534Y-95683557D01*
X121743373Y-95632037D01*
X121809558Y-95625518D01*
X121875740Y-95619000D01*
X121964260Y-95619000D01*
X122030442Y-95625518D01*
X122030442Y-95625518D01*
G37*
G36*
X124570442Y-95625518D02*
G01*
X124636627Y-95632037D01*
X124806466Y-95683557D01*
X124962991Y-95767222D01*
X124998729Y-95796552D01*
X125100186Y-95879814D01*
X125183448Y-95981271D01*
X125212778Y-96017009D01*
X125296443Y-96173534D01*
X125347963Y-96343373D01*
X125365359Y-96520000D01*
X125347963Y-96696627D01*
X125296443Y-96866466D01*
X125212778Y-97022991D01*
X125183448Y-97058729D01*
X125100186Y-97160186D01*
X124998729Y-97243448D01*
X124962991Y-97272778D01*
X124806466Y-97356443D01*
X124636627Y-97407963D01*
X124570442Y-97414482D01*
X124504260Y-97421000D01*
X124415740Y-97421000D01*
X124349558Y-97414482D01*
X124283373Y-97407963D01*
X124113534Y-97356443D01*
X123957009Y-97272778D01*
X123921271Y-97243448D01*
X123819814Y-97160186D01*
X123736552Y-97058729D01*
X123707222Y-97022991D01*
X123623557Y-96866466D01*
X123572037Y-96696627D01*
X123554641Y-96520000D01*
X123572037Y-96343373D01*
X123623557Y-96173534D01*
X123707222Y-96017009D01*
X123736552Y-95981271D01*
X123819814Y-95879814D01*
X123921271Y-95796552D01*
X123957009Y-95767222D01*
X124113534Y-95683557D01*
X124283373Y-95632037D01*
X124349558Y-95625518D01*
X124415740Y-95619000D01*
X124504260Y-95619000D01*
X124570442Y-95625518D01*
X124570442Y-95625518D01*
G37*
G36*
X142350442Y-95625518D02*
G01*
X142416627Y-95632037D01*
X142586466Y-95683557D01*
X142742991Y-95767222D01*
X142778729Y-95796552D01*
X142880186Y-95879814D01*
X142963448Y-95981271D01*
X142992778Y-96017009D01*
X143076443Y-96173534D01*
X143127963Y-96343373D01*
X143145359Y-96520000D01*
X143127963Y-96696627D01*
X143076443Y-96866466D01*
X142992778Y-97022991D01*
X142963448Y-97058729D01*
X142880186Y-97160186D01*
X142778729Y-97243448D01*
X142742991Y-97272778D01*
X142586466Y-97356443D01*
X142416627Y-97407963D01*
X142350442Y-97414482D01*
X142284260Y-97421000D01*
X142195740Y-97421000D01*
X142129558Y-97414482D01*
X142063373Y-97407963D01*
X141893534Y-97356443D01*
X141737009Y-97272778D01*
X141701271Y-97243448D01*
X141599814Y-97160186D01*
X141516552Y-97058729D01*
X141487222Y-97022991D01*
X141403557Y-96866466D01*
X141352037Y-96696627D01*
X141334641Y-96520000D01*
X141352037Y-96343373D01*
X141403557Y-96173534D01*
X141487222Y-96017009D01*
X141516552Y-95981271D01*
X141599814Y-95879814D01*
X141701271Y-95796552D01*
X141737009Y-95767222D01*
X141893534Y-95683557D01*
X142063373Y-95632037D01*
X142129558Y-95625518D01*
X142195740Y-95619000D01*
X142284260Y-95619000D01*
X142350442Y-95625518D01*
X142350442Y-95625518D01*
G37*
G36*
X129650442Y-95625518D02*
G01*
X129716627Y-95632037D01*
X129886466Y-95683557D01*
X130042991Y-95767222D01*
X130078729Y-95796552D01*
X130180186Y-95879814D01*
X130263448Y-95981271D01*
X130292778Y-96017009D01*
X130376443Y-96173534D01*
X130427963Y-96343373D01*
X130445359Y-96520000D01*
X130427963Y-96696627D01*
X130376443Y-96866466D01*
X130292778Y-97022991D01*
X130263448Y-97058729D01*
X130180186Y-97160186D01*
X130078729Y-97243448D01*
X130042991Y-97272778D01*
X129886466Y-97356443D01*
X129716627Y-97407963D01*
X129650442Y-97414482D01*
X129584260Y-97421000D01*
X129495740Y-97421000D01*
X129429558Y-97414482D01*
X129363373Y-97407963D01*
X129193534Y-97356443D01*
X129037009Y-97272778D01*
X129001271Y-97243448D01*
X128899814Y-97160186D01*
X128816552Y-97058729D01*
X128787222Y-97022991D01*
X128703557Y-96866466D01*
X128652037Y-96696627D01*
X128634641Y-96520000D01*
X128652037Y-96343373D01*
X128703557Y-96173534D01*
X128787222Y-96017009D01*
X128816552Y-95981271D01*
X128899814Y-95879814D01*
X129001271Y-95796552D01*
X129037009Y-95767222D01*
X129193534Y-95683557D01*
X129363373Y-95632037D01*
X129429558Y-95625518D01*
X129495740Y-95619000D01*
X129584260Y-95619000D01*
X129650442Y-95625518D01*
X129650442Y-95625518D01*
G37*
G36*
X127110442Y-95625518D02*
G01*
X127176627Y-95632037D01*
X127346466Y-95683557D01*
X127502991Y-95767222D01*
X127538729Y-95796552D01*
X127640186Y-95879814D01*
X127723448Y-95981271D01*
X127752778Y-96017009D01*
X127836443Y-96173534D01*
X127887963Y-96343373D01*
X127905359Y-96520000D01*
X127887963Y-96696627D01*
X127836443Y-96866466D01*
X127752778Y-97022991D01*
X127723448Y-97058729D01*
X127640186Y-97160186D01*
X127538729Y-97243448D01*
X127502991Y-97272778D01*
X127346466Y-97356443D01*
X127176627Y-97407963D01*
X127110442Y-97414482D01*
X127044260Y-97421000D01*
X126955740Y-97421000D01*
X126889558Y-97414482D01*
X126823373Y-97407963D01*
X126653534Y-97356443D01*
X126497009Y-97272778D01*
X126461271Y-97243448D01*
X126359814Y-97160186D01*
X126276552Y-97058729D01*
X126247222Y-97022991D01*
X126163557Y-96866466D01*
X126112037Y-96696627D01*
X126094641Y-96520000D01*
X126112037Y-96343373D01*
X126163557Y-96173534D01*
X126247222Y-96017009D01*
X126276552Y-95981271D01*
X126359814Y-95879814D01*
X126461271Y-95796552D01*
X126497009Y-95767222D01*
X126653534Y-95683557D01*
X126823373Y-95632037D01*
X126889558Y-95625518D01*
X126955740Y-95619000D01*
X127044260Y-95619000D01*
X127110442Y-95625518D01*
X127110442Y-95625518D01*
G37*
G36*
X162661000Y-96731000D02*
G01*
X159659000Y-96731000D01*
X159659000Y-91229000D01*
X162661000Y-91229000D01*
X162661000Y-96731000D01*
X162661000Y-96731000D01*
G37*
G36*
X152761000Y-96731000D02*
G01*
X149759000Y-96731000D01*
X149759000Y-91229000D01*
X152761000Y-91229000D01*
X152761000Y-96731000D01*
X152761000Y-96731000D01*
G37*
G36*
X110356000Y-95421000D02*
G01*
X109354000Y-95421000D01*
X109354000Y-93319000D01*
X110356000Y-93319000D01*
X110356000Y-95421000D01*
X110356000Y-95421000D01*
G37*
G36*
X100196000Y-95421000D02*
G01*
X99194000Y-95421000D01*
X99194000Y-93319000D01*
X100196000Y-93319000D01*
X100196000Y-95421000D01*
X100196000Y-95421000D01*
G37*
G36*
X101466000Y-95421000D02*
G01*
X100464000Y-95421000D01*
X100464000Y-93319000D01*
X101466000Y-93319000D01*
X101466000Y-95421000D01*
X101466000Y-95421000D01*
G37*
G36*
X102736000Y-95421000D02*
G01*
X101734000Y-95421000D01*
X101734000Y-93319000D01*
X102736000Y-93319000D01*
X102736000Y-95421000D01*
X102736000Y-95421000D01*
G37*
G36*
X104006000Y-95421000D02*
G01*
X103004000Y-95421000D01*
X103004000Y-93319000D01*
X104006000Y-93319000D01*
X104006000Y-95421000D01*
X104006000Y-95421000D01*
G37*
G36*
X105276000Y-95421000D02*
G01*
X104274000Y-95421000D01*
X104274000Y-93319000D01*
X105276000Y-93319000D01*
X105276000Y-95421000D01*
X105276000Y-95421000D01*
G37*
G36*
X106546000Y-95421000D02*
G01*
X105544000Y-95421000D01*
X105544000Y-93319000D01*
X106546000Y-93319000D01*
X106546000Y-95421000D01*
X106546000Y-95421000D01*
G37*
G36*
X107816000Y-95421000D02*
G01*
X106814000Y-95421000D01*
X106814000Y-93319000D01*
X107816000Y-93319000D01*
X107816000Y-95421000D01*
X107816000Y-95421000D01*
G37*
G36*
X111626000Y-95421000D02*
G01*
X110624000Y-95421000D01*
X110624000Y-93319000D01*
X111626000Y-93319000D01*
X111626000Y-95421000D01*
X111626000Y-95421000D01*
G37*
G36*
X112896000Y-95421000D02*
G01*
X111894000Y-95421000D01*
X111894000Y-93319000D01*
X112896000Y-93319000D01*
X112896000Y-95421000D01*
X112896000Y-95421000D01*
G37*
G36*
X114166000Y-95421000D02*
G01*
X113164000Y-95421000D01*
X113164000Y-93319000D01*
X114166000Y-93319000D01*
X114166000Y-95421000D01*
X114166000Y-95421000D01*
G37*
G36*
X115436000Y-95421000D02*
G01*
X114434000Y-95421000D01*
X114434000Y-93319000D01*
X115436000Y-93319000D01*
X115436000Y-95421000D01*
X115436000Y-95421000D01*
G37*
G36*
X116706000Y-95421000D02*
G01*
X115704000Y-95421000D01*
X115704000Y-93319000D01*
X116706000Y-93319000D01*
X116706000Y-95421000D01*
X116706000Y-95421000D01*
G37*
G36*
X109086000Y-95421000D02*
G01*
X108084000Y-95421000D01*
X108084000Y-93319000D01*
X109086000Y-93319000D01*
X109086000Y-95421000D01*
X109086000Y-95421000D01*
G37*
G36*
X118584250Y-91454406D02*
G01*
X118631133Y-91468628D01*
X118674333Y-91491719D01*
X118712203Y-91522797D01*
X118743281Y-91560667D01*
X118766372Y-91603867D01*
X118780594Y-91650750D01*
X118786000Y-91705640D01*
X118786000Y-92444360D01*
X118780594Y-92499250D01*
X118766372Y-92546133D01*
X118743281Y-92589333D01*
X118712203Y-92627203D01*
X118674333Y-92658281D01*
X118631133Y-92681372D01*
X118584250Y-92695594D01*
X118529360Y-92701000D01*
X117690640Y-92701000D01*
X117635750Y-92695594D01*
X117588867Y-92681372D01*
X117545667Y-92658281D01*
X117507797Y-92627203D01*
X117476719Y-92589333D01*
X117453628Y-92546133D01*
X117439406Y-92499250D01*
X117434000Y-92444360D01*
X117434000Y-91705640D01*
X117439406Y-91650750D01*
X117453628Y-91603867D01*
X117476719Y-91560667D01*
X117507797Y-91522797D01*
X117545667Y-91491719D01*
X117588867Y-91468628D01*
X117635750Y-91454406D01*
X117690640Y-91449000D01*
X118529360Y-91449000D01*
X118584250Y-91454406D01*
X118584250Y-91454406D01*
G37*
G36*
X116834250Y-91454406D02*
G01*
X116881133Y-91468628D01*
X116924333Y-91491719D01*
X116962203Y-91522797D01*
X116993281Y-91560667D01*
X117016372Y-91603867D01*
X117030594Y-91650750D01*
X117036000Y-91705640D01*
X117036000Y-92444360D01*
X117030594Y-92499250D01*
X117016372Y-92546133D01*
X116993281Y-92589333D01*
X116962203Y-92627203D01*
X116924333Y-92658281D01*
X116881133Y-92681372D01*
X116834250Y-92695594D01*
X116779360Y-92701000D01*
X115940640Y-92701000D01*
X115885750Y-92695594D01*
X115838867Y-92681372D01*
X115795667Y-92658281D01*
X115757797Y-92627203D01*
X115726719Y-92589333D01*
X115703628Y-92546133D01*
X115689406Y-92499250D01*
X115684000Y-92444360D01*
X115684000Y-91705640D01*
X115689406Y-91650750D01*
X115703628Y-91603867D01*
X115726719Y-91560667D01*
X115757797Y-91522797D01*
X115795667Y-91491719D01*
X115838867Y-91468628D01*
X115885750Y-91454406D01*
X115940640Y-91449000D01*
X116779360Y-91449000D01*
X116834250Y-91454406D01*
X116834250Y-91454406D01*
G37*
G36*
X106469250Y-91249406D02*
G01*
X106516133Y-91263628D01*
X106559333Y-91286719D01*
X106597203Y-91317797D01*
X106628281Y-91355667D01*
X106651372Y-91398867D01*
X106665594Y-91445750D01*
X106671000Y-91500640D01*
X106671000Y-92339360D01*
X106665594Y-92394250D01*
X106651372Y-92441133D01*
X106628281Y-92484333D01*
X106597203Y-92522203D01*
X106559333Y-92553281D01*
X106516133Y-92576372D01*
X106469250Y-92590594D01*
X106414360Y-92596000D01*
X105675640Y-92596000D01*
X105620750Y-92590594D01*
X105573867Y-92576372D01*
X105530667Y-92553281D01*
X105492797Y-92522203D01*
X105461719Y-92484333D01*
X105438628Y-92441133D01*
X105424406Y-92394250D01*
X105419000Y-92339360D01*
X105419000Y-91500640D01*
X105424406Y-91445750D01*
X105438628Y-91398867D01*
X105461719Y-91355667D01*
X105492797Y-91317797D01*
X105530667Y-91286719D01*
X105573867Y-91263628D01*
X105620750Y-91249406D01*
X105675640Y-91244000D01*
X106414360Y-91244000D01*
X106469250Y-91249406D01*
X106469250Y-91249406D01*
G37*
G36*
X122030443Y-90545519D02*
G01*
X122096627Y-90552037D01*
X122266466Y-90603557D01*
X122422991Y-90687222D01*
X122446960Y-90706893D01*
X122560186Y-90799814D01*
X122643448Y-90901271D01*
X122672778Y-90937009D01*
X122756443Y-91093534D01*
X122807963Y-91263373D01*
X122825359Y-91440000D01*
X122807963Y-91616627D01*
X122756443Y-91786466D01*
X122672778Y-91942991D01*
X122643448Y-91978729D01*
X122560186Y-92080186D01*
X122458729Y-92163448D01*
X122422991Y-92192778D01*
X122266466Y-92276443D01*
X122096627Y-92327963D01*
X122030443Y-92334481D01*
X121964260Y-92341000D01*
X121875740Y-92341000D01*
X121809557Y-92334481D01*
X121743373Y-92327963D01*
X121573534Y-92276443D01*
X121417009Y-92192778D01*
X121381271Y-92163448D01*
X121279814Y-92080186D01*
X121196552Y-91978729D01*
X121167222Y-91942991D01*
X121083557Y-91786466D01*
X121032037Y-91616627D01*
X121014641Y-91440000D01*
X121032037Y-91263373D01*
X121083557Y-91093534D01*
X121167222Y-90937009D01*
X121196552Y-90901271D01*
X121279814Y-90799814D01*
X121393040Y-90706893D01*
X121417009Y-90687222D01*
X121573534Y-90603557D01*
X121743373Y-90552037D01*
X121809557Y-90545519D01*
X121875740Y-90539000D01*
X121964260Y-90539000D01*
X122030443Y-90545519D01*
X122030443Y-90545519D01*
G37*
G36*
X132190443Y-90545519D02*
G01*
X132256627Y-90552037D01*
X132426466Y-90603557D01*
X132582991Y-90687222D01*
X132606960Y-90706893D01*
X132720186Y-90799814D01*
X132803448Y-90901271D01*
X132832778Y-90937009D01*
X132916443Y-91093534D01*
X132967963Y-91263373D01*
X132985359Y-91440000D01*
X132967963Y-91616627D01*
X132916443Y-91786466D01*
X132832778Y-91942991D01*
X132803448Y-91978729D01*
X132720186Y-92080186D01*
X132618729Y-92163448D01*
X132582991Y-92192778D01*
X132426466Y-92276443D01*
X132256627Y-92327963D01*
X132190443Y-92334481D01*
X132124260Y-92341000D01*
X132035740Y-92341000D01*
X131969557Y-92334481D01*
X131903373Y-92327963D01*
X131733534Y-92276443D01*
X131577009Y-92192778D01*
X131541271Y-92163448D01*
X131439814Y-92080186D01*
X131356552Y-91978729D01*
X131327222Y-91942991D01*
X131243557Y-91786466D01*
X131192037Y-91616627D01*
X131174641Y-91440000D01*
X131192037Y-91263373D01*
X131243557Y-91093534D01*
X131327222Y-90937009D01*
X131356552Y-90901271D01*
X131439814Y-90799814D01*
X131553040Y-90706893D01*
X131577009Y-90687222D01*
X131733534Y-90603557D01*
X131903373Y-90552037D01*
X131969557Y-90545519D01*
X132035740Y-90539000D01*
X132124260Y-90539000D01*
X132190443Y-90545519D01*
X132190443Y-90545519D01*
G37*
G36*
X106469250Y-89499406D02*
G01*
X106516133Y-89513628D01*
X106559333Y-89536719D01*
X106597203Y-89567797D01*
X106628281Y-89605667D01*
X106651372Y-89648867D01*
X106665594Y-89695750D01*
X106671000Y-89750640D01*
X106671000Y-90589360D01*
X106665594Y-90644250D01*
X106651372Y-90691133D01*
X106628281Y-90734333D01*
X106597203Y-90772203D01*
X106559333Y-90803281D01*
X106516133Y-90826372D01*
X106469250Y-90840594D01*
X106414360Y-90846000D01*
X105675640Y-90846000D01*
X105620750Y-90840594D01*
X105573867Y-90826372D01*
X105530667Y-90803281D01*
X105492797Y-90772203D01*
X105461719Y-90734333D01*
X105438628Y-90691133D01*
X105424406Y-90644250D01*
X105419000Y-90589360D01*
X105419000Y-89750640D01*
X105424406Y-89695750D01*
X105438628Y-89648867D01*
X105461719Y-89605667D01*
X105492797Y-89567797D01*
X105530667Y-89536719D01*
X105573867Y-89513628D01*
X105620750Y-89499406D01*
X105675640Y-89494000D01*
X106414360Y-89494000D01*
X106469250Y-89499406D01*
X106469250Y-89499406D01*
G37*
G36*
X119201564Y-88579389D02*
G01*
X119392833Y-88658615D01*
X119392835Y-88658616D01*
X119564973Y-88773635D01*
X119711365Y-88920027D01*
X119826385Y-89092167D01*
X119905611Y-89283436D01*
X119946000Y-89486484D01*
X119946000Y-89693516D01*
X119905611Y-89896564D01*
X119826385Y-90087833D01*
X119826384Y-90087835D01*
X119711365Y-90259973D01*
X119564973Y-90406365D01*
X119392835Y-90521384D01*
X119392834Y-90521385D01*
X119392833Y-90521385D01*
X119201564Y-90600611D01*
X118998516Y-90641000D01*
X118791484Y-90641000D01*
X118588436Y-90600611D01*
X118397167Y-90521385D01*
X118397166Y-90521385D01*
X118397165Y-90521384D01*
X118225027Y-90406365D01*
X118078635Y-90259973D01*
X117963616Y-90087835D01*
X117963615Y-90087833D01*
X117884389Y-89896564D01*
X117844000Y-89693516D01*
X117844000Y-89486484D01*
X117884389Y-89283436D01*
X117963615Y-89092167D01*
X118078635Y-88920027D01*
X118225027Y-88773635D01*
X118397165Y-88658616D01*
X118397167Y-88658615D01*
X118588436Y-88579389D01*
X118791484Y-88539000D01*
X118998516Y-88539000D01*
X119201564Y-88579389D01*
X119201564Y-88579389D01*
G37*
G36*
X112701564Y-88579389D02*
G01*
X112892833Y-88658615D01*
X112892835Y-88658616D01*
X113064973Y-88773635D01*
X113211365Y-88920027D01*
X113326385Y-89092167D01*
X113405611Y-89283436D01*
X113446000Y-89486484D01*
X113446000Y-89693516D01*
X113405611Y-89896564D01*
X113326385Y-90087833D01*
X113326384Y-90087835D01*
X113211365Y-90259973D01*
X113064973Y-90406365D01*
X112892835Y-90521384D01*
X112892834Y-90521385D01*
X112892833Y-90521385D01*
X112701564Y-90600611D01*
X112498516Y-90641000D01*
X112291484Y-90641000D01*
X112088436Y-90600611D01*
X111897167Y-90521385D01*
X111897166Y-90521385D01*
X111897165Y-90521384D01*
X111725027Y-90406365D01*
X111578635Y-90259973D01*
X111463616Y-90087835D01*
X111463615Y-90087833D01*
X111384389Y-89896564D01*
X111344000Y-89693516D01*
X111344000Y-89486484D01*
X111384389Y-89283436D01*
X111463615Y-89092167D01*
X111578635Y-88920027D01*
X111725027Y-88773635D01*
X111897165Y-88658616D01*
X111897167Y-88658615D01*
X112088436Y-88579389D01*
X112291484Y-88539000D01*
X112498516Y-88539000D01*
X112701564Y-88579389D01*
X112701564Y-88579389D01*
G37*
G36*
X132190443Y-88005519D02*
G01*
X132256627Y-88012037D01*
X132426466Y-88063557D01*
X132582991Y-88147222D01*
X132618729Y-88176552D01*
X132720186Y-88259814D01*
X132803448Y-88361271D01*
X132832778Y-88397009D01*
X132916443Y-88553534D01*
X132967963Y-88723373D01*
X132985359Y-88900000D01*
X132967963Y-89076627D01*
X132916443Y-89246466D01*
X132832778Y-89402991D01*
X132803448Y-89438729D01*
X132720186Y-89540186D01*
X132640396Y-89605667D01*
X132582991Y-89652778D01*
X132426466Y-89736443D01*
X132256627Y-89787963D01*
X132190443Y-89794481D01*
X132124260Y-89801000D01*
X132035740Y-89801000D01*
X131969557Y-89794481D01*
X131903373Y-89787963D01*
X131733534Y-89736443D01*
X131577009Y-89652778D01*
X131519604Y-89605667D01*
X131439814Y-89540186D01*
X131356552Y-89438729D01*
X131327222Y-89402991D01*
X131243557Y-89246466D01*
X131192037Y-89076627D01*
X131174641Y-88900000D01*
X131192037Y-88723373D01*
X131243557Y-88553534D01*
X131327222Y-88397009D01*
X131356552Y-88361271D01*
X131439814Y-88259814D01*
X131541271Y-88176552D01*
X131577009Y-88147222D01*
X131733534Y-88063557D01*
X131903373Y-88012037D01*
X131969557Y-88005519D01*
X132035740Y-87999000D01*
X132124260Y-87999000D01*
X132190443Y-88005519D01*
X132190443Y-88005519D01*
G37*
G36*
X122030443Y-88005519D02*
G01*
X122096627Y-88012037D01*
X122266466Y-88063557D01*
X122422991Y-88147222D01*
X122458729Y-88176552D01*
X122560186Y-88259814D01*
X122643448Y-88361271D01*
X122672778Y-88397009D01*
X122756443Y-88553534D01*
X122807963Y-88723373D01*
X122825359Y-88900000D01*
X122807963Y-89076627D01*
X122756443Y-89246466D01*
X122672778Y-89402991D01*
X122643448Y-89438729D01*
X122560186Y-89540186D01*
X122480396Y-89605667D01*
X122422991Y-89652778D01*
X122266466Y-89736443D01*
X122096627Y-89787963D01*
X122030443Y-89794481D01*
X121964260Y-89801000D01*
X121875740Y-89801000D01*
X121809557Y-89794481D01*
X121743373Y-89787963D01*
X121573534Y-89736443D01*
X121417009Y-89652778D01*
X121359604Y-89605667D01*
X121279814Y-89540186D01*
X121196552Y-89438729D01*
X121167222Y-89402991D01*
X121083557Y-89246466D01*
X121032037Y-89076627D01*
X121014641Y-88900000D01*
X121032037Y-88723373D01*
X121083557Y-88553534D01*
X121167222Y-88397009D01*
X121196552Y-88361271D01*
X121279814Y-88259814D01*
X121381271Y-88176552D01*
X121417009Y-88147222D01*
X121573534Y-88063557D01*
X121743373Y-88012037D01*
X121809557Y-88005519D01*
X121875740Y-87999000D01*
X121964260Y-87999000D01*
X122030443Y-88005519D01*
X122030443Y-88005519D01*
G37*
G36*
X132190442Y-85465518D02*
G01*
X132256627Y-85472037D01*
X132426466Y-85523557D01*
X132582991Y-85607222D01*
X132618729Y-85636552D01*
X132720186Y-85719814D01*
X132803448Y-85821271D01*
X132832778Y-85857009D01*
X132916443Y-86013534D01*
X132967963Y-86183373D01*
X132985359Y-86360000D01*
X132967963Y-86536627D01*
X132916443Y-86706466D01*
X132832778Y-86862991D01*
X132803448Y-86898729D01*
X132720186Y-87000186D01*
X132618729Y-87083448D01*
X132582991Y-87112778D01*
X132426466Y-87196443D01*
X132256627Y-87247963D01*
X132190442Y-87254482D01*
X132124260Y-87261000D01*
X132035740Y-87261000D01*
X131969558Y-87254482D01*
X131903373Y-87247963D01*
X131733534Y-87196443D01*
X131577009Y-87112778D01*
X131541271Y-87083448D01*
X131439814Y-87000186D01*
X131356552Y-86898729D01*
X131327222Y-86862991D01*
X131243557Y-86706466D01*
X131192037Y-86536627D01*
X131174641Y-86360000D01*
X131192037Y-86183373D01*
X131243557Y-86013534D01*
X131327222Y-85857009D01*
X131356552Y-85821271D01*
X131439814Y-85719814D01*
X131541271Y-85636552D01*
X131577009Y-85607222D01*
X131733534Y-85523557D01*
X131903373Y-85472037D01*
X131969558Y-85465518D01*
X132035740Y-85459000D01*
X132124260Y-85459000D01*
X132190442Y-85465518D01*
X132190442Y-85465518D01*
G37*
G36*
X122030442Y-85465518D02*
G01*
X122096627Y-85472037D01*
X122266466Y-85523557D01*
X122422991Y-85607222D01*
X122458729Y-85636552D01*
X122560186Y-85719814D01*
X122643448Y-85821271D01*
X122672778Y-85857009D01*
X122756443Y-86013534D01*
X122807963Y-86183373D01*
X122825359Y-86360000D01*
X122807963Y-86536627D01*
X122756443Y-86706466D01*
X122672778Y-86862991D01*
X122643448Y-86898729D01*
X122560186Y-87000186D01*
X122458729Y-87083448D01*
X122422991Y-87112778D01*
X122266466Y-87196443D01*
X122096627Y-87247963D01*
X122030442Y-87254482D01*
X121964260Y-87261000D01*
X121875740Y-87261000D01*
X121809558Y-87254482D01*
X121743373Y-87247963D01*
X121573534Y-87196443D01*
X121417009Y-87112778D01*
X121381271Y-87083448D01*
X121279814Y-87000186D01*
X121196552Y-86898729D01*
X121167222Y-86862991D01*
X121083557Y-86706466D01*
X121032037Y-86536627D01*
X121014641Y-86360000D01*
X121032037Y-86183373D01*
X121083557Y-86013534D01*
X121167222Y-85857009D01*
X121196552Y-85821271D01*
X121279814Y-85719814D01*
X121381271Y-85636552D01*
X121417009Y-85607222D01*
X121573534Y-85523557D01*
X121743373Y-85472037D01*
X121809558Y-85465518D01*
X121875740Y-85459000D01*
X121964260Y-85459000D01*
X122030442Y-85465518D01*
X122030442Y-85465518D01*
G37*
G36*
X119201564Y-84079389D02*
G01*
X119392833Y-84158615D01*
X119392835Y-84158616D01*
X119564973Y-84273635D01*
X119711365Y-84420027D01*
X119826385Y-84592167D01*
X119905611Y-84783436D01*
X119946000Y-84986484D01*
X119946000Y-85193516D01*
X119905611Y-85396564D01*
X119826385Y-85587833D01*
X119826384Y-85587835D01*
X119711365Y-85759973D01*
X119564973Y-85906365D01*
X119392835Y-86021384D01*
X119392834Y-86021385D01*
X119392833Y-86021385D01*
X119201564Y-86100611D01*
X118998516Y-86141000D01*
X118791484Y-86141000D01*
X118588436Y-86100611D01*
X118397167Y-86021385D01*
X118397166Y-86021385D01*
X118397165Y-86021384D01*
X118225027Y-85906365D01*
X118078635Y-85759973D01*
X117963616Y-85587835D01*
X117963615Y-85587833D01*
X117884389Y-85396564D01*
X117844000Y-85193516D01*
X117844000Y-84986484D01*
X117884389Y-84783436D01*
X117963615Y-84592167D01*
X118078635Y-84420027D01*
X118225027Y-84273635D01*
X118397165Y-84158616D01*
X118397167Y-84158615D01*
X118588436Y-84079389D01*
X118791484Y-84039000D01*
X118998516Y-84039000D01*
X119201564Y-84079389D01*
X119201564Y-84079389D01*
G37*
G36*
X112701564Y-84079389D02*
G01*
X112892833Y-84158615D01*
X112892835Y-84158616D01*
X113064973Y-84273635D01*
X113211365Y-84420027D01*
X113326385Y-84592167D01*
X113405611Y-84783436D01*
X113446000Y-84986484D01*
X113446000Y-85193516D01*
X113405611Y-85396564D01*
X113326385Y-85587833D01*
X113326384Y-85587835D01*
X113211365Y-85759973D01*
X113064973Y-85906365D01*
X112892835Y-86021384D01*
X112892834Y-86021385D01*
X112892833Y-86021385D01*
X112701564Y-86100611D01*
X112498516Y-86141000D01*
X112291484Y-86141000D01*
X112088436Y-86100611D01*
X111897167Y-86021385D01*
X111897166Y-86021385D01*
X111897165Y-86021384D01*
X111725027Y-85906365D01*
X111578635Y-85759973D01*
X111463616Y-85587835D01*
X111463615Y-85587833D01*
X111384389Y-85396564D01*
X111344000Y-85193516D01*
X111344000Y-84986484D01*
X111384389Y-84783436D01*
X111463615Y-84592167D01*
X111578635Y-84420027D01*
X111725027Y-84273635D01*
X111897165Y-84158616D01*
X111897167Y-84158615D01*
X112088436Y-84079389D01*
X112291484Y-84039000D01*
X112498516Y-84039000D01*
X112701564Y-84079389D01*
X112701564Y-84079389D01*
G37*
G36*
X132981000Y-84721000D02*
G01*
X131179000Y-84721000D01*
X131179000Y-82919000D01*
X132981000Y-82919000D01*
X132981000Y-84721000D01*
X132981000Y-84721000D01*
G37*
G36*
X122821000Y-84721000D02*
G01*
X121019000Y-84721000D01*
X121019000Y-82919000D01*
X122821000Y-82919000D01*
X122821000Y-84721000D01*
X122821000Y-84721000D01*
G37*
G36*
X137270443Y-77845519D02*
G01*
X137336627Y-77852037D01*
X137506466Y-77903557D01*
X137662991Y-77987222D01*
X137698729Y-78016552D01*
X137800186Y-78099814D01*
X137883448Y-78201271D01*
X137912778Y-78237009D01*
X137996443Y-78393534D01*
X138047963Y-78563373D01*
X138065359Y-78740000D01*
X138047963Y-78916627D01*
X137996443Y-79086466D01*
X137912778Y-79242991D01*
X137883448Y-79278729D01*
X137800186Y-79380186D01*
X137698729Y-79463448D01*
X137662991Y-79492778D01*
X137506466Y-79576443D01*
X137336627Y-79627963D01*
X137270442Y-79634482D01*
X137204260Y-79641000D01*
X137115740Y-79641000D01*
X137049558Y-79634482D01*
X136983373Y-79627963D01*
X136813534Y-79576443D01*
X136657009Y-79492778D01*
X136621271Y-79463448D01*
X136519814Y-79380186D01*
X136436552Y-79278729D01*
X136407222Y-79242991D01*
X136323557Y-79086466D01*
X136272037Y-78916627D01*
X136254641Y-78740000D01*
X136272037Y-78563373D01*
X136323557Y-78393534D01*
X136407222Y-78237009D01*
X136436552Y-78201271D01*
X136519814Y-78099814D01*
X136621271Y-78016552D01*
X136657009Y-77987222D01*
X136813534Y-77903557D01*
X136983373Y-77852037D01*
X137049557Y-77845519D01*
X137115740Y-77839000D01*
X137204260Y-77839000D01*
X137270443Y-77845519D01*
X137270443Y-77845519D01*
G37*
G36*
X139810443Y-77845519D02*
G01*
X139876627Y-77852037D01*
X140046466Y-77903557D01*
X140202991Y-77987222D01*
X140238729Y-78016552D01*
X140340186Y-78099814D01*
X140423448Y-78201271D01*
X140452778Y-78237009D01*
X140536443Y-78393534D01*
X140587963Y-78563373D01*
X140605359Y-78740000D01*
X140587963Y-78916627D01*
X140536443Y-79086466D01*
X140452778Y-79242991D01*
X140423448Y-79278729D01*
X140340186Y-79380186D01*
X140238729Y-79463448D01*
X140202991Y-79492778D01*
X140046466Y-79576443D01*
X139876627Y-79627963D01*
X139810442Y-79634482D01*
X139744260Y-79641000D01*
X139655740Y-79641000D01*
X139589558Y-79634482D01*
X139523373Y-79627963D01*
X139353534Y-79576443D01*
X139197009Y-79492778D01*
X139161271Y-79463448D01*
X139059814Y-79380186D01*
X138976552Y-79278729D01*
X138947222Y-79242991D01*
X138863557Y-79086466D01*
X138812037Y-78916627D01*
X138794641Y-78740000D01*
X138812037Y-78563373D01*
X138863557Y-78393534D01*
X138947222Y-78237009D01*
X138976552Y-78201271D01*
X139059814Y-78099814D01*
X139161271Y-78016552D01*
X139197009Y-77987222D01*
X139353534Y-77903557D01*
X139523373Y-77852037D01*
X139589557Y-77845519D01*
X139655740Y-77839000D01*
X139744260Y-77839000D01*
X139810443Y-77845519D01*
X139810443Y-77845519D01*
G37*
G36*
X142350443Y-77845519D02*
G01*
X142416627Y-77852037D01*
X142586466Y-77903557D01*
X142742991Y-77987222D01*
X142778729Y-78016552D01*
X142880186Y-78099814D01*
X142963448Y-78201271D01*
X142992778Y-78237009D01*
X143076443Y-78393534D01*
X143127963Y-78563373D01*
X143145359Y-78740000D01*
X143127963Y-78916627D01*
X143076443Y-79086466D01*
X142992778Y-79242991D01*
X142963448Y-79278729D01*
X142880186Y-79380186D01*
X142778729Y-79463448D01*
X142742991Y-79492778D01*
X142586466Y-79576443D01*
X142416627Y-79627963D01*
X142350442Y-79634482D01*
X142284260Y-79641000D01*
X142195740Y-79641000D01*
X142129558Y-79634482D01*
X142063373Y-79627963D01*
X141893534Y-79576443D01*
X141737009Y-79492778D01*
X141701271Y-79463448D01*
X141599814Y-79380186D01*
X141516552Y-79278729D01*
X141487222Y-79242991D01*
X141403557Y-79086466D01*
X141352037Y-78916627D01*
X141334641Y-78740000D01*
X141352037Y-78563373D01*
X141403557Y-78393534D01*
X141487222Y-78237009D01*
X141516552Y-78201271D01*
X141599814Y-78099814D01*
X141701271Y-78016552D01*
X141737009Y-77987222D01*
X141893534Y-77903557D01*
X142063373Y-77852037D01*
X142129557Y-77845519D01*
X142195740Y-77839000D01*
X142284260Y-77839000D01*
X142350443Y-77845519D01*
X142350443Y-77845519D01*
G37*
G36*
X134730443Y-77845519D02*
G01*
X134796627Y-77852037D01*
X134966466Y-77903557D01*
X135122991Y-77987222D01*
X135158729Y-78016552D01*
X135260186Y-78099814D01*
X135343448Y-78201271D01*
X135372778Y-78237009D01*
X135456443Y-78393534D01*
X135507963Y-78563373D01*
X135525359Y-78740000D01*
X135507963Y-78916627D01*
X135456443Y-79086466D01*
X135372778Y-79242991D01*
X135343448Y-79278729D01*
X135260186Y-79380186D01*
X135158729Y-79463448D01*
X135122991Y-79492778D01*
X134966466Y-79576443D01*
X134796627Y-79627963D01*
X134730442Y-79634482D01*
X134664260Y-79641000D01*
X134575740Y-79641000D01*
X134509558Y-79634482D01*
X134443373Y-79627963D01*
X134273534Y-79576443D01*
X134117009Y-79492778D01*
X134081271Y-79463448D01*
X133979814Y-79380186D01*
X133896552Y-79278729D01*
X133867222Y-79242991D01*
X133783557Y-79086466D01*
X133732037Y-78916627D01*
X133714641Y-78740000D01*
X133732037Y-78563373D01*
X133783557Y-78393534D01*
X133867222Y-78237009D01*
X133896552Y-78201271D01*
X133979814Y-78099814D01*
X134081271Y-78016552D01*
X134117009Y-77987222D01*
X134273534Y-77903557D01*
X134443373Y-77852037D01*
X134509557Y-77845519D01*
X134575740Y-77839000D01*
X134664260Y-77839000D01*
X134730443Y-77845519D01*
X134730443Y-77845519D01*
G37*
G36*
X132190443Y-77845519D02*
G01*
X132256627Y-77852037D01*
X132426466Y-77903557D01*
X132582991Y-77987222D01*
X132618729Y-78016552D01*
X132720186Y-78099814D01*
X132803448Y-78201271D01*
X132832778Y-78237009D01*
X132916443Y-78393534D01*
X132967963Y-78563373D01*
X132985359Y-78740000D01*
X132967963Y-78916627D01*
X132916443Y-79086466D01*
X132832778Y-79242991D01*
X132803448Y-79278729D01*
X132720186Y-79380186D01*
X132618729Y-79463448D01*
X132582991Y-79492778D01*
X132426466Y-79576443D01*
X132256627Y-79627963D01*
X132190442Y-79634482D01*
X132124260Y-79641000D01*
X132035740Y-79641000D01*
X131969558Y-79634482D01*
X131903373Y-79627963D01*
X131733534Y-79576443D01*
X131577009Y-79492778D01*
X131541271Y-79463448D01*
X131439814Y-79380186D01*
X131356552Y-79278729D01*
X131327222Y-79242991D01*
X131243557Y-79086466D01*
X131192037Y-78916627D01*
X131174641Y-78740000D01*
X131192037Y-78563373D01*
X131243557Y-78393534D01*
X131327222Y-78237009D01*
X131356552Y-78201271D01*
X131439814Y-78099814D01*
X131541271Y-78016552D01*
X131577009Y-77987222D01*
X131733534Y-77903557D01*
X131903373Y-77852037D01*
X131969557Y-77845519D01*
X132035740Y-77839000D01*
X132124260Y-77839000D01*
X132190443Y-77845519D01*
X132190443Y-77845519D01*
G37*
G36*
X144890443Y-77845519D02*
G01*
X144956627Y-77852037D01*
X145126466Y-77903557D01*
X145282991Y-77987222D01*
X145318729Y-78016552D01*
X145420186Y-78099814D01*
X145503448Y-78201271D01*
X145532778Y-78237009D01*
X145616443Y-78393534D01*
X145667963Y-78563373D01*
X145685359Y-78740000D01*
X145667963Y-78916627D01*
X145616443Y-79086466D01*
X145532778Y-79242991D01*
X145503448Y-79278729D01*
X145420186Y-79380186D01*
X145318729Y-79463448D01*
X145282991Y-79492778D01*
X145126466Y-79576443D01*
X144956627Y-79627963D01*
X144890442Y-79634482D01*
X144824260Y-79641000D01*
X144735740Y-79641000D01*
X144669558Y-79634482D01*
X144603373Y-79627963D01*
X144433534Y-79576443D01*
X144277009Y-79492778D01*
X144241271Y-79463448D01*
X144139814Y-79380186D01*
X144056552Y-79278729D01*
X144027222Y-79242991D01*
X143943557Y-79086466D01*
X143892037Y-78916627D01*
X143874641Y-78740000D01*
X143892037Y-78563373D01*
X143943557Y-78393534D01*
X144027222Y-78237009D01*
X144056552Y-78201271D01*
X144139814Y-78099814D01*
X144241271Y-78016552D01*
X144277009Y-77987222D01*
X144433534Y-77903557D01*
X144603373Y-77852037D01*
X144669557Y-77845519D01*
X144735740Y-77839000D01*
X144824260Y-77839000D01*
X144890443Y-77845519D01*
X144890443Y-77845519D01*
G37*
G36*
X129650443Y-77845519D02*
G01*
X129716627Y-77852037D01*
X129886466Y-77903557D01*
X130042991Y-77987222D01*
X130078729Y-78016552D01*
X130180186Y-78099814D01*
X130263448Y-78201271D01*
X130292778Y-78237009D01*
X130376443Y-78393534D01*
X130427963Y-78563373D01*
X130445359Y-78740000D01*
X130427963Y-78916627D01*
X130376443Y-79086466D01*
X130292778Y-79242991D01*
X130263448Y-79278729D01*
X130180186Y-79380186D01*
X130078729Y-79463448D01*
X130042991Y-79492778D01*
X129886466Y-79576443D01*
X129716627Y-79627963D01*
X129650442Y-79634482D01*
X129584260Y-79641000D01*
X129495740Y-79641000D01*
X129429558Y-79634482D01*
X129363373Y-79627963D01*
X129193534Y-79576443D01*
X129037009Y-79492778D01*
X129001271Y-79463448D01*
X128899814Y-79380186D01*
X128816552Y-79278729D01*
X128787222Y-79242991D01*
X128703557Y-79086466D01*
X128652037Y-78916627D01*
X128634641Y-78740000D01*
X128652037Y-78563373D01*
X128703557Y-78393534D01*
X128787222Y-78237009D01*
X128816552Y-78201271D01*
X128899814Y-78099814D01*
X129001271Y-78016552D01*
X129037009Y-77987222D01*
X129193534Y-77903557D01*
X129363373Y-77852037D01*
X129429557Y-77845519D01*
X129495740Y-77839000D01*
X129584260Y-77839000D01*
X129650443Y-77845519D01*
X129650443Y-77845519D01*
G37*
G36*
X127110443Y-77845519D02*
G01*
X127176627Y-77852037D01*
X127346466Y-77903557D01*
X127502991Y-77987222D01*
X127538729Y-78016552D01*
X127640186Y-78099814D01*
X127723448Y-78201271D01*
X127752778Y-78237009D01*
X127836443Y-78393534D01*
X127887963Y-78563373D01*
X127905359Y-78740000D01*
X127887963Y-78916627D01*
X127836443Y-79086466D01*
X127752778Y-79242991D01*
X127723448Y-79278729D01*
X127640186Y-79380186D01*
X127538729Y-79463448D01*
X127502991Y-79492778D01*
X127346466Y-79576443D01*
X127176627Y-79627963D01*
X127110442Y-79634482D01*
X127044260Y-79641000D01*
X126955740Y-79641000D01*
X126889558Y-79634482D01*
X126823373Y-79627963D01*
X126653534Y-79576443D01*
X126497009Y-79492778D01*
X126461271Y-79463448D01*
X126359814Y-79380186D01*
X126276552Y-79278729D01*
X126247222Y-79242991D01*
X126163557Y-79086466D01*
X126112037Y-78916627D01*
X126094641Y-78740000D01*
X126112037Y-78563373D01*
X126163557Y-78393534D01*
X126247222Y-78237009D01*
X126276552Y-78201271D01*
X126359814Y-78099814D01*
X126461271Y-78016552D01*
X126497009Y-77987222D01*
X126653534Y-77903557D01*
X126823373Y-77852037D01*
X126889557Y-77845519D01*
X126955740Y-77839000D01*
X127044260Y-77839000D01*
X127110443Y-77845519D01*
X127110443Y-77845519D01*
G37*
G36*
X124570443Y-77845519D02*
G01*
X124636627Y-77852037D01*
X124806466Y-77903557D01*
X124962991Y-77987222D01*
X124998729Y-78016552D01*
X125100186Y-78099814D01*
X125183448Y-78201271D01*
X125212778Y-78237009D01*
X125296443Y-78393534D01*
X125347963Y-78563373D01*
X125365359Y-78740000D01*
X125347963Y-78916627D01*
X125296443Y-79086466D01*
X125212778Y-79242991D01*
X125183448Y-79278729D01*
X125100186Y-79380186D01*
X124998729Y-79463448D01*
X124962991Y-79492778D01*
X124806466Y-79576443D01*
X124636627Y-79627963D01*
X124570442Y-79634482D01*
X124504260Y-79641000D01*
X124415740Y-79641000D01*
X124349558Y-79634482D01*
X124283373Y-79627963D01*
X124113534Y-79576443D01*
X123957009Y-79492778D01*
X123921271Y-79463448D01*
X123819814Y-79380186D01*
X123736552Y-79278729D01*
X123707222Y-79242991D01*
X123623557Y-79086466D01*
X123572037Y-78916627D01*
X123554641Y-78740000D01*
X123572037Y-78563373D01*
X123623557Y-78393534D01*
X123707222Y-78237009D01*
X123736552Y-78201271D01*
X123819814Y-78099814D01*
X123921271Y-78016552D01*
X123957009Y-77987222D01*
X124113534Y-77903557D01*
X124283373Y-77852037D01*
X124349557Y-77845519D01*
X124415740Y-77839000D01*
X124504260Y-77839000D01*
X124570443Y-77845519D01*
X124570443Y-77845519D01*
G37*
G36*
X122030443Y-77845519D02*
G01*
X122096627Y-77852037D01*
X122266466Y-77903557D01*
X122422991Y-77987222D01*
X122458729Y-78016552D01*
X122560186Y-78099814D01*
X122643448Y-78201271D01*
X122672778Y-78237009D01*
X122756443Y-78393534D01*
X122807963Y-78563373D01*
X122825359Y-78740000D01*
X122807963Y-78916627D01*
X122756443Y-79086466D01*
X122672778Y-79242991D01*
X122643448Y-79278729D01*
X122560186Y-79380186D01*
X122458729Y-79463448D01*
X122422991Y-79492778D01*
X122266466Y-79576443D01*
X122096627Y-79627963D01*
X122030442Y-79634482D01*
X121964260Y-79641000D01*
X121875740Y-79641000D01*
X121809558Y-79634482D01*
X121743373Y-79627963D01*
X121573534Y-79576443D01*
X121417009Y-79492778D01*
X121381271Y-79463448D01*
X121279814Y-79380186D01*
X121196552Y-79278729D01*
X121167222Y-79242991D01*
X121083557Y-79086466D01*
X121032037Y-78916627D01*
X121014641Y-78740000D01*
X121032037Y-78563373D01*
X121083557Y-78393534D01*
X121167222Y-78237009D01*
X121196552Y-78201271D01*
X121279814Y-78099814D01*
X121381271Y-78016552D01*
X121417009Y-77987222D01*
X121573534Y-77903557D01*
X121743373Y-77852037D01*
X121809557Y-77845519D01*
X121875740Y-77839000D01*
X121964260Y-77839000D01*
X122030443Y-77845519D01*
X122030443Y-77845519D01*
G37*
G36*
X149970443Y-77845519D02*
G01*
X150036627Y-77852037D01*
X150206466Y-77903557D01*
X150362991Y-77987222D01*
X150398729Y-78016552D01*
X150500186Y-78099814D01*
X150583448Y-78201271D01*
X150612778Y-78237009D01*
X150696443Y-78393534D01*
X150747963Y-78563373D01*
X150765359Y-78740000D01*
X150747963Y-78916627D01*
X150696443Y-79086466D01*
X150612778Y-79242991D01*
X150583448Y-79278729D01*
X150500186Y-79380186D01*
X150398729Y-79463448D01*
X150362991Y-79492778D01*
X150206466Y-79576443D01*
X150036627Y-79627963D01*
X149970442Y-79634482D01*
X149904260Y-79641000D01*
X149815740Y-79641000D01*
X149749558Y-79634482D01*
X149683373Y-79627963D01*
X149513534Y-79576443D01*
X149357009Y-79492778D01*
X149321271Y-79463448D01*
X149219814Y-79380186D01*
X149136552Y-79278729D01*
X149107222Y-79242991D01*
X149023557Y-79086466D01*
X148972037Y-78916627D01*
X148954641Y-78740000D01*
X148972037Y-78563373D01*
X149023557Y-78393534D01*
X149107222Y-78237009D01*
X149136552Y-78201271D01*
X149219814Y-78099814D01*
X149321271Y-78016552D01*
X149357009Y-77987222D01*
X149513534Y-77903557D01*
X149683373Y-77852037D01*
X149749557Y-77845519D01*
X149815740Y-77839000D01*
X149904260Y-77839000D01*
X149970443Y-77845519D01*
X149970443Y-77845519D01*
G37*
G36*
X119490443Y-77845519D02*
G01*
X119556627Y-77852037D01*
X119726466Y-77903557D01*
X119882991Y-77987222D01*
X119918729Y-78016552D01*
X120020186Y-78099814D01*
X120103448Y-78201271D01*
X120132778Y-78237009D01*
X120216443Y-78393534D01*
X120267963Y-78563373D01*
X120285359Y-78740000D01*
X120267963Y-78916627D01*
X120216443Y-79086466D01*
X120132778Y-79242991D01*
X120103448Y-79278729D01*
X120020186Y-79380186D01*
X119918729Y-79463448D01*
X119882991Y-79492778D01*
X119726466Y-79576443D01*
X119556627Y-79627963D01*
X119490442Y-79634482D01*
X119424260Y-79641000D01*
X119335740Y-79641000D01*
X119269558Y-79634482D01*
X119203373Y-79627963D01*
X119033534Y-79576443D01*
X118877009Y-79492778D01*
X118841271Y-79463448D01*
X118739814Y-79380186D01*
X118656552Y-79278729D01*
X118627222Y-79242991D01*
X118543557Y-79086466D01*
X118492037Y-78916627D01*
X118474641Y-78740000D01*
X118492037Y-78563373D01*
X118543557Y-78393534D01*
X118627222Y-78237009D01*
X118656552Y-78201271D01*
X118739814Y-78099814D01*
X118841271Y-78016552D01*
X118877009Y-77987222D01*
X119033534Y-77903557D01*
X119203373Y-77852037D01*
X119269557Y-77845519D01*
X119335740Y-77839000D01*
X119424260Y-77839000D01*
X119490443Y-77845519D01*
X119490443Y-77845519D01*
G37*
G36*
X147430443Y-77845519D02*
G01*
X147496627Y-77852037D01*
X147666466Y-77903557D01*
X147822991Y-77987222D01*
X147858729Y-78016552D01*
X147960186Y-78099814D01*
X148043448Y-78201271D01*
X148072778Y-78237009D01*
X148156443Y-78393534D01*
X148207963Y-78563373D01*
X148225359Y-78740000D01*
X148207963Y-78916627D01*
X148156443Y-79086466D01*
X148072778Y-79242991D01*
X148043448Y-79278729D01*
X147960186Y-79380186D01*
X147858729Y-79463448D01*
X147822991Y-79492778D01*
X147666466Y-79576443D01*
X147496627Y-79627963D01*
X147430442Y-79634482D01*
X147364260Y-79641000D01*
X147275740Y-79641000D01*
X147209558Y-79634482D01*
X147143373Y-79627963D01*
X146973534Y-79576443D01*
X146817009Y-79492778D01*
X146781271Y-79463448D01*
X146679814Y-79380186D01*
X146596552Y-79278729D01*
X146567222Y-79242991D01*
X146483557Y-79086466D01*
X146432037Y-78916627D01*
X146414641Y-78740000D01*
X146432037Y-78563373D01*
X146483557Y-78393534D01*
X146567222Y-78237009D01*
X146596552Y-78201271D01*
X146679814Y-78099814D01*
X146781271Y-78016552D01*
X146817009Y-77987222D01*
X146973534Y-77903557D01*
X147143373Y-77852037D01*
X147209557Y-77845519D01*
X147275740Y-77839000D01*
X147364260Y-77839000D01*
X147430443Y-77845519D01*
X147430443Y-77845519D01*
G37*
G36*
X101710443Y-77845519D02*
G01*
X101776627Y-77852037D01*
X101946466Y-77903557D01*
X102102991Y-77987222D01*
X102138729Y-78016552D01*
X102240186Y-78099814D01*
X102323448Y-78201271D01*
X102352778Y-78237009D01*
X102436443Y-78393534D01*
X102487963Y-78563373D01*
X102505359Y-78740000D01*
X102487963Y-78916627D01*
X102436443Y-79086466D01*
X102352778Y-79242991D01*
X102323448Y-79278729D01*
X102240186Y-79380186D01*
X102138729Y-79463448D01*
X102102991Y-79492778D01*
X101946466Y-79576443D01*
X101776627Y-79627963D01*
X101710442Y-79634482D01*
X101644260Y-79641000D01*
X101555740Y-79641000D01*
X101489558Y-79634482D01*
X101423373Y-79627963D01*
X101253534Y-79576443D01*
X101097009Y-79492778D01*
X101061271Y-79463448D01*
X100959814Y-79380186D01*
X100876552Y-79278729D01*
X100847222Y-79242991D01*
X100763557Y-79086466D01*
X100712037Y-78916627D01*
X100694641Y-78740000D01*
X100712037Y-78563373D01*
X100763557Y-78393534D01*
X100847222Y-78237009D01*
X100876552Y-78201271D01*
X100959814Y-78099814D01*
X101061271Y-78016552D01*
X101097009Y-77987222D01*
X101253534Y-77903557D01*
X101423373Y-77852037D01*
X101489557Y-77845519D01*
X101555740Y-77839000D01*
X101644260Y-77839000D01*
X101710443Y-77845519D01*
X101710443Y-77845519D01*
G37*
G36*
X104250443Y-77845519D02*
G01*
X104316627Y-77852037D01*
X104486466Y-77903557D01*
X104642991Y-77987222D01*
X104678729Y-78016552D01*
X104780186Y-78099814D01*
X104863448Y-78201271D01*
X104892778Y-78237009D01*
X104976443Y-78393534D01*
X105027963Y-78563373D01*
X105045359Y-78740000D01*
X105027963Y-78916627D01*
X104976443Y-79086466D01*
X104892778Y-79242991D01*
X104863448Y-79278729D01*
X104780186Y-79380186D01*
X104678729Y-79463448D01*
X104642991Y-79492778D01*
X104486466Y-79576443D01*
X104316627Y-79627963D01*
X104250442Y-79634482D01*
X104184260Y-79641000D01*
X104095740Y-79641000D01*
X104029558Y-79634482D01*
X103963373Y-79627963D01*
X103793534Y-79576443D01*
X103637009Y-79492778D01*
X103601271Y-79463448D01*
X103499814Y-79380186D01*
X103416552Y-79278729D01*
X103387222Y-79242991D01*
X103303557Y-79086466D01*
X103252037Y-78916627D01*
X103234641Y-78740000D01*
X103252037Y-78563373D01*
X103303557Y-78393534D01*
X103387222Y-78237009D01*
X103416552Y-78201271D01*
X103499814Y-78099814D01*
X103601271Y-78016552D01*
X103637009Y-77987222D01*
X103793534Y-77903557D01*
X103963373Y-77852037D01*
X104029557Y-77845519D01*
X104095740Y-77839000D01*
X104184260Y-77839000D01*
X104250443Y-77845519D01*
X104250443Y-77845519D01*
G37*
G36*
X106790443Y-77845519D02*
G01*
X106856627Y-77852037D01*
X107026466Y-77903557D01*
X107182991Y-77987222D01*
X107218729Y-78016552D01*
X107320186Y-78099814D01*
X107403448Y-78201271D01*
X107432778Y-78237009D01*
X107516443Y-78393534D01*
X107567963Y-78563373D01*
X107585359Y-78740000D01*
X107567963Y-78916627D01*
X107516443Y-79086466D01*
X107432778Y-79242991D01*
X107403448Y-79278729D01*
X107320186Y-79380186D01*
X107218729Y-79463448D01*
X107182991Y-79492778D01*
X107026466Y-79576443D01*
X106856627Y-79627963D01*
X106790442Y-79634482D01*
X106724260Y-79641000D01*
X106635740Y-79641000D01*
X106569558Y-79634482D01*
X106503373Y-79627963D01*
X106333534Y-79576443D01*
X106177009Y-79492778D01*
X106141271Y-79463448D01*
X106039814Y-79380186D01*
X105956552Y-79278729D01*
X105927222Y-79242991D01*
X105843557Y-79086466D01*
X105792037Y-78916627D01*
X105774641Y-78740000D01*
X105792037Y-78563373D01*
X105843557Y-78393534D01*
X105927222Y-78237009D01*
X105956552Y-78201271D01*
X106039814Y-78099814D01*
X106141271Y-78016552D01*
X106177009Y-77987222D01*
X106333534Y-77903557D01*
X106503373Y-77852037D01*
X106569557Y-77845519D01*
X106635740Y-77839000D01*
X106724260Y-77839000D01*
X106790443Y-77845519D01*
X106790443Y-77845519D01*
G37*
G36*
X109330443Y-77845519D02*
G01*
X109396627Y-77852037D01*
X109566466Y-77903557D01*
X109722991Y-77987222D01*
X109758729Y-78016552D01*
X109860186Y-78099814D01*
X109943448Y-78201271D01*
X109972778Y-78237009D01*
X110056443Y-78393534D01*
X110107963Y-78563373D01*
X110125359Y-78740000D01*
X110107963Y-78916627D01*
X110056443Y-79086466D01*
X109972778Y-79242991D01*
X109943448Y-79278729D01*
X109860186Y-79380186D01*
X109758729Y-79463448D01*
X109722991Y-79492778D01*
X109566466Y-79576443D01*
X109396627Y-79627963D01*
X109330442Y-79634482D01*
X109264260Y-79641000D01*
X109175740Y-79641000D01*
X109109558Y-79634482D01*
X109043373Y-79627963D01*
X108873534Y-79576443D01*
X108717009Y-79492778D01*
X108681271Y-79463448D01*
X108579814Y-79380186D01*
X108496552Y-79278729D01*
X108467222Y-79242991D01*
X108383557Y-79086466D01*
X108332037Y-78916627D01*
X108314641Y-78740000D01*
X108332037Y-78563373D01*
X108383557Y-78393534D01*
X108467222Y-78237009D01*
X108496552Y-78201271D01*
X108579814Y-78099814D01*
X108681271Y-78016552D01*
X108717009Y-77987222D01*
X108873534Y-77903557D01*
X109043373Y-77852037D01*
X109109557Y-77845519D01*
X109175740Y-77839000D01*
X109264260Y-77839000D01*
X109330443Y-77845519D01*
X109330443Y-77845519D01*
G37*
G36*
X111870443Y-77845519D02*
G01*
X111936627Y-77852037D01*
X112106466Y-77903557D01*
X112262991Y-77987222D01*
X112298729Y-78016552D01*
X112400186Y-78099814D01*
X112483448Y-78201271D01*
X112512778Y-78237009D01*
X112596443Y-78393534D01*
X112647963Y-78563373D01*
X112665359Y-78740000D01*
X112647963Y-78916627D01*
X112596443Y-79086466D01*
X112512778Y-79242991D01*
X112483448Y-79278729D01*
X112400186Y-79380186D01*
X112298729Y-79463448D01*
X112262991Y-79492778D01*
X112106466Y-79576443D01*
X111936627Y-79627963D01*
X111870442Y-79634482D01*
X111804260Y-79641000D01*
X111715740Y-79641000D01*
X111649558Y-79634482D01*
X111583373Y-79627963D01*
X111413534Y-79576443D01*
X111257009Y-79492778D01*
X111221271Y-79463448D01*
X111119814Y-79380186D01*
X111036552Y-79278729D01*
X111007222Y-79242991D01*
X110923557Y-79086466D01*
X110872037Y-78916627D01*
X110854641Y-78740000D01*
X110872037Y-78563373D01*
X110923557Y-78393534D01*
X111007222Y-78237009D01*
X111036552Y-78201271D01*
X111119814Y-78099814D01*
X111221271Y-78016552D01*
X111257009Y-77987222D01*
X111413534Y-77903557D01*
X111583373Y-77852037D01*
X111649557Y-77845519D01*
X111715740Y-77839000D01*
X111804260Y-77839000D01*
X111870443Y-77845519D01*
X111870443Y-77845519D01*
G37*
G36*
X114410443Y-77845519D02*
G01*
X114476627Y-77852037D01*
X114646466Y-77903557D01*
X114802991Y-77987222D01*
X114838729Y-78016552D01*
X114940186Y-78099814D01*
X115023448Y-78201271D01*
X115052778Y-78237009D01*
X115136443Y-78393534D01*
X115187963Y-78563373D01*
X115205359Y-78740000D01*
X115187963Y-78916627D01*
X115136443Y-79086466D01*
X115052778Y-79242991D01*
X115023448Y-79278729D01*
X114940186Y-79380186D01*
X114838729Y-79463448D01*
X114802991Y-79492778D01*
X114646466Y-79576443D01*
X114476627Y-79627963D01*
X114410442Y-79634482D01*
X114344260Y-79641000D01*
X114255740Y-79641000D01*
X114189558Y-79634482D01*
X114123373Y-79627963D01*
X113953534Y-79576443D01*
X113797009Y-79492778D01*
X113761271Y-79463448D01*
X113659814Y-79380186D01*
X113576552Y-79278729D01*
X113547222Y-79242991D01*
X113463557Y-79086466D01*
X113412037Y-78916627D01*
X113394641Y-78740000D01*
X113412037Y-78563373D01*
X113463557Y-78393534D01*
X113547222Y-78237009D01*
X113576552Y-78201271D01*
X113659814Y-78099814D01*
X113761271Y-78016552D01*
X113797009Y-77987222D01*
X113953534Y-77903557D01*
X114123373Y-77852037D01*
X114189557Y-77845519D01*
X114255740Y-77839000D01*
X114344260Y-77839000D01*
X114410443Y-77845519D01*
X114410443Y-77845519D01*
G37*
G36*
X116950443Y-77845519D02*
G01*
X117016627Y-77852037D01*
X117186466Y-77903557D01*
X117342991Y-77987222D01*
X117378729Y-78016552D01*
X117480186Y-78099814D01*
X117563448Y-78201271D01*
X117592778Y-78237009D01*
X117676443Y-78393534D01*
X117727963Y-78563373D01*
X117745359Y-78740000D01*
X117727963Y-78916627D01*
X117676443Y-79086466D01*
X117592778Y-79242991D01*
X117563448Y-79278729D01*
X117480186Y-79380186D01*
X117378729Y-79463448D01*
X117342991Y-79492778D01*
X117186466Y-79576443D01*
X117016627Y-79627963D01*
X116950442Y-79634482D01*
X116884260Y-79641000D01*
X116795740Y-79641000D01*
X116729558Y-79634482D01*
X116663373Y-79627963D01*
X116493534Y-79576443D01*
X116337009Y-79492778D01*
X116301271Y-79463448D01*
X116199814Y-79380186D01*
X116116552Y-79278729D01*
X116087222Y-79242991D01*
X116003557Y-79086466D01*
X115952037Y-78916627D01*
X115934641Y-78740000D01*
X115952037Y-78563373D01*
X116003557Y-78393534D01*
X116087222Y-78237009D01*
X116116552Y-78201271D01*
X116199814Y-78099814D01*
X116301271Y-78016552D01*
X116337009Y-77987222D01*
X116493534Y-77903557D01*
X116663373Y-77852037D01*
X116729557Y-77845519D01*
X116795740Y-77839000D01*
X116884260Y-77839000D01*
X116950443Y-77845519D01*
X116950443Y-77845519D01*
G37*
G36*
X129650442Y-75305518D02*
G01*
X129716627Y-75312037D01*
X129886466Y-75363557D01*
X130042991Y-75447222D01*
X130078729Y-75476552D01*
X130180186Y-75559814D01*
X130263448Y-75661271D01*
X130292778Y-75697009D01*
X130376443Y-75853534D01*
X130427963Y-76023373D01*
X130445359Y-76200000D01*
X130427963Y-76376627D01*
X130376443Y-76546466D01*
X130292778Y-76702991D01*
X130263448Y-76738729D01*
X130180186Y-76840186D01*
X130078729Y-76923448D01*
X130042991Y-76952778D01*
X129886466Y-77036443D01*
X129716627Y-77087963D01*
X129650442Y-77094482D01*
X129584260Y-77101000D01*
X129495740Y-77101000D01*
X129429558Y-77094482D01*
X129363373Y-77087963D01*
X129193534Y-77036443D01*
X129037009Y-76952778D01*
X129001271Y-76923448D01*
X128899814Y-76840186D01*
X128816552Y-76738729D01*
X128787222Y-76702991D01*
X128703557Y-76546466D01*
X128652037Y-76376627D01*
X128634641Y-76200000D01*
X128652037Y-76023373D01*
X128703557Y-75853534D01*
X128787222Y-75697009D01*
X128816552Y-75661271D01*
X128899814Y-75559814D01*
X129001271Y-75476552D01*
X129037009Y-75447222D01*
X129193534Y-75363557D01*
X129363373Y-75312037D01*
X129429558Y-75305518D01*
X129495740Y-75299000D01*
X129584260Y-75299000D01*
X129650442Y-75305518D01*
X129650442Y-75305518D01*
G37*
G36*
X139810442Y-75305518D02*
G01*
X139876627Y-75312037D01*
X140046466Y-75363557D01*
X140202991Y-75447222D01*
X140238729Y-75476552D01*
X140340186Y-75559814D01*
X140423448Y-75661271D01*
X140452778Y-75697009D01*
X140536443Y-75853534D01*
X140587963Y-76023373D01*
X140605359Y-76200000D01*
X140587963Y-76376627D01*
X140536443Y-76546466D01*
X140452778Y-76702991D01*
X140423448Y-76738729D01*
X140340186Y-76840186D01*
X140238729Y-76923448D01*
X140202991Y-76952778D01*
X140046466Y-77036443D01*
X139876627Y-77087963D01*
X139810442Y-77094482D01*
X139744260Y-77101000D01*
X139655740Y-77101000D01*
X139589558Y-77094482D01*
X139523373Y-77087963D01*
X139353534Y-77036443D01*
X139197009Y-76952778D01*
X139161271Y-76923448D01*
X139059814Y-76840186D01*
X138976552Y-76738729D01*
X138947222Y-76702991D01*
X138863557Y-76546466D01*
X138812037Y-76376627D01*
X138794641Y-76200000D01*
X138812037Y-76023373D01*
X138863557Y-75853534D01*
X138947222Y-75697009D01*
X138976552Y-75661271D01*
X139059814Y-75559814D01*
X139161271Y-75476552D01*
X139197009Y-75447222D01*
X139353534Y-75363557D01*
X139523373Y-75312037D01*
X139589558Y-75305518D01*
X139655740Y-75299000D01*
X139744260Y-75299000D01*
X139810442Y-75305518D01*
X139810442Y-75305518D01*
G37*
G36*
X137270442Y-75305518D02*
G01*
X137336627Y-75312037D01*
X137506466Y-75363557D01*
X137662991Y-75447222D01*
X137698729Y-75476552D01*
X137800186Y-75559814D01*
X137883448Y-75661271D01*
X137912778Y-75697009D01*
X137996443Y-75853534D01*
X138047963Y-76023373D01*
X138065359Y-76200000D01*
X138047963Y-76376627D01*
X137996443Y-76546466D01*
X137912778Y-76702991D01*
X137883448Y-76738729D01*
X137800186Y-76840186D01*
X137698729Y-76923448D01*
X137662991Y-76952778D01*
X137506466Y-77036443D01*
X137336627Y-77087963D01*
X137270442Y-77094482D01*
X137204260Y-77101000D01*
X137115740Y-77101000D01*
X137049558Y-77094482D01*
X136983373Y-77087963D01*
X136813534Y-77036443D01*
X136657009Y-76952778D01*
X136621271Y-76923448D01*
X136519814Y-76840186D01*
X136436552Y-76738729D01*
X136407222Y-76702991D01*
X136323557Y-76546466D01*
X136272037Y-76376627D01*
X136254641Y-76200000D01*
X136272037Y-76023373D01*
X136323557Y-75853534D01*
X136407222Y-75697009D01*
X136436552Y-75661271D01*
X136519814Y-75559814D01*
X136621271Y-75476552D01*
X136657009Y-75447222D01*
X136813534Y-75363557D01*
X136983373Y-75312037D01*
X137049558Y-75305518D01*
X137115740Y-75299000D01*
X137204260Y-75299000D01*
X137270442Y-75305518D01*
X137270442Y-75305518D01*
G37*
G36*
X134730442Y-75305518D02*
G01*
X134796627Y-75312037D01*
X134966466Y-75363557D01*
X135122991Y-75447222D01*
X135158729Y-75476552D01*
X135260186Y-75559814D01*
X135343448Y-75661271D01*
X135372778Y-75697009D01*
X135456443Y-75853534D01*
X135507963Y-76023373D01*
X135525359Y-76200000D01*
X135507963Y-76376627D01*
X135456443Y-76546466D01*
X135372778Y-76702991D01*
X135343448Y-76738729D01*
X135260186Y-76840186D01*
X135158729Y-76923448D01*
X135122991Y-76952778D01*
X134966466Y-77036443D01*
X134796627Y-77087963D01*
X134730442Y-77094482D01*
X134664260Y-77101000D01*
X134575740Y-77101000D01*
X134509558Y-77094482D01*
X134443373Y-77087963D01*
X134273534Y-77036443D01*
X134117009Y-76952778D01*
X134081271Y-76923448D01*
X133979814Y-76840186D01*
X133896552Y-76738729D01*
X133867222Y-76702991D01*
X133783557Y-76546466D01*
X133732037Y-76376627D01*
X133714641Y-76200000D01*
X133732037Y-76023373D01*
X133783557Y-75853534D01*
X133867222Y-75697009D01*
X133896552Y-75661271D01*
X133979814Y-75559814D01*
X134081271Y-75476552D01*
X134117009Y-75447222D01*
X134273534Y-75363557D01*
X134443373Y-75312037D01*
X134509558Y-75305518D01*
X134575740Y-75299000D01*
X134664260Y-75299000D01*
X134730442Y-75305518D01*
X134730442Y-75305518D01*
G37*
G36*
X132190442Y-75305518D02*
G01*
X132256627Y-75312037D01*
X132426466Y-75363557D01*
X132582991Y-75447222D01*
X132618729Y-75476552D01*
X132720186Y-75559814D01*
X132803448Y-75661271D01*
X132832778Y-75697009D01*
X132916443Y-75853534D01*
X132967963Y-76023373D01*
X132985359Y-76200000D01*
X132967963Y-76376627D01*
X132916443Y-76546466D01*
X132832778Y-76702991D01*
X132803448Y-76738729D01*
X132720186Y-76840186D01*
X132618729Y-76923448D01*
X132582991Y-76952778D01*
X132426466Y-77036443D01*
X132256627Y-77087963D01*
X132190442Y-77094482D01*
X132124260Y-77101000D01*
X132035740Y-77101000D01*
X131969558Y-77094482D01*
X131903373Y-77087963D01*
X131733534Y-77036443D01*
X131577009Y-76952778D01*
X131541271Y-76923448D01*
X131439814Y-76840186D01*
X131356552Y-76738729D01*
X131327222Y-76702991D01*
X131243557Y-76546466D01*
X131192037Y-76376627D01*
X131174641Y-76200000D01*
X131192037Y-76023373D01*
X131243557Y-75853534D01*
X131327222Y-75697009D01*
X131356552Y-75661271D01*
X131439814Y-75559814D01*
X131541271Y-75476552D01*
X131577009Y-75447222D01*
X131733534Y-75363557D01*
X131903373Y-75312037D01*
X131969558Y-75305518D01*
X132035740Y-75299000D01*
X132124260Y-75299000D01*
X132190442Y-75305518D01*
X132190442Y-75305518D01*
G37*
G36*
X127110442Y-75305518D02*
G01*
X127176627Y-75312037D01*
X127346466Y-75363557D01*
X127502991Y-75447222D01*
X127538729Y-75476552D01*
X127640186Y-75559814D01*
X127723448Y-75661271D01*
X127752778Y-75697009D01*
X127836443Y-75853534D01*
X127887963Y-76023373D01*
X127905359Y-76200000D01*
X127887963Y-76376627D01*
X127836443Y-76546466D01*
X127752778Y-76702991D01*
X127723448Y-76738729D01*
X127640186Y-76840186D01*
X127538729Y-76923448D01*
X127502991Y-76952778D01*
X127346466Y-77036443D01*
X127176627Y-77087963D01*
X127110442Y-77094482D01*
X127044260Y-77101000D01*
X126955740Y-77101000D01*
X126889558Y-77094482D01*
X126823373Y-77087963D01*
X126653534Y-77036443D01*
X126497009Y-76952778D01*
X126461271Y-76923448D01*
X126359814Y-76840186D01*
X126276552Y-76738729D01*
X126247222Y-76702991D01*
X126163557Y-76546466D01*
X126112037Y-76376627D01*
X126094641Y-76200000D01*
X126112037Y-76023373D01*
X126163557Y-75853534D01*
X126247222Y-75697009D01*
X126276552Y-75661271D01*
X126359814Y-75559814D01*
X126461271Y-75476552D01*
X126497009Y-75447222D01*
X126653534Y-75363557D01*
X126823373Y-75312037D01*
X126889558Y-75305518D01*
X126955740Y-75299000D01*
X127044260Y-75299000D01*
X127110442Y-75305518D01*
X127110442Y-75305518D01*
G37*
G36*
X124570442Y-75305518D02*
G01*
X124636627Y-75312037D01*
X124806466Y-75363557D01*
X124962991Y-75447222D01*
X124998729Y-75476552D01*
X125100186Y-75559814D01*
X125183448Y-75661271D01*
X125212778Y-75697009D01*
X125296443Y-75853534D01*
X125347963Y-76023373D01*
X125365359Y-76200000D01*
X125347963Y-76376627D01*
X125296443Y-76546466D01*
X125212778Y-76702991D01*
X125183448Y-76738729D01*
X125100186Y-76840186D01*
X124998729Y-76923448D01*
X124962991Y-76952778D01*
X124806466Y-77036443D01*
X124636627Y-77087963D01*
X124570442Y-77094482D01*
X124504260Y-77101000D01*
X124415740Y-77101000D01*
X124349558Y-77094482D01*
X124283373Y-77087963D01*
X124113534Y-77036443D01*
X123957009Y-76952778D01*
X123921271Y-76923448D01*
X123819814Y-76840186D01*
X123736552Y-76738729D01*
X123707222Y-76702991D01*
X123623557Y-76546466D01*
X123572037Y-76376627D01*
X123554641Y-76200000D01*
X123572037Y-76023373D01*
X123623557Y-75853534D01*
X123707222Y-75697009D01*
X123736552Y-75661271D01*
X123819814Y-75559814D01*
X123921271Y-75476552D01*
X123957009Y-75447222D01*
X124113534Y-75363557D01*
X124283373Y-75312037D01*
X124349558Y-75305518D01*
X124415740Y-75299000D01*
X124504260Y-75299000D01*
X124570442Y-75305518D01*
X124570442Y-75305518D01*
G37*
G36*
X122030442Y-75305518D02*
G01*
X122096627Y-75312037D01*
X122266466Y-75363557D01*
X122422991Y-75447222D01*
X122458729Y-75476552D01*
X122560186Y-75559814D01*
X122643448Y-75661271D01*
X122672778Y-75697009D01*
X122756443Y-75853534D01*
X122807963Y-76023373D01*
X122825359Y-76200000D01*
X122807963Y-76376627D01*
X122756443Y-76546466D01*
X122672778Y-76702991D01*
X122643448Y-76738729D01*
X122560186Y-76840186D01*
X122458729Y-76923448D01*
X122422991Y-76952778D01*
X122266466Y-77036443D01*
X122096627Y-77087963D01*
X122030442Y-77094482D01*
X121964260Y-77101000D01*
X121875740Y-77101000D01*
X121809558Y-77094482D01*
X121743373Y-77087963D01*
X121573534Y-77036443D01*
X121417009Y-76952778D01*
X121381271Y-76923448D01*
X121279814Y-76840186D01*
X121196552Y-76738729D01*
X121167222Y-76702991D01*
X121083557Y-76546466D01*
X121032037Y-76376627D01*
X121014641Y-76200000D01*
X121032037Y-76023373D01*
X121083557Y-75853534D01*
X121167222Y-75697009D01*
X121196552Y-75661271D01*
X121279814Y-75559814D01*
X121381271Y-75476552D01*
X121417009Y-75447222D01*
X121573534Y-75363557D01*
X121743373Y-75312037D01*
X121809558Y-75305518D01*
X121875740Y-75299000D01*
X121964260Y-75299000D01*
X122030442Y-75305518D01*
X122030442Y-75305518D01*
G37*
G36*
X149970442Y-75305518D02*
G01*
X150036627Y-75312037D01*
X150206466Y-75363557D01*
X150362991Y-75447222D01*
X150398729Y-75476552D01*
X150500186Y-75559814D01*
X150583448Y-75661271D01*
X150612778Y-75697009D01*
X150696443Y-75853534D01*
X150747963Y-76023373D01*
X150765359Y-76200000D01*
X150747963Y-76376627D01*
X150696443Y-76546466D01*
X150612778Y-76702991D01*
X150583448Y-76738729D01*
X150500186Y-76840186D01*
X150398729Y-76923448D01*
X150362991Y-76952778D01*
X150206466Y-77036443D01*
X150036627Y-77087963D01*
X149970442Y-77094482D01*
X149904260Y-77101000D01*
X149815740Y-77101000D01*
X149749558Y-77094482D01*
X149683373Y-77087963D01*
X149513534Y-77036443D01*
X149357009Y-76952778D01*
X149321271Y-76923448D01*
X149219814Y-76840186D01*
X149136552Y-76738729D01*
X149107222Y-76702991D01*
X149023557Y-76546466D01*
X148972037Y-76376627D01*
X148954641Y-76200000D01*
X148972037Y-76023373D01*
X149023557Y-75853534D01*
X149107222Y-75697009D01*
X149136552Y-75661271D01*
X149219814Y-75559814D01*
X149321271Y-75476552D01*
X149357009Y-75447222D01*
X149513534Y-75363557D01*
X149683373Y-75312037D01*
X149749558Y-75305518D01*
X149815740Y-75299000D01*
X149904260Y-75299000D01*
X149970442Y-75305518D01*
X149970442Y-75305518D01*
G37*
G36*
X116950442Y-75305518D02*
G01*
X117016627Y-75312037D01*
X117186466Y-75363557D01*
X117342991Y-75447222D01*
X117378729Y-75476552D01*
X117480186Y-75559814D01*
X117563448Y-75661271D01*
X117592778Y-75697009D01*
X117676443Y-75853534D01*
X117727963Y-76023373D01*
X117745359Y-76200000D01*
X117727963Y-76376627D01*
X117676443Y-76546466D01*
X117592778Y-76702991D01*
X117563448Y-76738729D01*
X117480186Y-76840186D01*
X117378729Y-76923448D01*
X117342991Y-76952778D01*
X117186466Y-77036443D01*
X117016627Y-77087963D01*
X116950442Y-77094482D01*
X116884260Y-77101000D01*
X116795740Y-77101000D01*
X116729558Y-77094482D01*
X116663373Y-77087963D01*
X116493534Y-77036443D01*
X116337009Y-76952778D01*
X116301271Y-76923448D01*
X116199814Y-76840186D01*
X116116552Y-76738729D01*
X116087222Y-76702991D01*
X116003557Y-76546466D01*
X115952037Y-76376627D01*
X115934641Y-76200000D01*
X115952037Y-76023373D01*
X116003557Y-75853534D01*
X116087222Y-75697009D01*
X116116552Y-75661271D01*
X116199814Y-75559814D01*
X116301271Y-75476552D01*
X116337009Y-75447222D01*
X116493534Y-75363557D01*
X116663373Y-75312037D01*
X116729558Y-75305518D01*
X116795740Y-75299000D01*
X116884260Y-75299000D01*
X116950442Y-75305518D01*
X116950442Y-75305518D01*
G37*
G36*
X147430442Y-75305518D02*
G01*
X147496627Y-75312037D01*
X147666466Y-75363557D01*
X147822991Y-75447222D01*
X147858729Y-75476552D01*
X147960186Y-75559814D01*
X148043448Y-75661271D01*
X148072778Y-75697009D01*
X148156443Y-75853534D01*
X148207963Y-76023373D01*
X148225359Y-76200000D01*
X148207963Y-76376627D01*
X148156443Y-76546466D01*
X148072778Y-76702991D01*
X148043448Y-76738729D01*
X147960186Y-76840186D01*
X147858729Y-76923448D01*
X147822991Y-76952778D01*
X147666466Y-77036443D01*
X147496627Y-77087963D01*
X147430442Y-77094482D01*
X147364260Y-77101000D01*
X147275740Y-77101000D01*
X147209558Y-77094482D01*
X147143373Y-77087963D01*
X146973534Y-77036443D01*
X146817009Y-76952778D01*
X146781271Y-76923448D01*
X146679814Y-76840186D01*
X146596552Y-76738729D01*
X146567222Y-76702991D01*
X146483557Y-76546466D01*
X146432037Y-76376627D01*
X146414641Y-76200000D01*
X146432037Y-76023373D01*
X146483557Y-75853534D01*
X146567222Y-75697009D01*
X146596552Y-75661271D01*
X146679814Y-75559814D01*
X146781271Y-75476552D01*
X146817009Y-75447222D01*
X146973534Y-75363557D01*
X147143373Y-75312037D01*
X147209558Y-75305518D01*
X147275740Y-75299000D01*
X147364260Y-75299000D01*
X147430442Y-75305518D01*
X147430442Y-75305518D01*
G37*
G36*
X114410442Y-75305518D02*
G01*
X114476627Y-75312037D01*
X114646466Y-75363557D01*
X114802991Y-75447222D01*
X114838729Y-75476552D01*
X114940186Y-75559814D01*
X115023448Y-75661271D01*
X115052778Y-75697009D01*
X115136443Y-75853534D01*
X115187963Y-76023373D01*
X115205359Y-76200000D01*
X115187963Y-76376627D01*
X115136443Y-76546466D01*
X115052778Y-76702991D01*
X115023448Y-76738729D01*
X114940186Y-76840186D01*
X114838729Y-76923448D01*
X114802991Y-76952778D01*
X114646466Y-77036443D01*
X114476627Y-77087963D01*
X114410442Y-77094482D01*
X114344260Y-77101000D01*
X114255740Y-77101000D01*
X114189558Y-77094482D01*
X114123373Y-77087963D01*
X113953534Y-77036443D01*
X113797009Y-76952778D01*
X113761271Y-76923448D01*
X113659814Y-76840186D01*
X113576552Y-76738729D01*
X113547222Y-76702991D01*
X113463557Y-76546466D01*
X113412037Y-76376627D01*
X113394641Y-76200000D01*
X113412037Y-76023373D01*
X113463557Y-75853534D01*
X113547222Y-75697009D01*
X113576552Y-75661271D01*
X113659814Y-75559814D01*
X113761271Y-75476552D01*
X113797009Y-75447222D01*
X113953534Y-75363557D01*
X114123373Y-75312037D01*
X114189558Y-75305518D01*
X114255740Y-75299000D01*
X114344260Y-75299000D01*
X114410442Y-75305518D01*
X114410442Y-75305518D01*
G37*
G36*
X109330442Y-75305518D02*
G01*
X109396627Y-75312037D01*
X109566466Y-75363557D01*
X109722991Y-75447222D01*
X109758729Y-75476552D01*
X109860186Y-75559814D01*
X109943448Y-75661271D01*
X109972778Y-75697009D01*
X110056443Y-75853534D01*
X110107963Y-76023373D01*
X110125359Y-76200000D01*
X110107963Y-76376627D01*
X110056443Y-76546466D01*
X109972778Y-76702991D01*
X109943448Y-76738729D01*
X109860186Y-76840186D01*
X109758729Y-76923448D01*
X109722991Y-76952778D01*
X109566466Y-77036443D01*
X109396627Y-77087963D01*
X109330442Y-77094482D01*
X109264260Y-77101000D01*
X109175740Y-77101000D01*
X109109558Y-77094482D01*
X109043373Y-77087963D01*
X108873534Y-77036443D01*
X108717009Y-76952778D01*
X108681271Y-76923448D01*
X108579814Y-76840186D01*
X108496552Y-76738729D01*
X108467222Y-76702991D01*
X108383557Y-76546466D01*
X108332037Y-76376627D01*
X108314641Y-76200000D01*
X108332037Y-76023373D01*
X108383557Y-75853534D01*
X108467222Y-75697009D01*
X108496552Y-75661271D01*
X108579814Y-75559814D01*
X108681271Y-75476552D01*
X108717009Y-75447222D01*
X108873534Y-75363557D01*
X109043373Y-75312037D01*
X109109558Y-75305518D01*
X109175740Y-75299000D01*
X109264260Y-75299000D01*
X109330442Y-75305518D01*
X109330442Y-75305518D01*
G37*
G36*
X106790442Y-75305518D02*
G01*
X106856627Y-75312037D01*
X107026466Y-75363557D01*
X107182991Y-75447222D01*
X107218729Y-75476552D01*
X107320186Y-75559814D01*
X107403448Y-75661271D01*
X107432778Y-75697009D01*
X107516443Y-75853534D01*
X107567963Y-76023373D01*
X107585359Y-76200000D01*
X107567963Y-76376627D01*
X107516443Y-76546466D01*
X107432778Y-76702991D01*
X107403448Y-76738729D01*
X107320186Y-76840186D01*
X107218729Y-76923448D01*
X107182991Y-76952778D01*
X107026466Y-77036443D01*
X106856627Y-77087963D01*
X106790442Y-77094482D01*
X106724260Y-77101000D01*
X106635740Y-77101000D01*
X106569558Y-77094482D01*
X106503373Y-77087963D01*
X106333534Y-77036443D01*
X106177009Y-76952778D01*
X106141271Y-76923448D01*
X106039814Y-76840186D01*
X105956552Y-76738729D01*
X105927222Y-76702991D01*
X105843557Y-76546466D01*
X105792037Y-76376627D01*
X105774641Y-76200000D01*
X105792037Y-76023373D01*
X105843557Y-75853534D01*
X105927222Y-75697009D01*
X105956552Y-75661271D01*
X106039814Y-75559814D01*
X106141271Y-75476552D01*
X106177009Y-75447222D01*
X106333534Y-75363557D01*
X106503373Y-75312037D01*
X106569558Y-75305518D01*
X106635740Y-75299000D01*
X106724260Y-75299000D01*
X106790442Y-75305518D01*
X106790442Y-75305518D01*
G37*
G36*
X144890442Y-75305518D02*
G01*
X144956627Y-75312037D01*
X145126466Y-75363557D01*
X145282991Y-75447222D01*
X145318729Y-75476552D01*
X145420186Y-75559814D01*
X145503448Y-75661271D01*
X145532778Y-75697009D01*
X145616443Y-75853534D01*
X145667963Y-76023373D01*
X145685359Y-76200000D01*
X145667963Y-76376627D01*
X145616443Y-76546466D01*
X145532778Y-76702991D01*
X145503448Y-76738729D01*
X145420186Y-76840186D01*
X145318729Y-76923448D01*
X145282991Y-76952778D01*
X145126466Y-77036443D01*
X144956627Y-77087963D01*
X144890442Y-77094482D01*
X144824260Y-77101000D01*
X144735740Y-77101000D01*
X144669558Y-77094482D01*
X144603373Y-77087963D01*
X144433534Y-77036443D01*
X144277009Y-76952778D01*
X144241271Y-76923448D01*
X144139814Y-76840186D01*
X144056552Y-76738729D01*
X144027222Y-76702991D01*
X143943557Y-76546466D01*
X143892037Y-76376627D01*
X143874641Y-76200000D01*
X143892037Y-76023373D01*
X143943557Y-75853534D01*
X144027222Y-75697009D01*
X144056552Y-75661271D01*
X144139814Y-75559814D01*
X144241271Y-75476552D01*
X144277009Y-75447222D01*
X144433534Y-75363557D01*
X144603373Y-75312037D01*
X144669558Y-75305518D01*
X144735740Y-75299000D01*
X144824260Y-75299000D01*
X144890442Y-75305518D01*
X144890442Y-75305518D01*
G37*
G36*
X104250442Y-75305518D02*
G01*
X104316627Y-75312037D01*
X104486466Y-75363557D01*
X104642991Y-75447222D01*
X104678729Y-75476552D01*
X104780186Y-75559814D01*
X104863448Y-75661271D01*
X104892778Y-75697009D01*
X104976443Y-75853534D01*
X105027963Y-76023373D01*
X105045359Y-76200000D01*
X105027963Y-76376627D01*
X104976443Y-76546466D01*
X104892778Y-76702991D01*
X104863448Y-76738729D01*
X104780186Y-76840186D01*
X104678729Y-76923448D01*
X104642991Y-76952778D01*
X104486466Y-77036443D01*
X104316627Y-77087963D01*
X104250442Y-77094482D01*
X104184260Y-77101000D01*
X104095740Y-77101000D01*
X104029558Y-77094482D01*
X103963373Y-77087963D01*
X103793534Y-77036443D01*
X103637009Y-76952778D01*
X103601271Y-76923448D01*
X103499814Y-76840186D01*
X103416552Y-76738729D01*
X103387222Y-76702991D01*
X103303557Y-76546466D01*
X103252037Y-76376627D01*
X103234641Y-76200000D01*
X103252037Y-76023373D01*
X103303557Y-75853534D01*
X103387222Y-75697009D01*
X103416552Y-75661271D01*
X103499814Y-75559814D01*
X103601271Y-75476552D01*
X103637009Y-75447222D01*
X103793534Y-75363557D01*
X103963373Y-75312037D01*
X104029558Y-75305518D01*
X104095740Y-75299000D01*
X104184260Y-75299000D01*
X104250442Y-75305518D01*
X104250442Y-75305518D01*
G37*
G36*
X102501000Y-77101000D02*
G01*
X100699000Y-77101000D01*
X100699000Y-75299000D01*
X102501000Y-75299000D01*
X102501000Y-77101000D01*
X102501000Y-77101000D01*
G37*
G36*
X111870442Y-75305518D02*
G01*
X111936627Y-75312037D01*
X112106466Y-75363557D01*
X112262991Y-75447222D01*
X112298729Y-75476552D01*
X112400186Y-75559814D01*
X112483448Y-75661271D01*
X112512778Y-75697009D01*
X112596443Y-75853534D01*
X112647963Y-76023373D01*
X112665359Y-76200000D01*
X112647963Y-76376627D01*
X112596443Y-76546466D01*
X112512778Y-76702991D01*
X112483448Y-76738729D01*
X112400186Y-76840186D01*
X112298729Y-76923448D01*
X112262991Y-76952778D01*
X112106466Y-77036443D01*
X111936627Y-77087963D01*
X111870442Y-77094482D01*
X111804260Y-77101000D01*
X111715740Y-77101000D01*
X111649558Y-77094482D01*
X111583373Y-77087963D01*
X111413534Y-77036443D01*
X111257009Y-76952778D01*
X111221271Y-76923448D01*
X111119814Y-76840186D01*
X111036552Y-76738729D01*
X111007222Y-76702991D01*
X110923557Y-76546466D01*
X110872037Y-76376627D01*
X110854641Y-76200000D01*
X110872037Y-76023373D01*
X110923557Y-75853534D01*
X111007222Y-75697009D01*
X111036552Y-75661271D01*
X111119814Y-75559814D01*
X111221271Y-75476552D01*
X111257009Y-75447222D01*
X111413534Y-75363557D01*
X111583373Y-75312037D01*
X111649558Y-75305518D01*
X111715740Y-75299000D01*
X111804260Y-75299000D01*
X111870442Y-75305518D01*
X111870442Y-75305518D01*
G37*
G36*
X142350442Y-75305518D02*
G01*
X142416627Y-75312037D01*
X142586466Y-75363557D01*
X142742991Y-75447222D01*
X142778729Y-75476552D01*
X142880186Y-75559814D01*
X142963448Y-75661271D01*
X142992778Y-75697009D01*
X143076443Y-75853534D01*
X143127963Y-76023373D01*
X143145359Y-76200000D01*
X143127963Y-76376627D01*
X143076443Y-76546466D01*
X142992778Y-76702991D01*
X142963448Y-76738729D01*
X142880186Y-76840186D01*
X142778729Y-76923448D01*
X142742991Y-76952778D01*
X142586466Y-77036443D01*
X142416627Y-77087963D01*
X142350442Y-77094482D01*
X142284260Y-77101000D01*
X142195740Y-77101000D01*
X142129558Y-77094482D01*
X142063373Y-77087963D01*
X141893534Y-77036443D01*
X141737009Y-76952778D01*
X141701271Y-76923448D01*
X141599814Y-76840186D01*
X141516552Y-76738729D01*
X141487222Y-76702991D01*
X141403557Y-76546466D01*
X141352037Y-76376627D01*
X141334641Y-76200000D01*
X141352037Y-76023373D01*
X141403557Y-75853534D01*
X141487222Y-75697009D01*
X141516552Y-75661271D01*
X141599814Y-75559814D01*
X141701271Y-75476552D01*
X141737009Y-75447222D01*
X141893534Y-75363557D01*
X142063373Y-75312037D01*
X142129558Y-75305518D01*
X142195740Y-75299000D01*
X142284260Y-75299000D01*
X142350442Y-75305518D01*
X142350442Y-75305518D01*
G37*
G36*
X119490442Y-75305518D02*
G01*
X119556627Y-75312037D01*
X119726466Y-75363557D01*
X119882991Y-75447222D01*
X119918729Y-75476552D01*
X120020186Y-75559814D01*
X120103448Y-75661271D01*
X120132778Y-75697009D01*
X120216443Y-75853534D01*
X120267963Y-76023373D01*
X120285359Y-76200000D01*
X120267963Y-76376627D01*
X120216443Y-76546466D01*
X120132778Y-76702991D01*
X120103448Y-76738729D01*
X120020186Y-76840186D01*
X119918729Y-76923448D01*
X119882991Y-76952778D01*
X119726466Y-77036443D01*
X119556627Y-77087963D01*
X119490442Y-77094482D01*
X119424260Y-77101000D01*
X119335740Y-77101000D01*
X119269558Y-77094482D01*
X119203373Y-77087963D01*
X119033534Y-77036443D01*
X118877009Y-76952778D01*
X118841271Y-76923448D01*
X118739814Y-76840186D01*
X118656552Y-76738729D01*
X118627222Y-76702991D01*
X118543557Y-76546466D01*
X118492037Y-76376627D01*
X118474641Y-76200000D01*
X118492037Y-76023373D01*
X118543557Y-75853534D01*
X118627222Y-75697009D01*
X118656552Y-75661271D01*
X118739814Y-75559814D01*
X118841271Y-75476552D01*
X118877009Y-75447222D01*
X119033534Y-75363557D01*
X119203373Y-75312037D01*
X119269558Y-75305518D01*
X119335740Y-75299000D01*
X119424260Y-75299000D01*
X119490442Y-75305518D01*
X119490442Y-75305518D01*
G37*
M02*
