G04 #@! TF.GenerationSoftware,KiCad,Pcbnew,5.1.4+dfsg1-1*
G04 #@! TF.CreationDate,2019-12-03T12:49:09+09:00*
G04 #@! TF.ProjectId,Drone,44726f6e-652e-46b6-9963-61645f706362,rev?*
G04 #@! TF.SameCoordinates,Original*
G04 #@! TF.FileFunction,Legend,Bot*
G04 #@! TF.FilePolarity,Positive*
%FSLAX46Y46*%
G04 Gerber Fmt 4.6, Leading zero omitted, Abs format (unit mm)*
G04 Created by KiCad (PCBNEW 5.1.4+dfsg1-1) date 2019-12-03 12:49:09*
%MOMM*%
%LPD*%
G04 APERTURE LIST*
%ADD10C,0.150000*%
%ADD11C,0.120000*%
G04 APERTURE END LIST*
D10*
X98353571Y-95329523D02*
X98353571Y-95662857D01*
X98877380Y-95805714D02*
X98877380Y-95329523D01*
X97877380Y-95329523D01*
X97877380Y-95805714D01*
X98829761Y-96186666D02*
X98877380Y-96329523D01*
X98877380Y-96567619D01*
X98829761Y-96662857D01*
X98782142Y-96710476D01*
X98686904Y-96758095D01*
X98591666Y-96758095D01*
X98496428Y-96710476D01*
X98448809Y-96662857D01*
X98401190Y-96567619D01*
X98353571Y-96377142D01*
X98305952Y-96281904D01*
X98258333Y-96234285D01*
X98163095Y-96186666D01*
X98067857Y-96186666D01*
X97972619Y-96234285D01*
X97925000Y-96281904D01*
X97877380Y-96377142D01*
X97877380Y-96615238D01*
X97925000Y-96758095D01*
X98782142Y-97758095D02*
X98829761Y-97710476D01*
X98877380Y-97567619D01*
X98877380Y-97472380D01*
X98829761Y-97329523D01*
X98734523Y-97234285D01*
X98639285Y-97186666D01*
X98448809Y-97139047D01*
X98305952Y-97139047D01*
X98115476Y-97186666D01*
X98020238Y-97234285D01*
X97925000Y-97329523D01*
X97877380Y-97472380D01*
X97877380Y-97567619D01*
X97925000Y-97710476D01*
X97972619Y-97758095D01*
D11*
X96710500Y-126492000D02*
X178308000Y-126492000D01*
X96774000Y-77470000D02*
X96710500Y-126492000D01*
X178308000Y-77470000D02*
X96774000Y-77470000D01*
X178308000Y-77470000D02*
X178308000Y-126492000D01*
D10*
X150272142Y-81732380D02*
X150605476Y-81256190D01*
X150843571Y-81732380D02*
X150843571Y-80732380D01*
X150462619Y-80732380D01*
X150367380Y-80780000D01*
X150319761Y-80827619D01*
X150272142Y-80922857D01*
X150272142Y-81065714D01*
X150319761Y-81160952D01*
X150367380Y-81208571D01*
X150462619Y-81256190D01*
X150843571Y-81256190D01*
X149415000Y-81732380D02*
X149415000Y-81208571D01*
X149462619Y-81113333D01*
X149557857Y-81065714D01*
X149748333Y-81065714D01*
X149843571Y-81113333D01*
X149415000Y-81684761D02*
X149510238Y-81732380D01*
X149748333Y-81732380D01*
X149843571Y-81684761D01*
X149891190Y-81589523D01*
X149891190Y-81494285D01*
X149843571Y-81399047D01*
X149748333Y-81351428D01*
X149510238Y-81351428D01*
X149415000Y-81303809D01*
X148986428Y-81684761D02*
X148891190Y-81732380D01*
X148700714Y-81732380D01*
X148605476Y-81684761D01*
X148557857Y-81589523D01*
X148557857Y-81541904D01*
X148605476Y-81446666D01*
X148700714Y-81399047D01*
X148843571Y-81399047D01*
X148938809Y-81351428D01*
X148986428Y-81256190D01*
X148986428Y-81208571D01*
X148938809Y-81113333D01*
X148843571Y-81065714D01*
X148700714Y-81065714D01*
X148605476Y-81113333D01*
X148129285Y-81065714D02*
X148129285Y-82065714D01*
X148129285Y-81113333D02*
X148034047Y-81065714D01*
X147843571Y-81065714D01*
X147748333Y-81113333D01*
X147700714Y-81160952D01*
X147653095Y-81256190D01*
X147653095Y-81541904D01*
X147700714Y-81637142D01*
X147748333Y-81684761D01*
X147843571Y-81732380D01*
X148034047Y-81732380D01*
X148129285Y-81684761D01*
X147224523Y-81732380D02*
X147224523Y-80732380D01*
X147224523Y-81113333D02*
X147129285Y-81065714D01*
X146938809Y-81065714D01*
X146843571Y-81113333D01*
X146795952Y-81160952D01*
X146748333Y-81256190D01*
X146748333Y-81541904D01*
X146795952Y-81637142D01*
X146843571Y-81684761D01*
X146938809Y-81732380D01*
X147129285Y-81732380D01*
X147224523Y-81684761D01*
X145938809Y-81684761D02*
X146034047Y-81732380D01*
X146224523Y-81732380D01*
X146319761Y-81684761D01*
X146367380Y-81589523D01*
X146367380Y-81208571D01*
X146319761Y-81113333D01*
X146224523Y-81065714D01*
X146034047Y-81065714D01*
X145938809Y-81113333D01*
X145891190Y-81208571D01*
X145891190Y-81303809D01*
X146367380Y-81399047D01*
X145462619Y-81732380D02*
X145462619Y-81065714D01*
X145462619Y-81256190D02*
X145415000Y-81160952D01*
X145367380Y-81113333D01*
X145272142Y-81065714D01*
X145176904Y-81065714D01*
X144843571Y-81732380D02*
X144843571Y-81065714D01*
X144843571Y-81256190D02*
X144795952Y-81160952D01*
X144748333Y-81113333D01*
X144653095Y-81065714D01*
X144557857Y-81065714D01*
X144319761Y-81065714D02*
X144081666Y-81732380D01*
X143843571Y-81065714D02*
X144081666Y-81732380D01*
X144176904Y-81970476D01*
X144224523Y-82018095D01*
X144319761Y-82065714D01*
X142700714Y-81732380D02*
X142700714Y-80732380D01*
X142319761Y-80732380D01*
X142224523Y-80780000D01*
X142176904Y-80827619D01*
X142129285Y-80922857D01*
X142129285Y-81065714D01*
X142176904Y-81160952D01*
X142224523Y-81208571D01*
X142319761Y-81256190D01*
X142700714Y-81256190D01*
X141700714Y-81732380D02*
X141700714Y-81065714D01*
X141700714Y-80732380D02*
X141748333Y-80780000D01*
X141700714Y-80827619D01*
X141653095Y-80780000D01*
X141700714Y-80732380D01*
X141700714Y-80827619D01*
X140557857Y-80732380D02*
X139938809Y-80732380D01*
X140272142Y-81113333D01*
X140129285Y-81113333D01*
X140034047Y-81160952D01*
X139986428Y-81208571D01*
X139938809Y-81303809D01*
X139938809Y-81541904D01*
X139986428Y-81637142D01*
X140034047Y-81684761D01*
X140129285Y-81732380D01*
X140415000Y-81732380D01*
X140510238Y-81684761D01*
X140557857Y-81637142D01*
D11*
X104015000Y-104071267D02*
X104015000Y-103728733D01*
X102995000Y-104071267D02*
X102995000Y-103728733D01*
X105535000Y-105186267D02*
X105535000Y-104843733D01*
X106555000Y-105186267D02*
X106555000Y-104843733D01*
X161150000Y-98405000D02*
X162250000Y-98405000D01*
X161150000Y-100215000D02*
X161150000Y-98405000D01*
X159650000Y-100215000D02*
X161150000Y-100215000D01*
X161150000Y-91625000D02*
X166275000Y-91625000D01*
X161150000Y-89815000D02*
X161150000Y-91625000D01*
X159650000Y-89815000D02*
X161150000Y-89815000D01*
X162105000Y-105729721D02*
X162105000Y-106055279D01*
X161085000Y-105729721D02*
X161085000Y-106055279D01*
X159020000Y-107150000D02*
X161020000Y-107150000D01*
X161020000Y-107150000D02*
X161020000Y-111000000D01*
X159020000Y-107150000D02*
X159020000Y-111000000D01*
X156350000Y-107150000D02*
X156350000Y-111000000D01*
X158350000Y-107150000D02*
X158350000Y-111000000D01*
X156350000Y-107150000D02*
X158350000Y-107150000D01*
X94575000Y-99395000D02*
X95725000Y-99395000D01*
X95725000Y-99395000D02*
X95725000Y-100445000D01*
X95725000Y-100445000D02*
X96715000Y-100445000D01*
X94575000Y-107615000D02*
X95725000Y-107615000D01*
X95725000Y-107615000D02*
X95725000Y-106565000D01*
X92605000Y-100565000D02*
X92605000Y-106445000D01*
X154670000Y-86785000D02*
X154670000Y-82935000D01*
X152670000Y-86785000D02*
X152670000Y-82935000D01*
X154670000Y-86785000D02*
X152670000Y-86785000D01*
X155845000Y-82385000D02*
X157845000Y-82385000D01*
X157845000Y-82385000D02*
X157845000Y-86235000D01*
X155845000Y-82385000D02*
X155845000Y-86235000D01*
X154670000Y-110150000D02*
X154670000Y-106300000D01*
X152670000Y-110150000D02*
X152670000Y-106300000D01*
X154670000Y-110150000D02*
X152670000Y-110150000D01*
X151980000Y-109450000D02*
X150280000Y-109450000D01*
X150280000Y-109450000D02*
X150280000Y-106900000D01*
X151980000Y-109450000D02*
X151980000Y-106900000D01*
X167765000Y-93413733D02*
X167765000Y-93756267D01*
X168785000Y-93413733D02*
X168785000Y-93756267D01*
X97915000Y-102011267D02*
X97915000Y-101668733D01*
X98935000Y-102011267D02*
X98935000Y-101668733D01*
X101475000Y-102801267D02*
X101475000Y-102458733D01*
X100455000Y-102801267D02*
X100455000Y-102458733D01*
D10*
X105387380Y-103733333D02*
X104911190Y-103400000D01*
X105387380Y-103161904D02*
X104387380Y-103161904D01*
X104387380Y-103542857D01*
X104435000Y-103638095D01*
X104482619Y-103685714D01*
X104577857Y-103733333D01*
X104720714Y-103733333D01*
X104815952Y-103685714D01*
X104863571Y-103638095D01*
X104911190Y-103542857D01*
X104911190Y-103161904D01*
X104387380Y-104638095D02*
X104387380Y-104161904D01*
X104863571Y-104114285D01*
X104815952Y-104161904D01*
X104768333Y-104257142D01*
X104768333Y-104495238D01*
X104815952Y-104590476D01*
X104863571Y-104638095D01*
X104958809Y-104685714D01*
X105196904Y-104685714D01*
X105292142Y-104638095D01*
X105339761Y-104590476D01*
X105387380Y-104495238D01*
X105387380Y-104257142D01*
X105339761Y-104161904D01*
X105292142Y-104114285D01*
X107927380Y-104848333D02*
X107451190Y-104515000D01*
X107927380Y-104276904D02*
X106927380Y-104276904D01*
X106927380Y-104657857D01*
X106975000Y-104753095D01*
X107022619Y-104800714D01*
X107117857Y-104848333D01*
X107260714Y-104848333D01*
X107355952Y-104800714D01*
X107403571Y-104753095D01*
X107451190Y-104657857D01*
X107451190Y-104276904D01*
X106927380Y-105705476D02*
X106927380Y-105515000D01*
X106975000Y-105419761D01*
X107022619Y-105372142D01*
X107165476Y-105276904D01*
X107355952Y-105229285D01*
X107736904Y-105229285D01*
X107832142Y-105276904D01*
X107879761Y-105324523D01*
X107927380Y-105419761D01*
X107927380Y-105610238D01*
X107879761Y-105705476D01*
X107832142Y-105753095D01*
X107736904Y-105800714D01*
X107498809Y-105800714D01*
X107403571Y-105753095D01*
X107355952Y-105705476D01*
X107308333Y-105610238D01*
X107308333Y-105419761D01*
X107355952Y-105324523D01*
X107403571Y-105276904D01*
X107498809Y-105229285D01*
X148042380Y-92583095D02*
X148851904Y-92583095D01*
X148947142Y-92630714D01*
X148994761Y-92678333D01*
X149042380Y-92773571D01*
X149042380Y-92964047D01*
X148994761Y-93059285D01*
X148947142Y-93106904D01*
X148851904Y-93154523D01*
X148042380Y-93154523D01*
X148137619Y-93583095D02*
X148090000Y-93630714D01*
X148042380Y-93725952D01*
X148042380Y-93964047D01*
X148090000Y-94059285D01*
X148137619Y-94106904D01*
X148232857Y-94154523D01*
X148328095Y-94154523D01*
X148470952Y-94106904D01*
X149042380Y-93535476D01*
X149042380Y-94154523D01*
X163552142Y-105878333D02*
X163599761Y-105830714D01*
X163647380Y-105687857D01*
X163647380Y-105592619D01*
X163599761Y-105449761D01*
X163504523Y-105354523D01*
X163409285Y-105306904D01*
X163218809Y-105259285D01*
X163075952Y-105259285D01*
X162885476Y-105306904D01*
X162790238Y-105354523D01*
X162695000Y-105449761D01*
X162647380Y-105592619D01*
X162647380Y-105687857D01*
X162695000Y-105830714D01*
X162742619Y-105878333D01*
X163647380Y-106830714D02*
X163647380Y-106259285D01*
X163647380Y-106545000D02*
X162647380Y-106545000D01*
X162790238Y-106449761D01*
X162885476Y-106354523D01*
X162933095Y-106259285D01*
X160472380Y-112291904D02*
X159472380Y-112291904D01*
X159472380Y-112530000D01*
X159520000Y-112672857D01*
X159615238Y-112768095D01*
X159710476Y-112815714D01*
X159900952Y-112863333D01*
X160043809Y-112863333D01*
X160234285Y-112815714D01*
X160329523Y-112768095D01*
X160424761Y-112672857D01*
X160472380Y-112530000D01*
X160472380Y-112291904D01*
X160472380Y-113815714D02*
X160472380Y-113244285D01*
X160472380Y-113530000D02*
X159472380Y-113530000D01*
X159615238Y-113434761D01*
X159710476Y-113339523D01*
X159758095Y-113244285D01*
X157932380Y-112291904D02*
X156932380Y-112291904D01*
X156932380Y-112530000D01*
X156980000Y-112672857D01*
X157075238Y-112768095D01*
X157170476Y-112815714D01*
X157360952Y-112863333D01*
X157503809Y-112863333D01*
X157694285Y-112815714D01*
X157789523Y-112768095D01*
X157884761Y-112672857D01*
X157932380Y-112530000D01*
X157932380Y-112291904D01*
X157027619Y-113244285D02*
X156980000Y-113291904D01*
X156932380Y-113387142D01*
X156932380Y-113625238D01*
X156980000Y-113720476D01*
X157027619Y-113768095D01*
X157122857Y-113815714D01*
X157218095Y-113815714D01*
X157360952Y-113768095D01*
X157932380Y-113196666D01*
X157932380Y-113815714D01*
X93678333Y-108672380D02*
X93678333Y-109386666D01*
X93725952Y-109529523D01*
X93821190Y-109624761D01*
X93964047Y-109672380D01*
X94059285Y-109672380D01*
X92678333Y-109672380D02*
X93249761Y-109672380D01*
X92964047Y-109672380D02*
X92964047Y-108672380D01*
X93059285Y-108815238D01*
X93154523Y-108910476D01*
X93249761Y-108958095D01*
X152217380Y-83973904D02*
X151217380Y-83973904D01*
X151217380Y-84212000D01*
X151265000Y-84354857D01*
X151360238Y-84450095D01*
X151455476Y-84497714D01*
X151645952Y-84545333D01*
X151788809Y-84545333D01*
X151979285Y-84497714D01*
X152074523Y-84450095D01*
X152169761Y-84354857D01*
X152217380Y-84212000D01*
X152217380Y-83973904D01*
X151217380Y-84878666D02*
X151217380Y-85497714D01*
X151598333Y-85164380D01*
X151598333Y-85307238D01*
X151645952Y-85402476D01*
X151693571Y-85450095D01*
X151788809Y-85497714D01*
X152026904Y-85497714D01*
X152122142Y-85450095D01*
X152169761Y-85402476D01*
X152217380Y-85307238D01*
X152217380Y-85021523D01*
X152169761Y-84926285D01*
X152122142Y-84878666D01*
X155392380Y-81941904D02*
X154392380Y-81941904D01*
X154392380Y-82180000D01*
X154440000Y-82322857D01*
X154535238Y-82418095D01*
X154630476Y-82465714D01*
X154820952Y-82513333D01*
X154963809Y-82513333D01*
X155154285Y-82465714D01*
X155249523Y-82418095D01*
X155344761Y-82322857D01*
X155392380Y-82180000D01*
X155392380Y-81941904D01*
X154725714Y-83370476D02*
X155392380Y-83370476D01*
X154344761Y-83132380D02*
X155059047Y-82894285D01*
X155059047Y-83513333D01*
X154122380Y-111021904D02*
X153122380Y-111021904D01*
X153122380Y-111260000D01*
X153170000Y-111402857D01*
X153265238Y-111498095D01*
X153360476Y-111545714D01*
X153550952Y-111593333D01*
X153693809Y-111593333D01*
X153884285Y-111545714D01*
X153979523Y-111498095D01*
X154074761Y-111402857D01*
X154122380Y-111260000D01*
X154122380Y-111021904D01*
X153122380Y-112498095D02*
X153122380Y-112021904D01*
X153598571Y-111974285D01*
X153550952Y-112021904D01*
X153503333Y-112117142D01*
X153503333Y-112355238D01*
X153550952Y-112450476D01*
X153598571Y-112498095D01*
X153693809Y-112545714D01*
X153931904Y-112545714D01*
X154027142Y-112498095D01*
X154074761Y-112450476D01*
X154122380Y-112355238D01*
X154122380Y-112117142D01*
X154074761Y-112021904D01*
X154027142Y-111974285D01*
X151582380Y-110386904D02*
X150582380Y-110386904D01*
X150582380Y-110625000D01*
X150630000Y-110767857D01*
X150725238Y-110863095D01*
X150820476Y-110910714D01*
X151010952Y-110958333D01*
X151153809Y-110958333D01*
X151344285Y-110910714D01*
X151439523Y-110863095D01*
X151534761Y-110767857D01*
X151582380Y-110625000D01*
X151582380Y-110386904D01*
X150582380Y-111291666D02*
X150582380Y-111958333D01*
X151582380Y-111529761D01*
X167297380Y-93418333D02*
X166821190Y-93085000D01*
X167297380Y-92846904D02*
X166297380Y-92846904D01*
X166297380Y-93227857D01*
X166345000Y-93323095D01*
X166392619Y-93370714D01*
X166487857Y-93418333D01*
X166630714Y-93418333D01*
X166725952Y-93370714D01*
X166773571Y-93323095D01*
X166821190Y-93227857D01*
X166821190Y-92846904D01*
X166392619Y-93799285D02*
X166345000Y-93846904D01*
X166297380Y-93942142D01*
X166297380Y-94180238D01*
X166345000Y-94275476D01*
X166392619Y-94323095D01*
X166487857Y-94370714D01*
X166583095Y-94370714D01*
X166725952Y-94323095D01*
X167297380Y-93751666D01*
X167297380Y-94370714D01*
X100307380Y-101673333D02*
X99831190Y-101340000D01*
X100307380Y-101101904D02*
X99307380Y-101101904D01*
X99307380Y-101482857D01*
X99355000Y-101578095D01*
X99402619Y-101625714D01*
X99497857Y-101673333D01*
X99640714Y-101673333D01*
X99735952Y-101625714D01*
X99783571Y-101578095D01*
X99831190Y-101482857D01*
X99831190Y-101101904D01*
X99307380Y-102006666D02*
X99307380Y-102625714D01*
X99688333Y-102292380D01*
X99688333Y-102435238D01*
X99735952Y-102530476D01*
X99783571Y-102578095D01*
X99878809Y-102625714D01*
X100116904Y-102625714D01*
X100212142Y-102578095D01*
X100259761Y-102530476D01*
X100307380Y-102435238D01*
X100307380Y-102149523D01*
X100259761Y-102054285D01*
X100212142Y-102006666D01*
X102847380Y-102463333D02*
X102371190Y-102130000D01*
X102847380Y-101891904D02*
X101847380Y-101891904D01*
X101847380Y-102272857D01*
X101895000Y-102368095D01*
X101942619Y-102415714D01*
X102037857Y-102463333D01*
X102180714Y-102463333D01*
X102275952Y-102415714D01*
X102323571Y-102368095D01*
X102371190Y-102272857D01*
X102371190Y-101891904D01*
X102180714Y-103320476D02*
X102847380Y-103320476D01*
X101799761Y-103082380D02*
X102514047Y-102844285D01*
X102514047Y-103463333D01*
M02*
