M48
; DRILL file {KiCad 5.1.4+dfsg1-1} date 2020年01月07日 17時42分04秒
; FORMAT={-:-/ absolute / inch / decimal}
; #@! TF.CreationDate,2020-01-07T17:42:04+09:00
; #@! TF.GenerationSoftware,Kicad,Pcbnew,5.1.4+dfsg1-1
; #@! TF.FileFunction,Plated,1,2,PTH
FMAT,2
INCH
T1C0.0157
T2C0.0394
T3C0.0433
T4C0.1087
T5C0.1575
%
G90
G05
T1
X3.8Y-3.82
X3.94Y-3.82
X3.94Y-3.9
X3.975Y-3.625
X4.025Y-3.95
X4.025Y-4.225
X4.075Y-4.275
X4.15Y-3.175
X4.175Y-3.475
X4.175Y-3.95
X4.195Y-4.825
X4.25Y-3.175
X4.25Y-4.575
X4.275Y-3.625
X4.275Y-4.0
X4.325Y-3.625
X4.35Y-3.175
X4.375Y-3.625
X4.425Y-3.8
X4.475Y-3.8
X4.525Y-3.8
X4.525Y-3.875
X4.525Y-4.475
X4.64Y-3.74
X4.675Y-3.675
X4.75Y-4.45
X4.75Y-4.55
X6.05Y-3.55
X6.05Y-3.65
X6.05Y-4.4
X6.1Y-3.6
X6.1Y-3.7
X6.15Y-3.55
X6.15Y-3.65
X6.2Y-3.6
X6.362Y-4.3278
T2
X5.0Y-4.575
X5.1Y-4.575
X5.2Y-4.575
X5.3Y-4.575
X5.6Y-4.575
X5.7Y-4.575
X4.8Y-3.3
X4.8Y-3.4
X4.8Y-3.5
X4.8Y-3.6
X4.8Y-3.8
X4.9Y-3.8
X5.0Y-3.8
X5.1Y-3.8
X5.2Y-3.8
X5.3Y-3.8
X5.4Y-3.8
X5.5Y-3.8
X5.6Y-3.8
X5.7Y-3.8
X5.2Y-3.3
X5.2Y-3.4
X5.2Y-3.5
X5.2Y-3.6
X4.55Y-4.9
X4.65Y-4.9
X4.75Y-4.9
X4.85Y-4.9
X4.95Y-4.9
X5.05Y-4.9
X4.0Y-3.0
X4.0Y-3.1
X4.1Y-3.0
X4.1Y-3.1
X4.2Y-3.0
X4.2Y-3.1
X4.3Y-3.0
X4.3Y-3.1
X4.4Y-3.0
X4.4Y-3.1
X4.5Y-3.0
X4.5Y-3.1
X4.6Y-3.0
X4.6Y-3.1
X4.7Y-3.0
X4.7Y-3.1
X4.8Y-3.0
X4.8Y-3.1
X4.9Y-3.0
X4.9Y-3.1
X5.0Y-3.0
X5.0Y-3.1
X5.1Y-3.0
X5.1Y-3.1
X5.2Y-3.0
X5.2Y-3.1
X5.3Y-3.0
X5.3Y-3.1
X5.4Y-3.0
X5.4Y-3.1
X5.5Y-3.0
X5.5Y-3.1
X5.6Y-3.0
X5.6Y-3.1
X5.7Y-3.0
X5.7Y-3.1
X5.8Y-3.0
X5.8Y-3.1
X5.9Y-3.0
X5.9Y-3.1
T3
X4.425Y-3.35
X4.425Y-3.5272
X4.6809Y-3.35
X4.6809Y-3.5272
X5.9823Y-4.1
X6.0492Y-4.1
X6.1161Y-4.1
X6.1831Y-4.1
X6.25Y-4.1
T4
X3.8075Y-4.98
X3.81Y-3.05
X6.095Y-3.05
X6.095Y-4.98
T5
X6.8Y-4.55
X6.8Y-4.8236
X6.8Y-3.8632
X6.8Y-4.1368
T0
M30
