G04 #@! TF.GenerationSoftware,KiCad,Pcbnew,5.1.4+dfsg1-1*
G04 #@! TF.CreationDate,2020-01-07T17:42:00+09:00*
G04 #@! TF.ProjectId,Drone,44726f6e-652e-46b6-9963-61645f706362,rev?*
G04 #@! TF.SameCoordinates,Original*
G04 #@! TF.FileFunction,Paste,Bot*
G04 #@! TF.FilePolarity,Positive*
%FSLAX46Y46*%
G04 Gerber Fmt 4.6, Leading zero omitted, Abs format (unit mm)*
G04 Created by KiCad (PCBNEW 5.1.4+dfsg1-1) date 2020-01-07 17:42:00*
%MOMM*%
%LPD*%
G04 APERTURE LIST*
%ADD10C,0.100000*%
%ADD11C,1.050000*%
%ADD12R,4.550000X5.250000*%
%ADD13R,4.600000X1.100000*%
%ADD14C,1.000000*%
%ADD15R,1.400000X1.400000*%
%ADD16C,0.600000*%
%ADD17C,1.200000*%
%ADD18R,0.700000X0.900000*%
%ADD19C,1.150000*%
G04 APERTURE END LIST*
D10*
G36*
X103793229Y-104201264D02*
G01*
X103818711Y-104205044D01*
X103843700Y-104211303D01*
X103867954Y-104219982D01*
X103891242Y-104230996D01*
X103913337Y-104244239D01*
X103934028Y-104259585D01*
X103953116Y-104276884D01*
X103970415Y-104295972D01*
X103985761Y-104316663D01*
X103999004Y-104338758D01*
X104010018Y-104362046D01*
X104018697Y-104386300D01*
X104024956Y-104411289D01*
X104028736Y-104436771D01*
X104030000Y-104462500D01*
X104030000Y-105087500D01*
X104028736Y-105113229D01*
X104024956Y-105138711D01*
X104018697Y-105163700D01*
X104010018Y-105187954D01*
X103999004Y-105211242D01*
X103985761Y-105233337D01*
X103970415Y-105254028D01*
X103953116Y-105273116D01*
X103934028Y-105290415D01*
X103913337Y-105305761D01*
X103891242Y-105319004D01*
X103867954Y-105330018D01*
X103843700Y-105338697D01*
X103818711Y-105344956D01*
X103793229Y-105348736D01*
X103767500Y-105350000D01*
X103242500Y-105350000D01*
X103216771Y-105348736D01*
X103191289Y-105344956D01*
X103166300Y-105338697D01*
X103142046Y-105330018D01*
X103118758Y-105319004D01*
X103096663Y-105305761D01*
X103075972Y-105290415D01*
X103056884Y-105273116D01*
X103039585Y-105254028D01*
X103024239Y-105233337D01*
X103010996Y-105211242D01*
X102999982Y-105187954D01*
X102991303Y-105163700D01*
X102985044Y-105138711D01*
X102981264Y-105113229D01*
X102980000Y-105087500D01*
X102980000Y-104462500D01*
X102981264Y-104436771D01*
X102985044Y-104411289D01*
X102991303Y-104386300D01*
X102999982Y-104362046D01*
X103010996Y-104338758D01*
X103024239Y-104316663D01*
X103039585Y-104295972D01*
X103056884Y-104276884D01*
X103075972Y-104259585D01*
X103096663Y-104244239D01*
X103118758Y-104230996D01*
X103142046Y-104219982D01*
X103166300Y-104211303D01*
X103191289Y-104205044D01*
X103216771Y-104201264D01*
X103242500Y-104200000D01*
X103767500Y-104200000D01*
X103793229Y-104201264D01*
X103793229Y-104201264D01*
G37*
D11*
X103505000Y-104775000D03*
D10*
G36*
X103793229Y-102451264D02*
G01*
X103818711Y-102455044D01*
X103843700Y-102461303D01*
X103867954Y-102469982D01*
X103891242Y-102480996D01*
X103913337Y-102494239D01*
X103934028Y-102509585D01*
X103953116Y-102526884D01*
X103970415Y-102545972D01*
X103985761Y-102566663D01*
X103999004Y-102588758D01*
X104010018Y-102612046D01*
X104018697Y-102636300D01*
X104024956Y-102661289D01*
X104028736Y-102686771D01*
X104030000Y-102712500D01*
X104030000Y-103337500D01*
X104028736Y-103363229D01*
X104024956Y-103388711D01*
X104018697Y-103413700D01*
X104010018Y-103437954D01*
X103999004Y-103461242D01*
X103985761Y-103483337D01*
X103970415Y-103504028D01*
X103953116Y-103523116D01*
X103934028Y-103540415D01*
X103913337Y-103555761D01*
X103891242Y-103569004D01*
X103867954Y-103580018D01*
X103843700Y-103588697D01*
X103818711Y-103594956D01*
X103793229Y-103598736D01*
X103767500Y-103600000D01*
X103242500Y-103600000D01*
X103216771Y-103598736D01*
X103191289Y-103594956D01*
X103166300Y-103588697D01*
X103142046Y-103580018D01*
X103118758Y-103569004D01*
X103096663Y-103555761D01*
X103075972Y-103540415D01*
X103056884Y-103523116D01*
X103039585Y-103504028D01*
X103024239Y-103483337D01*
X103010996Y-103461242D01*
X102999982Y-103437954D01*
X102991303Y-103413700D01*
X102985044Y-103388711D01*
X102981264Y-103363229D01*
X102980000Y-103337500D01*
X102980000Y-102712500D01*
X102981264Y-102686771D01*
X102985044Y-102661289D01*
X102991303Y-102636300D01*
X102999982Y-102612046D01*
X103010996Y-102588758D01*
X103024239Y-102566663D01*
X103039585Y-102545972D01*
X103056884Y-102526884D01*
X103075972Y-102509585D01*
X103096663Y-102494239D01*
X103118758Y-102480996D01*
X103142046Y-102469982D01*
X103166300Y-102461303D01*
X103191289Y-102455044D01*
X103216771Y-102451264D01*
X103242500Y-102450000D01*
X103767500Y-102450000D01*
X103793229Y-102451264D01*
X103793229Y-102451264D01*
G37*
D11*
X103505000Y-103025000D03*
D10*
G36*
X106333229Y-103566264D02*
G01*
X106358711Y-103570044D01*
X106383700Y-103576303D01*
X106407954Y-103584982D01*
X106431242Y-103595996D01*
X106453337Y-103609239D01*
X106474028Y-103624585D01*
X106493116Y-103641884D01*
X106510415Y-103660972D01*
X106525761Y-103681663D01*
X106539004Y-103703758D01*
X106550018Y-103727046D01*
X106558697Y-103751300D01*
X106564956Y-103776289D01*
X106568736Y-103801771D01*
X106570000Y-103827500D01*
X106570000Y-104452500D01*
X106568736Y-104478229D01*
X106564956Y-104503711D01*
X106558697Y-104528700D01*
X106550018Y-104552954D01*
X106539004Y-104576242D01*
X106525761Y-104598337D01*
X106510415Y-104619028D01*
X106493116Y-104638116D01*
X106474028Y-104655415D01*
X106453337Y-104670761D01*
X106431242Y-104684004D01*
X106407954Y-104695018D01*
X106383700Y-104703697D01*
X106358711Y-104709956D01*
X106333229Y-104713736D01*
X106307500Y-104715000D01*
X105782500Y-104715000D01*
X105756771Y-104713736D01*
X105731289Y-104709956D01*
X105706300Y-104703697D01*
X105682046Y-104695018D01*
X105658758Y-104684004D01*
X105636663Y-104670761D01*
X105615972Y-104655415D01*
X105596884Y-104638116D01*
X105579585Y-104619028D01*
X105564239Y-104598337D01*
X105550996Y-104576242D01*
X105539982Y-104552954D01*
X105531303Y-104528700D01*
X105525044Y-104503711D01*
X105521264Y-104478229D01*
X105520000Y-104452500D01*
X105520000Y-103827500D01*
X105521264Y-103801771D01*
X105525044Y-103776289D01*
X105531303Y-103751300D01*
X105539982Y-103727046D01*
X105550996Y-103703758D01*
X105564239Y-103681663D01*
X105579585Y-103660972D01*
X105596884Y-103641884D01*
X105615972Y-103624585D01*
X105636663Y-103609239D01*
X105658758Y-103595996D01*
X105682046Y-103584982D01*
X105706300Y-103576303D01*
X105731289Y-103570044D01*
X105756771Y-103566264D01*
X105782500Y-103565000D01*
X106307500Y-103565000D01*
X106333229Y-103566264D01*
X106333229Y-103566264D01*
G37*
D11*
X106045000Y-104140000D03*
D10*
G36*
X106333229Y-105316264D02*
G01*
X106358711Y-105320044D01*
X106383700Y-105326303D01*
X106407954Y-105334982D01*
X106431242Y-105345996D01*
X106453337Y-105359239D01*
X106474028Y-105374585D01*
X106493116Y-105391884D01*
X106510415Y-105410972D01*
X106525761Y-105431663D01*
X106539004Y-105453758D01*
X106550018Y-105477046D01*
X106558697Y-105501300D01*
X106564956Y-105526289D01*
X106568736Y-105551771D01*
X106570000Y-105577500D01*
X106570000Y-106202500D01*
X106568736Y-106228229D01*
X106564956Y-106253711D01*
X106558697Y-106278700D01*
X106550018Y-106302954D01*
X106539004Y-106326242D01*
X106525761Y-106348337D01*
X106510415Y-106369028D01*
X106493116Y-106388116D01*
X106474028Y-106405415D01*
X106453337Y-106420761D01*
X106431242Y-106434004D01*
X106407954Y-106445018D01*
X106383700Y-106453697D01*
X106358711Y-106459956D01*
X106333229Y-106463736D01*
X106307500Y-106465000D01*
X105782500Y-106465000D01*
X105756771Y-106463736D01*
X105731289Y-106459956D01*
X105706300Y-106453697D01*
X105682046Y-106445018D01*
X105658758Y-106434004D01*
X105636663Y-106420761D01*
X105615972Y-106405415D01*
X105596884Y-106388116D01*
X105579585Y-106369028D01*
X105564239Y-106348337D01*
X105550996Y-106326242D01*
X105539982Y-106302954D01*
X105531303Y-106278700D01*
X105525044Y-106253711D01*
X105521264Y-106228229D01*
X105520000Y-106202500D01*
X105520000Y-105577500D01*
X105521264Y-105551771D01*
X105525044Y-105526289D01*
X105531303Y-105501300D01*
X105539982Y-105477046D01*
X105550996Y-105453758D01*
X105564239Y-105431663D01*
X105579585Y-105410972D01*
X105596884Y-105391884D01*
X105615972Y-105374585D01*
X105636663Y-105359239D01*
X105658758Y-105345996D01*
X105682046Y-105334982D01*
X105706300Y-105326303D01*
X105731289Y-105320044D01*
X105756771Y-105316264D01*
X105782500Y-105315000D01*
X106307500Y-105315000D01*
X106333229Y-105316264D01*
X106333229Y-105316264D01*
G37*
D11*
X106045000Y-105890000D03*
D12*
X157250000Y-97790000D03*
X152400000Y-92240000D03*
X157250000Y-92240000D03*
X152400000Y-97790000D03*
D13*
X163975000Y-97555000D03*
X163975000Y-95015000D03*
X163975000Y-92475000D03*
D10*
G36*
X161919504Y-106181204D02*
G01*
X161943773Y-106184804D01*
X161967571Y-106190765D01*
X161990671Y-106199030D01*
X162012849Y-106209520D01*
X162033893Y-106222133D01*
X162053598Y-106236747D01*
X162071777Y-106253223D01*
X162088253Y-106271402D01*
X162102867Y-106291107D01*
X162115480Y-106312151D01*
X162125970Y-106334329D01*
X162134235Y-106357429D01*
X162140196Y-106381227D01*
X162143796Y-106405496D01*
X162145000Y-106430000D01*
X162145000Y-106930000D01*
X162143796Y-106954504D01*
X162140196Y-106978773D01*
X162134235Y-107002571D01*
X162125970Y-107025671D01*
X162115480Y-107047849D01*
X162102867Y-107068893D01*
X162088253Y-107088598D01*
X162071777Y-107106777D01*
X162053598Y-107123253D01*
X162033893Y-107137867D01*
X162012849Y-107150480D01*
X161990671Y-107160970D01*
X161967571Y-107169235D01*
X161943773Y-107175196D01*
X161919504Y-107178796D01*
X161895000Y-107180000D01*
X161295000Y-107180000D01*
X161270496Y-107178796D01*
X161246227Y-107175196D01*
X161222429Y-107169235D01*
X161199329Y-107160970D01*
X161177151Y-107150480D01*
X161156107Y-107137867D01*
X161136402Y-107123253D01*
X161118223Y-107106777D01*
X161101747Y-107088598D01*
X161087133Y-107068893D01*
X161074520Y-107047849D01*
X161064030Y-107025671D01*
X161055765Y-107002571D01*
X161049804Y-106978773D01*
X161046204Y-106954504D01*
X161045000Y-106930000D01*
X161045000Y-106430000D01*
X161046204Y-106405496D01*
X161049804Y-106381227D01*
X161055765Y-106357429D01*
X161064030Y-106334329D01*
X161074520Y-106312151D01*
X161087133Y-106291107D01*
X161101747Y-106271402D01*
X161118223Y-106253223D01*
X161136402Y-106236747D01*
X161156107Y-106222133D01*
X161177151Y-106209520D01*
X161199329Y-106199030D01*
X161222429Y-106190765D01*
X161246227Y-106184804D01*
X161270496Y-106181204D01*
X161295000Y-106180000D01*
X161895000Y-106180000D01*
X161919504Y-106181204D01*
X161919504Y-106181204D01*
G37*
D14*
X161595000Y-106680000D03*
D10*
G36*
X161919504Y-104606204D02*
G01*
X161943773Y-104609804D01*
X161967571Y-104615765D01*
X161990671Y-104624030D01*
X162012849Y-104634520D01*
X162033893Y-104647133D01*
X162053598Y-104661747D01*
X162071777Y-104678223D01*
X162088253Y-104696402D01*
X162102867Y-104716107D01*
X162115480Y-104737151D01*
X162125970Y-104759329D01*
X162134235Y-104782429D01*
X162140196Y-104806227D01*
X162143796Y-104830496D01*
X162145000Y-104855000D01*
X162145000Y-105355000D01*
X162143796Y-105379504D01*
X162140196Y-105403773D01*
X162134235Y-105427571D01*
X162125970Y-105450671D01*
X162115480Y-105472849D01*
X162102867Y-105493893D01*
X162088253Y-105513598D01*
X162071777Y-105531777D01*
X162053598Y-105548253D01*
X162033893Y-105562867D01*
X162012849Y-105575480D01*
X161990671Y-105585970D01*
X161967571Y-105594235D01*
X161943773Y-105600196D01*
X161919504Y-105603796D01*
X161895000Y-105605000D01*
X161295000Y-105605000D01*
X161270496Y-105603796D01*
X161246227Y-105600196D01*
X161222429Y-105594235D01*
X161199329Y-105585970D01*
X161177151Y-105575480D01*
X161156107Y-105562867D01*
X161136402Y-105548253D01*
X161118223Y-105531777D01*
X161101747Y-105513598D01*
X161087133Y-105493893D01*
X161074520Y-105472849D01*
X161064030Y-105450671D01*
X161055765Y-105427571D01*
X161049804Y-105403773D01*
X161046204Y-105379504D01*
X161045000Y-105355000D01*
X161045000Y-104855000D01*
X161046204Y-104830496D01*
X161049804Y-104806227D01*
X161055765Y-104782429D01*
X161064030Y-104759329D01*
X161074520Y-104737151D01*
X161087133Y-104716107D01*
X161101747Y-104696402D01*
X161118223Y-104678223D01*
X161136402Y-104661747D01*
X161156107Y-104647133D01*
X161177151Y-104634520D01*
X161199329Y-104624030D01*
X161222429Y-104615765D01*
X161246227Y-104609804D01*
X161270496Y-104606204D01*
X161295000Y-104605000D01*
X161895000Y-104605000D01*
X161919504Y-104606204D01*
X161919504Y-104606204D01*
G37*
D14*
X161595000Y-105105000D03*
D15*
X160020000Y-107950000D03*
X160020000Y-110750000D03*
X157350000Y-110750000D03*
X157350000Y-107950000D03*
D10*
G36*
X96579703Y-100705722D02*
G01*
X96594264Y-100707882D01*
X96608543Y-100711459D01*
X96622403Y-100716418D01*
X96635710Y-100722712D01*
X96648336Y-100730280D01*
X96660159Y-100739048D01*
X96671066Y-100748934D01*
X96680952Y-100759841D01*
X96689720Y-100771664D01*
X96697288Y-100784290D01*
X96703582Y-100797597D01*
X96708541Y-100811457D01*
X96712118Y-100825736D01*
X96714278Y-100840297D01*
X96715000Y-100855000D01*
X96715000Y-101155000D01*
X96714278Y-101169703D01*
X96712118Y-101184264D01*
X96708541Y-101198543D01*
X96703582Y-101212403D01*
X96697288Y-101225710D01*
X96689720Y-101238336D01*
X96680952Y-101250159D01*
X96671066Y-101261066D01*
X96660159Y-101270952D01*
X96648336Y-101279720D01*
X96635710Y-101287288D01*
X96622403Y-101293582D01*
X96608543Y-101298541D01*
X96594264Y-101302118D01*
X96579703Y-101304278D01*
X96565000Y-101305000D01*
X95315000Y-101305000D01*
X95300297Y-101304278D01*
X95285736Y-101302118D01*
X95271457Y-101298541D01*
X95257597Y-101293582D01*
X95244290Y-101287288D01*
X95231664Y-101279720D01*
X95219841Y-101270952D01*
X95208934Y-101261066D01*
X95199048Y-101250159D01*
X95190280Y-101238336D01*
X95182712Y-101225710D01*
X95176418Y-101212403D01*
X95171459Y-101198543D01*
X95167882Y-101184264D01*
X95165722Y-101169703D01*
X95165000Y-101155000D01*
X95165000Y-100855000D01*
X95165722Y-100840297D01*
X95167882Y-100825736D01*
X95171459Y-100811457D01*
X95176418Y-100797597D01*
X95182712Y-100784290D01*
X95190280Y-100771664D01*
X95199048Y-100759841D01*
X95208934Y-100748934D01*
X95219841Y-100739048D01*
X95231664Y-100730280D01*
X95244290Y-100722712D01*
X95257597Y-100716418D01*
X95271457Y-100711459D01*
X95285736Y-100707882D01*
X95300297Y-100705722D01*
X95315000Y-100705000D01*
X96565000Y-100705000D01*
X96579703Y-100705722D01*
X96579703Y-100705722D01*
G37*
D16*
X95940000Y-101005000D03*
D10*
G36*
X96579703Y-101705722D02*
G01*
X96594264Y-101707882D01*
X96608543Y-101711459D01*
X96622403Y-101716418D01*
X96635710Y-101722712D01*
X96648336Y-101730280D01*
X96660159Y-101739048D01*
X96671066Y-101748934D01*
X96680952Y-101759841D01*
X96689720Y-101771664D01*
X96697288Y-101784290D01*
X96703582Y-101797597D01*
X96708541Y-101811457D01*
X96712118Y-101825736D01*
X96714278Y-101840297D01*
X96715000Y-101855000D01*
X96715000Y-102155000D01*
X96714278Y-102169703D01*
X96712118Y-102184264D01*
X96708541Y-102198543D01*
X96703582Y-102212403D01*
X96697288Y-102225710D01*
X96689720Y-102238336D01*
X96680952Y-102250159D01*
X96671066Y-102261066D01*
X96660159Y-102270952D01*
X96648336Y-102279720D01*
X96635710Y-102287288D01*
X96622403Y-102293582D01*
X96608543Y-102298541D01*
X96594264Y-102302118D01*
X96579703Y-102304278D01*
X96565000Y-102305000D01*
X95315000Y-102305000D01*
X95300297Y-102304278D01*
X95285736Y-102302118D01*
X95271457Y-102298541D01*
X95257597Y-102293582D01*
X95244290Y-102287288D01*
X95231664Y-102279720D01*
X95219841Y-102270952D01*
X95208934Y-102261066D01*
X95199048Y-102250159D01*
X95190280Y-102238336D01*
X95182712Y-102225710D01*
X95176418Y-102212403D01*
X95171459Y-102198543D01*
X95167882Y-102184264D01*
X95165722Y-102169703D01*
X95165000Y-102155000D01*
X95165000Y-101855000D01*
X95165722Y-101840297D01*
X95167882Y-101825736D01*
X95171459Y-101811457D01*
X95176418Y-101797597D01*
X95182712Y-101784290D01*
X95190280Y-101771664D01*
X95199048Y-101759841D01*
X95208934Y-101748934D01*
X95219841Y-101739048D01*
X95231664Y-101730280D01*
X95244290Y-101722712D01*
X95257597Y-101716418D01*
X95271457Y-101711459D01*
X95285736Y-101707882D01*
X95300297Y-101705722D01*
X95315000Y-101705000D01*
X96565000Y-101705000D01*
X96579703Y-101705722D01*
X96579703Y-101705722D01*
G37*
D16*
X95940000Y-102005000D03*
D10*
G36*
X96579703Y-102705722D02*
G01*
X96594264Y-102707882D01*
X96608543Y-102711459D01*
X96622403Y-102716418D01*
X96635710Y-102722712D01*
X96648336Y-102730280D01*
X96660159Y-102739048D01*
X96671066Y-102748934D01*
X96680952Y-102759841D01*
X96689720Y-102771664D01*
X96697288Y-102784290D01*
X96703582Y-102797597D01*
X96708541Y-102811457D01*
X96712118Y-102825736D01*
X96714278Y-102840297D01*
X96715000Y-102855000D01*
X96715000Y-103155000D01*
X96714278Y-103169703D01*
X96712118Y-103184264D01*
X96708541Y-103198543D01*
X96703582Y-103212403D01*
X96697288Y-103225710D01*
X96689720Y-103238336D01*
X96680952Y-103250159D01*
X96671066Y-103261066D01*
X96660159Y-103270952D01*
X96648336Y-103279720D01*
X96635710Y-103287288D01*
X96622403Y-103293582D01*
X96608543Y-103298541D01*
X96594264Y-103302118D01*
X96579703Y-103304278D01*
X96565000Y-103305000D01*
X95315000Y-103305000D01*
X95300297Y-103304278D01*
X95285736Y-103302118D01*
X95271457Y-103298541D01*
X95257597Y-103293582D01*
X95244290Y-103287288D01*
X95231664Y-103279720D01*
X95219841Y-103270952D01*
X95208934Y-103261066D01*
X95199048Y-103250159D01*
X95190280Y-103238336D01*
X95182712Y-103225710D01*
X95176418Y-103212403D01*
X95171459Y-103198543D01*
X95167882Y-103184264D01*
X95165722Y-103169703D01*
X95165000Y-103155000D01*
X95165000Y-102855000D01*
X95165722Y-102840297D01*
X95167882Y-102825736D01*
X95171459Y-102811457D01*
X95176418Y-102797597D01*
X95182712Y-102784290D01*
X95190280Y-102771664D01*
X95199048Y-102759841D01*
X95208934Y-102748934D01*
X95219841Y-102739048D01*
X95231664Y-102730280D01*
X95244290Y-102722712D01*
X95257597Y-102716418D01*
X95271457Y-102711459D01*
X95285736Y-102707882D01*
X95300297Y-102705722D01*
X95315000Y-102705000D01*
X96565000Y-102705000D01*
X96579703Y-102705722D01*
X96579703Y-102705722D01*
G37*
D16*
X95940000Y-103005000D03*
D10*
G36*
X96579703Y-103705722D02*
G01*
X96594264Y-103707882D01*
X96608543Y-103711459D01*
X96622403Y-103716418D01*
X96635710Y-103722712D01*
X96648336Y-103730280D01*
X96660159Y-103739048D01*
X96671066Y-103748934D01*
X96680952Y-103759841D01*
X96689720Y-103771664D01*
X96697288Y-103784290D01*
X96703582Y-103797597D01*
X96708541Y-103811457D01*
X96712118Y-103825736D01*
X96714278Y-103840297D01*
X96715000Y-103855000D01*
X96715000Y-104155000D01*
X96714278Y-104169703D01*
X96712118Y-104184264D01*
X96708541Y-104198543D01*
X96703582Y-104212403D01*
X96697288Y-104225710D01*
X96689720Y-104238336D01*
X96680952Y-104250159D01*
X96671066Y-104261066D01*
X96660159Y-104270952D01*
X96648336Y-104279720D01*
X96635710Y-104287288D01*
X96622403Y-104293582D01*
X96608543Y-104298541D01*
X96594264Y-104302118D01*
X96579703Y-104304278D01*
X96565000Y-104305000D01*
X95315000Y-104305000D01*
X95300297Y-104304278D01*
X95285736Y-104302118D01*
X95271457Y-104298541D01*
X95257597Y-104293582D01*
X95244290Y-104287288D01*
X95231664Y-104279720D01*
X95219841Y-104270952D01*
X95208934Y-104261066D01*
X95199048Y-104250159D01*
X95190280Y-104238336D01*
X95182712Y-104225710D01*
X95176418Y-104212403D01*
X95171459Y-104198543D01*
X95167882Y-104184264D01*
X95165722Y-104169703D01*
X95165000Y-104155000D01*
X95165000Y-103855000D01*
X95165722Y-103840297D01*
X95167882Y-103825736D01*
X95171459Y-103811457D01*
X95176418Y-103797597D01*
X95182712Y-103784290D01*
X95190280Y-103771664D01*
X95199048Y-103759841D01*
X95208934Y-103748934D01*
X95219841Y-103739048D01*
X95231664Y-103730280D01*
X95244290Y-103722712D01*
X95257597Y-103716418D01*
X95271457Y-103711459D01*
X95285736Y-103707882D01*
X95300297Y-103705722D01*
X95315000Y-103705000D01*
X96565000Y-103705000D01*
X96579703Y-103705722D01*
X96579703Y-103705722D01*
G37*
D16*
X95940000Y-104005000D03*
D10*
G36*
X96579703Y-104705722D02*
G01*
X96594264Y-104707882D01*
X96608543Y-104711459D01*
X96622403Y-104716418D01*
X96635710Y-104722712D01*
X96648336Y-104730280D01*
X96660159Y-104739048D01*
X96671066Y-104748934D01*
X96680952Y-104759841D01*
X96689720Y-104771664D01*
X96697288Y-104784290D01*
X96703582Y-104797597D01*
X96708541Y-104811457D01*
X96712118Y-104825736D01*
X96714278Y-104840297D01*
X96715000Y-104855000D01*
X96715000Y-105155000D01*
X96714278Y-105169703D01*
X96712118Y-105184264D01*
X96708541Y-105198543D01*
X96703582Y-105212403D01*
X96697288Y-105225710D01*
X96689720Y-105238336D01*
X96680952Y-105250159D01*
X96671066Y-105261066D01*
X96660159Y-105270952D01*
X96648336Y-105279720D01*
X96635710Y-105287288D01*
X96622403Y-105293582D01*
X96608543Y-105298541D01*
X96594264Y-105302118D01*
X96579703Y-105304278D01*
X96565000Y-105305000D01*
X95315000Y-105305000D01*
X95300297Y-105304278D01*
X95285736Y-105302118D01*
X95271457Y-105298541D01*
X95257597Y-105293582D01*
X95244290Y-105287288D01*
X95231664Y-105279720D01*
X95219841Y-105270952D01*
X95208934Y-105261066D01*
X95199048Y-105250159D01*
X95190280Y-105238336D01*
X95182712Y-105225710D01*
X95176418Y-105212403D01*
X95171459Y-105198543D01*
X95167882Y-105184264D01*
X95165722Y-105169703D01*
X95165000Y-105155000D01*
X95165000Y-104855000D01*
X95165722Y-104840297D01*
X95167882Y-104825736D01*
X95171459Y-104811457D01*
X95176418Y-104797597D01*
X95182712Y-104784290D01*
X95190280Y-104771664D01*
X95199048Y-104759841D01*
X95208934Y-104748934D01*
X95219841Y-104739048D01*
X95231664Y-104730280D01*
X95244290Y-104722712D01*
X95257597Y-104716418D01*
X95271457Y-104711459D01*
X95285736Y-104707882D01*
X95300297Y-104705722D01*
X95315000Y-104705000D01*
X96565000Y-104705000D01*
X96579703Y-104705722D01*
X96579703Y-104705722D01*
G37*
D16*
X95940000Y-105005000D03*
D10*
G36*
X96579703Y-105705722D02*
G01*
X96594264Y-105707882D01*
X96608543Y-105711459D01*
X96622403Y-105716418D01*
X96635710Y-105722712D01*
X96648336Y-105730280D01*
X96660159Y-105739048D01*
X96671066Y-105748934D01*
X96680952Y-105759841D01*
X96689720Y-105771664D01*
X96697288Y-105784290D01*
X96703582Y-105797597D01*
X96708541Y-105811457D01*
X96712118Y-105825736D01*
X96714278Y-105840297D01*
X96715000Y-105855000D01*
X96715000Y-106155000D01*
X96714278Y-106169703D01*
X96712118Y-106184264D01*
X96708541Y-106198543D01*
X96703582Y-106212403D01*
X96697288Y-106225710D01*
X96689720Y-106238336D01*
X96680952Y-106250159D01*
X96671066Y-106261066D01*
X96660159Y-106270952D01*
X96648336Y-106279720D01*
X96635710Y-106287288D01*
X96622403Y-106293582D01*
X96608543Y-106298541D01*
X96594264Y-106302118D01*
X96579703Y-106304278D01*
X96565000Y-106305000D01*
X95315000Y-106305000D01*
X95300297Y-106304278D01*
X95285736Y-106302118D01*
X95271457Y-106298541D01*
X95257597Y-106293582D01*
X95244290Y-106287288D01*
X95231664Y-106279720D01*
X95219841Y-106270952D01*
X95208934Y-106261066D01*
X95199048Y-106250159D01*
X95190280Y-106238336D01*
X95182712Y-106225710D01*
X95176418Y-106212403D01*
X95171459Y-106198543D01*
X95167882Y-106184264D01*
X95165722Y-106169703D01*
X95165000Y-106155000D01*
X95165000Y-105855000D01*
X95165722Y-105840297D01*
X95167882Y-105825736D01*
X95171459Y-105811457D01*
X95176418Y-105797597D01*
X95182712Y-105784290D01*
X95190280Y-105771664D01*
X95199048Y-105759841D01*
X95208934Y-105748934D01*
X95219841Y-105739048D01*
X95231664Y-105730280D01*
X95244290Y-105722712D01*
X95257597Y-105716418D01*
X95271457Y-105711459D01*
X95285736Y-105707882D01*
X95300297Y-105705722D01*
X95315000Y-105705000D01*
X96565000Y-105705000D01*
X96579703Y-105705722D01*
X96579703Y-105705722D01*
G37*
D16*
X95940000Y-106005000D03*
D10*
G36*
X94089505Y-99106204D02*
G01*
X94113773Y-99109804D01*
X94137572Y-99115765D01*
X94160671Y-99124030D01*
X94182850Y-99134520D01*
X94203893Y-99147132D01*
X94223599Y-99161747D01*
X94241777Y-99178223D01*
X94258253Y-99196401D01*
X94272868Y-99216107D01*
X94285480Y-99237150D01*
X94295970Y-99259329D01*
X94304235Y-99282428D01*
X94310196Y-99306227D01*
X94313796Y-99330495D01*
X94315000Y-99354999D01*
X94315000Y-100055001D01*
X94313796Y-100079505D01*
X94310196Y-100103773D01*
X94304235Y-100127572D01*
X94295970Y-100150671D01*
X94285480Y-100172850D01*
X94272868Y-100193893D01*
X94258253Y-100213599D01*
X94241777Y-100231777D01*
X94223599Y-100248253D01*
X94203893Y-100262868D01*
X94182850Y-100275480D01*
X94160671Y-100285970D01*
X94137572Y-100294235D01*
X94113773Y-100300196D01*
X94089505Y-100303796D01*
X94065001Y-100305000D01*
X92764999Y-100305000D01*
X92740495Y-100303796D01*
X92716227Y-100300196D01*
X92692428Y-100294235D01*
X92669329Y-100285970D01*
X92647150Y-100275480D01*
X92626107Y-100262868D01*
X92606401Y-100248253D01*
X92588223Y-100231777D01*
X92571747Y-100213599D01*
X92557132Y-100193893D01*
X92544520Y-100172850D01*
X92534030Y-100150671D01*
X92525765Y-100127572D01*
X92519804Y-100103773D01*
X92516204Y-100079505D01*
X92515000Y-100055001D01*
X92515000Y-99354999D01*
X92516204Y-99330495D01*
X92519804Y-99306227D01*
X92525765Y-99282428D01*
X92534030Y-99259329D01*
X92544520Y-99237150D01*
X92557132Y-99216107D01*
X92571747Y-99196401D01*
X92588223Y-99178223D01*
X92606401Y-99161747D01*
X92626107Y-99147132D01*
X92647150Y-99134520D01*
X92669329Y-99124030D01*
X92692428Y-99115765D01*
X92716227Y-99109804D01*
X92740495Y-99106204D01*
X92764999Y-99105000D01*
X94065001Y-99105000D01*
X94089505Y-99106204D01*
X94089505Y-99106204D01*
G37*
D17*
X93415000Y-99705000D03*
D10*
G36*
X94089505Y-106706204D02*
G01*
X94113773Y-106709804D01*
X94137572Y-106715765D01*
X94160671Y-106724030D01*
X94182850Y-106734520D01*
X94203893Y-106747132D01*
X94223599Y-106761747D01*
X94241777Y-106778223D01*
X94258253Y-106796401D01*
X94272868Y-106816107D01*
X94285480Y-106837150D01*
X94295970Y-106859329D01*
X94304235Y-106882428D01*
X94310196Y-106906227D01*
X94313796Y-106930495D01*
X94315000Y-106954999D01*
X94315000Y-107655001D01*
X94313796Y-107679505D01*
X94310196Y-107703773D01*
X94304235Y-107727572D01*
X94295970Y-107750671D01*
X94285480Y-107772850D01*
X94272868Y-107793893D01*
X94258253Y-107813599D01*
X94241777Y-107831777D01*
X94223599Y-107848253D01*
X94203893Y-107862868D01*
X94182850Y-107875480D01*
X94160671Y-107885970D01*
X94137572Y-107894235D01*
X94113773Y-107900196D01*
X94089505Y-107903796D01*
X94065001Y-107905000D01*
X92764999Y-107905000D01*
X92740495Y-107903796D01*
X92716227Y-107900196D01*
X92692428Y-107894235D01*
X92669329Y-107885970D01*
X92647150Y-107875480D01*
X92626107Y-107862868D01*
X92606401Y-107848253D01*
X92588223Y-107831777D01*
X92571747Y-107813599D01*
X92557132Y-107793893D01*
X92544520Y-107772850D01*
X92534030Y-107750671D01*
X92525765Y-107727572D01*
X92519804Y-107703773D01*
X92516204Y-107679505D01*
X92515000Y-107655001D01*
X92515000Y-106954999D01*
X92516204Y-106930495D01*
X92519804Y-106906227D01*
X92525765Y-106882428D01*
X92534030Y-106859329D01*
X92544520Y-106837150D01*
X92557132Y-106816107D01*
X92571747Y-106796401D01*
X92588223Y-106778223D01*
X92606401Y-106761747D01*
X92626107Y-106747132D01*
X92647150Y-106734520D01*
X92669329Y-106724030D01*
X92692428Y-106715765D01*
X92716227Y-106709804D01*
X92740495Y-106706204D01*
X92764999Y-106705000D01*
X94065001Y-106705000D01*
X94089505Y-106706204D01*
X94089505Y-106706204D01*
G37*
D17*
X93415000Y-107305000D03*
D15*
X153670000Y-83185000D03*
X153670000Y-85985000D03*
X156845000Y-83185000D03*
X156845000Y-85985000D03*
X153670000Y-106550000D03*
X153670000Y-109350000D03*
D18*
X151130000Y-109000000D03*
X151130000Y-106900000D03*
D10*
G36*
X168590680Y-92086384D02*
G01*
X168618588Y-92090524D01*
X168645957Y-92097380D01*
X168672521Y-92106885D01*
X168698027Y-92118948D01*
X168722226Y-92133452D01*
X168744888Y-92150259D01*
X168765793Y-92169207D01*
X168784741Y-92190112D01*
X168801548Y-92212774D01*
X168816052Y-92236973D01*
X168828115Y-92262479D01*
X168837620Y-92289043D01*
X168844476Y-92316412D01*
X168848616Y-92344320D01*
X168850000Y-92372500D01*
X168850000Y-93047500D01*
X168848616Y-93075680D01*
X168844476Y-93103588D01*
X168837620Y-93130957D01*
X168828115Y-93157521D01*
X168816052Y-93183027D01*
X168801548Y-93207226D01*
X168784741Y-93229888D01*
X168765793Y-93250793D01*
X168744888Y-93269741D01*
X168722226Y-93286548D01*
X168698027Y-93301052D01*
X168672521Y-93313115D01*
X168645957Y-93322620D01*
X168618588Y-93329476D01*
X168590680Y-93333616D01*
X168562500Y-93335000D01*
X167987500Y-93335000D01*
X167959320Y-93333616D01*
X167931412Y-93329476D01*
X167904043Y-93322620D01*
X167877479Y-93313115D01*
X167851973Y-93301052D01*
X167827774Y-93286548D01*
X167805112Y-93269741D01*
X167784207Y-93250793D01*
X167765259Y-93229888D01*
X167748452Y-93207226D01*
X167733948Y-93183027D01*
X167721885Y-93157521D01*
X167712380Y-93130957D01*
X167705524Y-93103588D01*
X167701384Y-93075680D01*
X167700000Y-93047500D01*
X167700000Y-92372500D01*
X167701384Y-92344320D01*
X167705524Y-92316412D01*
X167712380Y-92289043D01*
X167721885Y-92262479D01*
X167733948Y-92236973D01*
X167748452Y-92212774D01*
X167765259Y-92190112D01*
X167784207Y-92169207D01*
X167805112Y-92150259D01*
X167827774Y-92133452D01*
X167851973Y-92118948D01*
X167877479Y-92106885D01*
X167904043Y-92097380D01*
X167931412Y-92090524D01*
X167959320Y-92086384D01*
X167987500Y-92085000D01*
X168562500Y-92085000D01*
X168590680Y-92086384D01*
X168590680Y-92086384D01*
G37*
D19*
X168275000Y-92710000D03*
D10*
G36*
X168590680Y-93836384D02*
G01*
X168618588Y-93840524D01*
X168645957Y-93847380D01*
X168672521Y-93856885D01*
X168698027Y-93868948D01*
X168722226Y-93883452D01*
X168744888Y-93900259D01*
X168765793Y-93919207D01*
X168784741Y-93940112D01*
X168801548Y-93962774D01*
X168816052Y-93986973D01*
X168828115Y-94012479D01*
X168837620Y-94039043D01*
X168844476Y-94066412D01*
X168848616Y-94094320D01*
X168850000Y-94122500D01*
X168850000Y-94797500D01*
X168848616Y-94825680D01*
X168844476Y-94853588D01*
X168837620Y-94880957D01*
X168828115Y-94907521D01*
X168816052Y-94933027D01*
X168801548Y-94957226D01*
X168784741Y-94979888D01*
X168765793Y-95000793D01*
X168744888Y-95019741D01*
X168722226Y-95036548D01*
X168698027Y-95051052D01*
X168672521Y-95063115D01*
X168645957Y-95072620D01*
X168618588Y-95079476D01*
X168590680Y-95083616D01*
X168562500Y-95085000D01*
X167987500Y-95085000D01*
X167959320Y-95083616D01*
X167931412Y-95079476D01*
X167904043Y-95072620D01*
X167877479Y-95063115D01*
X167851973Y-95051052D01*
X167827774Y-95036548D01*
X167805112Y-95019741D01*
X167784207Y-95000793D01*
X167765259Y-94979888D01*
X167748452Y-94957226D01*
X167733948Y-94933027D01*
X167721885Y-94907521D01*
X167712380Y-94880957D01*
X167705524Y-94853588D01*
X167701384Y-94825680D01*
X167700000Y-94797500D01*
X167700000Y-94122500D01*
X167701384Y-94094320D01*
X167705524Y-94066412D01*
X167712380Y-94039043D01*
X167721885Y-94012479D01*
X167733948Y-93986973D01*
X167748452Y-93962774D01*
X167765259Y-93940112D01*
X167784207Y-93919207D01*
X167805112Y-93900259D01*
X167827774Y-93883452D01*
X167851973Y-93868948D01*
X167877479Y-93856885D01*
X167904043Y-93847380D01*
X167931412Y-93840524D01*
X167959320Y-93836384D01*
X167987500Y-93835000D01*
X168562500Y-93835000D01*
X168590680Y-93836384D01*
X168590680Y-93836384D01*
G37*
D19*
X168275000Y-94460000D03*
D10*
G36*
X98713229Y-100391264D02*
G01*
X98738711Y-100395044D01*
X98763700Y-100401303D01*
X98787954Y-100409982D01*
X98811242Y-100420996D01*
X98833337Y-100434239D01*
X98854028Y-100449585D01*
X98873116Y-100466884D01*
X98890415Y-100485972D01*
X98905761Y-100506663D01*
X98919004Y-100528758D01*
X98930018Y-100552046D01*
X98938697Y-100576300D01*
X98944956Y-100601289D01*
X98948736Y-100626771D01*
X98950000Y-100652500D01*
X98950000Y-101277500D01*
X98948736Y-101303229D01*
X98944956Y-101328711D01*
X98938697Y-101353700D01*
X98930018Y-101377954D01*
X98919004Y-101401242D01*
X98905761Y-101423337D01*
X98890415Y-101444028D01*
X98873116Y-101463116D01*
X98854028Y-101480415D01*
X98833337Y-101495761D01*
X98811242Y-101509004D01*
X98787954Y-101520018D01*
X98763700Y-101528697D01*
X98738711Y-101534956D01*
X98713229Y-101538736D01*
X98687500Y-101540000D01*
X98162500Y-101540000D01*
X98136771Y-101538736D01*
X98111289Y-101534956D01*
X98086300Y-101528697D01*
X98062046Y-101520018D01*
X98038758Y-101509004D01*
X98016663Y-101495761D01*
X97995972Y-101480415D01*
X97976884Y-101463116D01*
X97959585Y-101444028D01*
X97944239Y-101423337D01*
X97930996Y-101401242D01*
X97919982Y-101377954D01*
X97911303Y-101353700D01*
X97905044Y-101328711D01*
X97901264Y-101303229D01*
X97900000Y-101277500D01*
X97900000Y-100652500D01*
X97901264Y-100626771D01*
X97905044Y-100601289D01*
X97911303Y-100576300D01*
X97919982Y-100552046D01*
X97930996Y-100528758D01*
X97944239Y-100506663D01*
X97959585Y-100485972D01*
X97976884Y-100466884D01*
X97995972Y-100449585D01*
X98016663Y-100434239D01*
X98038758Y-100420996D01*
X98062046Y-100409982D01*
X98086300Y-100401303D01*
X98111289Y-100395044D01*
X98136771Y-100391264D01*
X98162500Y-100390000D01*
X98687500Y-100390000D01*
X98713229Y-100391264D01*
X98713229Y-100391264D01*
G37*
D11*
X98425000Y-100965000D03*
D10*
G36*
X98713229Y-102141264D02*
G01*
X98738711Y-102145044D01*
X98763700Y-102151303D01*
X98787954Y-102159982D01*
X98811242Y-102170996D01*
X98833337Y-102184239D01*
X98854028Y-102199585D01*
X98873116Y-102216884D01*
X98890415Y-102235972D01*
X98905761Y-102256663D01*
X98919004Y-102278758D01*
X98930018Y-102302046D01*
X98938697Y-102326300D01*
X98944956Y-102351289D01*
X98948736Y-102376771D01*
X98950000Y-102402500D01*
X98950000Y-103027500D01*
X98948736Y-103053229D01*
X98944956Y-103078711D01*
X98938697Y-103103700D01*
X98930018Y-103127954D01*
X98919004Y-103151242D01*
X98905761Y-103173337D01*
X98890415Y-103194028D01*
X98873116Y-103213116D01*
X98854028Y-103230415D01*
X98833337Y-103245761D01*
X98811242Y-103259004D01*
X98787954Y-103270018D01*
X98763700Y-103278697D01*
X98738711Y-103284956D01*
X98713229Y-103288736D01*
X98687500Y-103290000D01*
X98162500Y-103290000D01*
X98136771Y-103288736D01*
X98111289Y-103284956D01*
X98086300Y-103278697D01*
X98062046Y-103270018D01*
X98038758Y-103259004D01*
X98016663Y-103245761D01*
X97995972Y-103230415D01*
X97976884Y-103213116D01*
X97959585Y-103194028D01*
X97944239Y-103173337D01*
X97930996Y-103151242D01*
X97919982Y-103127954D01*
X97911303Y-103103700D01*
X97905044Y-103078711D01*
X97901264Y-103053229D01*
X97900000Y-103027500D01*
X97900000Y-102402500D01*
X97901264Y-102376771D01*
X97905044Y-102351289D01*
X97911303Y-102326300D01*
X97919982Y-102302046D01*
X97930996Y-102278758D01*
X97944239Y-102256663D01*
X97959585Y-102235972D01*
X97976884Y-102216884D01*
X97995972Y-102199585D01*
X98016663Y-102184239D01*
X98038758Y-102170996D01*
X98062046Y-102159982D01*
X98086300Y-102151303D01*
X98111289Y-102145044D01*
X98136771Y-102141264D01*
X98162500Y-102140000D01*
X98687500Y-102140000D01*
X98713229Y-102141264D01*
X98713229Y-102141264D01*
G37*
D11*
X98425000Y-102715000D03*
D10*
G36*
X101253229Y-102931264D02*
G01*
X101278711Y-102935044D01*
X101303700Y-102941303D01*
X101327954Y-102949982D01*
X101351242Y-102960996D01*
X101373337Y-102974239D01*
X101394028Y-102989585D01*
X101413116Y-103006884D01*
X101430415Y-103025972D01*
X101445761Y-103046663D01*
X101459004Y-103068758D01*
X101470018Y-103092046D01*
X101478697Y-103116300D01*
X101484956Y-103141289D01*
X101488736Y-103166771D01*
X101490000Y-103192500D01*
X101490000Y-103817500D01*
X101488736Y-103843229D01*
X101484956Y-103868711D01*
X101478697Y-103893700D01*
X101470018Y-103917954D01*
X101459004Y-103941242D01*
X101445761Y-103963337D01*
X101430415Y-103984028D01*
X101413116Y-104003116D01*
X101394028Y-104020415D01*
X101373337Y-104035761D01*
X101351242Y-104049004D01*
X101327954Y-104060018D01*
X101303700Y-104068697D01*
X101278711Y-104074956D01*
X101253229Y-104078736D01*
X101227500Y-104080000D01*
X100702500Y-104080000D01*
X100676771Y-104078736D01*
X100651289Y-104074956D01*
X100626300Y-104068697D01*
X100602046Y-104060018D01*
X100578758Y-104049004D01*
X100556663Y-104035761D01*
X100535972Y-104020415D01*
X100516884Y-104003116D01*
X100499585Y-103984028D01*
X100484239Y-103963337D01*
X100470996Y-103941242D01*
X100459982Y-103917954D01*
X100451303Y-103893700D01*
X100445044Y-103868711D01*
X100441264Y-103843229D01*
X100440000Y-103817500D01*
X100440000Y-103192500D01*
X100441264Y-103166771D01*
X100445044Y-103141289D01*
X100451303Y-103116300D01*
X100459982Y-103092046D01*
X100470996Y-103068758D01*
X100484239Y-103046663D01*
X100499585Y-103025972D01*
X100516884Y-103006884D01*
X100535972Y-102989585D01*
X100556663Y-102974239D01*
X100578758Y-102960996D01*
X100602046Y-102949982D01*
X100626300Y-102941303D01*
X100651289Y-102935044D01*
X100676771Y-102931264D01*
X100702500Y-102930000D01*
X101227500Y-102930000D01*
X101253229Y-102931264D01*
X101253229Y-102931264D01*
G37*
D11*
X100965000Y-103505000D03*
D10*
G36*
X101253229Y-101181264D02*
G01*
X101278711Y-101185044D01*
X101303700Y-101191303D01*
X101327954Y-101199982D01*
X101351242Y-101210996D01*
X101373337Y-101224239D01*
X101394028Y-101239585D01*
X101413116Y-101256884D01*
X101430415Y-101275972D01*
X101445761Y-101296663D01*
X101459004Y-101318758D01*
X101470018Y-101342046D01*
X101478697Y-101366300D01*
X101484956Y-101391289D01*
X101488736Y-101416771D01*
X101490000Y-101442500D01*
X101490000Y-102067500D01*
X101488736Y-102093229D01*
X101484956Y-102118711D01*
X101478697Y-102143700D01*
X101470018Y-102167954D01*
X101459004Y-102191242D01*
X101445761Y-102213337D01*
X101430415Y-102234028D01*
X101413116Y-102253116D01*
X101394028Y-102270415D01*
X101373337Y-102285761D01*
X101351242Y-102299004D01*
X101327954Y-102310018D01*
X101303700Y-102318697D01*
X101278711Y-102324956D01*
X101253229Y-102328736D01*
X101227500Y-102330000D01*
X100702500Y-102330000D01*
X100676771Y-102328736D01*
X100651289Y-102324956D01*
X100626300Y-102318697D01*
X100602046Y-102310018D01*
X100578758Y-102299004D01*
X100556663Y-102285761D01*
X100535972Y-102270415D01*
X100516884Y-102253116D01*
X100499585Y-102234028D01*
X100484239Y-102213337D01*
X100470996Y-102191242D01*
X100459982Y-102167954D01*
X100451303Y-102143700D01*
X100445044Y-102118711D01*
X100441264Y-102093229D01*
X100440000Y-102067500D01*
X100440000Y-101442500D01*
X100441264Y-101416771D01*
X100445044Y-101391289D01*
X100451303Y-101366300D01*
X100459982Y-101342046D01*
X100470996Y-101318758D01*
X100484239Y-101296663D01*
X100499585Y-101275972D01*
X100516884Y-101256884D01*
X100535972Y-101239585D01*
X100556663Y-101224239D01*
X100578758Y-101210996D01*
X100602046Y-101199982D01*
X100626300Y-101191303D01*
X100651289Y-101185044D01*
X100676771Y-101181264D01*
X100702500Y-101180000D01*
X101227500Y-101180000D01*
X101253229Y-101181264D01*
X101253229Y-101181264D01*
G37*
D11*
X100965000Y-101755000D03*
M02*
